%TF.GenerationSoftware,KiCad,Pcbnew,9.0.7*%
%TF.CreationDate,2026-02-02T08:30:39-05:00*%
%TF.ProjectId,mfos_vca_panel,6d666f73-5f76-4636-915f-70616e656c2e,rev?*%
%TF.SameCoordinates,Original*%
%TF.FileFunction,Legend,Top*%
%TF.FilePolarity,Positive*%
%FSLAX46Y46*%
G04 Gerber Fmt 4.6, Leading zero omitted, Abs format (unit mm)*
G04 Created by KiCad (PCBNEW 9.0.7) date 2026-02-02 08:30:39*
%MOMM*%
%LPD*%
G01*
G04 APERTURE LIST*
%ADD10C,0.250000*%
%ADD11C,0.100000*%
%ADD12C,0.200000*%
G04 APERTURE END LIST*
D10*
G36*
X149605878Y-50275636D02*
G01*
X150607640Y-50275636D01*
X150607640Y-50074135D01*
X149829726Y-50074135D01*
X149829726Y-48219111D01*
X149605878Y-48219111D01*
X149605878Y-50275636D01*
G37*
G36*
X151541826Y-48201858D02*
G01*
X151631628Y-48217645D01*
X151717566Y-48246423D01*
X151795393Y-48290430D01*
X151863443Y-48348370D01*
X151919835Y-48419146D01*
X151962240Y-48499298D01*
X151988467Y-48585597D01*
X152002134Y-48675345D01*
X152006663Y-48764749D01*
X152006663Y-49729997D01*
X152002137Y-49819312D01*
X151988467Y-49909149D01*
X151962240Y-49995448D01*
X151919835Y-50075601D01*
X151863443Y-50146376D01*
X151795393Y-50204317D01*
X151717563Y-50248294D01*
X151631628Y-50276979D01*
X151541826Y-50292766D01*
X151452598Y-50297984D01*
X151363354Y-50292768D01*
X151273446Y-50276979D01*
X151187615Y-50248300D01*
X151109803Y-50204317D01*
X151042029Y-50146315D01*
X150986705Y-50075601D01*
X150945082Y-49995569D01*
X150918073Y-49909149D01*
X150903389Y-49819279D01*
X150898533Y-49729997D01*
X150898533Y-48764749D01*
X151122382Y-48764749D01*
X151122382Y-49729997D01*
X151126555Y-49799558D01*
X151139112Y-49868605D01*
X151163242Y-49933535D01*
X151202127Y-49991703D01*
X151253504Y-50038847D01*
X151315456Y-50071448D01*
X151383529Y-50090354D01*
X151452598Y-50096605D01*
X151521667Y-50090354D01*
X151589740Y-50071448D01*
X151651692Y-50038847D01*
X151703069Y-49991703D01*
X151741925Y-49933532D01*
X151765962Y-49868605D01*
X151778611Y-49799555D01*
X151782814Y-49729997D01*
X151782814Y-48764749D01*
X151778609Y-48695208D01*
X151765962Y-48626264D01*
X151741974Y-48561006D01*
X151703069Y-48501700D01*
X151651534Y-48453712D01*
X151589740Y-48421954D01*
X151521721Y-48404068D01*
X151452598Y-48398141D01*
X151383475Y-48404068D01*
X151315456Y-48421954D01*
X151253662Y-48453712D01*
X151202127Y-48501700D01*
X151163193Y-48561003D01*
X151139112Y-48626264D01*
X151126557Y-48695205D01*
X151122382Y-48764749D01*
X150898533Y-48764749D01*
X150903392Y-48675377D01*
X150918073Y-48585597D01*
X150945082Y-48499177D01*
X150986705Y-48419146D01*
X151042029Y-48348432D01*
X151109803Y-48290430D01*
X151187612Y-48246417D01*
X151273446Y-48217645D01*
X151363354Y-48201856D01*
X151452598Y-48196640D01*
X151541826Y-48201858D01*
G37*
G36*
X152764915Y-50297984D02*
G01*
X152861115Y-50287919D01*
X152955180Y-50257439D01*
X153038508Y-50206308D01*
X153103435Y-50134341D01*
X153151904Y-50048913D01*
X153184646Y-49959463D01*
X153184646Y-50275636D01*
X153383216Y-50275636D01*
X153383216Y-49156393D01*
X152851621Y-49156393D01*
X152851621Y-49357893D01*
X153159367Y-49357893D01*
X153159367Y-49729997D01*
X153143980Y-49864331D01*
X153122312Y-49928670D01*
X153088048Y-49987429D01*
X153041603Y-50035992D01*
X152983146Y-50069983D01*
X152917796Y-50090008D01*
X152851621Y-50096605D01*
X152782552Y-50090354D01*
X152714479Y-50071448D01*
X152652527Y-50038847D01*
X152601150Y-49991703D01*
X152562265Y-49933535D01*
X152538135Y-49868605D01*
X152525578Y-49799558D01*
X152521405Y-49729997D01*
X152521405Y-48764749D01*
X152525580Y-48695205D01*
X152538135Y-48626264D01*
X152561982Y-48561138D01*
X152599807Y-48503043D01*
X152649873Y-48455793D01*
X152710327Y-48423298D01*
X152777141Y-48404422D01*
X152846003Y-48398141D01*
X152925888Y-48406148D01*
X153004151Y-48430381D01*
X153072168Y-48472861D01*
X153122975Y-48536626D01*
X153154606Y-48612984D01*
X153164985Y-48691965D01*
X153164985Y-48694774D01*
X153388833Y-48694774D01*
X153388833Y-48691965D01*
X153379105Y-48589846D01*
X153349632Y-48489121D01*
X153300332Y-48397025D01*
X153230808Y-48319861D01*
X153145614Y-48260618D01*
X153050313Y-48223263D01*
X152948784Y-48203286D01*
X152846003Y-48196640D01*
X152756957Y-48201876D01*
X152668317Y-48217645D01*
X152583809Y-48246668D01*
X152506017Y-48291895D01*
X152438179Y-48350971D01*
X152382919Y-48421954D01*
X152341590Y-48501828D01*
X152315752Y-48587063D01*
X152302102Y-48675541D01*
X152297556Y-48764749D01*
X152297556Y-49729997D01*
X152303113Y-49833274D01*
X152319904Y-49937115D01*
X152352117Y-50036336D01*
X152403924Y-50127380D01*
X152474549Y-50202894D01*
X152563415Y-50256096D01*
X152663105Y-50287583D01*
X152764915Y-50297984D01*
G37*
D11*
X155952598Y-129945636D02*
X155953165Y-134000000D01*
X155953235Y-134000000D01*
X155953235Y-135500000D01*
X146956434Y-135500000D01*
X146956434Y-134500000D01*
X146956013Y-134000000D01*
X146953907Y-131500000D01*
X149328656Y-131500000D01*
X149328656Y-134000000D01*
X153558195Y-134000000D01*
X153558195Y-131500000D01*
X149328656Y-131500000D01*
X146953907Y-131500000D01*
X146952598Y-129945636D01*
X146952598Y-120945636D01*
X155952598Y-120945636D01*
X155952598Y-129945636D01*
G36*
X155952598Y-129945636D02*
G01*
X155953165Y-134000000D01*
X155953235Y-134000000D01*
X155953235Y-135500000D01*
X146956434Y-135500000D01*
X146956434Y-134500000D01*
X146956013Y-134000000D01*
X146953907Y-131500000D01*
X149328656Y-131500000D01*
X149328656Y-134000000D01*
X153558195Y-134000000D01*
X153558195Y-131500000D01*
X149328656Y-131500000D01*
X146953907Y-131500000D01*
X146952598Y-129945636D01*
X146952598Y-120945636D01*
X155952598Y-120945636D01*
X155952598Y-129945636D01*
G37*
D12*
X127415134Y-113063268D02*
G75*
G02*
X136415138Y-113063261I4499996J7794228D01*
G01*
X156453000Y-98445636D02*
X156453000Y-112445636D01*
X156453000Y-112445636D02*
G75*
G02*
X155453000Y-113445700I-1000100J36D01*
G01*
X156453000Y-50445636D02*
X156453000Y-64445636D01*
X146453000Y-50445636D02*
G75*
G02*
X147453000Y-49445600I1000000J36D01*
G01*
X146453000Y-64445636D02*
X146453000Y-50445636D01*
X155453000Y-49445636D02*
G75*
G02*
X156453064Y-50445636I0J-1000064D01*
G01*
X118000000Y-91750000D02*
X159000000Y-91750000D01*
X156453000Y-64445636D02*
G75*
G02*
X155453000Y-65445700I-1000100J36D01*
G01*
X127415134Y-65063268D02*
G75*
G02*
X136415138Y-65063261I4499996J7794228D01*
G01*
X146453000Y-112445636D02*
X146453000Y-98445636D01*
X147453000Y-65445636D02*
G75*
G02*
X146453064Y-64445636I0J999936D01*
G01*
X146453000Y-98445636D02*
G75*
G02*
X147453000Y-97445600I1000000J36D01*
G01*
X155453000Y-97445636D02*
G75*
G02*
X156453064Y-98445636I0J-1000064D01*
G01*
X147453000Y-113445636D02*
G75*
G02*
X146453064Y-112445636I0J999936D01*
G01*
D10*
G36*
X127335782Y-37745000D02*
G01*
X128838425Y-37745000D01*
X128838425Y-37442749D01*
X127671555Y-37442749D01*
X127671555Y-34660212D01*
X127335782Y-34660212D01*
X127335782Y-37745000D01*
G37*
G36*
X129253882Y-37745000D02*
G01*
X129589655Y-37745000D01*
X129589655Y-37128042D01*
X129577015Y-36467121D01*
X129539097Y-35808215D01*
X129505758Y-35146927D01*
X129984229Y-36817365D01*
X130227495Y-36817365D01*
X130705967Y-35146927D01*
X130672445Y-35808215D01*
X130634709Y-36467121D01*
X130622070Y-37128042D01*
X130622070Y-37745000D01*
X130957842Y-37745000D01*
X130957842Y-34660212D01*
X130601187Y-34660212D01*
X130105862Y-36393482D01*
X129610538Y-34660212D01*
X129253882Y-34660212D01*
X129253882Y-37745000D01*
G37*
G36*
X132162448Y-37745000D02*
G01*
X132498221Y-37745000D01*
X132498221Y-34660212D01*
X132162448Y-34660212D01*
X131398579Y-35184846D01*
X131587439Y-35432325D01*
X132162448Y-35037934D01*
X132162448Y-37745000D01*
G37*
G36*
X134311358Y-37778522D02*
G01*
X134481157Y-37766420D01*
X134644932Y-37730345D01*
X134796562Y-37663966D01*
X134930330Y-37560352D01*
X135037515Y-37428346D01*
X135110765Y-37276969D01*
X135153424Y-37113440D01*
X135167551Y-36947608D01*
X135150418Y-36777891D01*
X135098308Y-36609637D01*
X135012783Y-36455427D01*
X134894610Y-36324239D01*
X134752391Y-36219501D01*
X134596756Y-36146003D01*
X134735948Y-36074327D01*
X134861087Y-35976010D01*
X134964443Y-35854818D01*
X135039507Y-35713693D01*
X135085196Y-35560070D01*
X135100323Y-35403016D01*
X135087232Y-35249584D01*
X135047750Y-35098750D01*
X134980808Y-34958445D01*
X134884168Y-34834419D01*
X134762754Y-34736039D01*
X134621851Y-34672669D01*
X134469382Y-34637997D01*
X134315571Y-34626507D01*
X134165400Y-34636977D01*
X134015335Y-34668639D01*
X133875117Y-34725889D01*
X133753019Y-34813353D01*
X133654596Y-34926459D01*
X133585224Y-35061015D01*
X133544206Y-35207746D01*
X133530636Y-35356854D01*
X133530636Y-35365280D01*
X133866408Y-35365280D01*
X133866408Y-35361067D01*
X133880409Y-35246219D01*
X133923012Y-35134471D01*
X133993187Y-35040225D01*
X134088791Y-34977117D01*
X134200284Y-34940803D01*
X134315571Y-34928757D01*
X134406976Y-34936571D01*
X134498020Y-34960265D01*
X134581136Y-35001878D01*
X134649146Y-35063213D01*
X134701544Y-35139165D01*
X134737256Y-35224780D01*
X134757759Y-35315672D01*
X134764550Y-35407229D01*
X134749385Y-35542433D01*
X134703734Y-35671744D01*
X134629683Y-35786157D01*
X134529528Y-35877274D01*
X134410466Y-35942320D01*
X134279850Y-35978025D01*
X134009107Y-35999091D01*
X134009107Y-36301158D01*
X134302931Y-36324239D01*
X134443702Y-36363471D01*
X134573675Y-36435614D01*
X134683304Y-36535808D01*
X134764550Y-36660195D01*
X134815110Y-36799724D01*
X134831778Y-36943394D01*
X134823946Y-37047512D01*
X134800271Y-37151123D01*
X134758242Y-37247674D01*
X134695308Y-37331557D01*
X134614650Y-37398156D01*
X134519086Y-37442932D01*
X134415404Y-37468133D01*
X134311358Y-37476454D01*
X134186596Y-37465046D01*
X134061497Y-37430293D01*
X133951688Y-37367019D01*
X133868607Y-37268726D01*
X133816383Y-37149553D01*
X133799364Y-37027292D01*
X133463591Y-37027292D01*
X133479202Y-37184257D01*
X133526422Y-37337969D01*
X133605123Y-37477387D01*
X133715283Y-37593874D01*
X133848996Y-37682787D01*
X133996468Y-37738771D01*
X134152953Y-37768596D01*
X134311358Y-37778522D01*
G37*
G36*
X135872619Y-37745000D02*
G01*
X136229458Y-37745000D01*
X137198858Y-34962280D01*
X137198858Y-34660212D01*
X135604074Y-34660212D01*
X135604074Y-34962280D01*
X136842202Y-34962280D01*
X135872619Y-37745000D01*
G37*
G36*
X138637500Y-34634391D02*
G01*
X138772759Y-34658014D01*
X138901243Y-34702107D01*
X139018223Y-34771404D01*
X139119946Y-34862533D01*
X139203054Y-34972904D01*
X139265116Y-35096556D01*
X139303804Y-35226795D01*
X139324257Y-35361947D01*
X139331098Y-35499553D01*
X139331098Y-36905659D01*
X139324257Y-37043265D01*
X139303804Y-37178417D01*
X139265041Y-37308341D01*
X139203054Y-37430293D01*
X139120096Y-37538851D01*
X139018223Y-37629595D01*
X138901294Y-37699372D01*
X138772759Y-37745000D01*
X138637444Y-37770140D01*
X138500000Y-37778522D01*
X138362557Y-37770140D01*
X138227242Y-37745000D01*
X138098677Y-37699379D01*
X137981595Y-37629595D01*
X137879871Y-37538864D01*
X137796947Y-37430293D01*
X137734960Y-37308341D01*
X137696197Y-37178417D01*
X137675744Y-37043265D01*
X137668903Y-36905659D01*
X137668903Y-36792269D01*
X138004676Y-36792269D01*
X138004676Y-36905659D01*
X138010876Y-37010406D01*
X138029772Y-37117601D01*
X138065574Y-37219432D01*
X138122279Y-37310675D01*
X138198280Y-37385010D01*
X138292272Y-37436521D01*
X138396206Y-37466590D01*
X138500000Y-37476454D01*
X138607138Y-37466449D01*
X138709744Y-37436521D01*
X138802046Y-37385143D01*
X138877722Y-37310675D01*
X138934384Y-37219428D01*
X138970046Y-37117601D01*
X138989080Y-37010401D01*
X138995325Y-36905659D01*
X138995325Y-36003304D01*
X138004676Y-36792269D01*
X137668903Y-36792269D01*
X137668903Y-35499553D01*
X138004676Y-35499553D01*
X138004676Y-36401908D01*
X138995325Y-35612943D01*
X138995325Y-35499553D01*
X138988986Y-35391312D01*
X138970046Y-35285596D01*
X138934485Y-35185490D01*
X138877722Y-35094537D01*
X138802026Y-35019962D01*
X138709744Y-34968691D01*
X138607138Y-34938762D01*
X138500000Y-34928757D01*
X138396206Y-34938622D01*
X138292272Y-34968691D01*
X138198300Y-35020095D01*
X138122279Y-35094537D01*
X138065473Y-35185485D01*
X138029772Y-35285596D01*
X138010970Y-35391306D01*
X138004676Y-35499553D01*
X137668903Y-35499553D01*
X137675744Y-35361947D01*
X137696197Y-35226795D01*
X137734885Y-35096556D01*
X137796947Y-34972904D01*
X137880021Y-34862520D01*
X137981595Y-34771404D01*
X138098728Y-34702100D01*
X138227242Y-34658014D01*
X138362501Y-34634391D01*
X138500000Y-34626507D01*
X138637500Y-34634391D01*
G37*
G36*
X140736034Y-34634391D02*
G01*
X140871293Y-34658014D01*
X140999777Y-34702107D01*
X141116757Y-34771404D01*
X141218481Y-34862533D01*
X141301588Y-34972904D01*
X141363651Y-35096556D01*
X141402338Y-35226795D01*
X141422791Y-35361947D01*
X141429632Y-35499553D01*
X141429632Y-36905659D01*
X141422791Y-37043265D01*
X141402338Y-37178417D01*
X141363576Y-37308341D01*
X141301588Y-37430293D01*
X141218631Y-37538851D01*
X141116757Y-37629595D01*
X140999828Y-37699372D01*
X140871293Y-37745000D01*
X140735978Y-37770140D01*
X140598535Y-37778522D01*
X140461092Y-37770140D01*
X140325777Y-37745000D01*
X140197212Y-37699379D01*
X140080130Y-37629595D01*
X139978405Y-37538864D01*
X139895482Y-37430293D01*
X139833494Y-37308341D01*
X139794732Y-37178417D01*
X139774279Y-37043265D01*
X139767438Y-36905659D01*
X139767438Y-36792269D01*
X140103211Y-36792269D01*
X140103211Y-36905659D01*
X140109410Y-37010406D01*
X140128306Y-37117601D01*
X140164108Y-37219432D01*
X140220813Y-37310675D01*
X140296815Y-37385010D01*
X140390806Y-37436521D01*
X140494740Y-37466590D01*
X140598535Y-37476454D01*
X140705672Y-37466449D01*
X140808279Y-37436521D01*
X140900580Y-37385143D01*
X140976257Y-37310675D01*
X141032918Y-37219428D01*
X141068580Y-37117601D01*
X141087615Y-37010401D01*
X141093860Y-36905659D01*
X141093860Y-36003304D01*
X140103211Y-36792269D01*
X139767438Y-36792269D01*
X139767438Y-35499553D01*
X140103211Y-35499553D01*
X140103211Y-36401908D01*
X141093860Y-35612943D01*
X141093860Y-35499553D01*
X141087520Y-35391312D01*
X141068580Y-35285596D01*
X141033019Y-35185490D01*
X140976257Y-35094537D01*
X140900560Y-35019962D01*
X140808279Y-34968691D01*
X140705672Y-34938762D01*
X140598535Y-34928757D01*
X140494740Y-34938622D01*
X140390806Y-34968691D01*
X140296835Y-35020095D01*
X140220813Y-35094537D01*
X140164007Y-35185485D01*
X140128306Y-35285596D01*
X140109504Y-35391306D01*
X140103211Y-35499553D01*
X139767438Y-35499553D01*
X139774279Y-35361947D01*
X139794732Y-35226795D01*
X139833420Y-35096556D01*
X139895482Y-34972904D01*
X139978555Y-34862520D01*
X140080130Y-34771404D01*
X140197263Y-34702100D01*
X140325777Y-34658014D01*
X140461036Y-34634391D01*
X140598535Y-34626507D01*
X140736034Y-34634391D01*
G37*
G36*
X144602530Y-37745000D02*
G01*
X144988678Y-37745000D01*
X145668650Y-34660212D01*
X145324451Y-34660212D01*
X144900567Y-36716798D01*
X144847994Y-36979115D01*
X144795604Y-37241432D01*
X144743214Y-36979115D01*
X144690641Y-36716798D01*
X144266757Y-34660212D01*
X143922558Y-34660212D01*
X144602530Y-37745000D01*
G37*
G36*
X146885712Y-37778522D02*
G01*
X147039821Y-37768059D01*
X147192176Y-37736573D01*
X147335184Y-37679001D01*
X147462919Y-37589661D01*
X147567365Y-37474146D01*
X147641155Y-37337969D01*
X147685322Y-37188611D01*
X147699957Y-37035718D01*
X147699957Y-37031505D01*
X147364184Y-37031505D01*
X147348495Y-37153490D01*
X147301169Y-37268726D01*
X147224965Y-37364415D01*
X147122933Y-37428278D01*
X147005548Y-37464487D01*
X146885712Y-37476454D01*
X146782418Y-37467033D01*
X146682197Y-37438719D01*
X146591660Y-37389440D01*
X146516417Y-37316903D01*
X146459483Y-37228405D01*
X146423910Y-37132255D01*
X146405104Y-37030585D01*
X146398814Y-36926542D01*
X146398814Y-35478670D01*
X146405076Y-35374353D01*
X146423910Y-35270942D01*
X146459680Y-35173253D01*
X146516417Y-35086111D01*
X146591516Y-35015236D01*
X146682197Y-34966493D01*
X146782418Y-34938179D01*
X146885712Y-34928757D01*
X147005540Y-34940769D01*
X147122933Y-34977117D01*
X147224958Y-35040837D01*
X147301169Y-35136486D01*
X147348616Y-35251023D01*
X147364184Y-35369494D01*
X147364184Y-35373707D01*
X147699957Y-35373707D01*
X147699957Y-35369494D01*
X147685364Y-35216316D01*
X147641155Y-35065228D01*
X147567205Y-34927084D01*
X147462919Y-34811338D01*
X147335128Y-34722473D01*
X147192176Y-34666441D01*
X147039883Y-34636475D01*
X146885712Y-34626507D01*
X146752142Y-34634360D01*
X146619182Y-34658014D01*
X146492420Y-34701549D01*
X146375733Y-34769389D01*
X146273976Y-34858003D01*
X146191086Y-34964478D01*
X146129092Y-35084289D01*
X146090335Y-35212140D01*
X146069860Y-35344858D01*
X146063041Y-35478670D01*
X146063041Y-36926542D01*
X146069856Y-37060219D01*
X146090335Y-37193072D01*
X146129092Y-37320923D01*
X146191086Y-37440734D01*
X146273967Y-37547245D01*
X146375733Y-37636006D01*
X146492413Y-37703660D01*
X146619182Y-37747015D01*
X146752142Y-37770668D01*
X146885712Y-37778522D01*
G37*
G36*
X149865719Y-37745000D02*
G01*
X149521520Y-37745000D01*
X149353542Y-36934968D01*
X148631804Y-36934968D01*
X148463826Y-37745000D01*
X148119627Y-37745000D01*
X148364805Y-36632718D01*
X148694636Y-36632718D01*
X149290711Y-36632718D01*
X149097637Y-35688414D01*
X149045063Y-35426097D01*
X148992673Y-35163780D01*
X148940283Y-35426097D01*
X148887710Y-35688414D01*
X148694636Y-36632718D01*
X148364805Y-36632718D01*
X148799599Y-34660212D01*
X149185747Y-34660212D01*
X149865719Y-37745000D01*
G37*
G36*
X128493637Y-115025270D02*
G01*
X128583439Y-115041057D01*
X128669377Y-115069835D01*
X128747204Y-115113842D01*
X128815254Y-115171782D01*
X128871646Y-115242558D01*
X128914051Y-115322710D01*
X128940278Y-115409009D01*
X128953945Y-115498757D01*
X128958474Y-115588161D01*
X128958474Y-116553409D01*
X128953948Y-116642724D01*
X128940278Y-116732561D01*
X128914051Y-116818860D01*
X128871646Y-116899013D01*
X128815254Y-116969788D01*
X128747204Y-117027729D01*
X128669374Y-117071706D01*
X128583439Y-117100391D01*
X128493637Y-117116178D01*
X128404409Y-117121396D01*
X128315165Y-117116180D01*
X128225257Y-117100391D01*
X128139426Y-117071712D01*
X128061614Y-117027729D01*
X127993840Y-116969727D01*
X127938516Y-116899013D01*
X127896893Y-116818981D01*
X127869884Y-116732561D01*
X127855200Y-116642691D01*
X127850344Y-116553409D01*
X127850344Y-115588161D01*
X128074193Y-115588161D01*
X128074193Y-116553409D01*
X128078366Y-116622970D01*
X128090923Y-116692017D01*
X128115053Y-116756947D01*
X128153938Y-116815115D01*
X128205315Y-116862259D01*
X128267267Y-116894860D01*
X128335340Y-116913766D01*
X128404409Y-116920017D01*
X128473478Y-116913766D01*
X128541551Y-116894860D01*
X128603503Y-116862259D01*
X128654880Y-116815115D01*
X128693736Y-116756944D01*
X128717773Y-116692017D01*
X128730422Y-116622967D01*
X128734625Y-116553409D01*
X128734625Y-115588161D01*
X128730420Y-115518620D01*
X128717773Y-115449676D01*
X128693785Y-115384418D01*
X128654880Y-115325112D01*
X128603345Y-115277124D01*
X128541551Y-115245366D01*
X128473532Y-115227480D01*
X128404409Y-115221553D01*
X128335286Y-115227480D01*
X128267267Y-115245366D01*
X128205473Y-115277124D01*
X128153938Y-115325112D01*
X128115004Y-115384415D01*
X128090923Y-115449676D01*
X128078368Y-115518617D01*
X128074193Y-115588161D01*
X127850344Y-115588161D01*
X127855203Y-115498789D01*
X127869884Y-115409009D01*
X127896893Y-115322589D01*
X127938516Y-115242558D01*
X127993840Y-115171844D01*
X128061614Y-115113842D01*
X128139423Y-115069829D01*
X128225257Y-115041057D01*
X128315165Y-115025268D01*
X128404409Y-115020052D01*
X128493637Y-115025270D01*
G37*
G36*
X129355735Y-117099048D02*
G01*
X129579583Y-117099048D01*
X129579583Y-116108521D01*
X130175536Y-116108521D01*
X130175536Y-115907020D01*
X129579583Y-115907020D01*
X129579583Y-115243901D01*
X130335027Y-115243901D01*
X130335027Y-115042523D01*
X129355735Y-115042523D01*
X129355735Y-117099048D01*
G37*
G36*
X130754758Y-117099048D02*
G01*
X130978607Y-117099048D01*
X130978607Y-116108521D01*
X131574559Y-116108521D01*
X131574559Y-115907020D01*
X130978607Y-115907020D01*
X130978607Y-115243901D01*
X131734050Y-115243901D01*
X131734050Y-115042523D01*
X130754758Y-115042523D01*
X130754758Y-117099048D01*
G37*
G36*
X132598669Y-117121396D02*
G01*
X132706760Y-117113705D01*
X132812748Y-117090621D01*
X132911444Y-117048452D01*
X132998739Y-116982910D01*
X133069106Y-116898944D01*
X133117685Y-116801071D01*
X133146127Y-116694826D01*
X133155543Y-116586992D01*
X133146173Y-116487442D01*
X133117685Y-116388301D01*
X133072111Y-116295422D01*
X133011318Y-116213423D01*
X132938574Y-116141385D01*
X132857445Y-116079211D01*
X132770335Y-116025287D01*
X132679758Y-115978461D01*
X132497919Y-115883329D01*
X132416684Y-115822356D01*
X132351007Y-115742034D01*
X132307952Y-115648612D01*
X132293732Y-115548960D01*
X132298613Y-115485330D01*
X132313272Y-115423053D01*
X132338716Y-115364734D01*
X132376164Y-115312533D01*
X132424202Y-115270524D01*
X132481188Y-115242558D01*
X132543519Y-115226791D01*
X132607096Y-115221553D01*
X132684187Y-115229836D01*
X132760969Y-115255136D01*
X132827339Y-115298768D01*
X132875641Y-115362847D01*
X132905203Y-115438674D01*
X132914842Y-115515377D01*
X132914842Y-115518186D01*
X133138690Y-115518186D01*
X133138690Y-115515377D01*
X133129257Y-115413391D01*
X133100833Y-115313877D01*
X133053227Y-115222855D01*
X132986161Y-115146082D01*
X132903329Y-115086641D01*
X132808474Y-115048140D01*
X132707376Y-115027013D01*
X132607096Y-115020052D01*
X132499442Y-115028150D01*
X132395826Y-115052292D01*
X132300547Y-115095863D01*
X132218139Y-115162812D01*
X132152326Y-115247108D01*
X132106154Y-115343308D01*
X132078911Y-115446701D01*
X132069884Y-115551769D01*
X132079311Y-115653465D01*
X132107619Y-115751804D01*
X132153016Y-115843708D01*
X132213865Y-115926682D01*
X132286857Y-115999560D01*
X132367860Y-116061015D01*
X132545546Y-116161766D01*
X132727385Y-116258241D01*
X132808892Y-116319155D01*
X132875641Y-116399536D01*
X132920012Y-116492587D01*
X132934503Y-116589801D01*
X132924088Y-116677216D01*
X132892493Y-116761870D01*
X132840193Y-116833400D01*
X132767930Y-116882282D01*
X132683865Y-116910689D01*
X132598669Y-116920017D01*
X132515994Y-116912358D01*
X132435027Y-116889243D01*
X132364117Y-116847718D01*
X132310463Y-116784341D01*
X132276851Y-116707362D01*
X132265766Y-116626193D01*
X132041918Y-116626193D01*
X132052034Y-116730688D01*
X132082462Y-116831846D01*
X132133501Y-116923457D01*
X132205560Y-116999763D01*
X132293187Y-117057897D01*
X132390208Y-117094895D01*
X132493265Y-117114757D01*
X132598669Y-117121396D01*
G37*
G36*
X133552804Y-117099048D02*
G01*
X134532096Y-117099048D01*
X134532096Y-116897547D01*
X133776653Y-116897547D01*
X133776653Y-116108521D01*
X134372605Y-116108521D01*
X134372605Y-115907020D01*
X133776653Y-115907020D01*
X133776653Y-115243901D01*
X134532096Y-115243901D01*
X134532096Y-115042523D01*
X133552804Y-115042523D01*
X133552804Y-117099048D01*
G37*
G36*
X135287661Y-117099048D02*
G01*
X135511387Y-117099048D01*
X135511387Y-115243901D01*
X135964702Y-115243901D01*
X135964702Y-115042523D01*
X134834346Y-115042523D01*
X134834346Y-115243901D01*
X135287661Y-115243901D01*
X135287661Y-117099048D01*
G37*
G36*
X137747468Y-133797984D02*
G01*
X137850208Y-133791008D01*
X137951778Y-133770018D01*
X138047116Y-133731637D01*
X138132273Y-133672077D01*
X138201904Y-133595067D01*
X138251097Y-133504282D01*
X138280542Y-133404710D01*
X138290298Y-133302781D01*
X138290298Y-133299973D01*
X138066450Y-133299973D01*
X138055990Y-133381296D01*
X138024440Y-133458120D01*
X137973637Y-133521913D01*
X137905616Y-133564488D01*
X137827359Y-133588627D01*
X137747468Y-133596605D01*
X137678605Y-133590324D01*
X137611792Y-133571448D01*
X137551433Y-133538596D01*
X137501272Y-133490238D01*
X137463315Y-133431239D01*
X137439600Y-133367139D01*
X137427063Y-133299359D01*
X137422870Y-133229997D01*
X137422870Y-132264749D01*
X137427045Y-132195205D01*
X137439600Y-132126264D01*
X137463447Y-132061138D01*
X137501272Y-132003043D01*
X137551338Y-131955793D01*
X137611792Y-131923298D01*
X137678605Y-131904422D01*
X137747468Y-131898141D01*
X137827353Y-131906148D01*
X137905616Y-131930381D01*
X137973633Y-131972861D01*
X138024440Y-132036626D01*
X138056071Y-132112984D01*
X138066450Y-132191965D01*
X138066450Y-132194774D01*
X138290298Y-132194774D01*
X138290298Y-132191965D01*
X138280570Y-132089846D01*
X138251097Y-131989121D01*
X138201797Y-131897025D01*
X138132273Y-131819861D01*
X138047079Y-131760618D01*
X137951778Y-131723263D01*
X137850249Y-131703286D01*
X137747468Y-131696640D01*
X137658422Y-131701876D01*
X137569782Y-131717645D01*
X137485274Y-131746668D01*
X137407482Y-131791895D01*
X137339644Y-131850971D01*
X137284384Y-131921954D01*
X137243055Y-132001828D01*
X137217217Y-132087063D01*
X137203567Y-132175541D01*
X137199021Y-132264749D01*
X137199021Y-133229997D01*
X137203564Y-133319115D01*
X137217217Y-133407684D01*
X137243055Y-133492918D01*
X137284384Y-133572792D01*
X137339638Y-133643799D01*
X137407482Y-133702973D01*
X137485269Y-133748076D01*
X137569782Y-133776979D01*
X137658422Y-133792748D01*
X137747468Y-133797984D01*
G37*
G36*
X139023393Y-133775636D02*
G01*
X139280825Y-133775636D01*
X139734140Y-131719111D01*
X139504674Y-131719111D01*
X139222085Y-133090168D01*
X139187036Y-133265046D01*
X139152109Y-133439924D01*
X139117182Y-133265046D01*
X139082133Y-133090168D01*
X138799544Y-131719111D01*
X138570078Y-131719111D01*
X139023393Y-133775636D01*
G37*
G36*
X149605878Y-114275636D02*
G01*
X150607640Y-114275636D01*
X150607640Y-114074135D01*
X149829726Y-114074135D01*
X149829726Y-112219111D01*
X149605878Y-112219111D01*
X149605878Y-114275636D01*
G37*
G36*
X150962891Y-114275636D02*
G01*
X151942305Y-114275636D01*
X151942305Y-114074135D01*
X151564461Y-114074135D01*
X151564461Y-112420489D01*
X151942305Y-112420489D01*
X151942305Y-112219111D01*
X150962891Y-112219111D01*
X150962891Y-112420489D01*
X151340735Y-112420489D01*
X151340735Y-114074135D01*
X150962891Y-114074135D01*
X150962891Y-114275636D01*
G37*
G36*
X152320027Y-114275636D02*
G01*
X152543875Y-114275636D01*
X152543875Y-113453026D01*
X152538257Y-113010946D01*
X152527022Y-112568866D01*
X153089514Y-114275636D01*
X153383216Y-114275636D01*
X153383216Y-112219111D01*
X153159367Y-112219111D01*
X153159367Y-113041721D01*
X153166328Y-113483800D01*
X153176220Y-113925880D01*
X152616537Y-112219111D01*
X152320027Y-112219111D01*
X152320027Y-114275636D01*
G37*
G36*
X137747468Y-85797984D02*
G01*
X137850208Y-85791008D01*
X137951778Y-85770018D01*
X138047116Y-85731637D01*
X138132273Y-85672077D01*
X138201904Y-85595067D01*
X138251097Y-85504282D01*
X138280542Y-85404710D01*
X138290298Y-85302781D01*
X138290298Y-85299973D01*
X138066450Y-85299973D01*
X138055990Y-85381296D01*
X138024440Y-85458120D01*
X137973637Y-85521913D01*
X137905616Y-85564488D01*
X137827359Y-85588627D01*
X137747468Y-85596605D01*
X137678605Y-85590324D01*
X137611792Y-85571448D01*
X137551433Y-85538596D01*
X137501272Y-85490238D01*
X137463315Y-85431239D01*
X137439600Y-85367139D01*
X137427063Y-85299359D01*
X137422870Y-85229997D01*
X137422870Y-84264749D01*
X137427045Y-84195205D01*
X137439600Y-84126264D01*
X137463447Y-84061138D01*
X137501272Y-84003043D01*
X137551338Y-83955793D01*
X137611792Y-83923298D01*
X137678605Y-83904422D01*
X137747468Y-83898141D01*
X137827353Y-83906148D01*
X137905616Y-83930381D01*
X137973633Y-83972861D01*
X138024440Y-84036626D01*
X138056071Y-84112984D01*
X138066450Y-84191965D01*
X138066450Y-84194774D01*
X138290298Y-84194774D01*
X138290298Y-84191965D01*
X138280570Y-84089846D01*
X138251097Y-83989121D01*
X138201797Y-83897025D01*
X138132273Y-83819861D01*
X138047079Y-83760618D01*
X137951778Y-83723263D01*
X137850249Y-83703286D01*
X137747468Y-83696640D01*
X137658422Y-83701876D01*
X137569782Y-83717645D01*
X137485274Y-83746668D01*
X137407482Y-83791895D01*
X137339644Y-83850971D01*
X137284384Y-83921954D01*
X137243055Y-84001828D01*
X137217217Y-84087063D01*
X137203567Y-84175541D01*
X137199021Y-84264749D01*
X137199021Y-85229997D01*
X137203564Y-85319115D01*
X137217217Y-85407684D01*
X137243055Y-85492918D01*
X137284384Y-85572792D01*
X137339638Y-85643799D01*
X137407482Y-85702973D01*
X137485269Y-85748076D01*
X137569782Y-85776979D01*
X137658422Y-85792748D01*
X137747468Y-85797984D01*
G37*
G36*
X139023393Y-85775636D02*
G01*
X139280825Y-85775636D01*
X139734140Y-83719111D01*
X139504674Y-83719111D01*
X139222085Y-85090168D01*
X139187036Y-85265046D01*
X139152109Y-85439924D01*
X139117182Y-85265046D01*
X139082133Y-85090168D01*
X138799544Y-83719111D01*
X138570078Y-83719111D01*
X139023393Y-85775636D01*
G37*
G36*
X150122698Y-83904068D02*
G01*
X150190717Y-83921954D01*
X150252511Y-83953712D01*
X150304046Y-84001700D01*
X150342951Y-84061006D01*
X150366939Y-84126264D01*
X150379586Y-84195208D01*
X150383791Y-84264749D01*
X150383791Y-85229997D01*
X150379588Y-85299555D01*
X150366939Y-85368605D01*
X150342902Y-85433532D01*
X150304046Y-85491703D01*
X150252669Y-85538847D01*
X150190717Y-85571448D01*
X150122644Y-85590354D01*
X150053575Y-85596605D01*
X149984506Y-85590354D01*
X149916433Y-85571448D01*
X149854481Y-85538847D01*
X149803104Y-85491703D01*
X149764219Y-85433535D01*
X149740089Y-85368605D01*
X149727532Y-85299558D01*
X149723359Y-85229997D01*
X149723359Y-84264749D01*
X149727534Y-84195205D01*
X149740089Y-84126264D01*
X149764170Y-84061003D01*
X149803104Y-84001700D01*
X149854639Y-83953712D01*
X149916433Y-83921954D01*
X149984452Y-83904068D01*
X150053575Y-83898141D01*
X150122698Y-83904068D01*
G37*
G36*
X153639021Y-86020206D02*
G01*
X149277288Y-86020206D01*
X149277288Y-84264749D01*
X149499510Y-84264749D01*
X149499510Y-85229997D01*
X149504366Y-85319279D01*
X149519050Y-85409149D01*
X149546059Y-85495569D01*
X149587682Y-85575601D01*
X149643006Y-85646315D01*
X149710780Y-85704317D01*
X149788592Y-85748300D01*
X149874423Y-85776979D01*
X149964331Y-85792768D01*
X150053575Y-85797984D01*
X150142803Y-85792766D01*
X150232605Y-85776979D01*
X150318540Y-85748294D01*
X150396370Y-85704317D01*
X150464420Y-85646376D01*
X150520812Y-85575601D01*
X150563217Y-85495448D01*
X150589444Y-85409149D01*
X150603114Y-85319312D01*
X150607640Y-85229997D01*
X150921003Y-85229997D01*
X150925562Y-85318935D01*
X150939200Y-85406340D01*
X150964004Y-85490562D01*
X151002092Y-85569983D01*
X151053539Y-85641000D01*
X151118230Y-85700164D01*
X151193330Y-85745562D01*
X151276255Y-85775636D01*
X151363772Y-85792399D01*
X151452598Y-85797984D01*
X151541408Y-85792397D01*
X151628819Y-85775636D01*
X151711848Y-85745556D01*
X151786967Y-85700164D01*
X151851939Y-85641060D01*
X151904447Y-85569983D01*
X151943312Y-85490447D01*
X151967340Y-85406340D01*
X151979967Y-85318966D01*
X151984193Y-85229997D01*
X151984193Y-83920489D01*
X152286443Y-83920489D01*
X152739758Y-83920489D01*
X152739758Y-85775636D01*
X152963484Y-85775636D01*
X152963484Y-83920489D01*
X153416799Y-83920489D01*
X153416799Y-83719111D01*
X152286443Y-83719111D01*
X152286443Y-83920489D01*
X151984193Y-83920489D01*
X151984193Y-83719111D01*
X151760344Y-83719111D01*
X151760344Y-85229997D01*
X151744957Y-85364331D01*
X151723289Y-85428670D01*
X151689025Y-85487429D01*
X151642580Y-85535992D01*
X151584123Y-85569983D01*
X151518773Y-85590008D01*
X151452598Y-85596605D01*
X151386423Y-85590008D01*
X151321073Y-85569983D01*
X151262616Y-85535992D01*
X151216171Y-85487429D01*
X151181907Y-85428670D01*
X151160239Y-85364331D01*
X151144852Y-85229997D01*
X151144852Y-83719111D01*
X150921003Y-83719111D01*
X150921003Y-85229997D01*
X150607640Y-85229997D01*
X150607640Y-84264749D01*
X150603111Y-84175345D01*
X150589444Y-84085597D01*
X150563217Y-83999298D01*
X150520812Y-83919146D01*
X150464420Y-83848370D01*
X150396370Y-83790430D01*
X150318543Y-83746423D01*
X150232605Y-83717645D01*
X150142803Y-83701858D01*
X150053575Y-83696640D01*
X149964331Y-83701856D01*
X149874423Y-83717645D01*
X149788589Y-83746417D01*
X149710780Y-83790430D01*
X149643006Y-83848432D01*
X149587682Y-83919146D01*
X149546059Y-83999177D01*
X149519050Y-84085597D01*
X149504369Y-84175377D01*
X149499510Y-84264749D01*
X149277288Y-84264749D01*
X149277288Y-83474418D01*
X153639021Y-83474418D01*
X153639021Y-86020206D01*
G37*
G36*
X128493637Y-67025270D02*
G01*
X128583439Y-67041057D01*
X128669377Y-67069835D01*
X128747204Y-67113842D01*
X128815254Y-67171782D01*
X128871646Y-67242558D01*
X128914051Y-67322710D01*
X128940278Y-67409009D01*
X128953945Y-67498757D01*
X128958474Y-67588161D01*
X128958474Y-68553409D01*
X128953948Y-68642724D01*
X128940278Y-68732561D01*
X128914051Y-68818860D01*
X128871646Y-68899013D01*
X128815254Y-68969788D01*
X128747204Y-69027729D01*
X128669374Y-69071706D01*
X128583439Y-69100391D01*
X128493637Y-69116178D01*
X128404409Y-69121396D01*
X128315165Y-69116180D01*
X128225257Y-69100391D01*
X128139426Y-69071712D01*
X128061614Y-69027729D01*
X127993840Y-68969727D01*
X127938516Y-68899013D01*
X127896893Y-68818981D01*
X127869884Y-68732561D01*
X127855200Y-68642691D01*
X127850344Y-68553409D01*
X127850344Y-67588161D01*
X128074193Y-67588161D01*
X128074193Y-68553409D01*
X128078366Y-68622970D01*
X128090923Y-68692017D01*
X128115053Y-68756947D01*
X128153938Y-68815115D01*
X128205315Y-68862259D01*
X128267267Y-68894860D01*
X128335340Y-68913766D01*
X128404409Y-68920017D01*
X128473478Y-68913766D01*
X128541551Y-68894860D01*
X128603503Y-68862259D01*
X128654880Y-68815115D01*
X128693736Y-68756944D01*
X128717773Y-68692017D01*
X128730422Y-68622967D01*
X128734625Y-68553409D01*
X128734625Y-67588161D01*
X128730420Y-67518620D01*
X128717773Y-67449676D01*
X128693785Y-67384418D01*
X128654880Y-67325112D01*
X128603345Y-67277124D01*
X128541551Y-67245366D01*
X128473532Y-67227480D01*
X128404409Y-67221553D01*
X128335286Y-67227480D01*
X128267267Y-67245366D01*
X128205473Y-67277124D01*
X128153938Y-67325112D01*
X128115004Y-67384415D01*
X128090923Y-67449676D01*
X128078368Y-67518617D01*
X128074193Y-67588161D01*
X127850344Y-67588161D01*
X127855203Y-67498789D01*
X127869884Y-67409009D01*
X127896893Y-67322589D01*
X127938516Y-67242558D01*
X127993840Y-67171844D01*
X128061614Y-67113842D01*
X128139423Y-67069829D01*
X128225257Y-67041057D01*
X128315165Y-67025268D01*
X128404409Y-67020052D01*
X128493637Y-67025270D01*
G37*
G36*
X129355735Y-69099048D02*
G01*
X129579583Y-69099048D01*
X129579583Y-68108521D01*
X130175536Y-68108521D01*
X130175536Y-67907020D01*
X129579583Y-67907020D01*
X129579583Y-67243901D01*
X130335027Y-67243901D01*
X130335027Y-67042523D01*
X129355735Y-67042523D01*
X129355735Y-69099048D01*
G37*
G36*
X130754758Y-69099048D02*
G01*
X130978607Y-69099048D01*
X130978607Y-68108521D01*
X131574559Y-68108521D01*
X131574559Y-67907020D01*
X130978607Y-67907020D01*
X130978607Y-67243901D01*
X131734050Y-67243901D01*
X131734050Y-67042523D01*
X130754758Y-67042523D01*
X130754758Y-69099048D01*
G37*
G36*
X132598669Y-69121396D02*
G01*
X132706760Y-69113705D01*
X132812748Y-69090621D01*
X132911444Y-69048452D01*
X132998739Y-68982910D01*
X133069106Y-68898944D01*
X133117685Y-68801071D01*
X133146127Y-68694826D01*
X133155543Y-68586992D01*
X133146173Y-68487442D01*
X133117685Y-68388301D01*
X133072111Y-68295422D01*
X133011318Y-68213423D01*
X132938574Y-68141385D01*
X132857445Y-68079211D01*
X132770335Y-68025287D01*
X132679758Y-67978461D01*
X132497919Y-67883329D01*
X132416684Y-67822356D01*
X132351007Y-67742034D01*
X132307952Y-67648612D01*
X132293732Y-67548960D01*
X132298613Y-67485330D01*
X132313272Y-67423053D01*
X132338716Y-67364734D01*
X132376164Y-67312533D01*
X132424202Y-67270524D01*
X132481188Y-67242558D01*
X132543519Y-67226791D01*
X132607096Y-67221553D01*
X132684187Y-67229836D01*
X132760969Y-67255136D01*
X132827339Y-67298768D01*
X132875641Y-67362847D01*
X132905203Y-67438674D01*
X132914842Y-67515377D01*
X132914842Y-67518186D01*
X133138690Y-67518186D01*
X133138690Y-67515377D01*
X133129257Y-67413391D01*
X133100833Y-67313877D01*
X133053227Y-67222855D01*
X132986161Y-67146082D01*
X132903329Y-67086641D01*
X132808474Y-67048140D01*
X132707376Y-67027013D01*
X132607096Y-67020052D01*
X132499442Y-67028150D01*
X132395826Y-67052292D01*
X132300547Y-67095863D01*
X132218139Y-67162812D01*
X132152326Y-67247108D01*
X132106154Y-67343308D01*
X132078911Y-67446701D01*
X132069884Y-67551769D01*
X132079311Y-67653465D01*
X132107619Y-67751804D01*
X132153016Y-67843708D01*
X132213865Y-67926682D01*
X132286857Y-67999560D01*
X132367860Y-68061015D01*
X132545546Y-68161766D01*
X132727385Y-68258241D01*
X132808892Y-68319155D01*
X132875641Y-68399536D01*
X132920012Y-68492587D01*
X132934503Y-68589801D01*
X132924088Y-68677216D01*
X132892493Y-68761870D01*
X132840193Y-68833400D01*
X132767930Y-68882282D01*
X132683865Y-68910689D01*
X132598669Y-68920017D01*
X132515994Y-68912358D01*
X132435027Y-68889243D01*
X132364117Y-68847718D01*
X132310463Y-68784341D01*
X132276851Y-68707362D01*
X132265766Y-68626193D01*
X132041918Y-68626193D01*
X132052034Y-68730688D01*
X132082462Y-68831846D01*
X132133501Y-68923457D01*
X132205560Y-68999763D01*
X132293187Y-69057897D01*
X132390208Y-69094895D01*
X132493265Y-69114757D01*
X132598669Y-69121396D01*
G37*
G36*
X133552804Y-69099048D02*
G01*
X134532096Y-69099048D01*
X134532096Y-68897547D01*
X133776653Y-68897547D01*
X133776653Y-68108521D01*
X134372605Y-68108521D01*
X134372605Y-67907020D01*
X133776653Y-67907020D01*
X133776653Y-67243901D01*
X134532096Y-67243901D01*
X134532096Y-67042523D01*
X133552804Y-67042523D01*
X133552804Y-69099048D01*
G37*
G36*
X135287661Y-69099048D02*
G01*
X135511387Y-69099048D01*
X135511387Y-67243901D01*
X135964702Y-67243901D01*
X135964702Y-67042523D01*
X134834346Y-67042523D01*
X134834346Y-67243901D01*
X135287661Y-67243901D01*
X135287661Y-69099048D01*
G37*
G36*
X150122698Y-131904068D02*
G01*
X150190717Y-131921954D01*
X150252511Y-131953712D01*
X150304046Y-132001700D01*
X150342951Y-132061006D01*
X150366939Y-132126264D01*
X150379586Y-132195208D01*
X150383791Y-132264749D01*
X150383791Y-133229997D01*
X150379588Y-133299555D01*
X150366939Y-133368605D01*
X150342902Y-133433532D01*
X150304046Y-133491703D01*
X150252669Y-133538847D01*
X150190717Y-133571448D01*
X150122644Y-133590354D01*
X150053575Y-133596605D01*
X149984506Y-133590354D01*
X149916433Y-133571448D01*
X149854481Y-133538847D01*
X149803104Y-133491703D01*
X149764219Y-133433535D01*
X149740089Y-133368605D01*
X149727532Y-133299558D01*
X149723359Y-133229997D01*
X149723359Y-132264749D01*
X149727534Y-132195205D01*
X149740089Y-132126264D01*
X149764170Y-132061003D01*
X149803104Y-132001700D01*
X149854639Y-131953712D01*
X149916433Y-131921954D01*
X149984452Y-131904068D01*
X150053575Y-131898141D01*
X150122698Y-131904068D01*
G37*
G36*
X153639021Y-134020206D02*
G01*
X149277288Y-134020206D01*
X149277288Y-132264749D01*
X149499510Y-132264749D01*
X149499510Y-133229997D01*
X149504366Y-133319279D01*
X149519050Y-133409149D01*
X149546059Y-133495569D01*
X149587682Y-133575601D01*
X149643006Y-133646315D01*
X149710780Y-133704317D01*
X149788592Y-133748300D01*
X149874423Y-133776979D01*
X149964331Y-133792768D01*
X150053575Y-133797984D01*
X150142803Y-133792766D01*
X150232605Y-133776979D01*
X150318540Y-133748294D01*
X150396370Y-133704317D01*
X150464420Y-133646376D01*
X150520812Y-133575601D01*
X150563217Y-133495448D01*
X150589444Y-133409149D01*
X150603114Y-133319312D01*
X150607640Y-133229997D01*
X150921003Y-133229997D01*
X150925562Y-133318935D01*
X150939200Y-133406340D01*
X150964004Y-133490562D01*
X151002092Y-133569983D01*
X151053539Y-133641000D01*
X151118230Y-133700164D01*
X151193330Y-133745562D01*
X151276255Y-133775636D01*
X151363772Y-133792399D01*
X151452598Y-133797984D01*
X151541408Y-133792397D01*
X151628819Y-133775636D01*
X151711848Y-133745556D01*
X151786967Y-133700164D01*
X151851939Y-133641060D01*
X151904447Y-133569983D01*
X151943312Y-133490447D01*
X151967340Y-133406340D01*
X151979967Y-133318966D01*
X151984193Y-133229997D01*
X151984193Y-131920489D01*
X152286443Y-131920489D01*
X152739758Y-131920489D01*
X152739758Y-133775636D01*
X152963484Y-133775636D01*
X152963484Y-131920489D01*
X153416799Y-131920489D01*
X153416799Y-131719111D01*
X152286443Y-131719111D01*
X152286443Y-131920489D01*
X151984193Y-131920489D01*
X151984193Y-131719111D01*
X151760344Y-131719111D01*
X151760344Y-133229997D01*
X151744957Y-133364331D01*
X151723289Y-133428670D01*
X151689025Y-133487429D01*
X151642580Y-133535992D01*
X151584123Y-133569983D01*
X151518773Y-133590008D01*
X151452598Y-133596605D01*
X151386423Y-133590008D01*
X151321073Y-133569983D01*
X151262616Y-133535992D01*
X151216171Y-133487429D01*
X151181907Y-133428670D01*
X151160239Y-133364331D01*
X151144852Y-133229997D01*
X151144852Y-131719111D01*
X150921003Y-131719111D01*
X150921003Y-133229997D01*
X150607640Y-133229997D01*
X150607640Y-132264749D01*
X150603111Y-132175345D01*
X150589444Y-132085597D01*
X150563217Y-131999298D01*
X150520812Y-131919146D01*
X150464420Y-131848370D01*
X150396370Y-131790430D01*
X150318543Y-131746423D01*
X150232605Y-131717645D01*
X150142803Y-131701858D01*
X150053575Y-131696640D01*
X149964331Y-131701856D01*
X149874423Y-131717645D01*
X149788589Y-131746417D01*
X149710780Y-131790430D01*
X149643006Y-131848432D01*
X149587682Y-131919146D01*
X149546059Y-131999177D01*
X149519050Y-132085597D01*
X149504369Y-132175377D01*
X149499510Y-132264749D01*
X149277288Y-132264749D01*
X149277288Y-131474418D01*
X153639021Y-131474418D01*
X153639021Y-134020206D01*
G37*
G36*
X149605878Y-66275636D02*
G01*
X150607640Y-66275636D01*
X150607640Y-66074135D01*
X149829726Y-66074135D01*
X149829726Y-64219111D01*
X149605878Y-64219111D01*
X149605878Y-66275636D01*
G37*
G36*
X150962891Y-66275636D02*
G01*
X151942305Y-66275636D01*
X151942305Y-66074135D01*
X151564461Y-66074135D01*
X151564461Y-64420489D01*
X151942305Y-64420489D01*
X151942305Y-64219111D01*
X150962891Y-64219111D01*
X150962891Y-64420489D01*
X151340735Y-64420489D01*
X151340735Y-66074135D01*
X150962891Y-66074135D01*
X150962891Y-66275636D01*
G37*
G36*
X152320027Y-66275636D02*
G01*
X152543875Y-66275636D01*
X152543875Y-65453026D01*
X152538257Y-65010946D01*
X152527022Y-64568866D01*
X153089514Y-66275636D01*
X153383216Y-66275636D01*
X153383216Y-64219111D01*
X153159367Y-64219111D01*
X153159367Y-65041721D01*
X153166328Y-65483800D01*
X153176220Y-65925880D01*
X152616537Y-64219111D01*
X152320027Y-64219111D01*
X152320027Y-66275636D01*
G37*
G36*
X124263379Y-133775636D02*
G01*
X125242793Y-133775636D01*
X125242793Y-133574135D01*
X124864949Y-133574135D01*
X124864949Y-131920489D01*
X125242793Y-131920489D01*
X125242793Y-131719111D01*
X124263379Y-131719111D01*
X124263379Y-131920489D01*
X124641223Y-131920489D01*
X124641223Y-133574135D01*
X124263379Y-133574135D01*
X124263379Y-133775636D01*
G37*
G36*
X125620514Y-133775636D02*
G01*
X125844363Y-133775636D01*
X125844363Y-132953026D01*
X125838745Y-132510946D01*
X125827510Y-132068866D01*
X126390002Y-133775636D01*
X126683704Y-133775636D01*
X126683704Y-131719111D01*
X126459855Y-131719111D01*
X126459855Y-132541721D01*
X126466816Y-132983800D01*
X126476708Y-133425880D01*
X125917025Y-131719111D01*
X125620514Y-131719111D01*
X125620514Y-133775636D01*
G37*
G36*
X149605878Y-98275636D02*
G01*
X150607640Y-98275636D01*
X150607640Y-98074135D01*
X149829726Y-98074135D01*
X149829726Y-96219111D01*
X149605878Y-96219111D01*
X149605878Y-98275636D01*
G37*
G36*
X151541826Y-96201858D02*
G01*
X151631628Y-96217645D01*
X151717566Y-96246423D01*
X151795393Y-96290430D01*
X151863443Y-96348370D01*
X151919835Y-96419146D01*
X151962240Y-96499298D01*
X151988467Y-96585597D01*
X152002134Y-96675345D01*
X152006663Y-96764749D01*
X152006663Y-97729997D01*
X152002137Y-97819312D01*
X151988467Y-97909149D01*
X151962240Y-97995448D01*
X151919835Y-98075601D01*
X151863443Y-98146376D01*
X151795393Y-98204317D01*
X151717563Y-98248294D01*
X151631628Y-98276979D01*
X151541826Y-98292766D01*
X151452598Y-98297984D01*
X151363354Y-98292768D01*
X151273446Y-98276979D01*
X151187615Y-98248300D01*
X151109803Y-98204317D01*
X151042029Y-98146315D01*
X150986705Y-98075601D01*
X150945082Y-97995569D01*
X150918073Y-97909149D01*
X150903389Y-97819279D01*
X150898533Y-97729997D01*
X150898533Y-96764749D01*
X151122382Y-96764749D01*
X151122382Y-97729997D01*
X151126555Y-97799558D01*
X151139112Y-97868605D01*
X151163242Y-97933535D01*
X151202127Y-97991703D01*
X151253504Y-98038847D01*
X151315456Y-98071448D01*
X151383529Y-98090354D01*
X151452598Y-98096605D01*
X151521667Y-98090354D01*
X151589740Y-98071448D01*
X151651692Y-98038847D01*
X151703069Y-97991703D01*
X151741925Y-97933532D01*
X151765962Y-97868605D01*
X151778611Y-97799555D01*
X151782814Y-97729997D01*
X151782814Y-96764749D01*
X151778609Y-96695208D01*
X151765962Y-96626264D01*
X151741974Y-96561006D01*
X151703069Y-96501700D01*
X151651534Y-96453712D01*
X151589740Y-96421954D01*
X151521721Y-96404068D01*
X151452598Y-96398141D01*
X151383475Y-96404068D01*
X151315456Y-96421954D01*
X151253662Y-96453712D01*
X151202127Y-96501700D01*
X151163193Y-96561003D01*
X151139112Y-96626264D01*
X151126557Y-96695205D01*
X151122382Y-96764749D01*
X150898533Y-96764749D01*
X150903392Y-96675377D01*
X150918073Y-96585597D01*
X150945082Y-96499177D01*
X150986705Y-96419146D01*
X151042029Y-96348432D01*
X151109803Y-96290430D01*
X151187612Y-96246417D01*
X151273446Y-96217645D01*
X151363354Y-96201856D01*
X151452598Y-96196640D01*
X151541826Y-96201858D01*
G37*
G36*
X152764915Y-98297984D02*
G01*
X152861115Y-98287919D01*
X152955180Y-98257439D01*
X153038508Y-98206308D01*
X153103435Y-98134341D01*
X153151904Y-98048913D01*
X153184646Y-97959463D01*
X153184646Y-98275636D01*
X153383216Y-98275636D01*
X153383216Y-97156393D01*
X152851621Y-97156393D01*
X152851621Y-97357893D01*
X153159367Y-97357893D01*
X153159367Y-97729997D01*
X153143980Y-97864331D01*
X153122312Y-97928670D01*
X153088048Y-97987429D01*
X153041603Y-98035992D01*
X152983146Y-98069983D01*
X152917796Y-98090008D01*
X152851621Y-98096605D01*
X152782552Y-98090354D01*
X152714479Y-98071448D01*
X152652527Y-98038847D01*
X152601150Y-97991703D01*
X152562265Y-97933535D01*
X152538135Y-97868605D01*
X152525578Y-97799558D01*
X152521405Y-97729997D01*
X152521405Y-96764749D01*
X152525580Y-96695205D01*
X152538135Y-96626264D01*
X152561982Y-96561138D01*
X152599807Y-96503043D01*
X152649873Y-96455793D01*
X152710327Y-96423298D01*
X152777141Y-96404422D01*
X152846003Y-96398141D01*
X152925888Y-96406148D01*
X153004151Y-96430381D01*
X153072168Y-96472861D01*
X153122975Y-96536626D01*
X153154606Y-96612984D01*
X153164985Y-96691965D01*
X153164985Y-96694774D01*
X153388833Y-96694774D01*
X153388833Y-96691965D01*
X153379105Y-96589846D01*
X153349632Y-96489121D01*
X153300332Y-96397025D01*
X153230808Y-96319861D01*
X153145614Y-96260618D01*
X153050313Y-96223263D01*
X152948784Y-96203286D01*
X152846003Y-96196640D01*
X152756957Y-96201876D01*
X152668317Y-96217645D01*
X152583809Y-96246668D01*
X152506017Y-96291895D01*
X152438179Y-96350971D01*
X152382919Y-96421954D01*
X152341590Y-96501828D01*
X152315752Y-96587063D01*
X152302102Y-96675541D01*
X152297556Y-96764749D01*
X152297556Y-97729997D01*
X152303113Y-97833274D01*
X152319904Y-97937115D01*
X152352117Y-98036336D01*
X152403924Y-98127380D01*
X152474549Y-98202894D01*
X152563415Y-98256096D01*
X152663105Y-98287583D01*
X152764915Y-98297984D01*
G37*
G36*
X124263379Y-85775636D02*
G01*
X125242793Y-85775636D01*
X125242793Y-85574135D01*
X124864949Y-85574135D01*
X124864949Y-83920489D01*
X125242793Y-83920489D01*
X125242793Y-83719111D01*
X124263379Y-83719111D01*
X124263379Y-83920489D01*
X124641223Y-83920489D01*
X124641223Y-85574135D01*
X124263379Y-85574135D01*
X124263379Y-85775636D01*
G37*
G36*
X125620514Y-85775636D02*
G01*
X125844363Y-85775636D01*
X125844363Y-84953026D01*
X125838745Y-84510946D01*
X125827510Y-84068866D01*
X126390002Y-85775636D01*
X126683704Y-85775636D01*
X126683704Y-83719111D01*
X126459855Y-83719111D01*
X126459855Y-84541721D01*
X126466816Y-84983800D01*
X126476708Y-85425880D01*
X125917025Y-83719111D01*
X125620514Y-83719111D01*
X125620514Y-85775636D01*
G37*
D11*
X155952598Y-81945636D02*
X155953165Y-86000000D01*
X155953235Y-86000000D01*
X155953235Y-87500000D01*
X146956434Y-87500000D01*
X146956434Y-86500000D01*
X146956013Y-86000000D01*
X146953907Y-83500000D01*
X149328656Y-83500000D01*
X149328656Y-86000000D01*
X153558195Y-86000000D01*
X153558195Y-83500000D01*
X149328656Y-83500000D01*
X146953907Y-83500000D01*
X146952598Y-81945636D01*
X146952598Y-72945636D01*
X155952598Y-72945636D01*
X155952598Y-81945636D01*
G36*
X155952598Y-81945636D02*
G01*
X155953165Y-86000000D01*
X155953235Y-86000000D01*
X155953235Y-87500000D01*
X146956434Y-87500000D01*
X146956434Y-86500000D01*
X146956013Y-86000000D01*
X146953907Y-83500000D01*
X149328656Y-83500000D01*
X149328656Y-86000000D01*
X153558195Y-86000000D01*
X153558195Y-83500000D01*
X149328656Y-83500000D01*
X146953907Y-83500000D01*
X146952598Y-81945636D01*
X146952598Y-72945636D01*
X155952598Y-72945636D01*
X155952598Y-81945636D01*
G37*
M02*
