%TF.GenerationSoftware,KiCad,Pcbnew,9.0.7*%
%TF.CreationDate,2026-02-02T08:25:31-05:00*%
%TF.ProjectId,mfos_vca,6d666f73-5f76-4636-912e-6b696361645f,rev?*%
%TF.SameCoordinates,Original*%
%TF.FileFunction,Legend,Top*%
%TF.FilePolarity,Positive*%
%FSLAX46Y46*%
G04 Gerber Fmt 4.6, Leading zero omitted, Abs format (unit mm)*
G04 Created by KiCad (PCBNEW 9.0.7) date 2026-02-02 08:25:31*
%MOMM*%
%LPD*%
G01*
G04 APERTURE LIST*
%ADD10C,0.150000*%
%ADD11C,0.120000*%
G04 APERTURE END LIST*
D10*
X166166666Y-104644819D02*
X166166666Y-105359104D01*
X166166666Y-105359104D02*
X166119047Y-105501961D01*
X166119047Y-105501961D02*
X166023809Y-105597200D01*
X166023809Y-105597200D02*
X165880952Y-105644819D01*
X165880952Y-105644819D02*
X165785714Y-105644819D01*
X167071428Y-104644819D02*
X166880952Y-104644819D01*
X166880952Y-104644819D02*
X166785714Y-104692438D01*
X166785714Y-104692438D02*
X166738095Y-104740057D01*
X166738095Y-104740057D02*
X166642857Y-104882914D01*
X166642857Y-104882914D02*
X166595238Y-105073390D01*
X166595238Y-105073390D02*
X166595238Y-105454342D01*
X166595238Y-105454342D02*
X166642857Y-105549580D01*
X166642857Y-105549580D02*
X166690476Y-105597200D01*
X166690476Y-105597200D02*
X166785714Y-105644819D01*
X166785714Y-105644819D02*
X166976190Y-105644819D01*
X166976190Y-105644819D02*
X167071428Y-105597200D01*
X167071428Y-105597200D02*
X167119047Y-105549580D01*
X167119047Y-105549580D02*
X167166666Y-105454342D01*
X167166666Y-105454342D02*
X167166666Y-105216247D01*
X167166666Y-105216247D02*
X167119047Y-105121009D01*
X167119047Y-105121009D02*
X167071428Y-105073390D01*
X167071428Y-105073390D02*
X166976190Y-105025771D01*
X166976190Y-105025771D02*
X166785714Y-105025771D01*
X166785714Y-105025771D02*
X166690476Y-105073390D01*
X166690476Y-105073390D02*
X166642857Y-105121009D01*
X166642857Y-105121009D02*
X166595238Y-105216247D01*
X129954819Y-131292857D02*
X129478628Y-131626190D01*
X129954819Y-131864285D02*
X128954819Y-131864285D01*
X128954819Y-131864285D02*
X128954819Y-131483333D01*
X128954819Y-131483333D02*
X129002438Y-131388095D01*
X129002438Y-131388095D02*
X129050057Y-131340476D01*
X129050057Y-131340476D02*
X129145295Y-131292857D01*
X129145295Y-131292857D02*
X129288152Y-131292857D01*
X129288152Y-131292857D02*
X129383390Y-131340476D01*
X129383390Y-131340476D02*
X129431009Y-131388095D01*
X129431009Y-131388095D02*
X129478628Y-131483333D01*
X129478628Y-131483333D02*
X129478628Y-131864285D01*
X128954819Y-130959523D02*
X128954819Y-130340476D01*
X128954819Y-130340476D02*
X129335771Y-130673809D01*
X129335771Y-130673809D02*
X129335771Y-130530952D01*
X129335771Y-130530952D02*
X129383390Y-130435714D01*
X129383390Y-130435714D02*
X129431009Y-130388095D01*
X129431009Y-130388095D02*
X129526247Y-130340476D01*
X129526247Y-130340476D02*
X129764342Y-130340476D01*
X129764342Y-130340476D02*
X129859580Y-130388095D01*
X129859580Y-130388095D02*
X129907200Y-130435714D01*
X129907200Y-130435714D02*
X129954819Y-130530952D01*
X129954819Y-130530952D02*
X129954819Y-130816666D01*
X129954819Y-130816666D02*
X129907200Y-130911904D01*
X129907200Y-130911904D02*
X129859580Y-130959523D01*
X129954819Y-129388095D02*
X129954819Y-129959523D01*
X129954819Y-129673809D02*
X128954819Y-129673809D01*
X128954819Y-129673809D02*
X129097676Y-129769047D01*
X129097676Y-129769047D02*
X129192914Y-129864285D01*
X129192914Y-129864285D02*
X129240533Y-129959523D01*
X126450097Y-61923803D02*
X125973906Y-62257136D01*
X126450097Y-62495231D02*
X125450097Y-62495231D01*
X125450097Y-62495231D02*
X125450097Y-62114279D01*
X125450097Y-62114279D02*
X125497716Y-62019041D01*
X125497716Y-62019041D02*
X125545335Y-61971422D01*
X125545335Y-61971422D02*
X125640573Y-61923803D01*
X125640573Y-61923803D02*
X125783430Y-61923803D01*
X125783430Y-61923803D02*
X125878668Y-61971422D01*
X125878668Y-61971422D02*
X125926287Y-62019041D01*
X125926287Y-62019041D02*
X125973906Y-62114279D01*
X125973906Y-62114279D02*
X125973906Y-62495231D01*
X125450097Y-61590469D02*
X125450097Y-60971422D01*
X125450097Y-60971422D02*
X125831049Y-61304755D01*
X125831049Y-61304755D02*
X125831049Y-61161898D01*
X125831049Y-61161898D02*
X125878668Y-61066660D01*
X125878668Y-61066660D02*
X125926287Y-61019041D01*
X125926287Y-61019041D02*
X126021525Y-60971422D01*
X126021525Y-60971422D02*
X126259620Y-60971422D01*
X126259620Y-60971422D02*
X126354858Y-61019041D01*
X126354858Y-61019041D02*
X126402478Y-61066660D01*
X126402478Y-61066660D02*
X126450097Y-61161898D01*
X126450097Y-61161898D02*
X126450097Y-61447612D01*
X126450097Y-61447612D02*
X126402478Y-61542850D01*
X126402478Y-61542850D02*
X126354858Y-61590469D01*
X146954819Y-134792857D02*
X146478628Y-135126190D01*
X146954819Y-135364285D02*
X145954819Y-135364285D01*
X145954819Y-135364285D02*
X145954819Y-134983333D01*
X145954819Y-134983333D02*
X146002438Y-134888095D01*
X146002438Y-134888095D02*
X146050057Y-134840476D01*
X146050057Y-134840476D02*
X146145295Y-134792857D01*
X146145295Y-134792857D02*
X146288152Y-134792857D01*
X146288152Y-134792857D02*
X146383390Y-134840476D01*
X146383390Y-134840476D02*
X146431009Y-134888095D01*
X146431009Y-134888095D02*
X146478628Y-134983333D01*
X146478628Y-134983333D02*
X146478628Y-135364285D01*
X145954819Y-134459523D02*
X145954819Y-133840476D01*
X145954819Y-133840476D02*
X146335771Y-134173809D01*
X146335771Y-134173809D02*
X146335771Y-134030952D01*
X146335771Y-134030952D02*
X146383390Y-133935714D01*
X146383390Y-133935714D02*
X146431009Y-133888095D01*
X146431009Y-133888095D02*
X146526247Y-133840476D01*
X146526247Y-133840476D02*
X146764342Y-133840476D01*
X146764342Y-133840476D02*
X146859580Y-133888095D01*
X146859580Y-133888095D02*
X146907200Y-133935714D01*
X146907200Y-133935714D02*
X146954819Y-134030952D01*
X146954819Y-134030952D02*
X146954819Y-134316666D01*
X146954819Y-134316666D02*
X146907200Y-134411904D01*
X146907200Y-134411904D02*
X146859580Y-134459523D01*
X145954819Y-132935714D02*
X145954819Y-133411904D01*
X145954819Y-133411904D02*
X146431009Y-133459523D01*
X146431009Y-133459523D02*
X146383390Y-133411904D01*
X146383390Y-133411904D02*
X146335771Y-133316666D01*
X146335771Y-133316666D02*
X146335771Y-133078571D01*
X146335771Y-133078571D02*
X146383390Y-132983333D01*
X146383390Y-132983333D02*
X146431009Y-132935714D01*
X146431009Y-132935714D02*
X146526247Y-132888095D01*
X146526247Y-132888095D02*
X146764342Y-132888095D01*
X146764342Y-132888095D02*
X146859580Y-132935714D01*
X146859580Y-132935714D02*
X146907200Y-132983333D01*
X146907200Y-132983333D02*
X146954819Y-133078571D01*
X146954819Y-133078571D02*
X146954819Y-133316666D01*
X146954819Y-133316666D02*
X146907200Y-133411904D01*
X146907200Y-133411904D02*
X146859580Y-133459523D01*
X143457578Y-61758625D02*
X142981387Y-62091958D01*
X143457578Y-62330053D02*
X142457578Y-62330053D01*
X142457578Y-62330053D02*
X142457578Y-61949101D01*
X142457578Y-61949101D02*
X142505197Y-61853863D01*
X142505197Y-61853863D02*
X142552816Y-61806244D01*
X142552816Y-61806244D02*
X142648054Y-61758625D01*
X142648054Y-61758625D02*
X142790911Y-61758625D01*
X142790911Y-61758625D02*
X142886149Y-61806244D01*
X142886149Y-61806244D02*
X142933768Y-61853863D01*
X142933768Y-61853863D02*
X142981387Y-61949101D01*
X142981387Y-61949101D02*
X142981387Y-62330053D01*
X142886149Y-61187196D02*
X142838530Y-61282434D01*
X142838530Y-61282434D02*
X142790911Y-61330053D01*
X142790911Y-61330053D02*
X142695673Y-61377672D01*
X142695673Y-61377672D02*
X142648054Y-61377672D01*
X142648054Y-61377672D02*
X142552816Y-61330053D01*
X142552816Y-61330053D02*
X142505197Y-61282434D01*
X142505197Y-61282434D02*
X142457578Y-61187196D01*
X142457578Y-61187196D02*
X142457578Y-60996720D01*
X142457578Y-60996720D02*
X142505197Y-60901482D01*
X142505197Y-60901482D02*
X142552816Y-60853863D01*
X142552816Y-60853863D02*
X142648054Y-60806244D01*
X142648054Y-60806244D02*
X142695673Y-60806244D01*
X142695673Y-60806244D02*
X142790911Y-60853863D01*
X142790911Y-60853863D02*
X142838530Y-60901482D01*
X142838530Y-60901482D02*
X142886149Y-60996720D01*
X142886149Y-60996720D02*
X142886149Y-61187196D01*
X142886149Y-61187196D02*
X142933768Y-61282434D01*
X142933768Y-61282434D02*
X142981387Y-61330053D01*
X142981387Y-61330053D02*
X143076625Y-61377672D01*
X143076625Y-61377672D02*
X143267101Y-61377672D01*
X143267101Y-61377672D02*
X143362339Y-61330053D01*
X143362339Y-61330053D02*
X143409959Y-61282434D01*
X143409959Y-61282434D02*
X143457578Y-61187196D01*
X143457578Y-61187196D02*
X143457578Y-60996720D01*
X143457578Y-60996720D02*
X143409959Y-60901482D01*
X143409959Y-60901482D02*
X143362339Y-60853863D01*
X143362339Y-60853863D02*
X143267101Y-60806244D01*
X143267101Y-60806244D02*
X143076625Y-60806244D01*
X143076625Y-60806244D02*
X142981387Y-60853863D01*
X142981387Y-60853863D02*
X142933768Y-60901482D01*
X142933768Y-60901482D02*
X142886149Y-60996720D01*
X139454819Y-61816666D02*
X138978628Y-62149999D01*
X139454819Y-62388094D02*
X138454819Y-62388094D01*
X138454819Y-62388094D02*
X138454819Y-62007142D01*
X138454819Y-62007142D02*
X138502438Y-61911904D01*
X138502438Y-61911904D02*
X138550057Y-61864285D01*
X138550057Y-61864285D02*
X138645295Y-61816666D01*
X138645295Y-61816666D02*
X138788152Y-61816666D01*
X138788152Y-61816666D02*
X138883390Y-61864285D01*
X138883390Y-61864285D02*
X138931009Y-61911904D01*
X138931009Y-61911904D02*
X138978628Y-62007142D01*
X138978628Y-62007142D02*
X138978628Y-62388094D01*
X138788152Y-60959523D02*
X139454819Y-60959523D01*
X138407200Y-61197618D02*
X139121485Y-61435713D01*
X139121485Y-61435713D02*
X139121485Y-60816666D01*
X152424704Y-62243013D02*
X151948513Y-62576346D01*
X152424704Y-62814441D02*
X151424704Y-62814441D01*
X151424704Y-62814441D02*
X151424704Y-62433489D01*
X151424704Y-62433489D02*
X151472323Y-62338251D01*
X151472323Y-62338251D02*
X151519942Y-62290632D01*
X151519942Y-62290632D02*
X151615180Y-62243013D01*
X151615180Y-62243013D02*
X151758037Y-62243013D01*
X151758037Y-62243013D02*
X151853275Y-62290632D01*
X151853275Y-62290632D02*
X151900894Y-62338251D01*
X151900894Y-62338251D02*
X151948513Y-62433489D01*
X151948513Y-62433489D02*
X151948513Y-62814441D01*
X152424704Y-61290632D02*
X152424704Y-61862060D01*
X152424704Y-61576346D02*
X151424704Y-61576346D01*
X151424704Y-61576346D02*
X151567561Y-61671584D01*
X151567561Y-61671584D02*
X151662799Y-61766822D01*
X151662799Y-61766822D02*
X151710418Y-61862060D01*
X151424704Y-60671584D02*
X151424704Y-60576346D01*
X151424704Y-60576346D02*
X151472323Y-60481108D01*
X151472323Y-60481108D02*
X151519942Y-60433489D01*
X151519942Y-60433489D02*
X151615180Y-60385870D01*
X151615180Y-60385870D02*
X151805656Y-60338251D01*
X151805656Y-60338251D02*
X152043751Y-60338251D01*
X152043751Y-60338251D02*
X152234227Y-60385870D01*
X152234227Y-60385870D02*
X152329465Y-60433489D01*
X152329465Y-60433489D02*
X152377085Y-60481108D01*
X152377085Y-60481108D02*
X152424704Y-60576346D01*
X152424704Y-60576346D02*
X152424704Y-60671584D01*
X152424704Y-60671584D02*
X152377085Y-60766822D01*
X152377085Y-60766822D02*
X152329465Y-60814441D01*
X152329465Y-60814441D02*
X152234227Y-60862060D01*
X152234227Y-60862060D02*
X152043751Y-60909679D01*
X152043751Y-60909679D02*
X151805656Y-60909679D01*
X151805656Y-60909679D02*
X151615180Y-60862060D01*
X151615180Y-60862060D02*
X151519942Y-60814441D01*
X151519942Y-60814441D02*
X151472323Y-60766822D01*
X151472323Y-60766822D02*
X151424704Y-60671584D01*
X167324819Y-82981904D02*
X168134342Y-82981904D01*
X168134342Y-82981904D02*
X168229580Y-82934285D01*
X168229580Y-82934285D02*
X168277200Y-82886666D01*
X168277200Y-82886666D02*
X168324819Y-82791428D01*
X168324819Y-82791428D02*
X168324819Y-82600952D01*
X168324819Y-82600952D02*
X168277200Y-82505714D01*
X168277200Y-82505714D02*
X168229580Y-82458095D01*
X168229580Y-82458095D02*
X168134342Y-82410476D01*
X168134342Y-82410476D02*
X167324819Y-82410476D01*
X167420057Y-81981904D02*
X167372438Y-81934285D01*
X167372438Y-81934285D02*
X167324819Y-81839047D01*
X167324819Y-81839047D02*
X167324819Y-81600952D01*
X167324819Y-81600952D02*
X167372438Y-81505714D01*
X167372438Y-81505714D02*
X167420057Y-81458095D01*
X167420057Y-81458095D02*
X167515295Y-81410476D01*
X167515295Y-81410476D02*
X167610533Y-81410476D01*
X167610533Y-81410476D02*
X167753390Y-81458095D01*
X167753390Y-81458095D02*
X168324819Y-82029523D01*
X168324819Y-82029523D02*
X168324819Y-81410476D01*
X154784761Y-88960057D02*
X154689523Y-88912438D01*
X154689523Y-88912438D02*
X154594285Y-88817200D01*
X154594285Y-88817200D02*
X154451428Y-88674342D01*
X154451428Y-88674342D02*
X154356190Y-88626723D01*
X154356190Y-88626723D02*
X154260952Y-88626723D01*
X154308571Y-88864819D02*
X154213333Y-88817200D01*
X154213333Y-88817200D02*
X154118095Y-88721961D01*
X154118095Y-88721961D02*
X154070476Y-88531485D01*
X154070476Y-88531485D02*
X154070476Y-88198152D01*
X154070476Y-88198152D02*
X154118095Y-88007676D01*
X154118095Y-88007676D02*
X154213333Y-87912438D01*
X154213333Y-87912438D02*
X154308571Y-87864819D01*
X154308571Y-87864819D02*
X154499047Y-87864819D01*
X154499047Y-87864819D02*
X154594285Y-87912438D01*
X154594285Y-87912438D02*
X154689523Y-88007676D01*
X154689523Y-88007676D02*
X154737142Y-88198152D01*
X154737142Y-88198152D02*
X154737142Y-88531485D01*
X154737142Y-88531485D02*
X154689523Y-88721961D01*
X154689523Y-88721961D02*
X154594285Y-88817200D01*
X154594285Y-88817200D02*
X154499047Y-88864819D01*
X154499047Y-88864819D02*
X154308571Y-88864819D01*
X155689523Y-88864819D02*
X155118095Y-88864819D01*
X155403809Y-88864819D02*
X155403809Y-87864819D01*
X155403809Y-87864819D02*
X155308571Y-88007676D01*
X155308571Y-88007676D02*
X155213333Y-88102914D01*
X155213333Y-88102914D02*
X155118095Y-88150533D01*
X134454819Y-61816666D02*
X133978628Y-62149999D01*
X134454819Y-62388094D02*
X133454819Y-62388094D01*
X133454819Y-62388094D02*
X133454819Y-62007142D01*
X133454819Y-62007142D02*
X133502438Y-61911904D01*
X133502438Y-61911904D02*
X133550057Y-61864285D01*
X133550057Y-61864285D02*
X133645295Y-61816666D01*
X133645295Y-61816666D02*
X133788152Y-61816666D01*
X133788152Y-61816666D02*
X133883390Y-61864285D01*
X133883390Y-61864285D02*
X133931009Y-61911904D01*
X133931009Y-61911904D02*
X133978628Y-62007142D01*
X133978628Y-62007142D02*
X133978628Y-62388094D01*
X133454819Y-60959523D02*
X133454819Y-61149999D01*
X133454819Y-61149999D02*
X133502438Y-61245237D01*
X133502438Y-61245237D02*
X133550057Y-61292856D01*
X133550057Y-61292856D02*
X133692914Y-61388094D01*
X133692914Y-61388094D02*
X133883390Y-61435713D01*
X133883390Y-61435713D02*
X134264342Y-61435713D01*
X134264342Y-61435713D02*
X134359580Y-61388094D01*
X134359580Y-61388094D02*
X134407200Y-61340475D01*
X134407200Y-61340475D02*
X134454819Y-61245237D01*
X134454819Y-61245237D02*
X134454819Y-61054761D01*
X134454819Y-61054761D02*
X134407200Y-60959523D01*
X134407200Y-60959523D02*
X134359580Y-60911904D01*
X134359580Y-60911904D02*
X134264342Y-60864285D01*
X134264342Y-60864285D02*
X134026247Y-60864285D01*
X134026247Y-60864285D02*
X133931009Y-60911904D01*
X133931009Y-60911904D02*
X133883390Y-60959523D01*
X133883390Y-60959523D02*
X133835771Y-61054761D01*
X133835771Y-61054761D02*
X133835771Y-61245237D01*
X133835771Y-61245237D02*
X133883390Y-61340475D01*
X133883390Y-61340475D02*
X133931009Y-61388094D01*
X133931009Y-61388094D02*
X134026247Y-61435713D01*
X122333333Y-134009580D02*
X122285714Y-134057200D01*
X122285714Y-134057200D02*
X122142857Y-134104819D01*
X122142857Y-134104819D02*
X122047619Y-134104819D01*
X122047619Y-134104819D02*
X121904762Y-134057200D01*
X121904762Y-134057200D02*
X121809524Y-133961961D01*
X121809524Y-133961961D02*
X121761905Y-133866723D01*
X121761905Y-133866723D02*
X121714286Y-133676247D01*
X121714286Y-133676247D02*
X121714286Y-133533390D01*
X121714286Y-133533390D02*
X121761905Y-133342914D01*
X121761905Y-133342914D02*
X121809524Y-133247676D01*
X121809524Y-133247676D02*
X121904762Y-133152438D01*
X121904762Y-133152438D02*
X122047619Y-133104819D01*
X122047619Y-133104819D02*
X122142857Y-133104819D01*
X122142857Y-133104819D02*
X122285714Y-133152438D01*
X122285714Y-133152438D02*
X122333333Y-133200057D01*
X122666667Y-133104819D02*
X123285714Y-133104819D01*
X123285714Y-133104819D02*
X122952381Y-133485771D01*
X122952381Y-133485771D02*
X123095238Y-133485771D01*
X123095238Y-133485771D02*
X123190476Y-133533390D01*
X123190476Y-133533390D02*
X123238095Y-133581009D01*
X123238095Y-133581009D02*
X123285714Y-133676247D01*
X123285714Y-133676247D02*
X123285714Y-133914342D01*
X123285714Y-133914342D02*
X123238095Y-134009580D01*
X123238095Y-134009580D02*
X123190476Y-134057200D01*
X123190476Y-134057200D02*
X123095238Y-134104819D01*
X123095238Y-134104819D02*
X122809524Y-134104819D01*
X122809524Y-134104819D02*
X122714286Y-134057200D01*
X122714286Y-134057200D02*
X122666667Y-134009580D01*
X147663738Y-75280765D02*
X147187547Y-75614098D01*
X147663738Y-75852193D02*
X146663738Y-75852193D01*
X146663738Y-75852193D02*
X146663738Y-75471241D01*
X146663738Y-75471241D02*
X146711357Y-75376003D01*
X146711357Y-75376003D02*
X146758976Y-75328384D01*
X146758976Y-75328384D02*
X146854214Y-75280765D01*
X146854214Y-75280765D02*
X146997071Y-75280765D01*
X146997071Y-75280765D02*
X147092309Y-75328384D01*
X147092309Y-75328384D02*
X147139928Y-75376003D01*
X147139928Y-75376003D02*
X147187547Y-75471241D01*
X147187547Y-75471241D02*
X147187547Y-75852193D01*
X147663738Y-74328384D02*
X147663738Y-74899812D01*
X147663738Y-74614098D02*
X146663738Y-74614098D01*
X146663738Y-74614098D02*
X146806595Y-74709336D01*
X146806595Y-74709336D02*
X146901833Y-74804574D01*
X146901833Y-74804574D02*
X146949452Y-74899812D01*
X146997071Y-73471241D02*
X147663738Y-73471241D01*
X146616119Y-73709336D02*
X147330404Y-73947431D01*
X147330404Y-73947431D02*
X147330404Y-73328384D01*
X144857142Y-105104819D02*
X144523809Y-104628628D01*
X144285714Y-105104819D02*
X144285714Y-104104819D01*
X144285714Y-104104819D02*
X144666666Y-104104819D01*
X144666666Y-104104819D02*
X144761904Y-104152438D01*
X144761904Y-104152438D02*
X144809523Y-104200057D01*
X144809523Y-104200057D02*
X144857142Y-104295295D01*
X144857142Y-104295295D02*
X144857142Y-104438152D01*
X144857142Y-104438152D02*
X144809523Y-104533390D01*
X144809523Y-104533390D02*
X144761904Y-104581009D01*
X144761904Y-104581009D02*
X144666666Y-104628628D01*
X144666666Y-104628628D02*
X144285714Y-104628628D01*
X145238095Y-104200057D02*
X145285714Y-104152438D01*
X145285714Y-104152438D02*
X145380952Y-104104819D01*
X145380952Y-104104819D02*
X145619047Y-104104819D01*
X145619047Y-104104819D02*
X145714285Y-104152438D01*
X145714285Y-104152438D02*
X145761904Y-104200057D01*
X145761904Y-104200057D02*
X145809523Y-104295295D01*
X145809523Y-104295295D02*
X145809523Y-104390533D01*
X145809523Y-104390533D02*
X145761904Y-104533390D01*
X145761904Y-104533390D02*
X145190476Y-105104819D01*
X145190476Y-105104819D02*
X145809523Y-105104819D01*
X146380952Y-104533390D02*
X146285714Y-104485771D01*
X146285714Y-104485771D02*
X146238095Y-104438152D01*
X146238095Y-104438152D02*
X146190476Y-104342914D01*
X146190476Y-104342914D02*
X146190476Y-104295295D01*
X146190476Y-104295295D02*
X146238095Y-104200057D01*
X146238095Y-104200057D02*
X146285714Y-104152438D01*
X146285714Y-104152438D02*
X146380952Y-104104819D01*
X146380952Y-104104819D02*
X146571428Y-104104819D01*
X146571428Y-104104819D02*
X146666666Y-104152438D01*
X146666666Y-104152438D02*
X146714285Y-104200057D01*
X146714285Y-104200057D02*
X146761904Y-104295295D01*
X146761904Y-104295295D02*
X146761904Y-104342914D01*
X146761904Y-104342914D02*
X146714285Y-104438152D01*
X146714285Y-104438152D02*
X146666666Y-104485771D01*
X146666666Y-104485771D02*
X146571428Y-104533390D01*
X146571428Y-104533390D02*
X146380952Y-104533390D01*
X146380952Y-104533390D02*
X146285714Y-104581009D01*
X146285714Y-104581009D02*
X146238095Y-104628628D01*
X146238095Y-104628628D02*
X146190476Y-104723866D01*
X146190476Y-104723866D02*
X146190476Y-104914342D01*
X146190476Y-104914342D02*
X146238095Y-105009580D01*
X146238095Y-105009580D02*
X146285714Y-105057200D01*
X146285714Y-105057200D02*
X146380952Y-105104819D01*
X146380952Y-105104819D02*
X146571428Y-105104819D01*
X146571428Y-105104819D02*
X146666666Y-105057200D01*
X146666666Y-105057200D02*
X146714285Y-105009580D01*
X146714285Y-105009580D02*
X146761904Y-104914342D01*
X146761904Y-104914342D02*
X146761904Y-104723866D01*
X146761904Y-104723866D02*
X146714285Y-104628628D01*
X146714285Y-104628628D02*
X146666666Y-104581009D01*
X146666666Y-104581009D02*
X146571428Y-104533390D01*
X139800822Y-147674686D02*
X139324631Y-148008019D01*
X139800822Y-148246114D02*
X138800822Y-148246114D01*
X138800822Y-148246114D02*
X138800822Y-147865162D01*
X138800822Y-147865162D02*
X138848441Y-147769924D01*
X138848441Y-147769924D02*
X138896060Y-147722305D01*
X138896060Y-147722305D02*
X138991298Y-147674686D01*
X138991298Y-147674686D02*
X139134155Y-147674686D01*
X139134155Y-147674686D02*
X139229393Y-147722305D01*
X139229393Y-147722305D02*
X139277012Y-147769924D01*
X139277012Y-147769924D02*
X139324631Y-147865162D01*
X139324631Y-147865162D02*
X139324631Y-148246114D01*
X139134155Y-146817543D02*
X139800822Y-146817543D01*
X138753203Y-147055638D02*
X139467488Y-147293733D01*
X139467488Y-147293733D02*
X139467488Y-146674686D01*
X138800822Y-146103257D02*
X138800822Y-146008019D01*
X138800822Y-146008019D02*
X138848441Y-145912781D01*
X138848441Y-145912781D02*
X138896060Y-145865162D01*
X138896060Y-145865162D02*
X138991298Y-145817543D01*
X138991298Y-145817543D02*
X139181774Y-145769924D01*
X139181774Y-145769924D02*
X139419869Y-145769924D01*
X139419869Y-145769924D02*
X139610345Y-145817543D01*
X139610345Y-145817543D02*
X139705583Y-145865162D01*
X139705583Y-145865162D02*
X139753203Y-145912781D01*
X139753203Y-145912781D02*
X139800822Y-146008019D01*
X139800822Y-146008019D02*
X139800822Y-146103257D01*
X139800822Y-146103257D02*
X139753203Y-146198495D01*
X139753203Y-146198495D02*
X139705583Y-146246114D01*
X139705583Y-146246114D02*
X139610345Y-146293733D01*
X139610345Y-146293733D02*
X139419869Y-146341352D01*
X139419869Y-146341352D02*
X139181774Y-146341352D01*
X139181774Y-146341352D02*
X138991298Y-146293733D01*
X138991298Y-146293733D02*
X138896060Y-146246114D01*
X138896060Y-146246114D02*
X138848441Y-146198495D01*
X138848441Y-146198495D02*
X138800822Y-146103257D01*
X147174761Y-94640057D02*
X147079523Y-94592438D01*
X147079523Y-94592438D02*
X146984285Y-94497200D01*
X146984285Y-94497200D02*
X146841428Y-94354342D01*
X146841428Y-94354342D02*
X146746190Y-94306723D01*
X146746190Y-94306723D02*
X146650952Y-94306723D01*
X146698571Y-94544819D02*
X146603333Y-94497200D01*
X146603333Y-94497200D02*
X146508095Y-94401961D01*
X146508095Y-94401961D02*
X146460476Y-94211485D01*
X146460476Y-94211485D02*
X146460476Y-93878152D01*
X146460476Y-93878152D02*
X146508095Y-93687676D01*
X146508095Y-93687676D02*
X146603333Y-93592438D01*
X146603333Y-93592438D02*
X146698571Y-93544819D01*
X146698571Y-93544819D02*
X146889047Y-93544819D01*
X146889047Y-93544819D02*
X146984285Y-93592438D01*
X146984285Y-93592438D02*
X147079523Y-93687676D01*
X147079523Y-93687676D02*
X147127142Y-93878152D01*
X147127142Y-93878152D02*
X147127142Y-94211485D01*
X147127142Y-94211485D02*
X147079523Y-94401961D01*
X147079523Y-94401961D02*
X146984285Y-94497200D01*
X146984285Y-94497200D02*
X146889047Y-94544819D01*
X146889047Y-94544819D02*
X146698571Y-94544819D01*
X147460476Y-93544819D02*
X148079523Y-93544819D01*
X148079523Y-93544819D02*
X147746190Y-93925771D01*
X147746190Y-93925771D02*
X147889047Y-93925771D01*
X147889047Y-93925771D02*
X147984285Y-93973390D01*
X147984285Y-93973390D02*
X148031904Y-94021009D01*
X148031904Y-94021009D02*
X148079523Y-94116247D01*
X148079523Y-94116247D02*
X148079523Y-94354342D01*
X148079523Y-94354342D02*
X148031904Y-94449580D01*
X148031904Y-94449580D02*
X147984285Y-94497200D01*
X147984285Y-94497200D02*
X147889047Y-94544819D01*
X147889047Y-94544819D02*
X147603333Y-94544819D01*
X147603333Y-94544819D02*
X147508095Y-94497200D01*
X147508095Y-94497200D02*
X147460476Y-94449580D01*
X143479094Y-75368351D02*
X143002903Y-75701684D01*
X143479094Y-75939779D02*
X142479094Y-75939779D01*
X142479094Y-75939779D02*
X142479094Y-75558827D01*
X142479094Y-75558827D02*
X142526713Y-75463589D01*
X142526713Y-75463589D02*
X142574332Y-75415970D01*
X142574332Y-75415970D02*
X142669570Y-75368351D01*
X142669570Y-75368351D02*
X142812427Y-75368351D01*
X142812427Y-75368351D02*
X142907665Y-75415970D01*
X142907665Y-75415970D02*
X142955284Y-75463589D01*
X142955284Y-75463589D02*
X143002903Y-75558827D01*
X143002903Y-75558827D02*
X143002903Y-75939779D01*
X143479094Y-74415970D02*
X143479094Y-74987398D01*
X143479094Y-74701684D02*
X142479094Y-74701684D01*
X142479094Y-74701684D02*
X142621951Y-74796922D01*
X142621951Y-74796922D02*
X142717189Y-74892160D01*
X142717189Y-74892160D02*
X142764808Y-74987398D01*
X142907665Y-73844541D02*
X142860046Y-73939779D01*
X142860046Y-73939779D02*
X142812427Y-73987398D01*
X142812427Y-73987398D02*
X142717189Y-74035017D01*
X142717189Y-74035017D02*
X142669570Y-74035017D01*
X142669570Y-74035017D02*
X142574332Y-73987398D01*
X142574332Y-73987398D02*
X142526713Y-73939779D01*
X142526713Y-73939779D02*
X142479094Y-73844541D01*
X142479094Y-73844541D02*
X142479094Y-73654065D01*
X142479094Y-73654065D02*
X142526713Y-73558827D01*
X142526713Y-73558827D02*
X142574332Y-73511208D01*
X142574332Y-73511208D02*
X142669570Y-73463589D01*
X142669570Y-73463589D02*
X142717189Y-73463589D01*
X142717189Y-73463589D02*
X142812427Y-73511208D01*
X142812427Y-73511208D02*
X142860046Y-73558827D01*
X142860046Y-73558827D02*
X142907665Y-73654065D01*
X142907665Y-73654065D02*
X142907665Y-73844541D01*
X142907665Y-73844541D02*
X142955284Y-73939779D01*
X142955284Y-73939779D02*
X143002903Y-73987398D01*
X143002903Y-73987398D02*
X143098141Y-74035017D01*
X143098141Y-74035017D02*
X143288617Y-74035017D01*
X143288617Y-74035017D02*
X143383855Y-73987398D01*
X143383855Y-73987398D02*
X143431475Y-73939779D01*
X143431475Y-73939779D02*
X143479094Y-73844541D01*
X143479094Y-73844541D02*
X143479094Y-73654065D01*
X143479094Y-73654065D02*
X143431475Y-73558827D01*
X143431475Y-73558827D02*
X143383855Y-73511208D01*
X143383855Y-73511208D02*
X143288617Y-73463589D01*
X143288617Y-73463589D02*
X143098141Y-73463589D01*
X143098141Y-73463589D02*
X143002903Y-73511208D01*
X143002903Y-73511208D02*
X142955284Y-73558827D01*
X142955284Y-73558827D02*
X142907665Y-73654065D01*
X125954819Y-131292857D02*
X125478628Y-131626190D01*
X125954819Y-131864285D02*
X124954819Y-131864285D01*
X124954819Y-131864285D02*
X124954819Y-131483333D01*
X124954819Y-131483333D02*
X125002438Y-131388095D01*
X125002438Y-131388095D02*
X125050057Y-131340476D01*
X125050057Y-131340476D02*
X125145295Y-131292857D01*
X125145295Y-131292857D02*
X125288152Y-131292857D01*
X125288152Y-131292857D02*
X125383390Y-131340476D01*
X125383390Y-131340476D02*
X125431009Y-131388095D01*
X125431009Y-131388095D02*
X125478628Y-131483333D01*
X125478628Y-131483333D02*
X125478628Y-131864285D01*
X124954819Y-130959523D02*
X124954819Y-130340476D01*
X124954819Y-130340476D02*
X125335771Y-130673809D01*
X125335771Y-130673809D02*
X125335771Y-130530952D01*
X125335771Y-130530952D02*
X125383390Y-130435714D01*
X125383390Y-130435714D02*
X125431009Y-130388095D01*
X125431009Y-130388095D02*
X125526247Y-130340476D01*
X125526247Y-130340476D02*
X125764342Y-130340476D01*
X125764342Y-130340476D02*
X125859580Y-130388095D01*
X125859580Y-130388095D02*
X125907200Y-130435714D01*
X125907200Y-130435714D02*
X125954819Y-130530952D01*
X125954819Y-130530952D02*
X125954819Y-130816666D01*
X125954819Y-130816666D02*
X125907200Y-130911904D01*
X125907200Y-130911904D02*
X125859580Y-130959523D01*
X124954819Y-129721428D02*
X124954819Y-129626190D01*
X124954819Y-129626190D02*
X125002438Y-129530952D01*
X125002438Y-129530952D02*
X125050057Y-129483333D01*
X125050057Y-129483333D02*
X125145295Y-129435714D01*
X125145295Y-129435714D02*
X125335771Y-129388095D01*
X125335771Y-129388095D02*
X125573866Y-129388095D01*
X125573866Y-129388095D02*
X125764342Y-129435714D01*
X125764342Y-129435714D02*
X125859580Y-129483333D01*
X125859580Y-129483333D02*
X125907200Y-129530952D01*
X125907200Y-129530952D02*
X125954819Y-129626190D01*
X125954819Y-129626190D02*
X125954819Y-129721428D01*
X125954819Y-129721428D02*
X125907200Y-129816666D01*
X125907200Y-129816666D02*
X125859580Y-129864285D01*
X125859580Y-129864285D02*
X125764342Y-129911904D01*
X125764342Y-129911904D02*
X125573866Y-129959523D01*
X125573866Y-129959523D02*
X125335771Y-129959523D01*
X125335771Y-129959523D02*
X125145295Y-129911904D01*
X125145295Y-129911904D02*
X125050057Y-129864285D01*
X125050057Y-129864285D02*
X125002438Y-129816666D01*
X125002438Y-129816666D02*
X124954819Y-129721428D01*
X160454819Y-117792857D02*
X159978628Y-118126190D01*
X160454819Y-118364285D02*
X159454819Y-118364285D01*
X159454819Y-118364285D02*
X159454819Y-117983333D01*
X159454819Y-117983333D02*
X159502438Y-117888095D01*
X159502438Y-117888095D02*
X159550057Y-117840476D01*
X159550057Y-117840476D02*
X159645295Y-117792857D01*
X159645295Y-117792857D02*
X159788152Y-117792857D01*
X159788152Y-117792857D02*
X159883390Y-117840476D01*
X159883390Y-117840476D02*
X159931009Y-117888095D01*
X159931009Y-117888095D02*
X159978628Y-117983333D01*
X159978628Y-117983333D02*
X159978628Y-118364285D01*
X159454819Y-117459523D02*
X159454819Y-116840476D01*
X159454819Y-116840476D02*
X159835771Y-117173809D01*
X159835771Y-117173809D02*
X159835771Y-117030952D01*
X159835771Y-117030952D02*
X159883390Y-116935714D01*
X159883390Y-116935714D02*
X159931009Y-116888095D01*
X159931009Y-116888095D02*
X160026247Y-116840476D01*
X160026247Y-116840476D02*
X160264342Y-116840476D01*
X160264342Y-116840476D02*
X160359580Y-116888095D01*
X160359580Y-116888095D02*
X160407200Y-116935714D01*
X160407200Y-116935714D02*
X160454819Y-117030952D01*
X160454819Y-117030952D02*
X160454819Y-117316666D01*
X160454819Y-117316666D02*
X160407200Y-117411904D01*
X160407200Y-117411904D02*
X160359580Y-117459523D01*
X159883390Y-116269047D02*
X159835771Y-116364285D01*
X159835771Y-116364285D02*
X159788152Y-116411904D01*
X159788152Y-116411904D02*
X159692914Y-116459523D01*
X159692914Y-116459523D02*
X159645295Y-116459523D01*
X159645295Y-116459523D02*
X159550057Y-116411904D01*
X159550057Y-116411904D02*
X159502438Y-116364285D01*
X159502438Y-116364285D02*
X159454819Y-116269047D01*
X159454819Y-116269047D02*
X159454819Y-116078571D01*
X159454819Y-116078571D02*
X159502438Y-115983333D01*
X159502438Y-115983333D02*
X159550057Y-115935714D01*
X159550057Y-115935714D02*
X159645295Y-115888095D01*
X159645295Y-115888095D02*
X159692914Y-115888095D01*
X159692914Y-115888095D02*
X159788152Y-115935714D01*
X159788152Y-115935714D02*
X159835771Y-115983333D01*
X159835771Y-115983333D02*
X159883390Y-116078571D01*
X159883390Y-116078571D02*
X159883390Y-116269047D01*
X159883390Y-116269047D02*
X159931009Y-116364285D01*
X159931009Y-116364285D02*
X159978628Y-116411904D01*
X159978628Y-116411904D02*
X160073866Y-116459523D01*
X160073866Y-116459523D02*
X160264342Y-116459523D01*
X160264342Y-116459523D02*
X160359580Y-116411904D01*
X160359580Y-116411904D02*
X160407200Y-116364285D01*
X160407200Y-116364285D02*
X160454819Y-116269047D01*
X160454819Y-116269047D02*
X160454819Y-116078571D01*
X160454819Y-116078571D02*
X160407200Y-115983333D01*
X160407200Y-115983333D02*
X160359580Y-115935714D01*
X160359580Y-115935714D02*
X160264342Y-115888095D01*
X160264342Y-115888095D02*
X160073866Y-115888095D01*
X160073866Y-115888095D02*
X159978628Y-115935714D01*
X159978628Y-115935714D02*
X159931009Y-115983333D01*
X159931009Y-115983333D02*
X159883390Y-116078571D01*
X150954819Y-134792857D02*
X150478628Y-135126190D01*
X150954819Y-135364285D02*
X149954819Y-135364285D01*
X149954819Y-135364285D02*
X149954819Y-134983333D01*
X149954819Y-134983333D02*
X150002438Y-134888095D01*
X150002438Y-134888095D02*
X150050057Y-134840476D01*
X150050057Y-134840476D02*
X150145295Y-134792857D01*
X150145295Y-134792857D02*
X150288152Y-134792857D01*
X150288152Y-134792857D02*
X150383390Y-134840476D01*
X150383390Y-134840476D02*
X150431009Y-134888095D01*
X150431009Y-134888095D02*
X150478628Y-134983333D01*
X150478628Y-134983333D02*
X150478628Y-135364285D01*
X149954819Y-134459523D02*
X149954819Y-133840476D01*
X149954819Y-133840476D02*
X150335771Y-134173809D01*
X150335771Y-134173809D02*
X150335771Y-134030952D01*
X150335771Y-134030952D02*
X150383390Y-133935714D01*
X150383390Y-133935714D02*
X150431009Y-133888095D01*
X150431009Y-133888095D02*
X150526247Y-133840476D01*
X150526247Y-133840476D02*
X150764342Y-133840476D01*
X150764342Y-133840476D02*
X150859580Y-133888095D01*
X150859580Y-133888095D02*
X150907200Y-133935714D01*
X150907200Y-133935714D02*
X150954819Y-134030952D01*
X150954819Y-134030952D02*
X150954819Y-134316666D01*
X150954819Y-134316666D02*
X150907200Y-134411904D01*
X150907200Y-134411904D02*
X150859580Y-134459523D01*
X149954819Y-132983333D02*
X149954819Y-133173809D01*
X149954819Y-133173809D02*
X150002438Y-133269047D01*
X150002438Y-133269047D02*
X150050057Y-133316666D01*
X150050057Y-133316666D02*
X150192914Y-133411904D01*
X150192914Y-133411904D02*
X150383390Y-133459523D01*
X150383390Y-133459523D02*
X150764342Y-133459523D01*
X150764342Y-133459523D02*
X150859580Y-133411904D01*
X150859580Y-133411904D02*
X150907200Y-133364285D01*
X150907200Y-133364285D02*
X150954819Y-133269047D01*
X150954819Y-133269047D02*
X150954819Y-133078571D01*
X150954819Y-133078571D02*
X150907200Y-132983333D01*
X150907200Y-132983333D02*
X150859580Y-132935714D01*
X150859580Y-132935714D02*
X150764342Y-132888095D01*
X150764342Y-132888095D02*
X150526247Y-132888095D01*
X150526247Y-132888095D02*
X150431009Y-132935714D01*
X150431009Y-132935714D02*
X150383390Y-132983333D01*
X150383390Y-132983333D02*
X150335771Y-133078571D01*
X150335771Y-133078571D02*
X150335771Y-133269047D01*
X150335771Y-133269047D02*
X150383390Y-133364285D01*
X150383390Y-133364285D02*
X150431009Y-133411904D01*
X150431009Y-133411904D02*
X150526247Y-133459523D01*
X122824761Y-51184819D02*
X122491428Y-50708628D01*
X122253333Y-51184819D02*
X122253333Y-50184819D01*
X122253333Y-50184819D02*
X122634285Y-50184819D01*
X122634285Y-50184819D02*
X122729523Y-50232438D01*
X122729523Y-50232438D02*
X122777142Y-50280057D01*
X122777142Y-50280057D02*
X122824761Y-50375295D01*
X122824761Y-50375295D02*
X122824761Y-50518152D01*
X122824761Y-50518152D02*
X122777142Y-50613390D01*
X122777142Y-50613390D02*
X122729523Y-50661009D01*
X122729523Y-50661009D02*
X122634285Y-50708628D01*
X122634285Y-50708628D02*
X122253333Y-50708628D01*
X123110476Y-50184819D02*
X123443809Y-51184819D01*
X123443809Y-51184819D02*
X123777142Y-50184819D01*
X124634285Y-51184819D02*
X124062857Y-51184819D01*
X124348571Y-51184819D02*
X124348571Y-50184819D01*
X124348571Y-50184819D02*
X124253333Y-50327676D01*
X124253333Y-50327676D02*
X124158095Y-50422914D01*
X124158095Y-50422914D02*
X124062857Y-50470533D01*
X161152331Y-94633434D02*
X161057093Y-94585815D01*
X161057093Y-94585815D02*
X160961855Y-94490577D01*
X160961855Y-94490577D02*
X160818998Y-94347719D01*
X160818998Y-94347719D02*
X160723760Y-94300100D01*
X160723760Y-94300100D02*
X160628522Y-94300100D01*
X160676141Y-94538196D02*
X160580903Y-94490577D01*
X160580903Y-94490577D02*
X160485665Y-94395338D01*
X160485665Y-94395338D02*
X160438046Y-94204862D01*
X160438046Y-94204862D02*
X160438046Y-93871529D01*
X160438046Y-93871529D02*
X160485665Y-93681053D01*
X160485665Y-93681053D02*
X160580903Y-93585815D01*
X160580903Y-93585815D02*
X160676141Y-93538196D01*
X160676141Y-93538196D02*
X160866617Y-93538196D01*
X160866617Y-93538196D02*
X160961855Y-93585815D01*
X160961855Y-93585815D02*
X161057093Y-93681053D01*
X161057093Y-93681053D02*
X161104712Y-93871529D01*
X161104712Y-93871529D02*
X161104712Y-94204862D01*
X161104712Y-94204862D02*
X161057093Y-94395338D01*
X161057093Y-94395338D02*
X160961855Y-94490577D01*
X160961855Y-94490577D02*
X160866617Y-94538196D01*
X160866617Y-94538196D02*
X160676141Y-94538196D01*
X161485665Y-93633434D02*
X161533284Y-93585815D01*
X161533284Y-93585815D02*
X161628522Y-93538196D01*
X161628522Y-93538196D02*
X161866617Y-93538196D01*
X161866617Y-93538196D02*
X161961855Y-93585815D01*
X161961855Y-93585815D02*
X162009474Y-93633434D01*
X162009474Y-93633434D02*
X162057093Y-93728672D01*
X162057093Y-93728672D02*
X162057093Y-93823910D01*
X162057093Y-93823910D02*
X162009474Y-93966767D01*
X162009474Y-93966767D02*
X161438046Y-94538196D01*
X161438046Y-94538196D02*
X162057093Y-94538196D01*
X165166667Y-95097200D02*
X165309524Y-95144819D01*
X165309524Y-95144819D02*
X165547619Y-95144819D01*
X165547619Y-95144819D02*
X165642857Y-95097200D01*
X165642857Y-95097200D02*
X165690476Y-95049580D01*
X165690476Y-95049580D02*
X165738095Y-94954342D01*
X165738095Y-94954342D02*
X165738095Y-94859104D01*
X165738095Y-94859104D02*
X165690476Y-94763866D01*
X165690476Y-94763866D02*
X165642857Y-94716247D01*
X165642857Y-94716247D02*
X165547619Y-94668628D01*
X165547619Y-94668628D02*
X165357143Y-94621009D01*
X165357143Y-94621009D02*
X165261905Y-94573390D01*
X165261905Y-94573390D02*
X165214286Y-94525771D01*
X165214286Y-94525771D02*
X165166667Y-94430533D01*
X165166667Y-94430533D02*
X165166667Y-94335295D01*
X165166667Y-94335295D02*
X165214286Y-94240057D01*
X165214286Y-94240057D02*
X165261905Y-94192438D01*
X165261905Y-94192438D02*
X165357143Y-94144819D01*
X165357143Y-94144819D02*
X165595238Y-94144819D01*
X165595238Y-94144819D02*
X165738095Y-94192438D01*
X166071429Y-94144819D02*
X166309524Y-95144819D01*
X166309524Y-95144819D02*
X166500000Y-94430533D01*
X166500000Y-94430533D02*
X166690476Y-95144819D01*
X166690476Y-95144819D02*
X166928572Y-94144819D01*
X167261905Y-94240057D02*
X167309524Y-94192438D01*
X167309524Y-94192438D02*
X167404762Y-94144819D01*
X167404762Y-94144819D02*
X167642857Y-94144819D01*
X167642857Y-94144819D02*
X167738095Y-94192438D01*
X167738095Y-94192438D02*
X167785714Y-94240057D01*
X167785714Y-94240057D02*
X167833333Y-94335295D01*
X167833333Y-94335295D02*
X167833333Y-94430533D01*
X167833333Y-94430533D02*
X167785714Y-94573390D01*
X167785714Y-94573390D02*
X167214286Y-95144819D01*
X167214286Y-95144819D02*
X167833333Y-95144819D01*
X156447897Y-75448664D02*
X155971706Y-75781997D01*
X156447897Y-76020092D02*
X155447897Y-76020092D01*
X155447897Y-76020092D02*
X155447897Y-75639140D01*
X155447897Y-75639140D02*
X155495516Y-75543902D01*
X155495516Y-75543902D02*
X155543135Y-75496283D01*
X155543135Y-75496283D02*
X155638373Y-75448664D01*
X155638373Y-75448664D02*
X155781230Y-75448664D01*
X155781230Y-75448664D02*
X155876468Y-75496283D01*
X155876468Y-75496283D02*
X155924087Y-75543902D01*
X155924087Y-75543902D02*
X155971706Y-75639140D01*
X155971706Y-75639140D02*
X155971706Y-76020092D01*
X156447897Y-74496283D02*
X156447897Y-75067711D01*
X156447897Y-74781997D02*
X155447897Y-74781997D01*
X155447897Y-74781997D02*
X155590754Y-74877235D01*
X155590754Y-74877235D02*
X155685992Y-74972473D01*
X155685992Y-74972473D02*
X155733611Y-75067711D01*
X156447897Y-74020092D02*
X156447897Y-73829616D01*
X156447897Y-73829616D02*
X156400278Y-73734378D01*
X156400278Y-73734378D02*
X156352658Y-73686759D01*
X156352658Y-73686759D02*
X156209801Y-73591521D01*
X156209801Y-73591521D02*
X156019325Y-73543902D01*
X156019325Y-73543902D02*
X155638373Y-73543902D01*
X155638373Y-73543902D02*
X155543135Y-73591521D01*
X155543135Y-73591521D02*
X155495516Y-73639140D01*
X155495516Y-73639140D02*
X155447897Y-73734378D01*
X155447897Y-73734378D02*
X155447897Y-73924854D01*
X155447897Y-73924854D02*
X155495516Y-74020092D01*
X155495516Y-74020092D02*
X155543135Y-74067711D01*
X155543135Y-74067711D02*
X155638373Y-74115330D01*
X155638373Y-74115330D02*
X155876468Y-74115330D01*
X155876468Y-74115330D02*
X155971706Y-74067711D01*
X155971706Y-74067711D02*
X156019325Y-74020092D01*
X156019325Y-74020092D02*
X156066944Y-73924854D01*
X156066944Y-73924854D02*
X156066944Y-73734378D01*
X156066944Y-73734378D02*
X156019325Y-73639140D01*
X156019325Y-73639140D02*
X155971706Y-73591521D01*
X155971706Y-73591521D02*
X155876468Y-73543902D01*
X165166667Y-51597200D02*
X165309524Y-51644819D01*
X165309524Y-51644819D02*
X165547619Y-51644819D01*
X165547619Y-51644819D02*
X165642857Y-51597200D01*
X165642857Y-51597200D02*
X165690476Y-51549580D01*
X165690476Y-51549580D02*
X165738095Y-51454342D01*
X165738095Y-51454342D02*
X165738095Y-51359104D01*
X165738095Y-51359104D02*
X165690476Y-51263866D01*
X165690476Y-51263866D02*
X165642857Y-51216247D01*
X165642857Y-51216247D02*
X165547619Y-51168628D01*
X165547619Y-51168628D02*
X165357143Y-51121009D01*
X165357143Y-51121009D02*
X165261905Y-51073390D01*
X165261905Y-51073390D02*
X165214286Y-51025771D01*
X165214286Y-51025771D02*
X165166667Y-50930533D01*
X165166667Y-50930533D02*
X165166667Y-50835295D01*
X165166667Y-50835295D02*
X165214286Y-50740057D01*
X165214286Y-50740057D02*
X165261905Y-50692438D01*
X165261905Y-50692438D02*
X165357143Y-50644819D01*
X165357143Y-50644819D02*
X165595238Y-50644819D01*
X165595238Y-50644819D02*
X165738095Y-50692438D01*
X166071429Y-50644819D02*
X166309524Y-51644819D01*
X166309524Y-51644819D02*
X166500000Y-50930533D01*
X166500000Y-50930533D02*
X166690476Y-51644819D01*
X166690476Y-51644819D02*
X166928572Y-50644819D01*
X167833333Y-51644819D02*
X167261905Y-51644819D01*
X167547619Y-51644819D02*
X167547619Y-50644819D01*
X167547619Y-50644819D02*
X167452381Y-50787676D01*
X167452381Y-50787676D02*
X167357143Y-50882914D01*
X167357143Y-50882914D02*
X167261905Y-50930533D01*
X130435357Y-61922174D02*
X129959166Y-62255507D01*
X130435357Y-62493602D02*
X129435357Y-62493602D01*
X129435357Y-62493602D02*
X129435357Y-62112650D01*
X129435357Y-62112650D02*
X129482976Y-62017412D01*
X129482976Y-62017412D02*
X129530595Y-61969793D01*
X129530595Y-61969793D02*
X129625833Y-61922174D01*
X129625833Y-61922174D02*
X129768690Y-61922174D01*
X129768690Y-61922174D02*
X129863928Y-61969793D01*
X129863928Y-61969793D02*
X129911547Y-62017412D01*
X129911547Y-62017412D02*
X129959166Y-62112650D01*
X129959166Y-62112650D02*
X129959166Y-62493602D01*
X129435357Y-61017412D02*
X129435357Y-61493602D01*
X129435357Y-61493602D02*
X129911547Y-61541221D01*
X129911547Y-61541221D02*
X129863928Y-61493602D01*
X129863928Y-61493602D02*
X129816309Y-61398364D01*
X129816309Y-61398364D02*
X129816309Y-61160269D01*
X129816309Y-61160269D02*
X129863928Y-61065031D01*
X129863928Y-61065031D02*
X129911547Y-61017412D01*
X129911547Y-61017412D02*
X130006785Y-60969793D01*
X130006785Y-60969793D02*
X130244880Y-60969793D01*
X130244880Y-60969793D02*
X130340118Y-61017412D01*
X130340118Y-61017412D02*
X130387738Y-61065031D01*
X130387738Y-61065031D02*
X130435357Y-61160269D01*
X130435357Y-61160269D02*
X130435357Y-61398364D01*
X130435357Y-61398364D02*
X130387738Y-61493602D01*
X130387738Y-61493602D02*
X130340118Y-61541221D01*
X126954819Y-118292857D02*
X126478628Y-118626190D01*
X126954819Y-118864285D02*
X125954819Y-118864285D01*
X125954819Y-118864285D02*
X125954819Y-118483333D01*
X125954819Y-118483333D02*
X126002438Y-118388095D01*
X126002438Y-118388095D02*
X126050057Y-118340476D01*
X126050057Y-118340476D02*
X126145295Y-118292857D01*
X126145295Y-118292857D02*
X126288152Y-118292857D01*
X126288152Y-118292857D02*
X126383390Y-118340476D01*
X126383390Y-118340476D02*
X126431009Y-118388095D01*
X126431009Y-118388095D02*
X126478628Y-118483333D01*
X126478628Y-118483333D02*
X126478628Y-118864285D01*
X126050057Y-117911904D02*
X126002438Y-117864285D01*
X126002438Y-117864285D02*
X125954819Y-117769047D01*
X125954819Y-117769047D02*
X125954819Y-117530952D01*
X125954819Y-117530952D02*
X126002438Y-117435714D01*
X126002438Y-117435714D02*
X126050057Y-117388095D01*
X126050057Y-117388095D02*
X126145295Y-117340476D01*
X126145295Y-117340476D02*
X126240533Y-117340476D01*
X126240533Y-117340476D02*
X126383390Y-117388095D01*
X126383390Y-117388095D02*
X126954819Y-117959523D01*
X126954819Y-117959523D02*
X126954819Y-117340476D01*
X125954819Y-116721428D02*
X125954819Y-116626190D01*
X125954819Y-116626190D02*
X126002438Y-116530952D01*
X126002438Y-116530952D02*
X126050057Y-116483333D01*
X126050057Y-116483333D02*
X126145295Y-116435714D01*
X126145295Y-116435714D02*
X126335771Y-116388095D01*
X126335771Y-116388095D02*
X126573866Y-116388095D01*
X126573866Y-116388095D02*
X126764342Y-116435714D01*
X126764342Y-116435714D02*
X126859580Y-116483333D01*
X126859580Y-116483333D02*
X126907200Y-116530952D01*
X126907200Y-116530952D02*
X126954819Y-116626190D01*
X126954819Y-116626190D02*
X126954819Y-116721428D01*
X126954819Y-116721428D02*
X126907200Y-116816666D01*
X126907200Y-116816666D02*
X126859580Y-116864285D01*
X126859580Y-116864285D02*
X126764342Y-116911904D01*
X126764342Y-116911904D02*
X126573866Y-116959523D01*
X126573866Y-116959523D02*
X126335771Y-116959523D01*
X126335771Y-116959523D02*
X126145295Y-116911904D01*
X126145295Y-116911904D02*
X126050057Y-116864285D01*
X126050057Y-116864285D02*
X126002438Y-116816666D01*
X126002438Y-116816666D02*
X125954819Y-116721428D01*
X131833333Y-142009580D02*
X131785714Y-142057200D01*
X131785714Y-142057200D02*
X131642857Y-142104819D01*
X131642857Y-142104819D02*
X131547619Y-142104819D01*
X131547619Y-142104819D02*
X131404762Y-142057200D01*
X131404762Y-142057200D02*
X131309524Y-141961961D01*
X131309524Y-141961961D02*
X131261905Y-141866723D01*
X131261905Y-141866723D02*
X131214286Y-141676247D01*
X131214286Y-141676247D02*
X131214286Y-141533390D01*
X131214286Y-141533390D02*
X131261905Y-141342914D01*
X131261905Y-141342914D02*
X131309524Y-141247676D01*
X131309524Y-141247676D02*
X131404762Y-141152438D01*
X131404762Y-141152438D02*
X131547619Y-141104819D01*
X131547619Y-141104819D02*
X131642857Y-141104819D01*
X131642857Y-141104819D02*
X131785714Y-141152438D01*
X131785714Y-141152438D02*
X131833333Y-141200057D01*
X132785714Y-142104819D02*
X132214286Y-142104819D01*
X132500000Y-142104819D02*
X132500000Y-141104819D01*
X132500000Y-141104819D02*
X132404762Y-141247676D01*
X132404762Y-141247676D02*
X132309524Y-141342914D01*
X132309524Y-141342914D02*
X132214286Y-141390533D01*
X123086666Y-71144819D02*
X123086666Y-71859104D01*
X123086666Y-71859104D02*
X123039047Y-72001961D01*
X123039047Y-72001961D02*
X122943809Y-72097200D01*
X122943809Y-72097200D02*
X122800952Y-72144819D01*
X122800952Y-72144819D02*
X122705714Y-72144819D01*
X124086666Y-72144819D02*
X123515238Y-72144819D01*
X123800952Y-72144819D02*
X123800952Y-71144819D01*
X123800952Y-71144819D02*
X123705714Y-71287676D01*
X123705714Y-71287676D02*
X123610476Y-71382914D01*
X123610476Y-71382914D02*
X123515238Y-71430533D01*
X156490070Y-62183150D02*
X156013879Y-62516483D01*
X156490070Y-62754578D02*
X155490070Y-62754578D01*
X155490070Y-62754578D02*
X155490070Y-62373626D01*
X155490070Y-62373626D02*
X155537689Y-62278388D01*
X155537689Y-62278388D02*
X155585308Y-62230769D01*
X155585308Y-62230769D02*
X155680546Y-62183150D01*
X155680546Y-62183150D02*
X155823403Y-62183150D01*
X155823403Y-62183150D02*
X155918641Y-62230769D01*
X155918641Y-62230769D02*
X155966260Y-62278388D01*
X155966260Y-62278388D02*
X156013879Y-62373626D01*
X156013879Y-62373626D02*
X156013879Y-62754578D01*
X156490070Y-61230769D02*
X156490070Y-61802197D01*
X156490070Y-61516483D02*
X155490070Y-61516483D01*
X155490070Y-61516483D02*
X155632927Y-61611721D01*
X155632927Y-61611721D02*
X155728165Y-61706959D01*
X155728165Y-61706959D02*
X155775784Y-61802197D01*
X156490070Y-60278388D02*
X156490070Y-60849816D01*
X156490070Y-60564102D02*
X155490070Y-60564102D01*
X155490070Y-60564102D02*
X155632927Y-60659340D01*
X155632927Y-60659340D02*
X155728165Y-60754578D01*
X155728165Y-60754578D02*
X155775784Y-60849816D01*
X153834819Y-138766472D02*
X152834819Y-138766472D01*
X152834819Y-138766472D02*
X152834819Y-138528377D01*
X152834819Y-138528377D02*
X152882438Y-138385520D01*
X152882438Y-138385520D02*
X152977676Y-138290282D01*
X152977676Y-138290282D02*
X153072914Y-138242663D01*
X153072914Y-138242663D02*
X153263390Y-138195044D01*
X153263390Y-138195044D02*
X153406247Y-138195044D01*
X153406247Y-138195044D02*
X153596723Y-138242663D01*
X153596723Y-138242663D02*
X153691961Y-138290282D01*
X153691961Y-138290282D02*
X153787200Y-138385520D01*
X153787200Y-138385520D02*
X153834819Y-138528377D01*
X153834819Y-138528377D02*
X153834819Y-138766472D01*
X153834819Y-137242663D02*
X153834819Y-137814091D01*
X153834819Y-137528377D02*
X152834819Y-137528377D01*
X152834819Y-137528377D02*
X152977676Y-137623615D01*
X152977676Y-137623615D02*
X153072914Y-137718853D01*
X153072914Y-137718853D02*
X153120533Y-137814091D01*
X154041747Y-146171904D02*
X153041747Y-146171904D01*
X154041747Y-145600476D02*
X153470318Y-146029047D01*
X153041747Y-145600476D02*
X153613175Y-146171904D01*
X154954819Y-120292857D02*
X154478628Y-120626190D01*
X154954819Y-120864285D02*
X153954819Y-120864285D01*
X153954819Y-120864285D02*
X153954819Y-120483333D01*
X153954819Y-120483333D02*
X154002438Y-120388095D01*
X154002438Y-120388095D02*
X154050057Y-120340476D01*
X154050057Y-120340476D02*
X154145295Y-120292857D01*
X154145295Y-120292857D02*
X154288152Y-120292857D01*
X154288152Y-120292857D02*
X154383390Y-120340476D01*
X154383390Y-120340476D02*
X154431009Y-120388095D01*
X154431009Y-120388095D02*
X154478628Y-120483333D01*
X154478628Y-120483333D02*
X154478628Y-120864285D01*
X154050057Y-119911904D02*
X154002438Y-119864285D01*
X154002438Y-119864285D02*
X153954819Y-119769047D01*
X153954819Y-119769047D02*
X153954819Y-119530952D01*
X153954819Y-119530952D02*
X154002438Y-119435714D01*
X154002438Y-119435714D02*
X154050057Y-119388095D01*
X154050057Y-119388095D02*
X154145295Y-119340476D01*
X154145295Y-119340476D02*
X154240533Y-119340476D01*
X154240533Y-119340476D02*
X154383390Y-119388095D01*
X154383390Y-119388095D02*
X154954819Y-119959523D01*
X154954819Y-119959523D02*
X154954819Y-119340476D01*
X153954819Y-119007142D02*
X153954819Y-118340476D01*
X153954819Y-118340476D02*
X154954819Y-118769047D01*
X130454819Y-75292857D02*
X129978628Y-75626190D01*
X130454819Y-75864285D02*
X129454819Y-75864285D01*
X129454819Y-75864285D02*
X129454819Y-75483333D01*
X129454819Y-75483333D02*
X129502438Y-75388095D01*
X129502438Y-75388095D02*
X129550057Y-75340476D01*
X129550057Y-75340476D02*
X129645295Y-75292857D01*
X129645295Y-75292857D02*
X129788152Y-75292857D01*
X129788152Y-75292857D02*
X129883390Y-75340476D01*
X129883390Y-75340476D02*
X129931009Y-75388095D01*
X129931009Y-75388095D02*
X129978628Y-75483333D01*
X129978628Y-75483333D02*
X129978628Y-75864285D01*
X130454819Y-74340476D02*
X130454819Y-74911904D01*
X130454819Y-74626190D02*
X129454819Y-74626190D01*
X129454819Y-74626190D02*
X129597676Y-74721428D01*
X129597676Y-74721428D02*
X129692914Y-74816666D01*
X129692914Y-74816666D02*
X129740533Y-74911904D01*
X129454819Y-74007142D02*
X129454819Y-73388095D01*
X129454819Y-73388095D02*
X129835771Y-73721428D01*
X129835771Y-73721428D02*
X129835771Y-73578571D01*
X129835771Y-73578571D02*
X129883390Y-73483333D01*
X129883390Y-73483333D02*
X129931009Y-73435714D01*
X129931009Y-73435714D02*
X130026247Y-73388095D01*
X130026247Y-73388095D02*
X130264342Y-73388095D01*
X130264342Y-73388095D02*
X130359580Y-73435714D01*
X130359580Y-73435714D02*
X130407200Y-73483333D01*
X130407200Y-73483333D02*
X130454819Y-73578571D01*
X130454819Y-73578571D02*
X130454819Y-73864285D01*
X130454819Y-73864285D02*
X130407200Y-73959523D01*
X130407200Y-73959523D02*
X130359580Y-74007142D01*
X160462211Y-74819603D02*
X159986020Y-75152936D01*
X160462211Y-75391031D02*
X159462211Y-75391031D01*
X159462211Y-75391031D02*
X159462211Y-75010079D01*
X159462211Y-75010079D02*
X159509830Y-74914841D01*
X159509830Y-74914841D02*
X159557449Y-74867222D01*
X159557449Y-74867222D02*
X159652687Y-74819603D01*
X159652687Y-74819603D02*
X159795544Y-74819603D01*
X159795544Y-74819603D02*
X159890782Y-74867222D01*
X159890782Y-74867222D02*
X159938401Y-74914841D01*
X159938401Y-74914841D02*
X159986020Y-75010079D01*
X159986020Y-75010079D02*
X159986020Y-75391031D01*
X159462211Y-74486269D02*
X159462211Y-73819603D01*
X159462211Y-73819603D02*
X160462211Y-74248174D01*
X123046666Y-98444819D02*
X123046666Y-99159104D01*
X123046666Y-99159104D02*
X122999047Y-99301961D01*
X122999047Y-99301961D02*
X122903809Y-99397200D01*
X122903809Y-99397200D02*
X122760952Y-99444819D01*
X122760952Y-99444819D02*
X122665714Y-99444819D01*
X123951428Y-98778152D02*
X123951428Y-99444819D01*
X123713333Y-98397200D02*
X123475238Y-99111485D01*
X123475238Y-99111485D02*
X124094285Y-99111485D01*
X157144015Y-100353211D02*
X157096396Y-100400831D01*
X157096396Y-100400831D02*
X156953539Y-100448450D01*
X156953539Y-100448450D02*
X156858301Y-100448450D01*
X156858301Y-100448450D02*
X156715444Y-100400831D01*
X156715444Y-100400831D02*
X156620206Y-100305592D01*
X156620206Y-100305592D02*
X156572587Y-100210354D01*
X156572587Y-100210354D02*
X156524968Y-100019878D01*
X156524968Y-100019878D02*
X156524968Y-99877021D01*
X156524968Y-99877021D02*
X156572587Y-99686545D01*
X156572587Y-99686545D02*
X156620206Y-99591307D01*
X156620206Y-99591307D02*
X156715444Y-99496069D01*
X156715444Y-99496069D02*
X156858301Y-99448450D01*
X156858301Y-99448450D02*
X156953539Y-99448450D01*
X156953539Y-99448450D02*
X157096396Y-99496069D01*
X157096396Y-99496069D02*
X157144015Y-99543688D01*
X158048777Y-99448450D02*
X157572587Y-99448450D01*
X157572587Y-99448450D02*
X157524968Y-99924640D01*
X157524968Y-99924640D02*
X157572587Y-99877021D01*
X157572587Y-99877021D02*
X157667825Y-99829402D01*
X157667825Y-99829402D02*
X157905920Y-99829402D01*
X157905920Y-99829402D02*
X158001158Y-99877021D01*
X158001158Y-99877021D02*
X158048777Y-99924640D01*
X158048777Y-99924640D02*
X158096396Y-100019878D01*
X158096396Y-100019878D02*
X158096396Y-100257973D01*
X158096396Y-100257973D02*
X158048777Y-100353211D01*
X158048777Y-100353211D02*
X158001158Y-100400831D01*
X158001158Y-100400831D02*
X157905920Y-100448450D01*
X157905920Y-100448450D02*
X157667825Y-100448450D01*
X157667825Y-100448450D02*
X157572587Y-100400831D01*
X157572587Y-100400831D02*
X157524968Y-100353211D01*
X134954819Y-118292857D02*
X134478628Y-118626190D01*
X134954819Y-118864285D02*
X133954819Y-118864285D01*
X133954819Y-118864285D02*
X133954819Y-118483333D01*
X133954819Y-118483333D02*
X134002438Y-118388095D01*
X134002438Y-118388095D02*
X134050057Y-118340476D01*
X134050057Y-118340476D02*
X134145295Y-118292857D01*
X134145295Y-118292857D02*
X134288152Y-118292857D01*
X134288152Y-118292857D02*
X134383390Y-118340476D01*
X134383390Y-118340476D02*
X134431009Y-118388095D01*
X134431009Y-118388095D02*
X134478628Y-118483333D01*
X134478628Y-118483333D02*
X134478628Y-118864285D01*
X134050057Y-117911904D02*
X134002438Y-117864285D01*
X134002438Y-117864285D02*
X133954819Y-117769047D01*
X133954819Y-117769047D02*
X133954819Y-117530952D01*
X133954819Y-117530952D02*
X134002438Y-117435714D01*
X134002438Y-117435714D02*
X134050057Y-117388095D01*
X134050057Y-117388095D02*
X134145295Y-117340476D01*
X134145295Y-117340476D02*
X134240533Y-117340476D01*
X134240533Y-117340476D02*
X134383390Y-117388095D01*
X134383390Y-117388095D02*
X134954819Y-117959523D01*
X134954819Y-117959523D02*
X134954819Y-117340476D01*
X134050057Y-116959523D02*
X134002438Y-116911904D01*
X134002438Y-116911904D02*
X133954819Y-116816666D01*
X133954819Y-116816666D02*
X133954819Y-116578571D01*
X133954819Y-116578571D02*
X134002438Y-116483333D01*
X134002438Y-116483333D02*
X134050057Y-116435714D01*
X134050057Y-116435714D02*
X134145295Y-116388095D01*
X134145295Y-116388095D02*
X134240533Y-116388095D01*
X134240533Y-116388095D02*
X134383390Y-116435714D01*
X134383390Y-116435714D02*
X134954819Y-117007142D01*
X134954819Y-117007142D02*
X134954819Y-116388095D01*
X131333333Y-134009580D02*
X131285714Y-134057200D01*
X131285714Y-134057200D02*
X131142857Y-134104819D01*
X131142857Y-134104819D02*
X131047619Y-134104819D01*
X131047619Y-134104819D02*
X130904762Y-134057200D01*
X130904762Y-134057200D02*
X130809524Y-133961961D01*
X130809524Y-133961961D02*
X130761905Y-133866723D01*
X130761905Y-133866723D02*
X130714286Y-133676247D01*
X130714286Y-133676247D02*
X130714286Y-133533390D01*
X130714286Y-133533390D02*
X130761905Y-133342914D01*
X130761905Y-133342914D02*
X130809524Y-133247676D01*
X130809524Y-133247676D02*
X130904762Y-133152438D01*
X130904762Y-133152438D02*
X131047619Y-133104819D01*
X131047619Y-133104819D02*
X131142857Y-133104819D01*
X131142857Y-133104819D02*
X131285714Y-133152438D01*
X131285714Y-133152438D02*
X131333333Y-133200057D01*
X131714286Y-133200057D02*
X131761905Y-133152438D01*
X131761905Y-133152438D02*
X131857143Y-133104819D01*
X131857143Y-133104819D02*
X132095238Y-133104819D01*
X132095238Y-133104819D02*
X132190476Y-133152438D01*
X132190476Y-133152438D02*
X132238095Y-133200057D01*
X132238095Y-133200057D02*
X132285714Y-133295295D01*
X132285714Y-133295295D02*
X132285714Y-133390533D01*
X132285714Y-133390533D02*
X132238095Y-133533390D01*
X132238095Y-133533390D02*
X131666667Y-134104819D01*
X131666667Y-134104819D02*
X132285714Y-134104819D01*
X122904761Y-88644819D02*
X122571428Y-88168628D01*
X122333333Y-88644819D02*
X122333333Y-87644819D01*
X122333333Y-87644819D02*
X122714285Y-87644819D01*
X122714285Y-87644819D02*
X122809523Y-87692438D01*
X122809523Y-87692438D02*
X122857142Y-87740057D01*
X122857142Y-87740057D02*
X122904761Y-87835295D01*
X122904761Y-87835295D02*
X122904761Y-87978152D01*
X122904761Y-87978152D02*
X122857142Y-88073390D01*
X122857142Y-88073390D02*
X122809523Y-88121009D01*
X122809523Y-88121009D02*
X122714285Y-88168628D01*
X122714285Y-88168628D02*
X122333333Y-88168628D01*
X123190476Y-87644819D02*
X123523809Y-88644819D01*
X123523809Y-88644819D02*
X123857142Y-87644819D01*
X124619047Y-87978152D02*
X124619047Y-88644819D01*
X124380952Y-87597200D02*
X124142857Y-88311485D01*
X124142857Y-88311485D02*
X124761904Y-88311485D01*
X150954819Y-120292857D02*
X150478628Y-120626190D01*
X150954819Y-120864285D02*
X149954819Y-120864285D01*
X149954819Y-120864285D02*
X149954819Y-120483333D01*
X149954819Y-120483333D02*
X150002438Y-120388095D01*
X150002438Y-120388095D02*
X150050057Y-120340476D01*
X150050057Y-120340476D02*
X150145295Y-120292857D01*
X150145295Y-120292857D02*
X150288152Y-120292857D01*
X150288152Y-120292857D02*
X150383390Y-120340476D01*
X150383390Y-120340476D02*
X150431009Y-120388095D01*
X150431009Y-120388095D02*
X150478628Y-120483333D01*
X150478628Y-120483333D02*
X150478628Y-120864285D01*
X150050057Y-119911904D02*
X150002438Y-119864285D01*
X150002438Y-119864285D02*
X149954819Y-119769047D01*
X149954819Y-119769047D02*
X149954819Y-119530952D01*
X149954819Y-119530952D02*
X150002438Y-119435714D01*
X150002438Y-119435714D02*
X150050057Y-119388095D01*
X150050057Y-119388095D02*
X150145295Y-119340476D01*
X150145295Y-119340476D02*
X150240533Y-119340476D01*
X150240533Y-119340476D02*
X150383390Y-119388095D01*
X150383390Y-119388095D02*
X150954819Y-119959523D01*
X150954819Y-119959523D02*
X150954819Y-119340476D01*
X149954819Y-118483333D02*
X149954819Y-118673809D01*
X149954819Y-118673809D02*
X150002438Y-118769047D01*
X150002438Y-118769047D02*
X150050057Y-118816666D01*
X150050057Y-118816666D02*
X150192914Y-118911904D01*
X150192914Y-118911904D02*
X150383390Y-118959523D01*
X150383390Y-118959523D02*
X150764342Y-118959523D01*
X150764342Y-118959523D02*
X150859580Y-118911904D01*
X150859580Y-118911904D02*
X150907200Y-118864285D01*
X150907200Y-118864285D02*
X150954819Y-118769047D01*
X150954819Y-118769047D02*
X150954819Y-118578571D01*
X150954819Y-118578571D02*
X150907200Y-118483333D01*
X150907200Y-118483333D02*
X150859580Y-118435714D01*
X150859580Y-118435714D02*
X150764342Y-118388095D01*
X150764342Y-118388095D02*
X150526247Y-118388095D01*
X150526247Y-118388095D02*
X150431009Y-118435714D01*
X150431009Y-118435714D02*
X150383390Y-118483333D01*
X150383390Y-118483333D02*
X150335771Y-118578571D01*
X150335771Y-118578571D02*
X150335771Y-118769047D01*
X150335771Y-118769047D02*
X150383390Y-118864285D01*
X150383390Y-118864285D02*
X150431009Y-118911904D01*
X150431009Y-118911904D02*
X150526247Y-118959523D01*
X166166666Y-61224819D02*
X166166666Y-61939104D01*
X166166666Y-61939104D02*
X166119047Y-62081961D01*
X166119047Y-62081961D02*
X166023809Y-62177200D01*
X166023809Y-62177200D02*
X165880952Y-62224819D01*
X165880952Y-62224819D02*
X165785714Y-62224819D01*
X166547619Y-61224819D02*
X167166666Y-61224819D01*
X167166666Y-61224819D02*
X166833333Y-61605771D01*
X166833333Y-61605771D02*
X166976190Y-61605771D01*
X166976190Y-61605771D02*
X167071428Y-61653390D01*
X167071428Y-61653390D02*
X167119047Y-61701009D01*
X167119047Y-61701009D02*
X167166666Y-61796247D01*
X167166666Y-61796247D02*
X167166666Y-62034342D01*
X167166666Y-62034342D02*
X167119047Y-62129580D01*
X167119047Y-62129580D02*
X167071428Y-62177200D01*
X167071428Y-62177200D02*
X166976190Y-62224819D01*
X166976190Y-62224819D02*
X166690476Y-62224819D01*
X166690476Y-62224819D02*
X166595238Y-62177200D01*
X166595238Y-62177200D02*
X166547619Y-62129580D01*
X146021019Y-101139580D02*
X145973400Y-101187200D01*
X145973400Y-101187200D02*
X145830543Y-101234819D01*
X145830543Y-101234819D02*
X145735305Y-101234819D01*
X145735305Y-101234819D02*
X145592448Y-101187200D01*
X145592448Y-101187200D02*
X145497210Y-101091961D01*
X145497210Y-101091961D02*
X145449591Y-100996723D01*
X145449591Y-100996723D02*
X145401972Y-100806247D01*
X145401972Y-100806247D02*
X145401972Y-100663390D01*
X145401972Y-100663390D02*
X145449591Y-100472914D01*
X145449591Y-100472914D02*
X145497210Y-100377676D01*
X145497210Y-100377676D02*
X145592448Y-100282438D01*
X145592448Y-100282438D02*
X145735305Y-100234819D01*
X145735305Y-100234819D02*
X145830543Y-100234819D01*
X145830543Y-100234819D02*
X145973400Y-100282438D01*
X145973400Y-100282438D02*
X146021019Y-100330057D01*
X146878162Y-100234819D02*
X146687686Y-100234819D01*
X146687686Y-100234819D02*
X146592448Y-100282438D01*
X146592448Y-100282438D02*
X146544829Y-100330057D01*
X146544829Y-100330057D02*
X146449591Y-100472914D01*
X146449591Y-100472914D02*
X146401972Y-100663390D01*
X146401972Y-100663390D02*
X146401972Y-101044342D01*
X146401972Y-101044342D02*
X146449591Y-101139580D01*
X146449591Y-101139580D02*
X146497210Y-101187200D01*
X146497210Y-101187200D02*
X146592448Y-101234819D01*
X146592448Y-101234819D02*
X146782924Y-101234819D01*
X146782924Y-101234819D02*
X146878162Y-101187200D01*
X146878162Y-101187200D02*
X146925781Y-101139580D01*
X146925781Y-101139580D02*
X146973400Y-101044342D01*
X146973400Y-101044342D02*
X146973400Y-100806247D01*
X146973400Y-100806247D02*
X146925781Y-100711009D01*
X146925781Y-100711009D02*
X146878162Y-100663390D01*
X146878162Y-100663390D02*
X146782924Y-100615771D01*
X146782924Y-100615771D02*
X146592448Y-100615771D01*
X146592448Y-100615771D02*
X146497210Y-100663390D01*
X146497210Y-100663390D02*
X146449591Y-100711009D01*
X146449591Y-100711009D02*
X146401972Y-100806247D01*
X138954819Y-118292857D02*
X138478628Y-118626190D01*
X138954819Y-118864285D02*
X137954819Y-118864285D01*
X137954819Y-118864285D02*
X137954819Y-118483333D01*
X137954819Y-118483333D02*
X138002438Y-118388095D01*
X138002438Y-118388095D02*
X138050057Y-118340476D01*
X138050057Y-118340476D02*
X138145295Y-118292857D01*
X138145295Y-118292857D02*
X138288152Y-118292857D01*
X138288152Y-118292857D02*
X138383390Y-118340476D01*
X138383390Y-118340476D02*
X138431009Y-118388095D01*
X138431009Y-118388095D02*
X138478628Y-118483333D01*
X138478628Y-118483333D02*
X138478628Y-118864285D01*
X138050057Y-117911904D02*
X138002438Y-117864285D01*
X138002438Y-117864285D02*
X137954819Y-117769047D01*
X137954819Y-117769047D02*
X137954819Y-117530952D01*
X137954819Y-117530952D02*
X138002438Y-117435714D01*
X138002438Y-117435714D02*
X138050057Y-117388095D01*
X138050057Y-117388095D02*
X138145295Y-117340476D01*
X138145295Y-117340476D02*
X138240533Y-117340476D01*
X138240533Y-117340476D02*
X138383390Y-117388095D01*
X138383390Y-117388095D02*
X138954819Y-117959523D01*
X138954819Y-117959523D02*
X138954819Y-117340476D01*
X137954819Y-117007142D02*
X137954819Y-116388095D01*
X137954819Y-116388095D02*
X138335771Y-116721428D01*
X138335771Y-116721428D02*
X138335771Y-116578571D01*
X138335771Y-116578571D02*
X138383390Y-116483333D01*
X138383390Y-116483333D02*
X138431009Y-116435714D01*
X138431009Y-116435714D02*
X138526247Y-116388095D01*
X138526247Y-116388095D02*
X138764342Y-116388095D01*
X138764342Y-116388095D02*
X138859580Y-116435714D01*
X138859580Y-116435714D02*
X138907200Y-116483333D01*
X138907200Y-116483333D02*
X138954819Y-116578571D01*
X138954819Y-116578571D02*
X138954819Y-116864285D01*
X138954819Y-116864285D02*
X138907200Y-116959523D01*
X138907200Y-116959523D02*
X138859580Y-117007142D01*
X142454819Y-131792857D02*
X141978628Y-132126190D01*
X142454819Y-132364285D02*
X141454819Y-132364285D01*
X141454819Y-132364285D02*
X141454819Y-131983333D01*
X141454819Y-131983333D02*
X141502438Y-131888095D01*
X141502438Y-131888095D02*
X141550057Y-131840476D01*
X141550057Y-131840476D02*
X141645295Y-131792857D01*
X141645295Y-131792857D02*
X141788152Y-131792857D01*
X141788152Y-131792857D02*
X141883390Y-131840476D01*
X141883390Y-131840476D02*
X141931009Y-131888095D01*
X141931009Y-131888095D02*
X141978628Y-131983333D01*
X141978628Y-131983333D02*
X141978628Y-132364285D01*
X141454819Y-131459523D02*
X141454819Y-130840476D01*
X141454819Y-130840476D02*
X141835771Y-131173809D01*
X141835771Y-131173809D02*
X141835771Y-131030952D01*
X141835771Y-131030952D02*
X141883390Y-130935714D01*
X141883390Y-130935714D02*
X141931009Y-130888095D01*
X141931009Y-130888095D02*
X142026247Y-130840476D01*
X142026247Y-130840476D02*
X142264342Y-130840476D01*
X142264342Y-130840476D02*
X142359580Y-130888095D01*
X142359580Y-130888095D02*
X142407200Y-130935714D01*
X142407200Y-130935714D02*
X142454819Y-131030952D01*
X142454819Y-131030952D02*
X142454819Y-131316666D01*
X142454819Y-131316666D02*
X142407200Y-131411904D01*
X142407200Y-131411904D02*
X142359580Y-131459523D01*
X141788152Y-129983333D02*
X142454819Y-129983333D01*
X141407200Y-130221428D02*
X142121485Y-130459523D01*
X142121485Y-130459523D02*
X142121485Y-129840476D01*
X130954819Y-118292857D02*
X130478628Y-118626190D01*
X130954819Y-118864285D02*
X129954819Y-118864285D01*
X129954819Y-118864285D02*
X129954819Y-118483333D01*
X129954819Y-118483333D02*
X130002438Y-118388095D01*
X130002438Y-118388095D02*
X130050057Y-118340476D01*
X130050057Y-118340476D02*
X130145295Y-118292857D01*
X130145295Y-118292857D02*
X130288152Y-118292857D01*
X130288152Y-118292857D02*
X130383390Y-118340476D01*
X130383390Y-118340476D02*
X130431009Y-118388095D01*
X130431009Y-118388095D02*
X130478628Y-118483333D01*
X130478628Y-118483333D02*
X130478628Y-118864285D01*
X130050057Y-117911904D02*
X130002438Y-117864285D01*
X130002438Y-117864285D02*
X129954819Y-117769047D01*
X129954819Y-117769047D02*
X129954819Y-117530952D01*
X129954819Y-117530952D02*
X130002438Y-117435714D01*
X130002438Y-117435714D02*
X130050057Y-117388095D01*
X130050057Y-117388095D02*
X130145295Y-117340476D01*
X130145295Y-117340476D02*
X130240533Y-117340476D01*
X130240533Y-117340476D02*
X130383390Y-117388095D01*
X130383390Y-117388095D02*
X130954819Y-117959523D01*
X130954819Y-117959523D02*
X130954819Y-117340476D01*
X130954819Y-116388095D02*
X130954819Y-116959523D01*
X130954819Y-116673809D02*
X129954819Y-116673809D01*
X129954819Y-116673809D02*
X130097676Y-116769047D01*
X130097676Y-116769047D02*
X130192914Y-116864285D01*
X130192914Y-116864285D02*
X130240533Y-116959523D01*
X147619357Y-61746838D02*
X147143166Y-62080171D01*
X147619357Y-62318266D02*
X146619357Y-62318266D01*
X146619357Y-62318266D02*
X146619357Y-61937314D01*
X146619357Y-61937314D02*
X146666976Y-61842076D01*
X146666976Y-61842076D02*
X146714595Y-61794457D01*
X146714595Y-61794457D02*
X146809833Y-61746838D01*
X146809833Y-61746838D02*
X146952690Y-61746838D01*
X146952690Y-61746838D02*
X147047928Y-61794457D01*
X147047928Y-61794457D02*
X147095547Y-61842076D01*
X147095547Y-61842076D02*
X147143166Y-61937314D01*
X147143166Y-61937314D02*
X147143166Y-62318266D01*
X147619357Y-61270647D02*
X147619357Y-61080171D01*
X147619357Y-61080171D02*
X147571738Y-60984933D01*
X147571738Y-60984933D02*
X147524118Y-60937314D01*
X147524118Y-60937314D02*
X147381261Y-60842076D01*
X147381261Y-60842076D02*
X147190785Y-60794457D01*
X147190785Y-60794457D02*
X146809833Y-60794457D01*
X146809833Y-60794457D02*
X146714595Y-60842076D01*
X146714595Y-60842076D02*
X146666976Y-60889695D01*
X146666976Y-60889695D02*
X146619357Y-60984933D01*
X146619357Y-60984933D02*
X146619357Y-61175409D01*
X146619357Y-61175409D02*
X146666976Y-61270647D01*
X146666976Y-61270647D02*
X146714595Y-61318266D01*
X146714595Y-61318266D02*
X146809833Y-61365885D01*
X146809833Y-61365885D02*
X147047928Y-61365885D01*
X147047928Y-61365885D02*
X147143166Y-61318266D01*
X147143166Y-61318266D02*
X147190785Y-61270647D01*
X147190785Y-61270647D02*
X147238404Y-61175409D01*
X147238404Y-61175409D02*
X147238404Y-60984933D01*
X147238404Y-60984933D02*
X147190785Y-60889695D01*
X147190785Y-60889695D02*
X147143166Y-60842076D01*
X147143166Y-60842076D02*
X147047928Y-60794457D01*
X134454819Y-75292857D02*
X133978628Y-75626190D01*
X134454819Y-75864285D02*
X133454819Y-75864285D01*
X133454819Y-75864285D02*
X133454819Y-75483333D01*
X133454819Y-75483333D02*
X133502438Y-75388095D01*
X133502438Y-75388095D02*
X133550057Y-75340476D01*
X133550057Y-75340476D02*
X133645295Y-75292857D01*
X133645295Y-75292857D02*
X133788152Y-75292857D01*
X133788152Y-75292857D02*
X133883390Y-75340476D01*
X133883390Y-75340476D02*
X133931009Y-75388095D01*
X133931009Y-75388095D02*
X133978628Y-75483333D01*
X133978628Y-75483333D02*
X133978628Y-75864285D01*
X134454819Y-74340476D02*
X134454819Y-74911904D01*
X134454819Y-74626190D02*
X133454819Y-74626190D01*
X133454819Y-74626190D02*
X133597676Y-74721428D01*
X133597676Y-74721428D02*
X133692914Y-74816666D01*
X133692914Y-74816666D02*
X133740533Y-74911904D01*
X133454819Y-73483333D02*
X133454819Y-73673809D01*
X133454819Y-73673809D02*
X133502438Y-73769047D01*
X133502438Y-73769047D02*
X133550057Y-73816666D01*
X133550057Y-73816666D02*
X133692914Y-73911904D01*
X133692914Y-73911904D02*
X133883390Y-73959523D01*
X133883390Y-73959523D02*
X134264342Y-73959523D01*
X134264342Y-73959523D02*
X134359580Y-73911904D01*
X134359580Y-73911904D02*
X134407200Y-73864285D01*
X134407200Y-73864285D02*
X134454819Y-73769047D01*
X134454819Y-73769047D02*
X134454819Y-73578571D01*
X134454819Y-73578571D02*
X134407200Y-73483333D01*
X134407200Y-73483333D02*
X134359580Y-73435714D01*
X134359580Y-73435714D02*
X134264342Y-73388095D01*
X134264342Y-73388095D02*
X134026247Y-73388095D01*
X134026247Y-73388095D02*
X133931009Y-73435714D01*
X133931009Y-73435714D02*
X133883390Y-73483333D01*
X133883390Y-73483333D02*
X133835771Y-73578571D01*
X133835771Y-73578571D02*
X133835771Y-73769047D01*
X133835771Y-73769047D02*
X133883390Y-73864285D01*
X133883390Y-73864285D02*
X133931009Y-73911904D01*
X133931009Y-73911904D02*
X134026247Y-73959523D01*
X154954819Y-134792857D02*
X154478628Y-135126190D01*
X154954819Y-135364285D02*
X153954819Y-135364285D01*
X153954819Y-135364285D02*
X153954819Y-134983333D01*
X153954819Y-134983333D02*
X154002438Y-134888095D01*
X154002438Y-134888095D02*
X154050057Y-134840476D01*
X154050057Y-134840476D02*
X154145295Y-134792857D01*
X154145295Y-134792857D02*
X154288152Y-134792857D01*
X154288152Y-134792857D02*
X154383390Y-134840476D01*
X154383390Y-134840476D02*
X154431009Y-134888095D01*
X154431009Y-134888095D02*
X154478628Y-134983333D01*
X154478628Y-134983333D02*
X154478628Y-135364285D01*
X153954819Y-134459523D02*
X153954819Y-133840476D01*
X153954819Y-133840476D02*
X154335771Y-134173809D01*
X154335771Y-134173809D02*
X154335771Y-134030952D01*
X154335771Y-134030952D02*
X154383390Y-133935714D01*
X154383390Y-133935714D02*
X154431009Y-133888095D01*
X154431009Y-133888095D02*
X154526247Y-133840476D01*
X154526247Y-133840476D02*
X154764342Y-133840476D01*
X154764342Y-133840476D02*
X154859580Y-133888095D01*
X154859580Y-133888095D02*
X154907200Y-133935714D01*
X154907200Y-133935714D02*
X154954819Y-134030952D01*
X154954819Y-134030952D02*
X154954819Y-134316666D01*
X154954819Y-134316666D02*
X154907200Y-134411904D01*
X154907200Y-134411904D02*
X154859580Y-134459523D01*
X153954819Y-133507142D02*
X153954819Y-132840476D01*
X153954819Y-132840476D02*
X154954819Y-133269047D01*
X146954819Y-120292857D02*
X146478628Y-120626190D01*
X146954819Y-120864285D02*
X145954819Y-120864285D01*
X145954819Y-120864285D02*
X145954819Y-120483333D01*
X145954819Y-120483333D02*
X146002438Y-120388095D01*
X146002438Y-120388095D02*
X146050057Y-120340476D01*
X146050057Y-120340476D02*
X146145295Y-120292857D01*
X146145295Y-120292857D02*
X146288152Y-120292857D01*
X146288152Y-120292857D02*
X146383390Y-120340476D01*
X146383390Y-120340476D02*
X146431009Y-120388095D01*
X146431009Y-120388095D02*
X146478628Y-120483333D01*
X146478628Y-120483333D02*
X146478628Y-120864285D01*
X146050057Y-119911904D02*
X146002438Y-119864285D01*
X146002438Y-119864285D02*
X145954819Y-119769047D01*
X145954819Y-119769047D02*
X145954819Y-119530952D01*
X145954819Y-119530952D02*
X146002438Y-119435714D01*
X146002438Y-119435714D02*
X146050057Y-119388095D01*
X146050057Y-119388095D02*
X146145295Y-119340476D01*
X146145295Y-119340476D02*
X146240533Y-119340476D01*
X146240533Y-119340476D02*
X146383390Y-119388095D01*
X146383390Y-119388095D02*
X146954819Y-119959523D01*
X146954819Y-119959523D02*
X146954819Y-119340476D01*
X145954819Y-118435714D02*
X145954819Y-118911904D01*
X145954819Y-118911904D02*
X146431009Y-118959523D01*
X146431009Y-118959523D02*
X146383390Y-118911904D01*
X146383390Y-118911904D02*
X146335771Y-118816666D01*
X146335771Y-118816666D02*
X146335771Y-118578571D01*
X146335771Y-118578571D02*
X146383390Y-118483333D01*
X146383390Y-118483333D02*
X146431009Y-118435714D01*
X146431009Y-118435714D02*
X146526247Y-118388095D01*
X146526247Y-118388095D02*
X146764342Y-118388095D01*
X146764342Y-118388095D02*
X146859580Y-118435714D01*
X146859580Y-118435714D02*
X146907200Y-118483333D01*
X146907200Y-118483333D02*
X146954819Y-118578571D01*
X146954819Y-118578571D02*
X146954819Y-118816666D01*
X146954819Y-118816666D02*
X146907200Y-118911904D01*
X146907200Y-118911904D02*
X146859580Y-118959523D01*
X144296854Y-147674686D02*
X143820663Y-148008019D01*
X144296854Y-148246114D02*
X143296854Y-148246114D01*
X143296854Y-148246114D02*
X143296854Y-147865162D01*
X143296854Y-147865162D02*
X143344473Y-147769924D01*
X143344473Y-147769924D02*
X143392092Y-147722305D01*
X143392092Y-147722305D02*
X143487330Y-147674686D01*
X143487330Y-147674686D02*
X143630187Y-147674686D01*
X143630187Y-147674686D02*
X143725425Y-147722305D01*
X143725425Y-147722305D02*
X143773044Y-147769924D01*
X143773044Y-147769924D02*
X143820663Y-147865162D01*
X143820663Y-147865162D02*
X143820663Y-148246114D01*
X143296854Y-147341352D02*
X143296854Y-146722305D01*
X143296854Y-146722305D02*
X143677806Y-147055638D01*
X143677806Y-147055638D02*
X143677806Y-146912781D01*
X143677806Y-146912781D02*
X143725425Y-146817543D01*
X143725425Y-146817543D02*
X143773044Y-146769924D01*
X143773044Y-146769924D02*
X143868282Y-146722305D01*
X143868282Y-146722305D02*
X144106377Y-146722305D01*
X144106377Y-146722305D02*
X144201615Y-146769924D01*
X144201615Y-146769924D02*
X144249235Y-146817543D01*
X144249235Y-146817543D02*
X144296854Y-146912781D01*
X144296854Y-146912781D02*
X144296854Y-147198495D01*
X144296854Y-147198495D02*
X144249235Y-147293733D01*
X144249235Y-147293733D02*
X144201615Y-147341352D01*
X144296854Y-146246114D02*
X144296854Y-146055638D01*
X144296854Y-146055638D02*
X144249235Y-145960400D01*
X144249235Y-145960400D02*
X144201615Y-145912781D01*
X144201615Y-145912781D02*
X144058758Y-145817543D01*
X144058758Y-145817543D02*
X143868282Y-145769924D01*
X143868282Y-145769924D02*
X143487330Y-145769924D01*
X143487330Y-145769924D02*
X143392092Y-145817543D01*
X143392092Y-145817543D02*
X143344473Y-145865162D01*
X143344473Y-145865162D02*
X143296854Y-145960400D01*
X143296854Y-145960400D02*
X143296854Y-146150876D01*
X143296854Y-146150876D02*
X143344473Y-146246114D01*
X143344473Y-146246114D02*
X143392092Y-146293733D01*
X143392092Y-146293733D02*
X143487330Y-146341352D01*
X143487330Y-146341352D02*
X143725425Y-146341352D01*
X143725425Y-146341352D02*
X143820663Y-146293733D01*
X143820663Y-146293733D02*
X143868282Y-146246114D01*
X143868282Y-146246114D02*
X143915901Y-146150876D01*
X143915901Y-146150876D02*
X143915901Y-145960400D01*
X143915901Y-145960400D02*
X143868282Y-145865162D01*
X143868282Y-145865162D02*
X143820663Y-145817543D01*
X143820663Y-145817543D02*
X143725425Y-145769924D01*
X139454819Y-74883571D02*
X138978628Y-75216904D01*
X139454819Y-75454999D02*
X138454819Y-75454999D01*
X138454819Y-75454999D02*
X138454819Y-75074047D01*
X138454819Y-75074047D02*
X138502438Y-74978809D01*
X138502438Y-74978809D02*
X138550057Y-74931190D01*
X138550057Y-74931190D02*
X138645295Y-74883571D01*
X138645295Y-74883571D02*
X138788152Y-74883571D01*
X138788152Y-74883571D02*
X138883390Y-74931190D01*
X138883390Y-74931190D02*
X138931009Y-74978809D01*
X138931009Y-74978809D02*
X138978628Y-75074047D01*
X138978628Y-75074047D02*
X138978628Y-75454999D01*
X138550057Y-74502618D02*
X138502438Y-74454999D01*
X138502438Y-74454999D02*
X138454819Y-74359761D01*
X138454819Y-74359761D02*
X138454819Y-74121666D01*
X138454819Y-74121666D02*
X138502438Y-74026428D01*
X138502438Y-74026428D02*
X138550057Y-73978809D01*
X138550057Y-73978809D02*
X138645295Y-73931190D01*
X138645295Y-73931190D02*
X138740533Y-73931190D01*
X138740533Y-73931190D02*
X138883390Y-73978809D01*
X138883390Y-73978809D02*
X139454819Y-74550237D01*
X139454819Y-74550237D02*
X139454819Y-73931190D01*
X147833333Y-89509580D02*
X147785714Y-89557200D01*
X147785714Y-89557200D02*
X147642857Y-89604819D01*
X147642857Y-89604819D02*
X147547619Y-89604819D01*
X147547619Y-89604819D02*
X147404762Y-89557200D01*
X147404762Y-89557200D02*
X147309524Y-89461961D01*
X147309524Y-89461961D02*
X147261905Y-89366723D01*
X147261905Y-89366723D02*
X147214286Y-89176247D01*
X147214286Y-89176247D02*
X147214286Y-89033390D01*
X147214286Y-89033390D02*
X147261905Y-88842914D01*
X147261905Y-88842914D02*
X147309524Y-88747676D01*
X147309524Y-88747676D02*
X147404762Y-88652438D01*
X147404762Y-88652438D02*
X147547619Y-88604819D01*
X147547619Y-88604819D02*
X147642857Y-88604819D01*
X147642857Y-88604819D02*
X147785714Y-88652438D01*
X147785714Y-88652438D02*
X147833333Y-88700057D01*
X148404762Y-89033390D02*
X148309524Y-88985771D01*
X148309524Y-88985771D02*
X148261905Y-88938152D01*
X148261905Y-88938152D02*
X148214286Y-88842914D01*
X148214286Y-88842914D02*
X148214286Y-88795295D01*
X148214286Y-88795295D02*
X148261905Y-88700057D01*
X148261905Y-88700057D02*
X148309524Y-88652438D01*
X148309524Y-88652438D02*
X148404762Y-88604819D01*
X148404762Y-88604819D02*
X148595238Y-88604819D01*
X148595238Y-88604819D02*
X148690476Y-88652438D01*
X148690476Y-88652438D02*
X148738095Y-88700057D01*
X148738095Y-88700057D02*
X148785714Y-88795295D01*
X148785714Y-88795295D02*
X148785714Y-88842914D01*
X148785714Y-88842914D02*
X148738095Y-88938152D01*
X148738095Y-88938152D02*
X148690476Y-88985771D01*
X148690476Y-88985771D02*
X148595238Y-89033390D01*
X148595238Y-89033390D02*
X148404762Y-89033390D01*
X148404762Y-89033390D02*
X148309524Y-89081009D01*
X148309524Y-89081009D02*
X148261905Y-89128628D01*
X148261905Y-89128628D02*
X148214286Y-89223866D01*
X148214286Y-89223866D02*
X148214286Y-89414342D01*
X148214286Y-89414342D02*
X148261905Y-89509580D01*
X148261905Y-89509580D02*
X148309524Y-89557200D01*
X148309524Y-89557200D02*
X148404762Y-89604819D01*
X148404762Y-89604819D02*
X148595238Y-89604819D01*
X148595238Y-89604819D02*
X148690476Y-89557200D01*
X148690476Y-89557200D02*
X148738095Y-89509580D01*
X148738095Y-89509580D02*
X148785714Y-89414342D01*
X148785714Y-89414342D02*
X148785714Y-89223866D01*
X148785714Y-89223866D02*
X148738095Y-89128628D01*
X148738095Y-89128628D02*
X148690476Y-89081009D01*
X148690476Y-89081009D02*
X148595238Y-89033390D01*
X152420619Y-75304015D02*
X151944428Y-75637348D01*
X152420619Y-75875443D02*
X151420619Y-75875443D01*
X151420619Y-75875443D02*
X151420619Y-75494491D01*
X151420619Y-75494491D02*
X151468238Y-75399253D01*
X151468238Y-75399253D02*
X151515857Y-75351634D01*
X151515857Y-75351634D02*
X151611095Y-75304015D01*
X151611095Y-75304015D02*
X151753952Y-75304015D01*
X151753952Y-75304015D02*
X151849190Y-75351634D01*
X151849190Y-75351634D02*
X151896809Y-75399253D01*
X151896809Y-75399253D02*
X151944428Y-75494491D01*
X151944428Y-75494491D02*
X151944428Y-75875443D01*
X152420619Y-74351634D02*
X152420619Y-74923062D01*
X152420619Y-74637348D02*
X151420619Y-74637348D01*
X151420619Y-74637348D02*
X151563476Y-74732586D01*
X151563476Y-74732586D02*
X151658714Y-74827824D01*
X151658714Y-74827824D02*
X151706333Y-74923062D01*
X151420619Y-74018300D02*
X151420619Y-73351634D01*
X151420619Y-73351634D02*
X152420619Y-73780205D01*
X123166666Y-108604819D02*
X123166666Y-109319104D01*
X123166666Y-109319104D02*
X123119047Y-109461961D01*
X123119047Y-109461961D02*
X123023809Y-109557200D01*
X123023809Y-109557200D02*
X122880952Y-109604819D01*
X122880952Y-109604819D02*
X122785714Y-109604819D01*
X124119047Y-108604819D02*
X123642857Y-108604819D01*
X123642857Y-108604819D02*
X123595238Y-109081009D01*
X123595238Y-109081009D02*
X123642857Y-109033390D01*
X123642857Y-109033390D02*
X123738095Y-108985771D01*
X123738095Y-108985771D02*
X123976190Y-108985771D01*
X123976190Y-108985771D02*
X124071428Y-109033390D01*
X124071428Y-109033390D02*
X124119047Y-109081009D01*
X124119047Y-109081009D02*
X124166666Y-109176247D01*
X124166666Y-109176247D02*
X124166666Y-109414342D01*
X124166666Y-109414342D02*
X124119047Y-109509580D01*
X124119047Y-109509580D02*
X124071428Y-109557200D01*
X124071428Y-109557200D02*
X123976190Y-109604819D01*
X123976190Y-109604819D02*
X123738095Y-109604819D01*
X123738095Y-109604819D02*
X123642857Y-109557200D01*
X123642857Y-109557200D02*
X123595238Y-109509580D01*
X122333333Y-139509580D02*
X122285714Y-139557200D01*
X122285714Y-139557200D02*
X122142857Y-139604819D01*
X122142857Y-139604819D02*
X122047619Y-139604819D01*
X122047619Y-139604819D02*
X121904762Y-139557200D01*
X121904762Y-139557200D02*
X121809524Y-139461961D01*
X121809524Y-139461961D02*
X121761905Y-139366723D01*
X121761905Y-139366723D02*
X121714286Y-139176247D01*
X121714286Y-139176247D02*
X121714286Y-139033390D01*
X121714286Y-139033390D02*
X121761905Y-138842914D01*
X121761905Y-138842914D02*
X121809524Y-138747676D01*
X121809524Y-138747676D02*
X121904762Y-138652438D01*
X121904762Y-138652438D02*
X122047619Y-138604819D01*
X122047619Y-138604819D02*
X122142857Y-138604819D01*
X122142857Y-138604819D02*
X122285714Y-138652438D01*
X122285714Y-138652438D02*
X122333333Y-138700057D01*
X123190476Y-138938152D02*
X123190476Y-139604819D01*
X122952381Y-138557200D02*
X122714286Y-139271485D01*
X122714286Y-139271485D02*
X123333333Y-139271485D01*
X121954819Y-131292857D02*
X121478628Y-131626190D01*
X121954819Y-131864285D02*
X120954819Y-131864285D01*
X120954819Y-131864285D02*
X120954819Y-131483333D01*
X120954819Y-131483333D02*
X121002438Y-131388095D01*
X121002438Y-131388095D02*
X121050057Y-131340476D01*
X121050057Y-131340476D02*
X121145295Y-131292857D01*
X121145295Y-131292857D02*
X121288152Y-131292857D01*
X121288152Y-131292857D02*
X121383390Y-131340476D01*
X121383390Y-131340476D02*
X121431009Y-131388095D01*
X121431009Y-131388095D02*
X121478628Y-131483333D01*
X121478628Y-131483333D02*
X121478628Y-131864285D01*
X121050057Y-130911904D02*
X121002438Y-130864285D01*
X121002438Y-130864285D02*
X120954819Y-130769047D01*
X120954819Y-130769047D02*
X120954819Y-130530952D01*
X120954819Y-130530952D02*
X121002438Y-130435714D01*
X121002438Y-130435714D02*
X121050057Y-130388095D01*
X121050057Y-130388095D02*
X121145295Y-130340476D01*
X121145295Y-130340476D02*
X121240533Y-130340476D01*
X121240533Y-130340476D02*
X121383390Y-130388095D01*
X121383390Y-130388095D02*
X121954819Y-130959523D01*
X121954819Y-130959523D02*
X121954819Y-130340476D01*
X121954819Y-129864285D02*
X121954819Y-129673809D01*
X121954819Y-129673809D02*
X121907200Y-129578571D01*
X121907200Y-129578571D02*
X121859580Y-129530952D01*
X121859580Y-129530952D02*
X121716723Y-129435714D01*
X121716723Y-129435714D02*
X121526247Y-129388095D01*
X121526247Y-129388095D02*
X121145295Y-129388095D01*
X121145295Y-129388095D02*
X121050057Y-129435714D01*
X121050057Y-129435714D02*
X121002438Y-129483333D01*
X121002438Y-129483333D02*
X120954819Y-129578571D01*
X120954819Y-129578571D02*
X120954819Y-129769047D01*
X120954819Y-129769047D02*
X121002438Y-129864285D01*
X121002438Y-129864285D02*
X121050057Y-129911904D01*
X121050057Y-129911904D02*
X121145295Y-129959523D01*
X121145295Y-129959523D02*
X121383390Y-129959523D01*
X121383390Y-129959523D02*
X121478628Y-129911904D01*
X121478628Y-129911904D02*
X121526247Y-129864285D01*
X121526247Y-129864285D02*
X121573866Y-129769047D01*
X121573866Y-129769047D02*
X121573866Y-129578571D01*
X121573866Y-129578571D02*
X121526247Y-129483333D01*
X121526247Y-129483333D02*
X121478628Y-129435714D01*
X121478628Y-129435714D02*
X121383390Y-129388095D01*
X123086666Y-60684819D02*
X123086666Y-61399104D01*
X123086666Y-61399104D02*
X123039047Y-61541961D01*
X123039047Y-61541961D02*
X122943809Y-61637200D01*
X122943809Y-61637200D02*
X122800952Y-61684819D01*
X122800952Y-61684819D02*
X122705714Y-61684819D01*
X123515238Y-60780057D02*
X123562857Y-60732438D01*
X123562857Y-60732438D02*
X123658095Y-60684819D01*
X123658095Y-60684819D02*
X123896190Y-60684819D01*
X123896190Y-60684819D02*
X123991428Y-60732438D01*
X123991428Y-60732438D02*
X124039047Y-60780057D01*
X124039047Y-60780057D02*
X124086666Y-60875295D01*
X124086666Y-60875295D02*
X124086666Y-60970533D01*
X124086666Y-60970533D02*
X124039047Y-61113390D01*
X124039047Y-61113390D02*
X123467619Y-61684819D01*
X123467619Y-61684819D02*
X124086666Y-61684819D01*
X153674761Y-94640057D02*
X153579523Y-94592438D01*
X153579523Y-94592438D02*
X153484285Y-94497200D01*
X153484285Y-94497200D02*
X153341428Y-94354342D01*
X153341428Y-94354342D02*
X153246190Y-94306723D01*
X153246190Y-94306723D02*
X153150952Y-94306723D01*
X153198571Y-94544819D02*
X153103333Y-94497200D01*
X153103333Y-94497200D02*
X153008095Y-94401961D01*
X153008095Y-94401961D02*
X152960476Y-94211485D01*
X152960476Y-94211485D02*
X152960476Y-93878152D01*
X152960476Y-93878152D02*
X153008095Y-93687676D01*
X153008095Y-93687676D02*
X153103333Y-93592438D01*
X153103333Y-93592438D02*
X153198571Y-93544819D01*
X153198571Y-93544819D02*
X153389047Y-93544819D01*
X153389047Y-93544819D02*
X153484285Y-93592438D01*
X153484285Y-93592438D02*
X153579523Y-93687676D01*
X153579523Y-93687676D02*
X153627142Y-93878152D01*
X153627142Y-93878152D02*
X153627142Y-94211485D01*
X153627142Y-94211485D02*
X153579523Y-94401961D01*
X153579523Y-94401961D02*
X153484285Y-94497200D01*
X153484285Y-94497200D02*
X153389047Y-94544819D01*
X153389047Y-94544819D02*
X153198571Y-94544819D01*
X154484285Y-93878152D02*
X154484285Y-94544819D01*
X154246190Y-93497200D02*
X154008095Y-94211485D01*
X154008095Y-94211485D02*
X154627142Y-94211485D01*
X160429029Y-62211402D02*
X159952838Y-62544735D01*
X160429029Y-62782830D02*
X159429029Y-62782830D01*
X159429029Y-62782830D02*
X159429029Y-62401878D01*
X159429029Y-62401878D02*
X159476648Y-62306640D01*
X159476648Y-62306640D02*
X159524267Y-62259021D01*
X159524267Y-62259021D02*
X159619505Y-62211402D01*
X159619505Y-62211402D02*
X159762362Y-62211402D01*
X159762362Y-62211402D02*
X159857600Y-62259021D01*
X159857600Y-62259021D02*
X159905219Y-62306640D01*
X159905219Y-62306640D02*
X159952838Y-62401878D01*
X159952838Y-62401878D02*
X159952838Y-62782830D01*
X160429029Y-61259021D02*
X160429029Y-61830449D01*
X160429029Y-61544735D02*
X159429029Y-61544735D01*
X159429029Y-61544735D02*
X159571886Y-61639973D01*
X159571886Y-61639973D02*
X159667124Y-61735211D01*
X159667124Y-61735211D02*
X159714743Y-61830449D01*
X159524267Y-60878068D02*
X159476648Y-60830449D01*
X159476648Y-60830449D02*
X159429029Y-60735211D01*
X159429029Y-60735211D02*
X159429029Y-60497116D01*
X159429029Y-60497116D02*
X159476648Y-60401878D01*
X159476648Y-60401878D02*
X159524267Y-60354259D01*
X159524267Y-60354259D02*
X159619505Y-60306640D01*
X159619505Y-60306640D02*
X159714743Y-60306640D01*
X159714743Y-60306640D02*
X159857600Y-60354259D01*
X159857600Y-60354259D02*
X160429029Y-60925687D01*
X160429029Y-60925687D02*
X160429029Y-60306640D01*
X137954819Y-131792857D02*
X137478628Y-132126190D01*
X137954819Y-132364285D02*
X136954819Y-132364285D01*
X136954819Y-132364285D02*
X136954819Y-131983333D01*
X136954819Y-131983333D02*
X137002438Y-131888095D01*
X137002438Y-131888095D02*
X137050057Y-131840476D01*
X137050057Y-131840476D02*
X137145295Y-131792857D01*
X137145295Y-131792857D02*
X137288152Y-131792857D01*
X137288152Y-131792857D02*
X137383390Y-131840476D01*
X137383390Y-131840476D02*
X137431009Y-131888095D01*
X137431009Y-131888095D02*
X137478628Y-131983333D01*
X137478628Y-131983333D02*
X137478628Y-132364285D01*
X136954819Y-131459523D02*
X136954819Y-130840476D01*
X136954819Y-130840476D02*
X137335771Y-131173809D01*
X137335771Y-131173809D02*
X137335771Y-131030952D01*
X137335771Y-131030952D02*
X137383390Y-130935714D01*
X137383390Y-130935714D02*
X137431009Y-130888095D01*
X137431009Y-130888095D02*
X137526247Y-130840476D01*
X137526247Y-130840476D02*
X137764342Y-130840476D01*
X137764342Y-130840476D02*
X137859580Y-130888095D01*
X137859580Y-130888095D02*
X137907200Y-130935714D01*
X137907200Y-130935714D02*
X137954819Y-131030952D01*
X137954819Y-131030952D02*
X137954819Y-131316666D01*
X137954819Y-131316666D02*
X137907200Y-131411904D01*
X137907200Y-131411904D02*
X137859580Y-131459523D01*
X136954819Y-130507142D02*
X136954819Y-129888095D01*
X136954819Y-129888095D02*
X137335771Y-130221428D01*
X137335771Y-130221428D02*
X137335771Y-130078571D01*
X137335771Y-130078571D02*
X137383390Y-129983333D01*
X137383390Y-129983333D02*
X137431009Y-129935714D01*
X137431009Y-129935714D02*
X137526247Y-129888095D01*
X137526247Y-129888095D02*
X137764342Y-129888095D01*
X137764342Y-129888095D02*
X137859580Y-129935714D01*
X137859580Y-129935714D02*
X137907200Y-129983333D01*
X137907200Y-129983333D02*
X137954819Y-130078571D01*
X137954819Y-130078571D02*
X137954819Y-130364285D01*
X137954819Y-130364285D02*
X137907200Y-130459523D01*
X137907200Y-130459523D02*
X137859580Y-130507142D01*
X133954819Y-131792857D02*
X133478628Y-132126190D01*
X133954819Y-132364285D02*
X132954819Y-132364285D01*
X132954819Y-132364285D02*
X132954819Y-131983333D01*
X132954819Y-131983333D02*
X133002438Y-131888095D01*
X133002438Y-131888095D02*
X133050057Y-131840476D01*
X133050057Y-131840476D02*
X133145295Y-131792857D01*
X133145295Y-131792857D02*
X133288152Y-131792857D01*
X133288152Y-131792857D02*
X133383390Y-131840476D01*
X133383390Y-131840476D02*
X133431009Y-131888095D01*
X133431009Y-131888095D02*
X133478628Y-131983333D01*
X133478628Y-131983333D02*
X133478628Y-132364285D01*
X132954819Y-131459523D02*
X132954819Y-130840476D01*
X132954819Y-130840476D02*
X133335771Y-131173809D01*
X133335771Y-131173809D02*
X133335771Y-131030952D01*
X133335771Y-131030952D02*
X133383390Y-130935714D01*
X133383390Y-130935714D02*
X133431009Y-130888095D01*
X133431009Y-130888095D02*
X133526247Y-130840476D01*
X133526247Y-130840476D02*
X133764342Y-130840476D01*
X133764342Y-130840476D02*
X133859580Y-130888095D01*
X133859580Y-130888095D02*
X133907200Y-130935714D01*
X133907200Y-130935714D02*
X133954819Y-131030952D01*
X133954819Y-131030952D02*
X133954819Y-131316666D01*
X133954819Y-131316666D02*
X133907200Y-131411904D01*
X133907200Y-131411904D02*
X133859580Y-131459523D01*
X133050057Y-130459523D02*
X133002438Y-130411904D01*
X133002438Y-130411904D02*
X132954819Y-130316666D01*
X132954819Y-130316666D02*
X132954819Y-130078571D01*
X132954819Y-130078571D02*
X133002438Y-129983333D01*
X133002438Y-129983333D02*
X133050057Y-129935714D01*
X133050057Y-129935714D02*
X133145295Y-129888095D01*
X133145295Y-129888095D02*
X133240533Y-129888095D01*
X133240533Y-129888095D02*
X133383390Y-129935714D01*
X133383390Y-129935714D02*
X133954819Y-130507142D01*
X133954819Y-130507142D02*
X133954819Y-129888095D01*
X126454819Y-75292857D02*
X125978628Y-75626190D01*
X126454819Y-75864285D02*
X125454819Y-75864285D01*
X125454819Y-75864285D02*
X125454819Y-75483333D01*
X125454819Y-75483333D02*
X125502438Y-75388095D01*
X125502438Y-75388095D02*
X125550057Y-75340476D01*
X125550057Y-75340476D02*
X125645295Y-75292857D01*
X125645295Y-75292857D02*
X125788152Y-75292857D01*
X125788152Y-75292857D02*
X125883390Y-75340476D01*
X125883390Y-75340476D02*
X125931009Y-75388095D01*
X125931009Y-75388095D02*
X125978628Y-75483333D01*
X125978628Y-75483333D02*
X125978628Y-75864285D01*
X126454819Y-74340476D02*
X126454819Y-74911904D01*
X126454819Y-74626190D02*
X125454819Y-74626190D01*
X125454819Y-74626190D02*
X125597676Y-74721428D01*
X125597676Y-74721428D02*
X125692914Y-74816666D01*
X125692914Y-74816666D02*
X125740533Y-74911904D01*
X125454819Y-73435714D02*
X125454819Y-73911904D01*
X125454819Y-73911904D02*
X125931009Y-73959523D01*
X125931009Y-73959523D02*
X125883390Y-73911904D01*
X125883390Y-73911904D02*
X125835771Y-73816666D01*
X125835771Y-73816666D02*
X125835771Y-73578571D01*
X125835771Y-73578571D02*
X125883390Y-73483333D01*
X125883390Y-73483333D02*
X125931009Y-73435714D01*
X125931009Y-73435714D02*
X126026247Y-73388095D01*
X126026247Y-73388095D02*
X126264342Y-73388095D01*
X126264342Y-73388095D02*
X126359580Y-73435714D01*
X126359580Y-73435714D02*
X126407200Y-73483333D01*
X126407200Y-73483333D02*
X126454819Y-73578571D01*
X126454819Y-73578571D02*
X126454819Y-73816666D01*
X126454819Y-73816666D02*
X126407200Y-73911904D01*
X126407200Y-73911904D02*
X126359580Y-73959523D01*
X131428095Y-85534819D02*
X131428095Y-86344342D01*
X131428095Y-86344342D02*
X131475714Y-86439580D01*
X131475714Y-86439580D02*
X131523333Y-86487200D01*
X131523333Y-86487200D02*
X131618571Y-86534819D01*
X131618571Y-86534819D02*
X131809047Y-86534819D01*
X131809047Y-86534819D02*
X131904285Y-86487200D01*
X131904285Y-86487200D02*
X131951904Y-86439580D01*
X131951904Y-86439580D02*
X131999523Y-86344342D01*
X131999523Y-86344342D02*
X131999523Y-85534819D01*
X132999523Y-86534819D02*
X132428095Y-86534819D01*
X132713809Y-86534819D02*
X132713809Y-85534819D01*
X132713809Y-85534819D02*
X132618571Y-85677676D01*
X132618571Y-85677676D02*
X132523333Y-85772914D01*
X132523333Y-85772914D02*
X132428095Y-85820533D01*
X162333333Y-89509580D02*
X162285714Y-89557200D01*
X162285714Y-89557200D02*
X162142857Y-89604819D01*
X162142857Y-89604819D02*
X162047619Y-89604819D01*
X162047619Y-89604819D02*
X161904762Y-89557200D01*
X161904762Y-89557200D02*
X161809524Y-89461961D01*
X161809524Y-89461961D02*
X161761905Y-89366723D01*
X161761905Y-89366723D02*
X161714286Y-89176247D01*
X161714286Y-89176247D02*
X161714286Y-89033390D01*
X161714286Y-89033390D02*
X161761905Y-88842914D01*
X161761905Y-88842914D02*
X161809524Y-88747676D01*
X161809524Y-88747676D02*
X161904762Y-88652438D01*
X161904762Y-88652438D02*
X162047619Y-88604819D01*
X162047619Y-88604819D02*
X162142857Y-88604819D01*
X162142857Y-88604819D02*
X162285714Y-88652438D01*
X162285714Y-88652438D02*
X162333333Y-88700057D01*
X162666667Y-88604819D02*
X163333333Y-88604819D01*
X163333333Y-88604819D02*
X162904762Y-89604819D01*
X142954819Y-118292857D02*
X142478628Y-118626190D01*
X142954819Y-118864285D02*
X141954819Y-118864285D01*
X141954819Y-118864285D02*
X141954819Y-118483333D01*
X141954819Y-118483333D02*
X142002438Y-118388095D01*
X142002438Y-118388095D02*
X142050057Y-118340476D01*
X142050057Y-118340476D02*
X142145295Y-118292857D01*
X142145295Y-118292857D02*
X142288152Y-118292857D01*
X142288152Y-118292857D02*
X142383390Y-118340476D01*
X142383390Y-118340476D02*
X142431009Y-118388095D01*
X142431009Y-118388095D02*
X142478628Y-118483333D01*
X142478628Y-118483333D02*
X142478628Y-118864285D01*
X142050057Y-117911904D02*
X142002438Y-117864285D01*
X142002438Y-117864285D02*
X141954819Y-117769047D01*
X141954819Y-117769047D02*
X141954819Y-117530952D01*
X141954819Y-117530952D02*
X142002438Y-117435714D01*
X142002438Y-117435714D02*
X142050057Y-117388095D01*
X142050057Y-117388095D02*
X142145295Y-117340476D01*
X142145295Y-117340476D02*
X142240533Y-117340476D01*
X142240533Y-117340476D02*
X142383390Y-117388095D01*
X142383390Y-117388095D02*
X142954819Y-117959523D01*
X142954819Y-117959523D02*
X142954819Y-117340476D01*
X142288152Y-116483333D02*
X142954819Y-116483333D01*
X141907200Y-116721428D02*
X142621485Y-116959523D01*
X142621485Y-116959523D02*
X142621485Y-116340476D01*
X148772814Y-146783696D02*
X147772814Y-146783696D01*
X147772814Y-146783696D02*
X147772814Y-146545601D01*
X147772814Y-146545601D02*
X147820433Y-146402744D01*
X147820433Y-146402744D02*
X147915671Y-146307506D01*
X147915671Y-146307506D02*
X148010909Y-146259887D01*
X148010909Y-146259887D02*
X148201385Y-146212268D01*
X148201385Y-146212268D02*
X148344242Y-146212268D01*
X148344242Y-146212268D02*
X148534718Y-146259887D01*
X148534718Y-146259887D02*
X148629956Y-146307506D01*
X148629956Y-146307506D02*
X148725195Y-146402744D01*
X148725195Y-146402744D02*
X148772814Y-146545601D01*
X148772814Y-146545601D02*
X148772814Y-146783696D01*
X147868052Y-145831315D02*
X147820433Y-145783696D01*
X147820433Y-145783696D02*
X147772814Y-145688458D01*
X147772814Y-145688458D02*
X147772814Y-145450363D01*
X147772814Y-145450363D02*
X147820433Y-145355125D01*
X147820433Y-145355125D02*
X147868052Y-145307506D01*
X147868052Y-145307506D02*
X147963290Y-145259887D01*
X147963290Y-145259887D02*
X148058528Y-145259887D01*
X148058528Y-145259887D02*
X148201385Y-145307506D01*
X148201385Y-145307506D02*
X148772814Y-145878934D01*
X148772814Y-145878934D02*
X148772814Y-145259887D01*
X148834819Y-138671904D02*
X147834819Y-138671904D01*
X148834819Y-138100476D02*
X148263390Y-138529047D01*
X147834819Y-138100476D02*
X148406247Y-138671904D01*
D11*
%TO.C,J6*%
X165120000Y-106190000D02*
X166500000Y-106190000D01*
X165120000Y-107570000D02*
X165120000Y-106190000D01*
X165120000Y-108840000D02*
X165120000Y-114030000D01*
X165120000Y-108840000D02*
X167880000Y-108840000D01*
X165120000Y-114030000D02*
X167880000Y-114030000D01*
X167880000Y-108840000D02*
X167880000Y-114030000D01*
%TO.C,R31*%
X131600000Y-122030000D02*
X131600000Y-122800000D01*
X131600000Y-130110000D02*
X131600000Y-129340000D01*
X130230000Y-129340000D02*
X132970000Y-129340000D01*
X132970000Y-122800000D01*
X130230000Y-122800000D01*
X130230000Y-129340000D01*
%TO.C,R3*%
X127995278Y-52967867D02*
X127995278Y-53737867D01*
X127995278Y-61047867D02*
X127995278Y-60277867D01*
X126625278Y-60277867D02*
X129365278Y-60277867D01*
X129365278Y-53737867D01*
X126625278Y-53737867D01*
X126625278Y-60277867D01*
%TO.C,R35*%
X148250000Y-125190000D02*
X148250000Y-125960000D01*
X148250000Y-133270000D02*
X148250000Y-132500000D01*
X146880000Y-132500000D02*
X149620000Y-132500000D01*
X149620000Y-125960000D01*
X146880000Y-125960000D01*
X146880000Y-132500000D01*
%TO.C,R8*%
X145002759Y-52971959D02*
X145002759Y-53741959D01*
X145002759Y-61051959D02*
X145002759Y-60281959D01*
X143632759Y-60281959D02*
X146372759Y-60281959D01*
X146372759Y-53741959D01*
X143632759Y-53741959D01*
X143632759Y-60281959D01*
%TO.C,R4*%
X141088094Y-52961004D02*
X141088094Y-53731004D01*
X141088094Y-61041004D02*
X141088094Y-60271004D01*
X139718094Y-60271004D02*
X142458094Y-60271004D01*
X142458094Y-53731004D01*
X139718094Y-53731004D01*
X139718094Y-60271004D01*
%TO.C,R10*%
X153899217Y-52931353D02*
X153899217Y-53701353D01*
X153899217Y-61011353D02*
X153899217Y-60241353D01*
X152529217Y-60241353D02*
X155269217Y-60241353D01*
X155269217Y-53701353D01*
X152529217Y-53701353D01*
X152529217Y-60241353D01*
%TO.C,U2*%
X146430000Y-79570000D02*
X146430000Y-84870000D01*
X146430000Y-84870000D02*
X166870000Y-84870000D01*
X166870000Y-79570000D02*
X146430000Y-79570000D01*
X166870000Y-81220000D02*
X166870000Y-79570000D01*
X166870000Y-84870000D02*
X166870000Y-83220000D01*
X166930000Y-77080000D02*
X146370000Y-77080000D01*
X146370000Y-87360000D01*
X166930000Y-87360000D01*
X166930000Y-77080000D01*
X166870000Y-83220000D02*
G75*
G02*
X166870000Y-81220000I0J1000000D01*
G01*
%TO.C,Q1*%
X155930000Y-93000000D02*
X159530000Y-93000000D01*
X155891522Y-92988478D02*
G75*
G02*
X157730000Y-88549999I1838478J1838478D01*
G01*
X157730000Y-88550000D02*
G75*
G02*
X159568478Y-92988478I0J-2600000D01*
G01*
%TO.C,R6*%
X135976763Y-52905554D02*
X135976763Y-53675554D01*
X135976763Y-60985554D02*
X135976763Y-60215554D01*
X134606763Y-60215554D02*
X137346763Y-60215554D01*
X137346763Y-53675554D01*
X134606763Y-53675554D01*
X134606763Y-60215554D01*
%TO.C,C3*%
X121780000Y-134280000D02*
X129220000Y-134280000D01*
X121780000Y-137020000D02*
X121780000Y-134280000D01*
X129220000Y-134280000D02*
X129220000Y-137020000D01*
X129220000Y-137020000D02*
X121780000Y-137020000D01*
%TO.C,R14*%
X149178312Y-65992355D02*
X149178312Y-66762355D01*
X149178312Y-74072355D02*
X149178312Y-73302355D01*
X147808312Y-73302355D02*
X150548312Y-73302355D01*
X150548312Y-66762355D01*
X147808312Y-66762355D01*
X147808312Y-73302355D01*
%TO.C,R28*%
X149040000Y-106150000D02*
X149810000Y-106150000D01*
X157120000Y-106150000D02*
X156350000Y-106150000D01*
X149810000Y-104780000D02*
X156350000Y-104780000D01*
X156350000Y-107520000D01*
X149810000Y-107520000D01*
X149810000Y-104780000D01*
%TO.C,R40*%
X141500000Y-138150000D02*
X141500000Y-138920000D01*
X141500000Y-146230000D02*
X141500000Y-145460000D01*
X140130000Y-145460000D02*
X142870000Y-145460000D01*
X142870000Y-138920000D01*
X140130000Y-138920000D01*
X140130000Y-145460000D01*
%TO.C,Q3*%
X145470000Y-99500000D02*
X149070000Y-99500000D01*
X145431522Y-99488478D02*
G75*
G02*
X147270000Y-95049999I1838478J1838478D01*
G01*
X147270000Y-95050000D02*
G75*
G02*
X149108478Y-99488478I0J-2600000D01*
G01*
%TO.C,R18*%
X145063640Y-66016211D02*
X145063640Y-66786211D01*
X145063640Y-74096211D02*
X145063640Y-73326211D01*
X146433640Y-66786211D02*
X143693640Y-66786211D01*
X143693640Y-73326211D01*
X146433640Y-73326211D01*
X146433640Y-66786211D01*
%TO.C,R30*%
X127550000Y-122030000D02*
X127550000Y-122800000D01*
X127550000Y-130110000D02*
X127550000Y-129340000D01*
X126180000Y-129340000D02*
X128920000Y-129340000D01*
X128920000Y-122800000D01*
X126180000Y-122800000D01*
X126180000Y-129340000D01*
%TO.C,R38*%
X162000000Y-108690000D02*
X162000000Y-109460000D01*
X162000000Y-116770000D02*
X162000000Y-116000000D01*
X160630000Y-116000000D02*
X163370000Y-116000000D01*
X163370000Y-109460000D01*
X160630000Y-109460000D01*
X160630000Y-116000000D01*
%TO.C,R36*%
X152300000Y-125190000D02*
X152300000Y-125960000D01*
X152300000Y-133270000D02*
X152300000Y-132500000D01*
X150930000Y-132500000D02*
X153670000Y-132500000D01*
X153670000Y-125960000D01*
X150930000Y-125960000D01*
X150930000Y-132500000D01*
%TO.C,RV1*%
X122040000Y-51730000D02*
X123420000Y-51730000D01*
X122040000Y-53110000D02*
X122040000Y-51730000D01*
X122040000Y-54380000D02*
X122040000Y-59570000D01*
X122040000Y-54380000D02*
X124800000Y-54380000D01*
X122040000Y-59570000D02*
X124800000Y-59570000D01*
X124800000Y-54380000D02*
X124800000Y-59570000D01*
%TO.C,Q2*%
X159447570Y-99493377D02*
X163047570Y-99493377D01*
X159409092Y-99481855D02*
G75*
G02*
X161247570Y-95043376I1838478J1838478D01*
G01*
X161247570Y-95043377D02*
G75*
G02*
X163086048Y-99481855I0J-2600000D01*
G01*
%TO.C,SW2*%
X165120000Y-95690000D02*
X166500000Y-95690000D01*
X165120000Y-97070000D02*
X165120000Y-95690000D01*
X165120000Y-98340000D02*
X165120000Y-103530000D01*
X165120000Y-98340000D02*
X167880000Y-98340000D01*
X165120000Y-103530000D02*
X167880000Y-103530000D01*
X167880000Y-98340000D02*
X167880000Y-103530000D01*
%TO.C,R19*%
X157993078Y-66025807D02*
X157993078Y-66795807D01*
X157993078Y-74105807D02*
X157993078Y-73335807D01*
X156623078Y-73335807D02*
X159363078Y-73335807D01*
X159363078Y-66795807D01*
X156623078Y-66795807D01*
X156623078Y-73335807D01*
%TO.C,SW1*%
X165120000Y-52190000D02*
X166500000Y-52190000D01*
X165120000Y-53570000D02*
X165120000Y-52190000D01*
X165120000Y-54840000D02*
X165120000Y-60030000D01*
X165120000Y-54840000D02*
X167880000Y-54840000D01*
X165120000Y-60030000D02*
X167880000Y-60030000D01*
X167880000Y-54840000D02*
X167880000Y-60030000D01*
%TO.C,R5*%
X132031522Y-52985570D02*
X132031522Y-53755570D01*
X132031522Y-61065570D02*
X132031522Y-60295570D01*
X130661522Y-60295570D02*
X133401522Y-60295570D01*
X133401522Y-53755570D01*
X130661522Y-53755570D01*
X130661522Y-60295570D01*
%TO.C,R20*%
X128500000Y-108530000D02*
X128500000Y-109300000D01*
X128500000Y-116610000D02*
X128500000Y-115840000D01*
X127130000Y-115840000D02*
X129870000Y-115840000D01*
X129870000Y-109300000D01*
X127130000Y-109300000D01*
X127130000Y-115840000D01*
%TO.C,C1*%
X131249759Y-143311000D02*
X131879759Y-143311000D01*
X131564759Y-142996000D02*
X131564759Y-143626000D01*
X134750000Y-141920000D02*
X134750000Y-148380000D01*
X134790000Y-141920000D02*
X134790000Y-148380000D01*
X134830000Y-141921000D02*
X134830000Y-148379000D01*
X134870000Y-141922000D02*
X134870000Y-148378000D01*
X134910000Y-141924000D02*
X134910000Y-148376000D01*
X134950000Y-141926000D02*
X134950000Y-148374000D01*
X134990000Y-141929000D02*
X134990000Y-144110000D01*
X134990000Y-146190000D02*
X134990000Y-148371000D01*
X135030000Y-141932000D02*
X135030000Y-144110000D01*
X135030000Y-146190000D02*
X135030000Y-148368000D01*
X135070000Y-141936000D02*
X135070000Y-144110000D01*
X135070000Y-146190000D02*
X135070000Y-148364000D01*
X135110000Y-141940000D02*
X135110000Y-144110000D01*
X135110000Y-146190000D02*
X135110000Y-148360000D01*
X135150000Y-141945000D02*
X135150000Y-144110000D01*
X135150000Y-146190000D02*
X135150000Y-148355000D01*
X135190000Y-141950000D02*
X135190000Y-144110000D01*
X135190000Y-146190000D02*
X135190000Y-148350000D01*
X135230000Y-141955000D02*
X135230000Y-144110000D01*
X135230000Y-146190000D02*
X135230000Y-148345000D01*
X135270000Y-141962000D02*
X135270000Y-144110000D01*
X135270000Y-146190000D02*
X135270000Y-148338000D01*
X135310000Y-141968000D02*
X135310000Y-144110000D01*
X135310000Y-146190000D02*
X135310000Y-148332000D01*
X135350000Y-141976000D02*
X135350000Y-144110000D01*
X135350000Y-146190000D02*
X135350000Y-148324000D01*
X135390000Y-141983000D02*
X135390000Y-144110000D01*
X135390000Y-146190000D02*
X135390000Y-148317000D01*
X135430000Y-141991000D02*
X135430000Y-144110000D01*
X135430000Y-146190000D02*
X135430000Y-148309000D01*
X135470000Y-142000000D02*
X135470000Y-144110000D01*
X135470000Y-146190000D02*
X135470000Y-148300000D01*
X135510000Y-142010000D02*
X135510000Y-144110000D01*
X135510000Y-146190000D02*
X135510000Y-148290000D01*
X135550000Y-142019000D02*
X135550000Y-144110000D01*
X135550000Y-146190000D02*
X135550000Y-148281000D01*
X135590000Y-142030000D02*
X135590000Y-144110000D01*
X135590000Y-146190000D02*
X135590000Y-148270000D01*
X135630000Y-142041000D02*
X135630000Y-144110000D01*
X135630000Y-146190000D02*
X135630000Y-148259000D01*
X135670000Y-142052000D02*
X135670000Y-144110000D01*
X135670000Y-146190000D02*
X135670000Y-148248000D01*
X135710000Y-142064000D02*
X135710000Y-144110000D01*
X135710000Y-146190000D02*
X135710000Y-148236000D01*
X135750000Y-142077000D02*
X135750000Y-144110000D01*
X135750000Y-146190000D02*
X135750000Y-148223000D01*
X135790000Y-142090000D02*
X135790000Y-144110000D01*
X135790000Y-146190000D02*
X135790000Y-148210000D01*
X135830000Y-142103000D02*
X135830000Y-144110000D01*
X135830000Y-146190000D02*
X135830000Y-148197000D01*
X135870000Y-142118000D02*
X135870000Y-144110000D01*
X135870000Y-146190000D02*
X135870000Y-148182000D01*
X135910000Y-142133000D02*
X135910000Y-144110000D01*
X135910000Y-146190000D02*
X135910000Y-148167000D01*
X135950000Y-142148000D02*
X135950000Y-144110000D01*
X135950000Y-146190000D02*
X135950000Y-148152000D01*
X135990000Y-142164000D02*
X135990000Y-144110000D01*
X135990000Y-146190000D02*
X135990000Y-148136000D01*
X136030000Y-142181000D02*
X136030000Y-144110000D01*
X136030000Y-146190000D02*
X136030000Y-148119000D01*
X136070000Y-142198000D02*
X136070000Y-144110000D01*
X136070000Y-146190000D02*
X136070000Y-148102000D01*
X136110000Y-142216000D02*
X136110000Y-144110000D01*
X136110000Y-146190000D02*
X136110000Y-148084000D01*
X136150000Y-142235000D02*
X136150000Y-144110000D01*
X136150000Y-146190000D02*
X136150000Y-148065000D01*
X136190000Y-142254000D02*
X136190000Y-144110000D01*
X136190000Y-146190000D02*
X136190000Y-148046000D01*
X136230000Y-142274000D02*
X136230000Y-144110000D01*
X136230000Y-146190000D02*
X136230000Y-148026000D01*
X136270000Y-142295000D02*
X136270000Y-144110000D01*
X136270000Y-146190000D02*
X136270000Y-148005000D01*
X136310000Y-142316000D02*
X136310000Y-144110000D01*
X136310000Y-146190000D02*
X136310000Y-147984000D01*
X136350000Y-142338000D02*
X136350000Y-144110000D01*
X136350000Y-146190000D02*
X136350000Y-147962000D01*
X136390000Y-142361000D02*
X136390000Y-144110000D01*
X136390000Y-146190000D02*
X136390000Y-147939000D01*
X136430000Y-142385000D02*
X136430000Y-144110000D01*
X136430000Y-146190000D02*
X136430000Y-147915000D01*
X136470000Y-142409000D02*
X136470000Y-144110000D01*
X136470000Y-146190000D02*
X136470000Y-147891000D01*
X136510000Y-142434000D02*
X136510000Y-144110000D01*
X136510000Y-146190000D02*
X136510000Y-147866000D01*
X136550000Y-142460000D02*
X136550000Y-144110000D01*
X136550000Y-146190000D02*
X136550000Y-147840000D01*
X136590000Y-142487000D02*
X136590000Y-144110000D01*
X136590000Y-146190000D02*
X136590000Y-147813000D01*
X136630000Y-142514000D02*
X136630000Y-144110000D01*
X136630000Y-146190000D02*
X136630000Y-147786000D01*
X136670000Y-142543000D02*
X136670000Y-144110000D01*
X136670000Y-146190000D02*
X136670000Y-147757000D01*
X136710000Y-142573000D02*
X136710000Y-144110000D01*
X136710000Y-146190000D02*
X136710000Y-147727000D01*
X136750000Y-142603000D02*
X136750000Y-144110000D01*
X136750000Y-146190000D02*
X136750000Y-147697000D01*
X136790000Y-142634000D02*
X136790000Y-144110000D01*
X136790000Y-146190000D02*
X136790000Y-147666000D01*
X136830000Y-142667000D02*
X136830000Y-144110000D01*
X136830000Y-146190000D02*
X136830000Y-147633000D01*
X136870000Y-142700000D02*
X136870000Y-144110000D01*
X136870000Y-146190000D02*
X136870000Y-147600000D01*
X136910000Y-142735000D02*
X136910000Y-144110000D01*
X136910000Y-146190000D02*
X136910000Y-147565000D01*
X136950000Y-142771000D02*
X136950000Y-144110000D01*
X136950000Y-146190000D02*
X136950000Y-147529000D01*
X136990000Y-142808000D02*
X136990000Y-144110000D01*
X136990000Y-146190000D02*
X136990000Y-147492000D01*
X137030000Y-142846000D02*
X137030000Y-144110000D01*
X137030000Y-146190000D02*
X137030000Y-147454000D01*
X137070000Y-142886000D02*
X137070000Y-147414000D01*
X137110000Y-142927000D02*
X137110000Y-147373000D01*
X137150000Y-142969000D02*
X137150000Y-147331000D01*
X137190000Y-143013000D02*
X137190000Y-147287000D01*
X137230000Y-143059000D02*
X137230000Y-147241000D01*
X137270000Y-143106000D02*
X137270000Y-147194000D01*
X137310000Y-143155000D02*
X137310000Y-147145000D01*
X137350000Y-143207000D02*
X137350000Y-147093000D01*
X137390000Y-143260000D02*
X137390000Y-147040000D01*
X137430000Y-143316000D02*
X137430000Y-146984000D01*
X137470000Y-143375000D02*
X137470000Y-146925000D01*
X137510000Y-143436000D02*
X137510000Y-146864000D01*
X137550000Y-143501000D02*
X137550000Y-146799000D01*
X137590000Y-143569000D02*
X137590000Y-146731000D01*
X137630000Y-143641000D02*
X137630000Y-146659000D01*
X137670000Y-143718000D02*
X137670000Y-146582000D01*
X137710000Y-143800000D02*
X137710000Y-146500000D01*
X137750000Y-143889000D02*
X137750000Y-146411000D01*
X137790000Y-143985000D02*
X137790000Y-146315000D01*
X137830000Y-144092000D02*
X137830000Y-146208000D01*
X137870000Y-144211000D02*
X137870000Y-146089000D01*
X137910000Y-144349000D02*
X137910000Y-145951000D01*
X137950000Y-144517000D02*
X137950000Y-145783000D01*
X137990000Y-144748000D02*
X137990000Y-145552000D01*
X138020000Y-145150000D02*
G75*
G02*
X131480000Y-145150000I-3270000J0D01*
G01*
X131480000Y-145150000D02*
G75*
G02*
X138020000Y-145150000I3270000J0D01*
G01*
%TO.C,J1*%
X122040000Y-72690000D02*
X123420000Y-72690000D01*
X122040000Y-74070000D02*
X122040000Y-72690000D01*
X122040000Y-75340000D02*
X122040000Y-80530000D01*
X122040000Y-75340000D02*
X124800000Y-75340000D01*
X122040000Y-80530000D02*
X124800000Y-80530000D01*
X124800000Y-75340000D02*
X124800000Y-80530000D01*
%TO.C,R11*%
X158035251Y-52920293D02*
X158035251Y-53690293D01*
X158035251Y-61000293D02*
X158035251Y-60230293D01*
X156665251Y-60230293D02*
X159405251Y-60230293D01*
X159405251Y-53690293D01*
X156665251Y-53690293D01*
X156665251Y-60230293D01*
%TO.C,D1*%
X154216928Y-139380000D02*
X154346928Y-139380000D01*
X154216928Y-143800000D02*
X157156928Y-143800000D01*
X154216928Y-143920000D02*
X157156928Y-143920000D01*
X154216928Y-144040000D02*
X157156928Y-144040000D01*
X154216928Y-144820000D02*
X154216928Y-139380000D01*
X154346928Y-144820000D02*
X154216928Y-144820000D01*
X157026928Y-144820000D02*
X157156928Y-144820000D01*
X157156928Y-139380000D02*
X157026928Y-139380000D01*
X157156928Y-144820000D02*
X157156928Y-139380000D01*
%TO.C,R27*%
X156650000Y-110690000D02*
X156650000Y-111460000D01*
X156650000Y-118770000D02*
X156650000Y-118000000D01*
X155280000Y-118000000D02*
X158020000Y-118000000D01*
X158020000Y-111460000D01*
X155280000Y-111460000D01*
X155280000Y-118000000D01*
%TO.C,R13*%
X127949913Y-66030000D02*
X127949913Y-66800000D01*
X127949913Y-74110000D02*
X127949913Y-73340000D01*
X129319913Y-66800000D02*
X126579913Y-66800000D01*
X126579913Y-73340000D01*
X129319913Y-73340000D01*
X129319913Y-66800000D01*
%TO.C,R7*%
X162007392Y-66032937D02*
X162007392Y-66802937D01*
X162007392Y-74112937D02*
X162007392Y-73342937D01*
X163377392Y-66802937D02*
X160637392Y-66802937D01*
X160637392Y-73342937D01*
X163377392Y-73342937D01*
X163377392Y-66802937D01*
%TO.C,J4*%
X122000000Y-99990000D02*
X123380000Y-99990000D01*
X122000000Y-101370000D02*
X122000000Y-99990000D01*
X122000000Y-102640000D02*
X122000000Y-107830000D01*
X122000000Y-102640000D02*
X124760000Y-102640000D01*
X122000000Y-107830000D02*
X124760000Y-107830000D01*
X124760000Y-102640000D02*
X124760000Y-107830000D01*
%TO.C,C5*%
X156280000Y-100780000D02*
X163720000Y-100780000D01*
X156280000Y-103520000D02*
X156280000Y-100780000D01*
X163720000Y-100780000D02*
X163720000Y-103520000D01*
X163720000Y-103520000D02*
X156280000Y-103520000D01*
%TO.C,R22*%
X136500000Y-108690000D02*
X136500000Y-109460000D01*
X136500000Y-116770000D02*
X136500000Y-116000000D01*
X135130000Y-116000000D02*
X137870000Y-116000000D01*
X137870000Y-109460000D01*
X135130000Y-109460000D01*
X135130000Y-116000000D01*
%TO.C,C2*%
X131249759Y-135311000D02*
X131879759Y-135311000D01*
X131564759Y-134996000D02*
X131564759Y-135626000D01*
X134750000Y-133920000D02*
X134750000Y-140380000D01*
X134790000Y-133920000D02*
X134790000Y-140380000D01*
X134830000Y-133921000D02*
X134830000Y-140379000D01*
X134870000Y-133922000D02*
X134870000Y-140378000D01*
X134910000Y-133924000D02*
X134910000Y-140376000D01*
X134950000Y-133926000D02*
X134950000Y-140374000D01*
X134990000Y-133929000D02*
X134990000Y-136110000D01*
X134990000Y-138190000D02*
X134990000Y-140371000D01*
X135030000Y-133932000D02*
X135030000Y-136110000D01*
X135030000Y-138190000D02*
X135030000Y-140368000D01*
X135070000Y-133936000D02*
X135070000Y-136110000D01*
X135070000Y-138190000D02*
X135070000Y-140364000D01*
X135110000Y-133940000D02*
X135110000Y-136110000D01*
X135110000Y-138190000D02*
X135110000Y-140360000D01*
X135150000Y-133945000D02*
X135150000Y-136110000D01*
X135150000Y-138190000D02*
X135150000Y-140355000D01*
X135190000Y-133950000D02*
X135190000Y-136110000D01*
X135190000Y-138190000D02*
X135190000Y-140350000D01*
X135230000Y-133955000D02*
X135230000Y-136110000D01*
X135230000Y-138190000D02*
X135230000Y-140345000D01*
X135270000Y-133962000D02*
X135270000Y-136110000D01*
X135270000Y-138190000D02*
X135270000Y-140338000D01*
X135310000Y-133968000D02*
X135310000Y-136110000D01*
X135310000Y-138190000D02*
X135310000Y-140332000D01*
X135350000Y-133976000D02*
X135350000Y-136110000D01*
X135350000Y-138190000D02*
X135350000Y-140324000D01*
X135390000Y-133983000D02*
X135390000Y-136110000D01*
X135390000Y-138190000D02*
X135390000Y-140317000D01*
X135430000Y-133991000D02*
X135430000Y-136110000D01*
X135430000Y-138190000D02*
X135430000Y-140309000D01*
X135470000Y-134000000D02*
X135470000Y-136110000D01*
X135470000Y-138190000D02*
X135470000Y-140300000D01*
X135510000Y-134010000D02*
X135510000Y-136110000D01*
X135510000Y-138190000D02*
X135510000Y-140290000D01*
X135550000Y-134019000D02*
X135550000Y-136110000D01*
X135550000Y-138190000D02*
X135550000Y-140281000D01*
X135590000Y-134030000D02*
X135590000Y-136110000D01*
X135590000Y-138190000D02*
X135590000Y-140270000D01*
X135630000Y-134041000D02*
X135630000Y-136110000D01*
X135630000Y-138190000D02*
X135630000Y-140259000D01*
X135670000Y-134052000D02*
X135670000Y-136110000D01*
X135670000Y-138190000D02*
X135670000Y-140248000D01*
X135710000Y-134064000D02*
X135710000Y-136110000D01*
X135710000Y-138190000D02*
X135710000Y-140236000D01*
X135750000Y-134077000D02*
X135750000Y-136110000D01*
X135750000Y-138190000D02*
X135750000Y-140223000D01*
X135790000Y-134090000D02*
X135790000Y-136110000D01*
X135790000Y-138190000D02*
X135790000Y-140210000D01*
X135830000Y-134103000D02*
X135830000Y-136110000D01*
X135830000Y-138190000D02*
X135830000Y-140197000D01*
X135870000Y-134118000D02*
X135870000Y-136110000D01*
X135870000Y-138190000D02*
X135870000Y-140182000D01*
X135910000Y-134133000D02*
X135910000Y-136110000D01*
X135910000Y-138190000D02*
X135910000Y-140167000D01*
X135950000Y-134148000D02*
X135950000Y-136110000D01*
X135950000Y-138190000D02*
X135950000Y-140152000D01*
X135990000Y-134164000D02*
X135990000Y-136110000D01*
X135990000Y-138190000D02*
X135990000Y-140136000D01*
X136030000Y-134181000D02*
X136030000Y-136110000D01*
X136030000Y-138190000D02*
X136030000Y-140119000D01*
X136070000Y-134198000D02*
X136070000Y-136110000D01*
X136070000Y-138190000D02*
X136070000Y-140102000D01*
X136110000Y-134216000D02*
X136110000Y-136110000D01*
X136110000Y-138190000D02*
X136110000Y-140084000D01*
X136150000Y-134235000D02*
X136150000Y-136110000D01*
X136150000Y-138190000D02*
X136150000Y-140065000D01*
X136190000Y-134254000D02*
X136190000Y-136110000D01*
X136190000Y-138190000D02*
X136190000Y-140046000D01*
X136230000Y-134274000D02*
X136230000Y-136110000D01*
X136230000Y-138190000D02*
X136230000Y-140026000D01*
X136270000Y-134295000D02*
X136270000Y-136110000D01*
X136270000Y-138190000D02*
X136270000Y-140005000D01*
X136310000Y-134316000D02*
X136310000Y-136110000D01*
X136310000Y-138190000D02*
X136310000Y-139984000D01*
X136350000Y-134338000D02*
X136350000Y-136110000D01*
X136350000Y-138190000D02*
X136350000Y-139962000D01*
X136390000Y-134361000D02*
X136390000Y-136110000D01*
X136390000Y-138190000D02*
X136390000Y-139939000D01*
X136430000Y-134385000D02*
X136430000Y-136110000D01*
X136430000Y-138190000D02*
X136430000Y-139915000D01*
X136470000Y-134409000D02*
X136470000Y-136110000D01*
X136470000Y-138190000D02*
X136470000Y-139891000D01*
X136510000Y-134434000D02*
X136510000Y-136110000D01*
X136510000Y-138190000D02*
X136510000Y-139866000D01*
X136550000Y-134460000D02*
X136550000Y-136110000D01*
X136550000Y-138190000D02*
X136550000Y-139840000D01*
X136590000Y-134487000D02*
X136590000Y-136110000D01*
X136590000Y-138190000D02*
X136590000Y-139813000D01*
X136630000Y-134514000D02*
X136630000Y-136110000D01*
X136630000Y-138190000D02*
X136630000Y-139786000D01*
X136670000Y-134543000D02*
X136670000Y-136110000D01*
X136670000Y-138190000D02*
X136670000Y-139757000D01*
X136710000Y-134573000D02*
X136710000Y-136110000D01*
X136710000Y-138190000D02*
X136710000Y-139727000D01*
X136750000Y-134603000D02*
X136750000Y-136110000D01*
X136750000Y-138190000D02*
X136750000Y-139697000D01*
X136790000Y-134634000D02*
X136790000Y-136110000D01*
X136790000Y-138190000D02*
X136790000Y-139666000D01*
X136830000Y-134667000D02*
X136830000Y-136110000D01*
X136830000Y-138190000D02*
X136830000Y-139633000D01*
X136870000Y-134700000D02*
X136870000Y-136110000D01*
X136870000Y-138190000D02*
X136870000Y-139600000D01*
X136910000Y-134735000D02*
X136910000Y-136110000D01*
X136910000Y-138190000D02*
X136910000Y-139565000D01*
X136950000Y-134771000D02*
X136950000Y-136110000D01*
X136950000Y-138190000D02*
X136950000Y-139529000D01*
X136990000Y-134808000D02*
X136990000Y-136110000D01*
X136990000Y-138190000D02*
X136990000Y-139492000D01*
X137030000Y-134846000D02*
X137030000Y-136110000D01*
X137030000Y-138190000D02*
X137030000Y-139454000D01*
X137070000Y-134886000D02*
X137070000Y-139414000D01*
X137110000Y-134927000D02*
X137110000Y-139373000D01*
X137150000Y-134969000D02*
X137150000Y-139331000D01*
X137190000Y-135013000D02*
X137190000Y-139287000D01*
X137230000Y-135059000D02*
X137230000Y-139241000D01*
X137270000Y-135106000D02*
X137270000Y-139194000D01*
X137310000Y-135155000D02*
X137310000Y-139145000D01*
X137350000Y-135207000D02*
X137350000Y-139093000D01*
X137390000Y-135260000D02*
X137390000Y-139040000D01*
X137430000Y-135316000D02*
X137430000Y-138984000D01*
X137470000Y-135375000D02*
X137470000Y-138925000D01*
X137510000Y-135436000D02*
X137510000Y-138864000D01*
X137550000Y-135501000D02*
X137550000Y-138799000D01*
X137590000Y-135569000D02*
X137590000Y-138731000D01*
X137630000Y-135641000D02*
X137630000Y-138659000D01*
X137670000Y-135718000D02*
X137670000Y-138582000D01*
X137710000Y-135800000D02*
X137710000Y-138500000D01*
X137750000Y-135889000D02*
X137750000Y-138411000D01*
X137790000Y-135985000D02*
X137790000Y-138315000D01*
X137830000Y-136092000D02*
X137830000Y-138208000D01*
X137870000Y-136211000D02*
X137870000Y-138089000D01*
X137910000Y-136349000D02*
X137910000Y-137951000D01*
X137950000Y-136517000D02*
X137950000Y-137783000D01*
X137990000Y-136748000D02*
X137990000Y-137552000D01*
X138020000Y-137150000D02*
G75*
G02*
X131480000Y-137150000I-3270000J0D01*
G01*
X131480000Y-137150000D02*
G75*
G02*
X138020000Y-137150000I3270000J0D01*
G01*
%TO.C,RV4*%
X122120000Y-89190000D02*
X123500000Y-89190000D01*
X122120000Y-90570000D02*
X122120000Y-89190000D01*
X122120000Y-91840000D02*
X122120000Y-97030000D01*
X122120000Y-91840000D02*
X124880000Y-91840000D01*
X122120000Y-97030000D02*
X124880000Y-97030000D01*
X124880000Y-91840000D02*
X124880000Y-97030000D01*
%TO.C,R26*%
X152600000Y-110690000D02*
X152600000Y-111460000D01*
X152600000Y-118770000D02*
X152600000Y-118000000D01*
X151230000Y-118000000D02*
X153970000Y-118000000D01*
X153970000Y-111460000D01*
X151230000Y-111460000D01*
X151230000Y-118000000D01*
%TO.C,J3*%
X165120000Y-62770000D02*
X166500000Y-62770000D01*
X165120000Y-64150000D02*
X165120000Y-62770000D01*
X165120000Y-65420000D02*
X165120000Y-70610000D01*
X165120000Y-65420000D02*
X167880000Y-65420000D01*
X165120000Y-70610000D02*
X167880000Y-70610000D01*
X167880000Y-65420000D02*
X167880000Y-70610000D01*
%TO.C,C6*%
X147280000Y-100780000D02*
X154720000Y-100780000D01*
X147280000Y-103520000D02*
X147280000Y-100780000D01*
X154720000Y-100780000D02*
X154720000Y-103520000D01*
X154720000Y-103520000D02*
X147280000Y-103520000D01*
%TO.C,R23*%
X140450000Y-108690000D02*
X140450000Y-109460000D01*
X140450000Y-116770000D02*
X140450000Y-116000000D01*
X139080000Y-116000000D02*
X141820000Y-116000000D01*
X141820000Y-109460000D01*
X139080000Y-109460000D01*
X139080000Y-116000000D01*
%TO.C,R34*%
X144200000Y-122220000D02*
X144200000Y-122990000D01*
X144200000Y-130300000D02*
X144200000Y-129530000D01*
X142830000Y-129530000D02*
X145570000Y-129530000D01*
X145570000Y-122990000D01*
X142830000Y-122990000D01*
X142830000Y-129530000D01*
%TO.C,R21*%
X132500000Y-108530000D02*
X132500000Y-109300000D01*
X132500000Y-116610000D02*
X132500000Y-115840000D01*
X131130000Y-115840000D02*
X133870000Y-115840000D01*
X133870000Y-109300000D01*
X131130000Y-109300000D01*
X131130000Y-115840000D01*
%TO.C,R9*%
X149164538Y-52960172D02*
X149164538Y-53730172D01*
X149164538Y-61040172D02*
X149164538Y-60270172D01*
X147794538Y-60270172D02*
X150534538Y-60270172D01*
X150534538Y-53730172D01*
X147794538Y-53730172D01*
X147794538Y-60270172D01*
%TO.C,R16*%
X136000000Y-66030000D02*
X136000000Y-66800000D01*
X136000000Y-74110000D02*
X136000000Y-73340000D01*
X134630000Y-73340000D02*
X137370000Y-73340000D01*
X137370000Y-66800000D01*
X134630000Y-66800000D01*
X134630000Y-73340000D01*
%TO.C,R37*%
X156350000Y-125190000D02*
X156350000Y-125960000D01*
X156350000Y-133270000D02*
X156350000Y-132500000D01*
X154980000Y-132500000D02*
X157720000Y-132500000D01*
X157720000Y-125960000D01*
X154980000Y-125960000D01*
X154980000Y-132500000D01*
%TO.C,R25*%
X148550000Y-110690000D02*
X148550000Y-111460000D01*
X148550000Y-118770000D02*
X148550000Y-118000000D01*
X147180000Y-118000000D02*
X149920000Y-118000000D01*
X149920000Y-111460000D01*
X147180000Y-111460000D01*
X147180000Y-118000000D01*
%TO.C,R39*%
X146000000Y-138150000D02*
X146000000Y-138920000D01*
X146000000Y-146230000D02*
X146000000Y-145460000D01*
X144630000Y-145460000D02*
X147370000Y-145460000D01*
X147370000Y-138920000D01*
X144630000Y-138920000D01*
X144630000Y-145460000D01*
%TO.C,R2*%
X141032600Y-65992355D02*
X141032600Y-66762355D01*
X141032600Y-74072355D02*
X141032600Y-73302355D01*
X139662600Y-73302355D02*
X142402600Y-73302355D01*
X142402600Y-66762355D01*
X139662600Y-66762355D01*
X139662600Y-73302355D01*
%TO.C,C8*%
X146780000Y-89780000D02*
X154220000Y-89780000D01*
X146780000Y-92520000D02*
X146780000Y-89780000D01*
X154220000Y-89780000D02*
X154220000Y-92520000D01*
X154220000Y-92520000D02*
X146780000Y-92520000D01*
%TO.C,R17*%
X153895132Y-65992355D02*
X153895132Y-66762355D01*
X153895132Y-74072355D02*
X153895132Y-73302355D01*
X152525132Y-73302355D02*
X155265132Y-73302355D01*
X155265132Y-66762355D01*
X152525132Y-66762355D01*
X152525132Y-73302355D01*
%TO.C,J5*%
X122120000Y-110150000D02*
X123500000Y-110150000D01*
X122120000Y-111530000D02*
X122120000Y-110150000D01*
X122120000Y-112800000D02*
X122120000Y-117990000D01*
X122120000Y-112800000D02*
X124880000Y-112800000D01*
X122120000Y-117990000D02*
X124880000Y-117990000D01*
X124880000Y-112800000D02*
X124880000Y-117990000D01*
%TO.C,C4*%
X121780000Y-139780000D02*
X129220000Y-139780000D01*
X121780000Y-142520000D02*
X121780000Y-139780000D01*
X129220000Y-139780000D02*
X129220000Y-142520000D01*
X129220000Y-142520000D02*
X121780000Y-142520000D01*
%TO.C,R29*%
X123500000Y-122030000D02*
X123500000Y-122800000D01*
X123500000Y-130110000D02*
X123500000Y-129340000D01*
X122130000Y-129340000D02*
X124870000Y-129340000D01*
X124870000Y-122800000D01*
X122130000Y-122800000D01*
X122130000Y-129340000D01*
%TO.C,J2*%
X122040000Y-62230000D02*
X123420000Y-62230000D01*
X122040000Y-63610000D02*
X122040000Y-62230000D01*
X122040000Y-64880000D02*
X122040000Y-70070000D01*
X122040000Y-64880000D02*
X124800000Y-64880000D01*
X122040000Y-70070000D02*
X124800000Y-70070000D01*
X124800000Y-64880000D02*
X124800000Y-70070000D01*
%TO.C,Q4*%
X151970000Y-99500000D02*
X155570000Y-99500000D01*
X151931522Y-99488478D02*
G75*
G02*
X153770000Y-95049999I1838478J1838478D01*
G01*
X153770000Y-95050000D02*
G75*
G02*
X155608478Y-99488478I0J-2600000D01*
G01*
%TO.C,R12*%
X161974210Y-52948545D02*
X161974210Y-53718545D01*
X161974210Y-61028545D02*
X161974210Y-60258545D01*
X160604210Y-60258545D02*
X163344210Y-60258545D01*
X163344210Y-53718545D01*
X160604210Y-53718545D01*
X160604210Y-60258545D01*
%TO.C,R33*%
X139700000Y-122030000D02*
X139700000Y-122800000D01*
X139700000Y-130110000D02*
X139700000Y-129340000D01*
X138330000Y-129340000D02*
X141070000Y-129340000D01*
X141070000Y-122800000D01*
X138330000Y-122800000D01*
X138330000Y-129340000D01*
%TO.C,R32*%
X135650000Y-122030000D02*
X135650000Y-122800000D01*
X135650000Y-130110000D02*
X135650000Y-129340000D01*
X134280000Y-129340000D02*
X137020000Y-129340000D01*
X137020000Y-122800000D01*
X134280000Y-122800000D01*
X134280000Y-129340000D01*
%TO.C,R15*%
X132000000Y-66030000D02*
X132000000Y-66800000D01*
X132000000Y-74110000D02*
X132000000Y-73340000D01*
X130630000Y-73340000D02*
X133370000Y-73340000D01*
X133370000Y-66800000D01*
X130630000Y-66800000D01*
X130630000Y-73340000D01*
%TO.C,U1*%
X129540000Y-87080000D02*
X129540000Y-104980000D01*
X129540000Y-104980000D02*
X134840000Y-104980000D01*
X131190000Y-87080000D02*
X129540000Y-87080000D01*
X134840000Y-87080000D02*
X133190000Y-87080000D01*
X134840000Y-104980000D02*
X134840000Y-87080000D01*
X127050000Y-87020000D02*
X137330000Y-87020000D01*
X137330000Y-105040000D01*
X127050000Y-105040000D01*
X127050000Y-87020000D01*
X133190000Y-87080000D02*
G75*
G02*
X131190000Y-87080000I-1000000J0D01*
G01*
%TO.C,C7*%
X161280000Y-89780000D02*
X168720000Y-89780000D01*
X161280000Y-92520000D02*
X161280000Y-89780000D01*
X168720000Y-89780000D02*
X168720000Y-92520000D01*
X168720000Y-92520000D02*
X161280000Y-92520000D01*
%TO.C,R24*%
X144500000Y-108690000D02*
X144500000Y-109460000D01*
X144500000Y-116770000D02*
X144500000Y-116000000D01*
X143130000Y-116000000D02*
X145870000Y-116000000D01*
X145870000Y-109460000D01*
X143130000Y-109460000D01*
X143130000Y-116000000D01*
%TO.C,D2*%
X149030000Y-139000000D02*
X149030000Y-144440000D01*
X149030000Y-144440000D02*
X149160000Y-144440000D01*
X149160000Y-139000000D02*
X149030000Y-139000000D01*
X151840000Y-139000000D02*
X151970000Y-139000000D01*
X151970000Y-139000000D02*
X151970000Y-144440000D01*
X151970000Y-139780000D02*
X149030000Y-139780000D01*
X151970000Y-139900000D02*
X149030000Y-139900000D01*
X151970000Y-140020000D02*
X149030000Y-140020000D01*
X151970000Y-144440000D02*
X151840000Y-144440000D01*
%TD*%
M02*
