%TF.GenerationSoftware,KiCad,Pcbnew,9.0.7*%
%TF.CreationDate,2026-02-02T08:25:31-05:00*%
%TF.ProjectId,mfos_vca,6d666f73-5f76-4636-912e-6b696361645f,rev?*%
%TF.SameCoordinates,Original*%
%TF.FileFunction,Soldermask,Bot*%
%TF.FilePolarity,Negative*%
%FSLAX46Y46*%
G04 Gerber Fmt 4.6, Leading zero omitted, Abs format (unit mm)*
G04 Created by KiCad (PCBNEW 9.0.7) date 2026-02-02 08:25:31*
%MOMM*%
%LPD*%
G01*
G04 APERTURE LIST*
G04 Aperture macros list*
%AMRoundRect*
0 Rectangle with rounded corners*
0 $1 Rounding radius*
0 $2 $3 $4 $5 $6 $7 $8 $9 X,Y pos of 4 corners*
0 Add a 4 corners polygon primitive as box body*
4,1,4,$2,$3,$4,$5,$6,$7,$8,$9,$2,$3,0*
0 Add four circle primitives for the rounded corners*
1,1,$1+$1,$2,$3*
1,1,$1+$1,$4,$5*
1,1,$1+$1,$6,$7*
1,1,$1+$1,$8,$9*
0 Add four rect primitives between the rounded corners*
20,1,$1+$1,$2,$3,$4,$5,0*
20,1,$1+$1,$4,$5,$6,$7,0*
20,1,$1+$1,$6,$7,$8,$9,0*
20,1,$1+$1,$8,$9,$2,$3,0*%
G04 Aperture macros list end*
%ADD10R,1.700000X1.700000*%
%ADD11C,1.700000*%
%ADD12C,1.600000*%
%ADD13RoundRect,0.250000X-0.550000X0.550000X-0.550000X-0.550000X0.550000X-0.550000X0.550000X0.550000X0*%
%ADD14R,1.050000X1.500000*%
%ADD15O,1.050000X1.500000*%
%ADD16C,1.500000*%
%ADD17C,3.200000*%
%ADD18RoundRect,0.250000X-0.550000X-0.550000X0.550000X-0.550000X0.550000X0.550000X-0.550000X0.550000X0*%
%ADD19RoundRect,0.249999X0.850001X-0.850001X0.850001X0.850001X-0.850001X0.850001X-0.850001X-0.850001X0*%
%ADD20C,2.200000*%
%ADD21RoundRect,0.249999X-0.850001X0.850001X-0.850001X-0.850001X0.850001X-0.850001X0.850001X0.850001X0*%
%ADD22C,1.440000*%
%ADD23C,1.620000*%
%ADD24RoundRect,0.250000X0.600000X0.600000X-0.600000X0.600000X-0.600000X-0.600000X0.600000X-0.600000X0*%
G04 APERTURE END LIST*
D10*
%TO.C,J6*%
X166500000Y-107570000D03*
D11*
X166500000Y-112650000D03*
X166500000Y-110110000D03*
%TD*%
D12*
%TO.C,R31*%
X131600000Y-131150000D03*
X131600000Y-120990000D03*
%TD*%
%TO.C,R3*%
X127995278Y-62087867D03*
X127995278Y-51927867D03*
%TD*%
%TO.C,R35*%
X148250000Y-134310000D03*
X148250000Y-124150000D03*
%TD*%
%TO.C,R8*%
X145002759Y-62091959D03*
X145002759Y-51931959D03*
%TD*%
%TO.C,R4*%
X141088094Y-62081004D03*
X141088094Y-51921004D03*
%TD*%
%TO.C,R10*%
X153899217Y-62051353D03*
X153899217Y-51891353D03*
%TD*%
D13*
%TO.C,U2*%
X165540000Y-78410000D03*
D12*
X163000000Y-78410000D03*
X160460000Y-78410000D03*
X157920000Y-78410000D03*
X155380000Y-78410000D03*
X152840000Y-78410000D03*
X150300000Y-78410000D03*
X147760000Y-78410000D03*
X147760000Y-86030000D03*
X150300000Y-86030000D03*
X152840000Y-86030000D03*
X155380000Y-86030000D03*
X157920000Y-86030000D03*
X160460000Y-86030000D03*
X163000000Y-86030000D03*
X165540000Y-86030000D03*
%TD*%
D14*
%TO.C,Q1*%
X156460000Y-91150000D03*
D15*
X157730000Y-91150000D03*
X159000000Y-91150000D03*
%TD*%
D12*
%TO.C,R6*%
X135976763Y-62025554D03*
X135976763Y-51865554D03*
%TD*%
D16*
%TO.C,C3*%
X123000000Y-135650000D03*
X128000000Y-135650000D03*
%TD*%
D12*
%TO.C,R14*%
X149178312Y-75112355D03*
X149178312Y-64952355D03*
%TD*%
%TO.C,R28*%
X148000000Y-106150000D03*
X158160000Y-106150000D03*
%TD*%
%TO.C,R40*%
X141500000Y-147270000D03*
X141500000Y-137110000D03*
%TD*%
D14*
%TO.C,Q3*%
X146000000Y-97650000D03*
D15*
X147270000Y-97650000D03*
X148540000Y-97650000D03*
%TD*%
D12*
%TO.C,R18*%
X145063640Y-64976211D03*
X145063640Y-75136211D03*
%TD*%
%TO.C,R30*%
X127550000Y-131150000D03*
X127550000Y-120990000D03*
%TD*%
%TO.C,R38*%
X162000000Y-117810000D03*
X162000000Y-107650000D03*
%TD*%
%TO.C,R36*%
X152300000Y-134310000D03*
X152300000Y-124150000D03*
%TD*%
D10*
%TO.C,RV1*%
X123420000Y-53110000D03*
D11*
X123420000Y-55650000D03*
X123420000Y-58190000D03*
%TD*%
D14*
%TO.C,Q2*%
X159977570Y-97643377D03*
D15*
X161247570Y-97643377D03*
X162517570Y-97643377D03*
%TD*%
D17*
%TO.C,REF\u002A\u002A*%
X162510000Y-46650000D03*
%TD*%
D10*
%TO.C,SW2*%
X166500000Y-97070000D03*
D11*
X166500000Y-99610000D03*
X166500000Y-102150000D03*
%TD*%
D12*
%TO.C,R19*%
X157993078Y-75145807D03*
X157993078Y-64985807D03*
%TD*%
D10*
%TO.C,SW1*%
X166500000Y-53570000D03*
D11*
X166500000Y-56110000D03*
X166500000Y-58650000D03*
%TD*%
D12*
%TO.C,R5*%
X132031522Y-62105570D03*
X132031522Y-51945570D03*
%TD*%
%TO.C,R20*%
X128500000Y-117650000D03*
X128500000Y-107490000D03*
%TD*%
D18*
%TO.C,C1*%
X133500000Y-145150000D03*
D12*
X136000000Y-145150000D03*
%TD*%
D17*
%TO.C,REF\u002A\u002A*%
X126950000Y-147150000D03*
%TD*%
D10*
%TO.C,J1*%
X123420000Y-74070000D03*
D11*
X123420000Y-79150000D03*
X123420000Y-76610000D03*
%TD*%
D12*
%TO.C,R11*%
X158035251Y-62040293D03*
X158035251Y-51880293D03*
%TD*%
D19*
%TO.C,D1*%
X155686928Y-145910000D03*
D20*
X155686928Y-138290000D03*
%TD*%
D12*
%TO.C,R27*%
X156650000Y-119810000D03*
X156650000Y-109650000D03*
%TD*%
%TO.C,R13*%
X127949913Y-64990000D03*
X127949913Y-75150000D03*
%TD*%
%TO.C,R7*%
X162007392Y-64992937D03*
X162007392Y-75152937D03*
%TD*%
D10*
%TO.C,J4*%
X123380000Y-101370000D03*
D11*
X123380000Y-106450000D03*
X123380000Y-103910000D03*
%TD*%
D16*
%TO.C,C5*%
X157500000Y-102150000D03*
X162500000Y-102150000D03*
%TD*%
D12*
%TO.C,R22*%
X136500000Y-117810000D03*
X136500000Y-107650000D03*
%TD*%
D18*
%TO.C,C2*%
X133500000Y-137150000D03*
D12*
X136000000Y-137150000D03*
%TD*%
D10*
%TO.C,RV4*%
X123500000Y-90570000D03*
D11*
X123500000Y-93110000D03*
X123500000Y-95650000D03*
%TD*%
D12*
%TO.C,R26*%
X152600000Y-119810000D03*
X152600000Y-109650000D03*
%TD*%
D10*
%TO.C,J3*%
X166500000Y-64150000D03*
D11*
X166500000Y-69230000D03*
X166500000Y-66690000D03*
%TD*%
D16*
%TO.C,C6*%
X148500000Y-102150000D03*
X153500000Y-102150000D03*
%TD*%
D17*
%TO.C,REF\u002A\u002A*%
X162510000Y-147150000D03*
%TD*%
%TO.C,REF\u002A\u002A*%
X126950000Y-46650000D03*
%TD*%
D12*
%TO.C,R23*%
X140450000Y-117810000D03*
X140450000Y-107650000D03*
%TD*%
%TO.C,R34*%
X144200000Y-131340000D03*
X144200000Y-121180000D03*
%TD*%
%TO.C,R21*%
X132500000Y-117650000D03*
X132500000Y-107490000D03*
%TD*%
%TO.C,R9*%
X149164538Y-62080172D03*
X149164538Y-51920172D03*
%TD*%
%TO.C,R16*%
X136000000Y-75150000D03*
X136000000Y-64990000D03*
%TD*%
%TO.C,R37*%
X156350000Y-134310000D03*
X156350000Y-124150000D03*
%TD*%
%TO.C,R25*%
X148550000Y-119810000D03*
X148550000Y-109650000D03*
%TD*%
%TO.C,R39*%
X146000000Y-147270000D03*
X146000000Y-137110000D03*
%TD*%
%TO.C,R2*%
X141032600Y-75112355D03*
X141032600Y-64952355D03*
%TD*%
D16*
%TO.C,C8*%
X148000000Y-91150000D03*
X153000000Y-91150000D03*
%TD*%
D12*
%TO.C,R17*%
X153895132Y-75112355D03*
X153895132Y-64952355D03*
%TD*%
D10*
%TO.C,J5*%
X123500000Y-111530000D03*
D11*
X123500000Y-116610000D03*
X123500000Y-114070000D03*
%TD*%
D16*
%TO.C,C4*%
X123000000Y-141150000D03*
X128000000Y-141150000D03*
%TD*%
D12*
%TO.C,R29*%
X123500000Y-131150000D03*
X123500000Y-120990000D03*
%TD*%
D10*
%TO.C,J2*%
X123420000Y-63610000D03*
D11*
X123420000Y-68690000D03*
X123420000Y-66150000D03*
%TD*%
D14*
%TO.C,Q4*%
X152500000Y-97650000D03*
D15*
X153770000Y-97650000D03*
X155040000Y-97650000D03*
%TD*%
D12*
%TO.C,R12*%
X161974210Y-62068545D03*
X161974210Y-51908545D03*
%TD*%
%TO.C,R33*%
X139700000Y-131150000D03*
X139700000Y-120990000D03*
%TD*%
%TO.C,R32*%
X135650000Y-131150000D03*
X135650000Y-120990000D03*
%TD*%
%TO.C,R15*%
X132000000Y-75150000D03*
X132000000Y-64990000D03*
%TD*%
D18*
%TO.C,U1*%
X128380000Y-88410000D03*
D12*
X128380000Y-90950000D03*
X128380000Y-93490000D03*
X128380000Y-96030000D03*
X128380000Y-98570000D03*
X128380000Y-101110000D03*
X128380000Y-103650000D03*
X136000000Y-103650000D03*
X136000000Y-101110000D03*
X136000000Y-98570000D03*
X136000000Y-96030000D03*
X136000000Y-93490000D03*
X136000000Y-90950000D03*
X136000000Y-88410000D03*
%TD*%
D16*
%TO.C,C7*%
X162500000Y-91150000D03*
X167500000Y-91150000D03*
%TD*%
D12*
%TO.C,R24*%
X144500000Y-117810000D03*
X144500000Y-107650000D03*
%TD*%
D21*
%TO.C,D2*%
X150500000Y-137910000D03*
D20*
X150500000Y-145530000D03*
%TD*%
D22*
%TO.C,RV2*%
X142080000Y-81150000D03*
X139540000Y-81150000D03*
X137000000Y-81150000D03*
%TD*%
D23*
%TO.C,RV3*%
X132500000Y-83650000D03*
X127500000Y-81150000D03*
X132500000Y-78650000D03*
%TD*%
D24*
%TO.C,J7*%
X164500000Y-126990000D03*
D11*
X161960000Y-126990000D03*
X164500000Y-129530000D03*
X161960000Y-129530000D03*
X164500000Y-132070000D03*
X161960000Y-132070000D03*
X164500000Y-134610000D03*
X161960000Y-134610000D03*
X164500000Y-137150000D03*
X161960000Y-137150000D03*
%TD*%
D23*
%TO.C,RV5*%
X144500000Y-92650000D03*
X139500000Y-90150000D03*
X144500000Y-87650000D03*
%TD*%
D22*
%TO.C,RV6*%
X141000000Y-102150000D03*
X141000000Y-99610000D03*
X141000000Y-97070000D03*
%TD*%
M02*
