%TF.GenerationSoftware,KiCad,Pcbnew,9.0.7*%
%TF.CreationDate,2026-02-02T08:25:31-05:00*%
%TF.ProjectId,mfos_vca,6d666f73-5f76-4636-912e-6b696361645f,rev?*%
%TF.SameCoordinates,Original*%
%TF.FileFunction,Copper,L1,Top*%
%TF.FilePolarity,Positive*%
%FSLAX46Y46*%
G04 Gerber Fmt 4.6, Leading zero omitted, Abs format (unit mm)*
G04 Created by KiCad (PCBNEW 9.0.7) date 2026-02-02 08:25:31*
%MOMM*%
%LPD*%
G01*
G04 APERTURE LIST*
G04 Aperture macros list*
%AMRoundRect*
0 Rectangle with rounded corners*
0 $1 Rounding radius*
0 $2 $3 $4 $5 $6 $7 $8 $9 X,Y pos of 4 corners*
0 Add a 4 corners polygon primitive as box body*
4,1,4,$2,$3,$4,$5,$6,$7,$8,$9,$2,$3,0*
0 Add four circle primitives for the rounded corners*
1,1,$1+$1,$2,$3*
1,1,$1+$1,$4,$5*
1,1,$1+$1,$6,$7*
1,1,$1+$1,$8,$9*
0 Add four rect primitives between the rounded corners*
20,1,$1+$1,$2,$3,$4,$5,0*
20,1,$1+$1,$4,$5,$6,$7,0*
20,1,$1+$1,$6,$7,$8,$9,0*
20,1,$1+$1,$8,$9,$2,$3,0*%
G04 Aperture macros list end*
%TA.AperFunction,ComponentPad*%
%ADD10R,1.700000X1.700000*%
%TD*%
%TA.AperFunction,ComponentPad*%
%ADD11C,1.700000*%
%TD*%
%TA.AperFunction,ComponentPad*%
%ADD12C,1.600000*%
%TD*%
%TA.AperFunction,ComponentPad*%
%ADD13RoundRect,0.250000X-0.550000X0.550000X-0.550000X-0.550000X0.550000X-0.550000X0.550000X0.550000X0*%
%TD*%
%TA.AperFunction,ComponentPad*%
%ADD14R,1.050000X1.500000*%
%TD*%
%TA.AperFunction,ComponentPad*%
%ADD15O,1.050000X1.500000*%
%TD*%
%TA.AperFunction,ComponentPad*%
%ADD16C,1.500000*%
%TD*%
%TA.AperFunction,ComponentPad*%
%ADD17RoundRect,0.250000X-0.550000X-0.550000X0.550000X-0.550000X0.550000X0.550000X-0.550000X0.550000X0*%
%TD*%
%TA.AperFunction,ComponentPad*%
%ADD18RoundRect,0.249999X0.850001X-0.850001X0.850001X0.850001X-0.850001X0.850001X-0.850001X-0.850001X0*%
%TD*%
%TA.AperFunction,ComponentPad*%
%ADD19C,2.200000*%
%TD*%
%TA.AperFunction,ComponentPad*%
%ADD20RoundRect,0.249999X-0.850001X0.850001X-0.850001X-0.850001X0.850001X-0.850001X0.850001X0.850001X0*%
%TD*%
%TA.AperFunction,ComponentPad*%
%ADD21C,1.440000*%
%TD*%
%TA.AperFunction,ComponentPad*%
%ADD22C,1.620000*%
%TD*%
%TA.AperFunction,ComponentPad*%
%ADD23RoundRect,0.250000X0.600000X0.600000X-0.600000X0.600000X-0.600000X-0.600000X0.600000X-0.600000X0*%
%TD*%
%TA.AperFunction,ViaPad*%
%ADD24C,0.600000*%
%TD*%
%TA.AperFunction,Conductor*%
%ADD25C,0.500000*%
%TD*%
%TA.AperFunction,Conductor*%
%ADD26C,0.250000*%
%TD*%
%TA.AperFunction,Conductor*%
%ADD27C,0.200000*%
%TD*%
G04 APERTURE END LIST*
D10*
%TO.P,J6,S*%
%TO.N,GND*%
X166500000Y-107570000D03*
D11*
%TO.P,J6,T*%
%TO.N,Net-(J6-PadT)*%
X166500000Y-112650000D03*
%TO.P,J6,TN*%
%TO.N,GND*%
X166500000Y-110110000D03*
%TD*%
D12*
%TO.P,R31,1*%
%TO.N,+12V*%
X131600000Y-131150000D03*
%TO.P,R31,2*%
%TO.N,Net-(U1A--)*%
X131600000Y-120990000D03*
%TD*%
%TO.P,R3,1*%
%TO.N,Net-(R3-Pad1)*%
X127995278Y-62087867D03*
%TO.P,R3,2*%
%TO.N,Net-(U1C--)*%
X127995278Y-51927867D03*
%TD*%
%TO.P,R35,1*%
%TO.N,Net-(R25-Pad2)*%
X148250000Y-134310000D03*
%TO.P,R35,2*%
%TO.N,GND*%
X148250000Y-124150000D03*
%TD*%
%TO.P,R8,1*%
%TO.N,Net-(Q1-B)*%
X145002759Y-62091959D03*
%TO.P,R8,2*%
%TO.N,Net-(U1D-+)*%
X145002759Y-51931959D03*
%TD*%
%TO.P,R4,1*%
%TO.N,Net-(U1C--)*%
X141088094Y-62081004D03*
%TO.P,R4,2*%
%TO.N,Net-(Q1-B)*%
X141088094Y-51921004D03*
%TD*%
%TO.P,R10,1*%
%TO.N,Net-(U1D--)*%
X153899217Y-62051353D03*
%TO.P,R10,2*%
%TO.N,GND*%
X153899217Y-51891353D03*
%TD*%
D13*
%TO.P,U2,1*%
%TO.N,Net-(SW1-B)*%
X165540000Y-78410000D03*
D12*
%TO.P,U2,2,DIODE_BIAS*%
%TO.N,unconnected-(U2C-DIODE_BIAS-Pad2)*%
X163000000Y-78410000D03*
%TO.P,U2,3,+*%
%TO.N,Net-(U2C-+)*%
X160460000Y-78410000D03*
%TO.P,U2,4,-*%
%TO.N,GND*%
X157920000Y-78410000D03*
%TO.P,U2,5*%
%TO.N,Net-(R15-Pad2)*%
X155380000Y-78410000D03*
%TO.P,U2,6,V-*%
%TO.N,-12V*%
X152840000Y-78410000D03*
%TO.P,U2,7*%
%TO.N,Net-(R15-Pad2)*%
X150300000Y-78410000D03*
%TO.P,U2,8*%
%TO.N,Net-(R18-Pad2)*%
X147760000Y-78410000D03*
%TO.P,U2,9*%
%TO.N,Net-(R37-Pad2)*%
X147760000Y-86030000D03*
%TO.P,U2,10*%
%TO.N,Net-(R25-Pad2)*%
X150300000Y-86030000D03*
%TO.P,U2,11,V+*%
%TO.N,+12V*%
X152840000Y-86030000D03*
%TO.P,U2,12*%
%TO.N,Net-(SW2-B)*%
X155380000Y-86030000D03*
%TO.P,U2,13,-*%
%TO.N,Net-(U2A--)*%
X157920000Y-86030000D03*
%TO.P,U2,14,+*%
%TO.N,GND*%
X160460000Y-86030000D03*
%TO.P,U2,15,DIODE_BIAS*%
%TO.N,unconnected-(U2A-DIODE_BIAS-Pad15)*%
X163000000Y-86030000D03*
%TO.P,U2,16*%
%TO.N,Net-(R25-Pad2)*%
X165540000Y-86030000D03*
%TD*%
D14*
%TO.P,Q1,1,E*%
%TO.N,Net-(Q1-E)*%
X156460000Y-91150000D03*
D15*
%TO.P,Q1,2,B*%
%TO.N,Net-(Q1-B)*%
X157730000Y-91150000D03*
%TO.P,Q1,3,C*%
%TO.N,+12V*%
X159000000Y-91150000D03*
%TD*%
D12*
%TO.P,R6,1*%
%TO.N,Net-(U1C-+)*%
X135976763Y-62025554D03*
%TO.P,R6,2*%
%TO.N,GND*%
X135976763Y-51865554D03*
%TD*%
D16*
%TO.P,C3,1*%
%TO.N,+12V*%
X123000000Y-135650000D03*
%TO.P,C3,2*%
%TO.N,GND*%
X128000000Y-135650000D03*
%TD*%
D12*
%TO.P,R14,1*%
%TO.N,Net-(R14-Pad1)*%
X149178312Y-75112355D03*
%TO.P,R14,2*%
%TO.N,GND*%
X149178312Y-64952355D03*
%TD*%
%TO.P,R28,1*%
%TO.N,Net-(R28-Pad1)*%
X148000000Y-106150000D03*
%TO.P,R28,2*%
%TO.N,GND*%
X158160000Y-106150000D03*
%TD*%
%TO.P,R40,1*%
%TO.N,Net-(D2-A)*%
X141500000Y-147270000D03*
%TO.P,R40,2*%
%TO.N,-12V*%
X141500000Y-137110000D03*
%TD*%
D14*
%TO.P,Q3,1,E*%
%TO.N,Net-(Q3-E)*%
X146000000Y-97650000D03*
D15*
%TO.P,Q3,2,B*%
%TO.N,Net-(Q3-B)*%
X147270000Y-97650000D03*
%TO.P,Q3,3,C*%
%TO.N,+12V*%
X148540000Y-97650000D03*
%TD*%
D12*
%TO.P,R18,1*%
%TO.N,-12V*%
X145063640Y-64976211D03*
%TO.P,R18,2*%
%TO.N,Net-(R18-Pad2)*%
X145063640Y-75136211D03*
%TD*%
%TO.P,R30,1*%
%TO.N,Net-(Q3-B)*%
X127550000Y-131150000D03*
%TO.P,R30,2*%
%TO.N,Net-(U1A-+)*%
X127550000Y-120990000D03*
%TD*%
%TO.P,R38,1*%
%TO.N,Net-(R37-Pad2)*%
X162000000Y-117810000D03*
%TO.P,R38,2*%
%TO.N,Net-(J6-PadT)*%
X162000000Y-107650000D03*
%TD*%
%TO.P,R36,1*%
%TO.N,Net-(SW2-C)*%
X152300000Y-134310000D03*
%TO.P,R36,2*%
%TO.N,Net-(R36-Pad2)*%
X152300000Y-124150000D03*
%TD*%
D10*
%TO.P,RV1,1,1*%
%TO.N,-12V*%
X123420000Y-53110000D03*
D11*
%TO.P,RV1,2,2*%
%TO.N,Net-(R3-Pad1)*%
X123420000Y-55650000D03*
%TO.P,RV1,3,3*%
%TO.N,+12V*%
X123420000Y-58190000D03*
%TD*%
D14*
%TO.P,Q2,1,E*%
%TO.N,GND*%
X159977570Y-97643377D03*
D15*
%TO.P,Q2,2,B*%
%TO.N,Net-(Q1-E)*%
X161247570Y-97643377D03*
%TO.P,Q2,3,C*%
%TO.N,Net-(Q2-C)*%
X162517570Y-97643377D03*
%TD*%
D10*
%TO.P,SW2,1,A*%
%TO.N,Net-(Q4-C)*%
X166500000Y-97070000D03*
D11*
%TO.P,SW2,2,B*%
%TO.N,Net-(SW2-B)*%
X166500000Y-99610000D03*
%TO.P,SW2,3,C*%
%TO.N,Net-(SW2-C)*%
X166500000Y-102150000D03*
%TD*%
D12*
%TO.P,R19,1*%
%TO.N,Net-(R18-Pad2)*%
X157993078Y-75145807D03*
%TO.P,R19,2*%
%TO.N,Net-(J3-PadT)*%
X157993078Y-64985807D03*
%TD*%
D10*
%TO.P,SW1,1,A*%
%TO.N,Net-(Q2-C)*%
X166500000Y-53570000D03*
D11*
%TO.P,SW1,2,B*%
%TO.N,Net-(SW1-B)*%
X166500000Y-56110000D03*
%TO.P,SW1,3,C*%
%TO.N,Net-(SW1-C)*%
X166500000Y-58650000D03*
%TD*%
D12*
%TO.P,R5,1*%
%TO.N,+12V*%
X132031522Y-62105570D03*
%TO.P,R5,2*%
%TO.N,Net-(U1C-+)*%
X132031522Y-51945570D03*
%TD*%
%TO.P,R20,1*%
%TO.N,Net-(J4-PadT)*%
X128500000Y-117650000D03*
%TO.P,R20,2*%
%TO.N,Net-(U1B-+)*%
X128500000Y-107490000D03*
%TD*%
D17*
%TO.P,C1,1*%
%TO.N,+12V*%
X133500000Y-145150000D03*
D12*
%TO.P,C1,2*%
%TO.N,GND*%
X136000000Y-145150000D03*
%TD*%
D10*
%TO.P,J1,S*%
%TO.N,GND*%
X123420000Y-74070000D03*
D11*
%TO.P,J1,T*%
%TO.N,Net-(J1-PadT)*%
X123420000Y-79150000D03*
%TO.P,J1,TN*%
%TO.N,GND*%
X123420000Y-76610000D03*
%TD*%
D12*
%TO.P,R11,1*%
%TO.N,Net-(SW1-C)*%
X158035251Y-62040293D03*
%TO.P,R11,2*%
%TO.N,Net-(R11-Pad2)*%
X158035251Y-51880293D03*
%TD*%
D18*
%TO.P,D1,1,K*%
%TO.N,Net-(D1-K)*%
X155686928Y-145910000D03*
D19*
%TO.P,D1,2,A*%
%TO.N,Net-(D1-A)*%
X155686928Y-138290000D03*
%TD*%
D12*
%TO.P,R27,1*%
%TO.N,Net-(U1B-+)*%
X156650000Y-119810000D03*
%TO.P,R27,2*%
%TO.N,Net-(Q3-B)*%
X156650000Y-109650000D03*
%TD*%
%TO.P,R13,1*%
%TO.N,Net-(J2-PadT)*%
X127949913Y-64990000D03*
%TO.P,R13,2*%
%TO.N,Net-(U2C-+)*%
X127949913Y-75150000D03*
%TD*%
%TO.P,R7,1*%
%TO.N,-12V*%
X162007392Y-64992937D03*
%TO.P,R7,2*%
%TO.N,Net-(Q1-E)*%
X162007392Y-75152937D03*
%TD*%
D10*
%TO.P,J4,S*%
%TO.N,GND*%
X123380000Y-101370000D03*
D11*
%TO.P,J4,T*%
%TO.N,Net-(J4-PadT)*%
X123380000Y-106450000D03*
%TO.P,J4,TN*%
%TO.N,GND*%
X123380000Y-103910000D03*
%TD*%
D16*
%TO.P,C5,1*%
%TO.N,+12V*%
X157500000Y-102150000D03*
%TO.P,C5,2*%
%TO.N,GND*%
X162500000Y-102150000D03*
%TD*%
D12*
%TO.P,R22,1*%
%TO.N,Net-(J5-PadT)*%
X136500000Y-117810000D03*
%TO.P,R22,2*%
%TO.N,Net-(U1B-+)*%
X136500000Y-107650000D03*
%TD*%
D17*
%TO.P,C2,1*%
%TO.N,GND*%
X133500000Y-137150000D03*
D12*
%TO.P,C2,2*%
%TO.N,-12V*%
X136000000Y-137150000D03*
%TD*%
D10*
%TO.P,RV4,1,1*%
%TO.N,-12V*%
X123500000Y-90570000D03*
D11*
%TO.P,RV4,2,2*%
%TO.N,Net-(R21-Pad1)*%
X123500000Y-93110000D03*
%TO.P,RV4,3,3*%
%TO.N,+12V*%
X123500000Y-95650000D03*
%TD*%
D12*
%TO.P,R26,1*%
%TO.N,Net-(U1B--)*%
X152600000Y-119810000D03*
%TO.P,R26,2*%
%TO.N,GND*%
X152600000Y-109650000D03*
%TD*%
D10*
%TO.P,J3,S*%
%TO.N,GND*%
X166500000Y-64150000D03*
D11*
%TO.P,J3,T*%
%TO.N,Net-(J3-PadT)*%
X166500000Y-69230000D03*
%TO.P,J3,TN*%
%TO.N,GND*%
X166500000Y-66690000D03*
%TD*%
D16*
%TO.P,C6,1*%
%TO.N,GND*%
X148500000Y-102150000D03*
%TO.P,C6,2*%
%TO.N,-12V*%
X153500000Y-102150000D03*
%TD*%
D12*
%TO.P,R23,1*%
%TO.N,+12V*%
X140450000Y-117810000D03*
%TO.P,R23,2*%
%TO.N,Net-(U1B--)*%
X140450000Y-107650000D03*
%TD*%
%TO.P,R34,1*%
%TO.N,-12V*%
X144200000Y-131340000D03*
%TO.P,R34,2*%
%TO.N,Net-(SW2-C)*%
X144200000Y-121180000D03*
%TD*%
%TO.P,R21,1*%
%TO.N,Net-(R21-Pad1)*%
X132500000Y-117650000D03*
%TO.P,R21,2*%
%TO.N,Net-(U1B-+)*%
X132500000Y-107490000D03*
%TD*%
%TO.P,R9,1*%
%TO.N,+12V*%
X149164538Y-62080172D03*
%TO.P,R9,2*%
%TO.N,Net-(U1D--)*%
X149164538Y-51920172D03*
%TD*%
%TO.P,R16,1*%
%TO.N,+12V*%
X136000000Y-75150000D03*
%TO.P,R16,2*%
%TO.N,Net-(R15-Pad2)*%
X136000000Y-64990000D03*
%TD*%
%TO.P,R37,1*%
%TO.N,-12V*%
X156350000Y-134310000D03*
%TO.P,R37,2*%
%TO.N,Net-(R37-Pad2)*%
X156350000Y-124150000D03*
%TD*%
%TO.P,R25,1*%
%TO.N,Net-(R25-Pad1)*%
X148550000Y-119810000D03*
%TO.P,R25,2*%
%TO.N,Net-(R25-Pad2)*%
X148550000Y-109650000D03*
%TD*%
%TO.P,R39,1*%
%TO.N,Net-(D1-K)*%
X146000000Y-147270000D03*
%TO.P,R39,2*%
%TO.N,+12V*%
X146000000Y-137110000D03*
%TD*%
%TO.P,R2,1*%
%TO.N,Net-(J1-PadT)*%
X141032600Y-75112355D03*
%TO.P,R2,2*%
%TO.N,Net-(U1C--)*%
X141032600Y-64952355D03*
%TD*%
D16*
%TO.P,C8,1*%
%TO.N,GND*%
X148000000Y-91150000D03*
%TO.P,C8,2*%
%TO.N,-12V*%
X153000000Y-91150000D03*
%TD*%
D12*
%TO.P,R17,1*%
%TO.N,Net-(R15-Pad2)*%
X153895132Y-75112355D03*
%TO.P,R17,2*%
%TO.N,GND*%
X153895132Y-64952355D03*
%TD*%
D10*
%TO.P,J5,S*%
%TO.N,GND*%
X123500000Y-111530000D03*
D11*
%TO.P,J5,T*%
%TO.N,Net-(J5-PadT)*%
X123500000Y-116610000D03*
%TO.P,J5,TN*%
%TO.N,GND*%
X123500000Y-114070000D03*
%TD*%
D16*
%TO.P,C4,1*%
%TO.N,GND*%
X123000000Y-141150000D03*
%TO.P,C4,2*%
%TO.N,-12V*%
X128000000Y-141150000D03*
%TD*%
D12*
%TO.P,R29,1*%
%TO.N,-12V*%
X123500000Y-131150000D03*
%TO.P,R29,2*%
%TO.N,Net-(Q3-E)*%
X123500000Y-120990000D03*
%TD*%
D10*
%TO.P,J2,S*%
%TO.N,GND*%
X123420000Y-63610000D03*
D11*
%TO.P,J2,T*%
%TO.N,Net-(J2-PadT)*%
X123420000Y-68690000D03*
%TO.P,J2,TN*%
%TO.N,GND*%
X123420000Y-66150000D03*
%TD*%
D14*
%TO.P,Q4,1,E*%
%TO.N,GND*%
X152500000Y-97650000D03*
D15*
%TO.P,Q4,2,B*%
%TO.N,Net-(Q3-E)*%
X153770000Y-97650000D03*
%TO.P,Q4,3,C*%
%TO.N,Net-(Q4-C)*%
X155040000Y-97650000D03*
%TD*%
D12*
%TO.P,R12,1*%
%TO.N,-12V*%
X161974210Y-62068545D03*
%TO.P,R12,2*%
%TO.N,Net-(SW1-C)*%
X161974210Y-51908545D03*
%TD*%
%TO.P,R33,1*%
%TO.N,Net-(U1A--)*%
X139700000Y-131150000D03*
%TO.P,R33,2*%
%TO.N,GND*%
X139700000Y-120990000D03*
%TD*%
%TO.P,R32,1*%
%TO.N,+12V*%
X135650000Y-131150000D03*
%TO.P,R32,2*%
%TO.N,Net-(R25-Pad2)*%
X135650000Y-120990000D03*
%TD*%
%TO.P,R15,1*%
%TO.N,Net-(R15-Pad1)*%
X132000000Y-75150000D03*
%TO.P,R15,2*%
%TO.N,Net-(R15-Pad2)*%
X132000000Y-64990000D03*
%TD*%
D17*
%TO.P,U1,1*%
%TO.N,Net-(R36-Pad2)*%
X128380000Y-88410000D03*
D12*
%TO.P,U1,2,-*%
%TO.N,Net-(U1A--)*%
X128380000Y-90950000D03*
%TO.P,U1,3,+*%
%TO.N,Net-(U1A-+)*%
X128380000Y-93490000D03*
%TO.P,U1,4,V+*%
%TO.N,+12V*%
X128380000Y-96030000D03*
%TO.P,U1,5,+*%
%TO.N,Net-(U1B-+)*%
X128380000Y-98570000D03*
%TO.P,U1,6,-*%
%TO.N,Net-(U1B--)*%
X128380000Y-101110000D03*
%TO.P,U1,7*%
%TO.N,Net-(Q3-B)*%
X128380000Y-103650000D03*
%TO.P,U1,8*%
%TO.N,Net-(Q1-B)*%
X136000000Y-103650000D03*
%TO.P,U1,9,-*%
%TO.N,Net-(U1C--)*%
X136000000Y-101110000D03*
%TO.P,U1,10,+*%
%TO.N,Net-(U1C-+)*%
X136000000Y-98570000D03*
%TO.P,U1,11,V-*%
%TO.N,-12V*%
X136000000Y-96030000D03*
%TO.P,U1,12,+*%
%TO.N,Net-(U1D-+)*%
X136000000Y-93490000D03*
%TO.P,U1,13,-*%
%TO.N,Net-(U1D--)*%
X136000000Y-90950000D03*
%TO.P,U1,14*%
%TO.N,Net-(R11-Pad2)*%
X136000000Y-88410000D03*
%TD*%
D16*
%TO.P,C7,1*%
%TO.N,+12V*%
X162500000Y-91150000D03*
%TO.P,C7,2*%
%TO.N,GND*%
X167500000Y-91150000D03*
%TD*%
D12*
%TO.P,R24,1*%
%TO.N,Net-(J5-PadT)*%
X144500000Y-117810000D03*
%TO.P,R24,2*%
%TO.N,Net-(U2A--)*%
X144500000Y-107650000D03*
%TD*%
D20*
%TO.P,D2,1,K*%
%TO.N,Net-(D2-K)*%
X150500000Y-137910000D03*
D19*
%TO.P,D2,2,A*%
%TO.N,Net-(D2-A)*%
X150500000Y-145530000D03*
%TD*%
D21*
%TO.P,RV2,1,1*%
%TO.N,Net-(U2C-+)*%
X142080000Y-81150000D03*
%TO.P,RV2,2,2*%
X139540000Y-81150000D03*
%TO.P,RV2,3,3*%
%TO.N,Net-(R14-Pad1)*%
X137000000Y-81150000D03*
%TD*%
D22*
%TO.P,RV3,1,1*%
%TO.N,+12V*%
X132500000Y-83650000D03*
%TO.P,RV3,2,2*%
%TO.N,Net-(R15-Pad1)*%
X127500000Y-81150000D03*
%TO.P,RV3,3,3*%
%TO.N,-12V*%
X132500000Y-78650000D03*
%TD*%
D23*
%TO.P,J7,1,Pin_1*%
%TO.N,Net-(D2-K)*%
X164500000Y-126990000D03*
D11*
%TO.P,J7,2,Pin_2*%
X161960000Y-126990000D03*
%TO.P,J7,3,Pin_3*%
%TO.N,GND*%
X164500000Y-129530000D03*
%TO.P,J7,4,Pin_4*%
X161960000Y-129530000D03*
%TO.P,J7,5,Pin_5*%
X164500000Y-132070000D03*
%TO.P,J7,6,Pin_6*%
X161960000Y-132070000D03*
%TO.P,J7,7,Pin_7*%
X164500000Y-134610000D03*
%TO.P,J7,8,Pin_8*%
X161960000Y-134610000D03*
%TO.P,J7,9,Pin_9*%
%TO.N,Net-(D1-A)*%
X164500000Y-137150000D03*
%TO.P,J7,10,Pin_10*%
X161960000Y-137150000D03*
%TD*%
D22*
%TO.P,RV5,1,1*%
%TO.N,+12V*%
X144500000Y-92650000D03*
%TO.P,RV5,2,2*%
%TO.N,Net-(R25-Pad1)*%
X139500000Y-90150000D03*
%TO.P,RV5,3,3*%
%TO.N,-12V*%
X144500000Y-87650000D03*
%TD*%
D21*
%TO.P,RV6,1,1*%
%TO.N,Net-(U2A--)*%
X141000000Y-102150000D03*
%TO.P,RV6,2,2*%
X141000000Y-99610000D03*
%TO.P,RV6,3,3*%
%TO.N,Net-(R28-Pad1)*%
X141000000Y-97070000D03*
%TD*%
D24*
%TO.N,+12V*%
X152040000Y-94150000D03*
%TO.N,GND*%
X126380000Y-57410000D03*
X128880000Y-54910000D03*
%TO.N,Net-(Q1-B)*%
X143880000Y-83410000D03*
X142880000Y-68910000D03*
X137349669Y-85410000D03*
%TO.N,Net-(Q2-C)*%
X162880000Y-95410000D03*
%TO.N,Net-(Q3-B)*%
X151380000Y-100410000D03*
X132380000Y-102410000D03*
X138880000Y-100910000D03*
X125880000Y-122410000D03*
%TO.N,Net-(Q3-E)*%
X138910331Y-95940331D03*
X133880000Y-98410000D03*
%TO.N,Net-(U1C--)*%
X125880000Y-85910000D03*
X125880000Y-74910000D03*
%TO.N,Net-(U1C-+)*%
X133375000Y-75910000D03*
%TO.N,Net-(U1D-+)*%
X147171989Y-68910000D03*
%TO.N,Net-(U1D--)*%
X133255000Y-89410000D03*
X141380000Y-70410000D03*
%TO.N,Net-(R11-Pad2)*%
X155880000Y-70410000D03*
%TO.N,Net-(R14-Pad1)*%
X139880000Y-77410000D03*
%TO.N,Net-(U1B-+)*%
X144380000Y-112410000D03*
%TO.N,Net-(R21-Pad1)*%
X121880000Y-97910000D03*
X125380000Y-98910000D03*
%TO.N,Net-(U1B--)*%
X146380000Y-114410000D03*
%TO.N,Net-(U2A--)*%
X149380000Y-93410000D03*
X153380000Y-88910000D03*
X143880000Y-96730000D03*
%TO.N,Net-(R25-Pad2)*%
X154880000Y-95910000D03*
%TO.N,Net-(U1A--)*%
X132380000Y-100410000D03*
%TO.N,Net-(R36-Pad2)*%
X145626000Y-116410000D03*
%TO.N,Net-(R37-Pad2)*%
X160380000Y-93910000D03*
%TO.N,Net-(SW2-B)*%
X156380000Y-82910000D03*
%TD*%
D25*
%TO.N,+12V*%
X133500000Y-144030000D02*
X133500000Y-145150000D01*
X133500000Y-145150000D02*
X135260000Y-146910000D01*
X131600000Y-131150000D02*
X135650000Y-131150000D01*
X152040000Y-94150000D02*
X148540000Y-97650000D01*
X137380000Y-146910000D02*
X146000000Y-138290000D01*
X135260000Y-146910000D02*
X137380000Y-146910000D01*
X125120000Y-135650000D02*
X133500000Y-144030000D01*
X123000000Y-135650000D02*
X125120000Y-135650000D01*
X146000000Y-138290000D02*
X146000000Y-137110000D01*
%TO.N,GND*%
X136000000Y-145150000D02*
X136000000Y-139650000D01*
X140499999Y-128529999D02*
X141880000Y-129910000D01*
X139700000Y-120990000D02*
X140499999Y-121789999D01*
X135240000Y-135410000D02*
X133500000Y-137150000D01*
X140499999Y-121789999D02*
X140499999Y-128529999D01*
X141880000Y-129910000D02*
X141880000Y-132410000D01*
X136000000Y-139650000D02*
X133500000Y-137150000D01*
X128000000Y-136150000D02*
X128000000Y-135650000D01*
X138880000Y-135410000D02*
X135240000Y-135410000D01*
X128880000Y-54910000D02*
X126380000Y-57410000D01*
X141880000Y-132410000D02*
X138880000Y-135410000D01*
%TO.N,-12V*%
X123500000Y-131150000D02*
X121024515Y-128674515D01*
X121024515Y-128674515D02*
X121024515Y-93045485D01*
X132500000Y-78663344D02*
X132500000Y-78650000D01*
X136960000Y-137110000D02*
X136920000Y-137150000D01*
X144500000Y-87650000D02*
X141486656Y-87650000D01*
X136920000Y-137150000D02*
X136000000Y-137150000D01*
X121024515Y-93045485D02*
X123500000Y-90570000D01*
X141500000Y-137110000D02*
X136960000Y-137110000D01*
X141486656Y-87650000D02*
X132500000Y-78663344D01*
%TO.N,Net-(D1-A)*%
X160820000Y-138290000D02*
X155686928Y-138290000D01*
X161960000Y-137150000D02*
X160820000Y-138290000D01*
X161960000Y-137150000D02*
X164500000Y-137150000D01*
%TO.N,Net-(D1-K)*%
X155068550Y-147910000D02*
X155686928Y-147291622D01*
X146640000Y-147910000D02*
X155068550Y-147910000D01*
X155686928Y-147291622D02*
X155686928Y-145910000D01*
X146000000Y-147270000D02*
X146640000Y-147910000D01*
%TO.N,Net-(D2-A)*%
X149740000Y-144770000D02*
X144000000Y-144770000D01*
X150500000Y-145530000D02*
X149740000Y-144770000D01*
X144000000Y-144770000D02*
X141500000Y-147270000D01*
%TO.N,Net-(D2-K)*%
X150500000Y-137910000D02*
X152000000Y-136410000D01*
X159500000Y-129450000D02*
X161960000Y-126990000D01*
X157740000Y-136410000D02*
X159500000Y-134650000D01*
X159500000Y-134650000D02*
X159500000Y-129450000D01*
X152000000Y-136410000D02*
X157740000Y-136410000D01*
X164500000Y-126990000D02*
X161960000Y-126990000D01*
D26*
%TO.N,Net-(Q1-B)*%
X152751595Y-90074000D02*
X153457000Y-90074000D01*
X142880000Y-64214718D02*
X145002759Y-62091959D01*
X148880000Y-85410000D02*
X148880000Y-85557595D01*
X143880000Y-83410000D02*
X146880000Y-83410000D01*
X141088094Y-51921004D02*
X141088094Y-58238094D01*
X137025298Y-103650000D02*
X136000000Y-103650000D01*
X137349669Y-85410000D02*
X137349669Y-89606216D01*
X155609000Y-92226000D02*
X157654000Y-92226000D01*
X153457000Y-90074000D02*
X155609000Y-92226000D01*
X157654000Y-92226000D02*
X157730000Y-92150000D01*
X142880000Y-68910000D02*
X142880000Y-64214718D01*
X146880000Y-83410000D02*
X148880000Y-85410000D01*
X148886000Y-85563595D02*
X148886000Y-86208405D01*
X144941959Y-62091959D02*
X145002759Y-62091959D01*
X157730000Y-92150000D02*
X157730000Y-91150000D01*
X139536331Y-101138967D02*
X137025298Y-103650000D01*
X148880000Y-85557595D02*
X148886000Y-85563595D01*
X148886000Y-86208405D02*
X152751595Y-90074000D01*
X141088094Y-58238094D02*
X144941959Y-62091959D01*
X137349669Y-89606216D02*
X139536331Y-91792878D01*
X139536331Y-91792878D02*
X139536331Y-101138967D01*
%TO.N,Net-(Q1-E)*%
X159046000Y-88339000D02*
X159046000Y-81416405D01*
X156460000Y-90925000D02*
X159046000Y-88339000D01*
X161586000Y-78876405D02*
X161586000Y-75574329D01*
X156460000Y-91150000D02*
X156460000Y-90925000D01*
X159046000Y-81416405D02*
X161586000Y-78876405D01*
X161586000Y-75574329D02*
X162007392Y-75152937D01*
%TO.N,Net-(Q2-C)*%
X162880000Y-95410000D02*
X162880000Y-93910000D01*
X162880000Y-93910000D02*
X168831000Y-87959000D01*
X168831000Y-87959000D02*
X168831000Y-55901000D01*
X168831000Y-55901000D02*
X166500000Y-53570000D01*
%TO.N,Net-(Q3-B)*%
X125880000Y-123910000D02*
X127550000Y-125580000D01*
X137130000Y-102410000D02*
X132380000Y-102410000D01*
X151380000Y-101910000D02*
X156650000Y-107180000D01*
X147270000Y-97808496D02*
X147270000Y-97650000D01*
X156650000Y-107180000D02*
X156650000Y-109650000D01*
X138630000Y-100910000D02*
X137130000Y-102410000D01*
X151380000Y-100410000D02*
X151380000Y-101910000D01*
X127550000Y-125580000D02*
X127550000Y-131150000D01*
X125880000Y-122410000D02*
X125880000Y-123910000D01*
X138880000Y-100910000D02*
X138630000Y-100910000D01*
%TO.N,Net-(Q3-E)*%
X153770000Y-98650000D02*
X153010000Y-99410000D01*
X137880000Y-94910000D02*
X138910331Y-95940331D01*
X133880000Y-95910000D02*
X134880000Y-94910000D01*
X135527595Y-94910000D02*
X135533595Y-94904000D01*
X133880000Y-98410000D02*
X133880000Y-95910000D01*
X153770000Y-97650000D02*
X153770000Y-98650000D01*
X136466405Y-94904000D02*
X136472405Y-94910000D01*
X136472405Y-94910000D02*
X137880000Y-94910000D01*
X135533595Y-94904000D02*
X136466405Y-94904000D01*
X146880000Y-99410000D02*
X146000000Y-98530000D01*
X146000000Y-98530000D02*
X146000000Y-97650000D01*
X134880000Y-94910000D02*
X135527595Y-94910000D01*
X153010000Y-99410000D02*
X146880000Y-99410000D01*
%TO.N,Net-(Q4-C)*%
X165840000Y-96410000D02*
X166500000Y-97070000D01*
X155040000Y-97650000D02*
X156280000Y-96410000D01*
X156280000Y-96410000D02*
X165840000Y-96410000D01*
%TO.N,Net-(U1C--)*%
X141088094Y-60738094D02*
X141088094Y-62081004D01*
X129880000Y-67910000D02*
X125880000Y-71910000D01*
X138500000Y-58150000D02*
X141088094Y-60738094D01*
X129880000Y-53812589D02*
X129880000Y-67910000D01*
X130170730Y-49650000D02*
X136500000Y-49650000D01*
X127995278Y-51825452D02*
X130170730Y-49650000D01*
X134868630Y-101110000D02*
X136000000Y-101110000D01*
X127801514Y-85910000D02*
X131380000Y-89488486D01*
X138500000Y-51650000D02*
X138500000Y-58150000D01*
X127995278Y-51927867D02*
X127995278Y-51825452D01*
X141032600Y-64952355D02*
X141032600Y-62136498D01*
X127995278Y-51927867D02*
X129880000Y-53812589D01*
X125880000Y-85910000D02*
X127801514Y-85910000D01*
X131380000Y-97621370D02*
X134868630Y-101110000D01*
X131380000Y-89488486D02*
X131380000Y-97621370D01*
X136500000Y-49650000D02*
X138500000Y-51650000D01*
X125880000Y-71910000D02*
X125880000Y-74910000D01*
X141032600Y-62136498D02*
X141088094Y-62081004D01*
%TO.N,Net-(J1-PadT)*%
X141032600Y-75045450D02*
X141032600Y-75112355D01*
X128380000Y-72410000D02*
X138397150Y-72410000D01*
X138397150Y-72410000D02*
X141032600Y-75045450D01*
X126635540Y-75934460D02*
X126635540Y-74154460D01*
X123420000Y-79150000D02*
X126635540Y-75934460D01*
X126635540Y-74154460D02*
X128380000Y-72410000D01*
%TO.N,Net-(J2-PadT)*%
X127949913Y-64990000D02*
X124249913Y-68690000D01*
X124249913Y-68690000D02*
X123420000Y-68690000D01*
%TO.N,Net-(R3-Pad1)*%
X128000000Y-62083145D02*
X127995278Y-62087867D01*
X128000000Y-60230000D02*
X128000000Y-62083145D01*
X123420000Y-55650000D02*
X128000000Y-60230000D01*
%TO.N,Net-(U1C-+)*%
X133375000Y-75915000D02*
X133375000Y-75910000D01*
X132050984Y-51965032D02*
X132050984Y-58099775D01*
X132029453Y-86059453D02*
X130380000Y-84410000D01*
X132029453Y-97444751D02*
X132029453Y-86059453D01*
X135534000Y-99036000D02*
X133620702Y-99036000D01*
X132050984Y-58099775D02*
X135976763Y-62025554D01*
X136000000Y-98570000D02*
X135534000Y-99036000D01*
X132031522Y-51945570D02*
X132050984Y-51965032D01*
X133620702Y-99036000D02*
X132029453Y-97444751D01*
X130380000Y-78910000D02*
X133375000Y-75915000D01*
X130380000Y-84410000D02*
X130380000Y-78910000D01*
%TO.N,Net-(U1D-+)*%
X147171989Y-68910000D02*
X147171989Y-54101189D01*
X147171989Y-54101189D02*
X145002759Y-51931959D01*
%TO.N,Net-(U1D--)*%
X134795000Y-90950000D02*
X136000000Y-90950000D01*
X153879488Y-62051353D02*
X153899217Y-62051353D01*
X149164538Y-52011482D02*
X149000000Y-52176020D01*
X153899217Y-62051353D02*
X153899217Y-63182723D01*
X146671940Y-70410000D02*
X141380000Y-70410000D01*
X149164538Y-51920172D02*
X149164538Y-52011482D01*
X149000000Y-57171865D02*
X153879488Y-62051353D01*
X133255000Y-89410000D02*
X134795000Y-90950000D01*
X153899217Y-63182723D02*
X146671940Y-70410000D01*
X149000000Y-52176020D02*
X149000000Y-57171865D01*
%TO.N,Net-(R11-Pad2)*%
X158035251Y-51880293D02*
X155880000Y-54035544D01*
X155880000Y-54035544D02*
X155880000Y-70410000D01*
%TO.N,Net-(SW1-C)*%
X162000000Y-54150000D02*
X166500000Y-58650000D01*
X158035251Y-62040293D02*
X158000000Y-62005042D01*
X158000000Y-62005042D02*
X158000000Y-55990000D01*
X161974210Y-51908545D02*
X162000000Y-51934335D01*
X158000000Y-55990000D02*
X161974210Y-52015790D01*
X162000000Y-51934335D02*
X162000000Y-54150000D01*
X161974210Y-52015790D02*
X161974210Y-51908545D01*
%TO.N,Net-(J3-PadT)*%
X166500000Y-69230000D02*
X162400000Y-69230000D01*
X162400000Y-69230000D02*
X158155807Y-64985807D01*
X158155807Y-64985807D02*
X157993078Y-64985807D01*
%TO.N,Net-(U2C-+)*%
X132667595Y-73410000D02*
X134000000Y-74742405D01*
X127949913Y-75150000D02*
X129689913Y-73410000D01*
X134000000Y-74742405D02*
X134000000Y-75610000D01*
X129689913Y-73410000D02*
X132667595Y-73410000D01*
X142080000Y-81150000D02*
X139540000Y-81150000D01*
X134000000Y-75610000D02*
X139540000Y-81150000D01*
X157720000Y-81150000D02*
X142080000Y-81150000D01*
X160460000Y-78410000D02*
X157720000Y-81150000D01*
%TO.N,Net-(R14-Pad1)*%
X141097677Y-77410000D02*
X139880000Y-77410000D01*
X149178312Y-75094339D02*
X148018690Y-73934717D01*
X144572960Y-73934717D02*
X141097677Y-77410000D01*
X148018690Y-73934717D02*
X144572960Y-73934717D01*
X149178312Y-75112355D02*
X149178312Y-75094339D01*
%TO.N,Net-(R15-Pad1)*%
X132000000Y-75150000D02*
X132000000Y-75290000D01*
X127500000Y-79790000D02*
X127500000Y-81150000D01*
X132000000Y-75290000D02*
X127500000Y-79790000D01*
%TO.N,Net-(R15-Pad2)*%
X153880000Y-75127487D02*
X153880000Y-76910000D01*
X136000000Y-66530000D02*
X141380000Y-71910000D01*
X153772989Y-74990212D02*
X153895132Y-75112355D01*
X153719788Y-74990212D02*
X153772989Y-74990212D01*
X132000000Y-64990000D02*
X136000000Y-64990000D01*
X136000000Y-64990000D02*
X136000000Y-66530000D01*
X150692777Y-71910000D02*
X153895132Y-75112355D01*
X153880000Y-76910000D02*
X155380000Y-78410000D01*
X141380000Y-71910000D02*
X150692777Y-71910000D01*
X150300000Y-78410000D02*
X153719788Y-74990212D01*
X153895132Y-75112355D02*
X153880000Y-75127487D01*
%TO.N,Net-(R18-Pad2)*%
X147760000Y-78410000D02*
X148886000Y-79536000D01*
X145039365Y-75160486D02*
X145063640Y-75136211D01*
X145039365Y-75689365D02*
X145039365Y-75160486D01*
X148886000Y-79536000D02*
X156134405Y-79536000D01*
X147760000Y-78410000D02*
X145039365Y-75689365D01*
X157844193Y-75145807D02*
X157993078Y-75145807D01*
X156794000Y-76196000D02*
X157844193Y-75145807D01*
X156794000Y-78876405D02*
X156794000Y-76196000D01*
X156134405Y-79536000D02*
X156794000Y-78876405D01*
%TO.N,Net-(J4-PadT)*%
X128500000Y-111570000D02*
X128500000Y-117650000D01*
X123380000Y-106450000D02*
X128500000Y-111570000D01*
%TO.N,Net-(J6-PadT)*%
X162000000Y-107650000D02*
X166500000Y-112150000D01*
X166500000Y-112150000D02*
X166500000Y-112650000D01*
%TO.N,Net-(U1B-+)*%
X132500000Y-107490000D02*
X132800000Y-107490000D01*
X132800000Y-107490000D02*
X132960000Y-107650000D01*
X143380000Y-112410000D02*
X138620000Y-107650000D01*
X127960000Y-107490000D02*
X128500000Y-107490000D01*
X125880000Y-105410000D02*
X127960000Y-107490000D01*
X128500000Y-107490000D02*
X132500000Y-107490000D01*
X125880000Y-101070000D02*
X125880000Y-105410000D01*
X144380000Y-112410000D02*
X143380000Y-112410000D01*
X138620000Y-107650000D02*
X136500000Y-107650000D01*
X132960000Y-107650000D02*
X136500000Y-107650000D01*
X128380000Y-98570000D02*
X125880000Y-101070000D01*
%TO.N,Net-(R21-Pad1)*%
X132500000Y-117650000D02*
X132500000Y-113082405D01*
X125380000Y-105962405D02*
X125380000Y-98910000D01*
X121880000Y-94730000D02*
X123500000Y-93110000D01*
X121880000Y-97910000D02*
X121880000Y-94730000D01*
X132500000Y-113082405D02*
X125380000Y-105962405D01*
%TO.N,Net-(J5-PadT)*%
X137900000Y-116410000D02*
X143100000Y-116410000D01*
X143100000Y-116410000D02*
X144500000Y-117810000D01*
X126300000Y-119410000D02*
X134900000Y-119410000D01*
X136500000Y-117810000D02*
X137900000Y-116410000D01*
X134900000Y-119410000D02*
X136500000Y-117810000D01*
X123500000Y-116610000D02*
X126300000Y-119410000D01*
%TO.N,Net-(U1B--)*%
X133794000Y-106524000D02*
X128380000Y-101110000D01*
X146380000Y-114410000D02*
X146380000Y-112910000D01*
X146380000Y-112910000D02*
X141120000Y-107650000D01*
X139324000Y-106524000D02*
X133794000Y-106524000D01*
X140450000Y-107650000D02*
X139324000Y-106524000D01*
X141120000Y-107650000D02*
X140450000Y-107650000D01*
%TO.N,Net-(U2A--)*%
X144500000Y-105650000D02*
X141000000Y-102150000D01*
X144880000Y-94910000D02*
X143880000Y-95910000D01*
X144500000Y-107650000D02*
X144500000Y-105650000D01*
X147880000Y-94910000D02*
X144880000Y-94910000D01*
X149380000Y-93410000D02*
X147880000Y-94910000D01*
X143880000Y-95910000D02*
X143880000Y-96730000D01*
X155040000Y-88910000D02*
X157920000Y-86030000D01*
X141000000Y-102150000D02*
X141000000Y-99610000D01*
X153380000Y-88910000D02*
X155040000Y-88910000D01*
%TO.N,Net-(R25-Pad1)*%
X148550000Y-119810000D02*
X149676000Y-118684000D01*
X149676000Y-118684000D02*
X149676000Y-104847694D01*
X142046000Y-97217694D02*
X142046000Y-92696000D01*
X149676000Y-104847694D02*
X142046000Y-97217694D01*
X142046000Y-92696000D02*
X139500000Y-90150000D01*
%TO.N,Net-(R25-Pad2)*%
X165540000Y-89750000D02*
X165540000Y-86030000D01*
X154880000Y-95910000D02*
X159380000Y-95910000D01*
X147880000Y-132410000D02*
X141380000Y-125910000D01*
X159380000Y-95910000D02*
X165540000Y-89750000D01*
X147880000Y-133940000D02*
X147880000Y-132410000D01*
X148550000Y-109650000D02*
X148550000Y-115352405D01*
D27*
X143631057Y-82809000D02*
X143279000Y-83161057D01*
X150300000Y-86030000D02*
X147079000Y-82809000D01*
X143279000Y-83161057D02*
X143279000Y-84309000D01*
X143279000Y-84309000D02*
X154880000Y-95910000D01*
D26*
X141380000Y-119864000D02*
X136776000Y-119864000D01*
X141380000Y-125910000D02*
X141380000Y-119864000D01*
D27*
X147079000Y-82809000D02*
X143631057Y-82809000D01*
D26*
X144038405Y-119864000D02*
X141380000Y-119864000D01*
X148550000Y-115352405D02*
X144038405Y-119864000D01*
X148250000Y-134310000D02*
X147880000Y-133940000D01*
X136776000Y-119864000D02*
X135650000Y-120990000D01*
%TO.N,Net-(R28-Pad1)*%
X148000000Y-106150000D02*
X148000000Y-104070000D01*
X148000000Y-104070000D02*
X141000000Y-97070000D01*
%TO.N,Net-(U1A-+)*%
X122204000Y-116977116D02*
X122204000Y-99666000D01*
X127550000Y-120990000D02*
X126216884Y-120990000D01*
X122204000Y-99666000D02*
X128380000Y-93490000D01*
X126216884Y-120990000D02*
X122204000Y-116977116D01*
%TO.N,Net-(U1A--)*%
X130380000Y-98410000D02*
X130380000Y-92950000D01*
X130380000Y-92950000D02*
X128380000Y-90950000D01*
X139700000Y-131150000D02*
X139700000Y-129090000D01*
X132380000Y-100410000D02*
X130380000Y-98410000D01*
X139700000Y-129090000D02*
X131600000Y-120990000D01*
%TO.N,Net-(SW2-C)*%
X150982405Y-116910000D02*
X150982405Y-118970000D01*
X150982405Y-118970000D02*
X148772405Y-121180000D01*
X144200000Y-121180000D02*
X144200000Y-126210000D01*
X165742405Y-102150000D02*
X150982405Y-116910000D01*
X148772405Y-121180000D02*
X144200000Y-121180000D01*
X166500000Y-102150000D02*
X165742405Y-102150000D01*
X144200000Y-126210000D02*
X152300000Y-134310000D01*
%TO.N,Net-(R36-Pad2)*%
X127546000Y-92076000D02*
X126880000Y-91410000D01*
X147006000Y-115030000D02*
X147006000Y-112613595D01*
X133980810Y-106073000D02*
X129748492Y-101840682D01*
X129748492Y-93266087D02*
X128558405Y-92076000D01*
X147006000Y-112613595D02*
X140465405Y-106073000D01*
X128558405Y-92076000D02*
X127546000Y-92076000D01*
X129748492Y-101840682D02*
X129748492Y-93266087D01*
X126880000Y-89910000D02*
X128380000Y-88410000D01*
X145626000Y-116410000D02*
X147006000Y-115030000D01*
X126880000Y-91410000D02*
X126880000Y-89910000D01*
X140465405Y-106073000D02*
X133980810Y-106073000D01*
%TO.N,Net-(R37-Pad2)*%
X160380000Y-93910000D02*
X153880000Y-93910000D01*
X153880000Y-93910000D02*
X147760000Y-87790000D01*
X156350000Y-124150000D02*
X162000000Y-118500000D01*
X147760000Y-87790000D02*
X147760000Y-86030000D01*
X162000000Y-118500000D02*
X162000000Y-117810000D01*
%TO.N,Net-(SW1-B)*%
X165540000Y-78410000D02*
X168380000Y-75570000D01*
X168380000Y-57990000D02*
X166500000Y-56110000D01*
X168380000Y-75570000D02*
X168380000Y-57990000D01*
%TO.N,Net-(SW2-B)*%
X155380000Y-83910000D02*
X156380000Y-82910000D01*
X155380000Y-86030000D02*
X155380000Y-83910000D01*
%TD*%
M02*
