%TF.GenerationSoftware,KiCad,Pcbnew,9.0.5*%
%TF.CreationDate,2025-12-23T14:43:43-05:00*%
%TF.ProjectId,mk_vco_JUST_PCB,6d6b5f76-636f-45f4-9a55-53545f504342,rev?*%
%TF.SameCoordinates,Original*%
%TF.FileFunction,Legend,Bot*%
%TF.FilePolarity,Positive*%
%FSLAX46Y46*%
G04 Gerber Fmt 4.6, Leading zero omitted, Abs format (unit mm)*
G04 Created by KiCad (PCBNEW 9.0.5) date 2025-12-23 14:43:43*
%MOMM*%
%LPD*%
G01*
G04 APERTURE LIST*
%ADD10C,0.400000*%
%ADD11C,0.150000*%
%ADD12C,0.120000*%
G04 APERTURE END LIST*
D10*
G36*
X126433952Y-112072339D02*
G01*
X126296819Y-112117512D01*
X126191175Y-112179269D01*
X126111222Y-112256788D01*
X126053466Y-112351549D01*
X126017094Y-112467158D01*
X126004085Y-112608940D01*
X126017094Y-112750722D01*
X126053466Y-112866332D01*
X126111222Y-112961093D01*
X126191175Y-113038611D01*
X126296819Y-113100369D01*
X126433952Y-113145542D01*
X126433952Y-113236400D01*
X126291567Y-113210319D01*
X126171498Y-113167909D01*
X126070290Y-113110421D01*
X125985278Y-113037953D01*
X125915760Y-112950136D01*
X125865878Y-112850949D01*
X125835067Y-112738202D01*
X125824322Y-112608940D01*
X125835058Y-112479688D01*
X125865857Y-112366828D01*
X125915740Y-112267429D01*
X125985278Y-112179317D01*
X126070337Y-112106505D01*
X126171563Y-112048793D01*
X126291617Y-112006255D01*
X126433952Y-111980137D01*
X126433952Y-112072339D01*
G37*
G36*
X126896280Y-112785720D02*
G01*
X126952968Y-112823508D01*
X126991590Y-112879338D01*
X127004504Y-112946484D01*
X126991662Y-113012390D01*
X126952968Y-113068117D01*
X126896289Y-113105809D01*
X126828649Y-113118431D01*
X126760988Y-113105813D01*
X126704207Y-113068117D01*
X126665609Y-113012400D01*
X126652794Y-112946484D01*
X126665595Y-112880357D01*
X126704207Y-112824118D01*
X126761044Y-112785850D01*
X126828649Y-112773071D01*
X126896280Y-112785720D01*
G37*
G36*
X126896289Y-112112194D02*
G01*
X126952968Y-112149886D01*
X126991653Y-112205528D01*
X127004504Y-112271519D01*
X126991682Y-112337531D01*
X126952968Y-112393762D01*
X126896232Y-112432027D01*
X126828649Y-112444809D01*
X126761044Y-112432031D01*
X126704207Y-112393762D01*
X126665589Y-112337540D01*
X126652794Y-112271519D01*
X126665619Y-112205519D01*
X126704207Y-112149886D01*
X126760988Y-112112190D01*
X126828649Y-112099572D01*
X126896289Y-112112194D01*
G37*
G36*
X126666310Y-111556228D02*
G01*
X126826512Y-111593684D01*
X126975530Y-111655324D01*
X127115259Y-111741920D01*
X127247037Y-111855451D01*
X127360733Y-111987114D01*
X127447433Y-112126690D01*
X127509132Y-112275514D01*
X127546617Y-112435479D01*
X127559423Y-112608940D01*
X127546616Y-112782455D01*
X127509128Y-112942459D01*
X127447426Y-113091306D01*
X127360728Y-113230892D01*
X127247037Y-113362552D01*
X127115266Y-113476034D01*
X126975539Y-113562596D01*
X126826520Y-113624214D01*
X126666315Y-113661657D01*
X126492571Y-113674450D01*
X126318826Y-113661657D01*
X126158621Y-113624214D01*
X126009602Y-113562596D01*
X125869875Y-113476034D01*
X125738104Y-113362552D01*
X125624414Y-113230892D01*
X125537715Y-113091306D01*
X125476013Y-112942459D01*
X125438525Y-112782455D01*
X125425718Y-112608940D01*
X125566402Y-112608940D01*
X125577506Y-112759169D01*
X125610008Y-112897685D01*
X125663503Y-113026533D01*
X125738678Y-113147357D01*
X125837267Y-113261313D01*
X125951545Y-113359529D01*
X126072748Y-113434465D01*
X126202036Y-113487818D01*
X126341054Y-113520244D01*
X126491838Y-113531323D01*
X126642662Y-113520248D01*
X126781779Y-113487830D01*
X126911220Y-113434480D01*
X127032622Y-113359541D01*
X127147141Y-113261313D01*
X127246026Y-113147319D01*
X127321404Y-113026477D01*
X127375033Y-112897631D01*
X127407611Y-112759135D01*
X127418740Y-112608940D01*
X127407611Y-112458745D01*
X127375033Y-112320249D01*
X127321404Y-112191403D01*
X127246026Y-112070562D01*
X127147141Y-111956568D01*
X127032622Y-111858340D01*
X126911220Y-111783400D01*
X126781779Y-111730051D01*
X126642662Y-111697632D01*
X126491838Y-111686557D01*
X126341054Y-111697637D01*
X126202036Y-111730063D01*
X126072748Y-111783415D01*
X125951545Y-111858351D01*
X125837267Y-111956568D01*
X125738678Y-112070524D01*
X125663503Y-112191348D01*
X125610008Y-112320196D01*
X125577506Y-112458712D01*
X125566402Y-112608940D01*
X125425718Y-112608940D01*
X125438524Y-112435479D01*
X125476009Y-112275514D01*
X125537708Y-112126690D01*
X125624408Y-111987114D01*
X125738104Y-111855451D01*
X125869882Y-111741920D01*
X126009611Y-111655324D01*
X126158630Y-111593684D01*
X126318832Y-111556228D01*
X126492571Y-111543431D01*
X126666310Y-111556228D01*
G37*
G36*
X126716433Y-109032961D02*
G01*
X126827329Y-109057549D01*
X126934162Y-109098560D01*
X126934162Y-109392384D01*
X127028368Y-109603339D01*
X127113924Y-109854736D01*
X127075823Y-110232702D01*
X127018181Y-110288511D01*
X127004504Y-110845629D01*
X126994101Y-111024519D01*
X126970554Y-111117227D01*
X126941778Y-111161044D01*
X126903157Y-111186357D01*
X126851485Y-111195263D01*
X126807769Y-111186648D01*
X126771840Y-111160873D01*
X126741698Y-111113808D01*
X126715685Y-111022026D01*
X126705062Y-110872984D01*
X126700905Y-110492820D01*
X126777846Y-110492820D01*
X126777846Y-110793727D01*
X126783253Y-110948005D01*
X126796164Y-111039436D01*
X126821867Y-111105378D01*
X126847578Y-111120402D01*
X126874830Y-111110799D01*
X126898578Y-111077086D01*
X126917884Y-111001806D01*
X126926346Y-110857963D01*
X126939047Y-110369111D01*
X126813628Y-110521763D01*
X126777846Y-110492820D01*
X126700905Y-110492820D01*
X126699689Y-110381568D01*
X126690407Y-110342367D01*
X126671853Y-110366449D01*
X126645833Y-110386575D01*
X126614741Y-110399608D01*
X126577445Y-110404160D01*
X126528451Y-110396034D01*
X126489395Y-110372531D01*
X126460071Y-110335600D01*
X126439326Y-110282527D01*
X126373746Y-110296205D01*
X126311051Y-110285836D01*
X126265791Y-110256882D01*
X126234572Y-110211081D01*
X126215721Y-110143797D01*
X126196793Y-110145995D01*
X126131177Y-110133647D01*
X126085539Y-110098889D01*
X126055178Y-110037571D01*
X126044302Y-109946571D01*
X126121322Y-109946571D01*
X126133613Y-110019637D01*
X126164327Y-110056948D01*
X126215111Y-110069792D01*
X126215111Y-109965134D01*
X126293268Y-109965134D01*
X126293268Y-110087377D01*
X126299172Y-110148298D01*
X126313785Y-110185318D01*
X126338963Y-110209245D01*
X126373746Y-110217314D01*
X126396969Y-110213154D01*
X126426014Y-110198752D01*
X126419226Y-110023752D01*
X126496479Y-110023752D01*
X126504294Y-110167855D01*
X126510148Y-110242148D01*
X126524444Y-110287168D01*
X126549716Y-110317154D01*
X126582818Y-110326613D01*
X126606013Y-110320191D01*
X126623363Y-110300113D01*
X126633133Y-110269653D01*
X126637162Y-110218536D01*
X126637162Y-110041215D01*
X126666594Y-109979055D01*
X126676241Y-109919338D01*
X126667093Y-109855915D01*
X126641363Y-109807142D01*
X126598450Y-109769373D01*
X126496479Y-110023752D01*
X126419226Y-110023752D01*
X126418321Y-110000427D01*
X126493303Y-109858522D01*
X126474296Y-109790524D01*
X126442903Y-109740658D01*
X126399148Y-109705015D01*
X126293268Y-109965134D01*
X126215111Y-109965134D01*
X126215111Y-109940465D01*
X126291681Y-109758382D01*
X126256286Y-109707061D01*
X126225003Y-109675462D01*
X126122665Y-109894181D01*
X126121322Y-109946571D01*
X126044302Y-109946571D01*
X126043164Y-109937046D01*
X126046583Y-109888197D01*
X126072229Y-109838372D01*
X126050118Y-109753862D01*
X126043164Y-109677538D01*
X126047397Y-109607440D01*
X126121322Y-109607440D01*
X126121322Y-109654335D01*
X126122298Y-109725898D01*
X126188488Y-109568605D01*
X126264807Y-109613613D01*
X126328928Y-109676927D01*
X126366175Y-109594129D01*
X126452467Y-109652511D01*
X126503687Y-109705273D01*
X126529451Y-109753864D01*
X126567553Y-109663982D01*
X126654636Y-109720228D01*
X126711227Y-109780711D01*
X126743571Y-109846236D01*
X126754399Y-109919338D01*
X126744873Y-109989924D01*
X126715320Y-110062342D01*
X126711412Y-110184342D01*
X126738445Y-110114674D01*
X126785906Y-110034865D01*
X126756555Y-109922918D01*
X126746583Y-109802346D01*
X126737668Y-109766808D01*
X126820589Y-109763511D01*
X126801294Y-109792088D01*
X126809805Y-109877703D01*
X126835751Y-109963121D01*
X126880673Y-110049764D01*
X126811236Y-110133158D01*
X126773896Y-110209864D01*
X126762215Y-110282771D01*
X126775136Y-110352824D01*
X126814116Y-110413563D01*
X126995345Y-110203270D01*
X127028562Y-109859621D01*
X126979698Y-109715433D01*
X126856004Y-109395437D01*
X126856004Y-109148752D01*
X126731629Y-109113663D01*
X126606388Y-109102101D01*
X126486789Y-109112232D01*
X126363610Y-109143379D01*
X126363610Y-109326805D01*
X126267273Y-109414355D01*
X126186917Y-109507766D01*
X126121322Y-109607440D01*
X126047397Y-109607440D01*
X126048171Y-109594617D01*
X126101133Y-109499500D01*
X126178682Y-109397652D01*
X126285453Y-109287848D01*
X126285453Y-109091599D01*
X126392766Y-109053905D01*
X126497395Y-109031899D01*
X126600282Y-109024676D01*
X126716433Y-109032961D01*
G37*
G36*
X127518024Y-107881864D02*
G01*
X127240870Y-107804217D01*
X127057993Y-107729457D01*
X126893945Y-107629971D01*
X126700543Y-107475810D01*
X126645833Y-107426718D01*
X126512550Y-107323388D01*
X126386091Y-107254724D01*
X126264480Y-107215653D01*
X126145379Y-107202991D01*
X126011226Y-107215650D01*
X125889029Y-107252763D01*
X125776138Y-107314514D01*
X125670693Y-107403026D01*
X125583198Y-107509158D01*
X125522019Y-107622967D01*
X125485187Y-107746325D01*
X125472613Y-107881864D01*
X125485163Y-108016692D01*
X125521953Y-108139627D01*
X125583126Y-108253273D01*
X125670693Y-108359481D01*
X125776131Y-108447934D01*
X125889019Y-108509648D01*
X126011220Y-108546741D01*
X126145379Y-108559394D01*
X126264480Y-108546732D01*
X126386091Y-108507661D01*
X126512550Y-108438998D01*
X126645833Y-108335667D01*
X126700543Y-108286452D01*
X126893938Y-108132392D01*
X127057993Y-108032928D01*
X127240881Y-107958459D01*
X127518024Y-107881864D01*
G37*
G36*
X127518024Y-106060790D02*
G01*
X127240870Y-105983142D01*
X127057993Y-105908382D01*
X126893945Y-105808896D01*
X126700543Y-105654736D01*
X126645833Y-105605643D01*
X126512550Y-105502313D01*
X126386091Y-105433649D01*
X126264480Y-105394578D01*
X126145379Y-105381917D01*
X126011226Y-105394576D01*
X125889029Y-105431689D01*
X125776138Y-105493439D01*
X125670693Y-105581951D01*
X125583198Y-105688084D01*
X125522019Y-105801893D01*
X125485187Y-105925250D01*
X125472613Y-106060790D01*
X125485163Y-106195617D01*
X125521953Y-106318552D01*
X125583126Y-106432199D01*
X125670693Y-106538406D01*
X125776131Y-106626859D01*
X125889019Y-106688573D01*
X126011220Y-106725666D01*
X126145379Y-106738319D01*
X126264480Y-106725658D01*
X126386091Y-106686587D01*
X126512550Y-106617923D01*
X126645833Y-106514593D01*
X126700543Y-106465378D01*
X126893938Y-106311317D01*
X127057993Y-106211854D01*
X127240881Y-106137384D01*
X127518024Y-106060790D01*
G37*
G36*
X126716433Y-102754942D02*
G01*
X126827329Y-102779531D01*
X126934162Y-102820542D01*
X126934162Y-103114366D01*
X127028368Y-103325321D01*
X127113924Y-103576718D01*
X127075823Y-103954683D01*
X127018181Y-104010493D01*
X127004504Y-104567611D01*
X126994101Y-104746501D01*
X126970554Y-104839209D01*
X126941778Y-104883025D01*
X126903157Y-104908338D01*
X126851485Y-104917245D01*
X126807769Y-104908630D01*
X126771840Y-104882855D01*
X126741698Y-104835790D01*
X126715685Y-104744008D01*
X126705062Y-104594966D01*
X126700905Y-104214802D01*
X126777846Y-104214802D01*
X126777846Y-104515709D01*
X126783253Y-104669987D01*
X126796164Y-104761418D01*
X126821867Y-104827359D01*
X126847578Y-104842384D01*
X126874830Y-104832781D01*
X126898578Y-104799068D01*
X126917884Y-104723788D01*
X126926346Y-104579945D01*
X126939047Y-104091093D01*
X126813628Y-104243745D01*
X126777846Y-104214802D01*
X126700905Y-104214802D01*
X126699689Y-104103549D01*
X126690407Y-104064349D01*
X126671853Y-104088430D01*
X126645833Y-104108556D01*
X126614741Y-104121590D01*
X126577445Y-104126142D01*
X126528451Y-104118016D01*
X126489395Y-104094512D01*
X126460071Y-104057582D01*
X126439326Y-104004509D01*
X126373746Y-104018187D01*
X126311051Y-104007818D01*
X126265791Y-103978864D01*
X126234572Y-103933063D01*
X126215721Y-103865779D01*
X126196793Y-103867977D01*
X126131177Y-103855629D01*
X126085539Y-103820871D01*
X126055178Y-103759553D01*
X126044302Y-103668553D01*
X126121322Y-103668553D01*
X126133613Y-103741619D01*
X126164327Y-103778930D01*
X126215111Y-103791773D01*
X126215111Y-103687115D01*
X126293268Y-103687115D01*
X126293268Y-103809359D01*
X126299172Y-103870280D01*
X126313785Y-103907300D01*
X126338963Y-103931227D01*
X126373746Y-103939296D01*
X126396969Y-103935136D01*
X126426014Y-103920734D01*
X126419226Y-103745734D01*
X126496479Y-103745734D01*
X126504294Y-103889837D01*
X126510148Y-103964130D01*
X126524444Y-104009150D01*
X126549716Y-104039136D01*
X126582818Y-104048595D01*
X126606013Y-104042173D01*
X126623363Y-104022094D01*
X126633133Y-103991635D01*
X126637162Y-103940517D01*
X126637162Y-103763197D01*
X126666594Y-103701037D01*
X126676241Y-103641320D01*
X126667093Y-103577896D01*
X126641363Y-103529124D01*
X126598450Y-103491355D01*
X126496479Y-103745734D01*
X126419226Y-103745734D01*
X126418321Y-103722409D01*
X126493303Y-103580503D01*
X126474296Y-103512506D01*
X126442903Y-103462640D01*
X126399148Y-103426997D01*
X126293268Y-103687115D01*
X126215111Y-103687115D01*
X126215111Y-103662447D01*
X126291681Y-103480364D01*
X126256286Y-103429043D01*
X126225003Y-103397443D01*
X126122665Y-103616163D01*
X126121322Y-103668553D01*
X126044302Y-103668553D01*
X126043164Y-103659027D01*
X126046583Y-103610179D01*
X126072229Y-103560353D01*
X126050118Y-103475844D01*
X126043164Y-103399519D01*
X126047397Y-103329422D01*
X126121322Y-103329422D01*
X126121322Y-103376316D01*
X126122298Y-103447880D01*
X126188488Y-103290587D01*
X126264807Y-103335595D01*
X126328928Y-103398909D01*
X126366175Y-103316111D01*
X126452467Y-103374493D01*
X126503687Y-103427255D01*
X126529451Y-103475845D01*
X126567553Y-103385964D01*
X126654636Y-103442210D01*
X126711227Y-103502692D01*
X126743571Y-103568218D01*
X126754399Y-103641320D01*
X126744873Y-103711906D01*
X126715320Y-103784324D01*
X126711412Y-103906323D01*
X126738445Y-103836655D01*
X126785906Y-103756847D01*
X126756555Y-103644900D01*
X126746583Y-103524328D01*
X126737668Y-103488790D01*
X126820589Y-103485493D01*
X126801294Y-103514069D01*
X126809805Y-103599685D01*
X126835751Y-103685103D01*
X126880673Y-103771746D01*
X126811236Y-103855140D01*
X126773896Y-103931846D01*
X126762215Y-104004753D01*
X126775136Y-104074806D01*
X126814116Y-104135545D01*
X126995345Y-103925252D01*
X127028562Y-103581603D01*
X126979698Y-103437415D01*
X126856004Y-103117419D01*
X126856004Y-102870734D01*
X126731629Y-102835644D01*
X126606388Y-102824083D01*
X126486789Y-102834213D01*
X126363610Y-102865360D01*
X126363610Y-103048787D01*
X126267273Y-103136337D01*
X126186917Y-103229747D01*
X126121322Y-103329422D01*
X126047397Y-103329422D01*
X126048171Y-103316599D01*
X126101133Y-103221482D01*
X126178682Y-103119634D01*
X126285453Y-103009830D01*
X126285453Y-102813581D01*
X126392766Y-102775887D01*
X126497395Y-102753881D01*
X126600282Y-102746658D01*
X126716433Y-102754942D01*
G37*
G36*
X127020379Y-98412325D02*
G01*
X127115496Y-98465287D01*
X127217344Y-98542836D01*
X127327148Y-98649607D01*
X127523398Y-98649607D01*
X127561091Y-98756920D01*
X127583098Y-98861549D01*
X127590320Y-98964436D01*
X127582036Y-99080587D01*
X127557447Y-99191483D01*
X127516437Y-99298316D01*
X127222613Y-99298316D01*
X127011658Y-99392522D01*
X126760261Y-99478078D01*
X126382295Y-99439977D01*
X126326485Y-99382335D01*
X125769368Y-99368658D01*
X125590478Y-99358255D01*
X125497770Y-99334708D01*
X125453953Y-99305932D01*
X125428640Y-99267311D01*
X125419734Y-99215640D01*
X125420504Y-99211732D01*
X125494594Y-99211732D01*
X125504197Y-99238984D01*
X125537910Y-99262732D01*
X125613190Y-99282038D01*
X125757033Y-99290500D01*
X126245885Y-99303201D01*
X126093828Y-99178270D01*
X126201433Y-99178270D01*
X126411726Y-99359499D01*
X126755376Y-99392716D01*
X126899564Y-99343852D01*
X127219559Y-99220158D01*
X127466245Y-99220158D01*
X127501334Y-99095783D01*
X127512895Y-98970542D01*
X127502765Y-98850943D01*
X127471618Y-98727764D01*
X127288192Y-98727764D01*
X127200641Y-98631427D01*
X127107231Y-98551071D01*
X127007557Y-98485476D01*
X126960662Y-98485476D01*
X126889099Y-98486452D01*
X127046391Y-98552642D01*
X127001384Y-98628961D01*
X126938070Y-98693082D01*
X127020868Y-98730329D01*
X126962486Y-98816621D01*
X126909723Y-98867841D01*
X126861133Y-98893605D01*
X126951014Y-98931707D01*
X126894769Y-99018790D01*
X126834286Y-99075381D01*
X126768760Y-99107725D01*
X126695659Y-99118553D01*
X126625072Y-99109027D01*
X126552654Y-99079474D01*
X126430655Y-99075566D01*
X126500323Y-99102599D01*
X126580132Y-99150060D01*
X126692079Y-99120709D01*
X126812651Y-99110737D01*
X126848188Y-99101822D01*
X126851485Y-99184743D01*
X126822909Y-99165448D01*
X126737294Y-99173959D01*
X126651876Y-99199905D01*
X126565233Y-99244827D01*
X126481838Y-99175390D01*
X126405132Y-99138050D01*
X126332225Y-99126369D01*
X126262172Y-99139290D01*
X126201433Y-99178270D01*
X126093828Y-99178270D01*
X126093234Y-99177782D01*
X126122176Y-99142000D01*
X125821269Y-99142000D01*
X125666991Y-99147443D01*
X125575561Y-99160441D01*
X125509619Y-99186043D01*
X125494594Y-99211732D01*
X125420504Y-99211732D01*
X125428348Y-99171923D01*
X125454123Y-99135994D01*
X125501189Y-99105852D01*
X125592971Y-99079839D01*
X125742012Y-99069216D01*
X126233429Y-99063843D01*
X126272630Y-99054561D01*
X126248548Y-99036007D01*
X126228422Y-99009987D01*
X126215388Y-98978895D01*
X126211493Y-98946972D01*
X126288384Y-98946972D01*
X126294806Y-98970167D01*
X126314884Y-98987517D01*
X126345344Y-98997287D01*
X126396461Y-99001316D01*
X126573781Y-99001316D01*
X126635941Y-99030870D01*
X126695659Y-99040395D01*
X126759082Y-99031247D01*
X126807854Y-99005517D01*
X126845624Y-98962604D01*
X126591245Y-98860633D01*
X126447141Y-98868448D01*
X126372849Y-98874302D01*
X126327829Y-98888598D01*
X126297843Y-98913870D01*
X126288384Y-98946972D01*
X126211493Y-98946972D01*
X126210837Y-98941599D01*
X126218967Y-98892625D01*
X126242466Y-98853672D01*
X126279408Y-98824251D01*
X126332469Y-98803480D01*
X126318792Y-98737900D01*
X126397682Y-98737900D01*
X126401843Y-98761123D01*
X126416245Y-98790168D01*
X126614570Y-98782475D01*
X126756475Y-98857457D01*
X126824472Y-98838450D01*
X126874339Y-98807057D01*
X126909982Y-98763302D01*
X126649863Y-98657422D01*
X126527619Y-98657422D01*
X126466709Y-98663359D01*
X126429678Y-98678061D01*
X126405755Y-98703141D01*
X126397682Y-98737900D01*
X126318792Y-98737900D01*
X126329165Y-98675225D01*
X126358115Y-98630067D01*
X126403927Y-98598753D01*
X126471199Y-98579875D01*
X126471128Y-98579265D01*
X126545205Y-98579265D01*
X126674532Y-98579265D01*
X126856615Y-98655835D01*
X126907935Y-98620440D01*
X126939535Y-98589157D01*
X126720816Y-98486819D01*
X126668425Y-98485476D01*
X126595359Y-98497767D01*
X126558048Y-98528481D01*
X126545205Y-98579265D01*
X126471128Y-98579265D01*
X126469001Y-98560947D01*
X126481350Y-98495331D01*
X126516108Y-98449693D01*
X126577426Y-98419332D01*
X126677951Y-98407318D01*
X126726800Y-98410737D01*
X126776625Y-98436383D01*
X126861134Y-98414273D01*
X126937459Y-98407318D01*
X127020379Y-98412325D01*
G37*
G36*
X126927300Y-96170950D02*
G01*
X126868918Y-96313836D01*
X126835071Y-96463470D01*
X126825657Y-96621891D01*
X126841838Y-96791407D01*
X127135296Y-96791407D01*
X127251247Y-96803965D01*
X127339985Y-96838438D01*
X127407983Y-96892998D01*
X127458750Y-96969916D01*
X127492212Y-97075146D01*
X127504713Y-97217489D01*
X127491234Y-97361391D01*
X127450814Y-97499971D01*
X127382097Y-97635466D01*
X127281964Y-97769600D01*
X127469054Y-97769600D01*
X127505174Y-97743549D01*
X127541349Y-97735528D01*
X127595063Y-97747486D01*
X127625814Y-97780512D01*
X127637581Y-97841896D01*
X127625937Y-97901482D01*
X127595299Y-97933792D01*
X127541349Y-97945577D01*
X127502208Y-97937171D01*
X127468809Y-97911383D01*
X125183429Y-97911383D01*
X125183429Y-97769600D01*
X126045362Y-97769600D01*
X126150386Y-97769600D01*
X127184022Y-97769600D01*
X127295245Y-97626323D01*
X127369776Y-97487952D01*
X127412571Y-97352490D01*
X127426555Y-97217489D01*
X127416279Y-97099972D01*
X127388785Y-97013154D01*
X127347106Y-96949754D01*
X127291337Y-96904829D01*
X127218630Y-96876470D01*
X127123694Y-96866145D01*
X126283621Y-96866145D01*
X126323349Y-96972532D01*
X126347536Y-97086444D01*
X126355795Y-97209307D01*
X126342781Y-97364226D01*
X126304498Y-97507741D01*
X126240901Y-97642253D01*
X126150386Y-97769600D01*
X126045362Y-97769600D01*
X126148999Y-97640437D01*
X126220666Y-97506074D01*
X126263267Y-97364590D01*
X126277637Y-97213337D01*
X126269943Y-97118937D01*
X125820659Y-97118937D01*
X125770424Y-97105077D01*
X125720528Y-97058174D01*
X125668740Y-96960912D01*
X125634688Y-96853744D01*
X125613102Y-96730204D01*
X125605481Y-96587709D01*
X125606136Y-96579404D01*
X125683638Y-96579404D01*
X125697370Y-96759865D01*
X125736273Y-96913895D01*
X125779794Y-97007666D01*
X125818438Y-97050159D01*
X125854242Y-97061906D01*
X125883521Y-97052869D01*
X125892448Y-97044198D01*
X125992239Y-97044198D01*
X126259441Y-97044198D01*
X126238077Y-96943204D01*
X126211618Y-96886416D01*
X126182593Y-96858396D01*
X126150020Y-96849781D01*
X126114481Y-96863100D01*
X126064486Y-96916968D01*
X125992239Y-97044198D01*
X125892448Y-97044198D01*
X125917367Y-97019994D01*
X125958412Y-96948089D01*
X125974776Y-96911208D01*
X126020202Y-96842187D01*
X126074422Y-96804162D01*
X126140495Y-96791407D01*
X126767100Y-96791407D01*
X126757825Y-96703035D01*
X126754399Y-96591739D01*
X126766592Y-96434066D01*
X126803845Y-96273362D01*
X126867972Y-96107894D01*
X125829573Y-96107894D01*
X125765617Y-96216493D01*
X125720299Y-96330407D01*
X125692929Y-96450874D01*
X125683638Y-96579404D01*
X125606136Y-96579404D01*
X125617696Y-96432712D01*
X125653474Y-96290077D01*
X125712517Y-96157494D01*
X125795868Y-96033155D01*
X127011587Y-96033155D01*
X126927300Y-96170950D01*
G37*
G36*
X126078037Y-94020250D02*
G01*
X126199664Y-94062832D01*
X126302132Y-94120551D01*
X126388157Y-94193274D01*
X126458674Y-94281513D01*
X126509183Y-94380953D01*
X126540336Y-94493766D01*
X126551189Y-94622897D01*
X126540338Y-94752026D01*
X126509187Y-94864862D01*
X126458678Y-94964344D01*
X126388157Y-95052642D01*
X126302123Y-95125242D01*
X126199664Y-95182677D01*
X126078049Y-95224820D01*
X125933743Y-95250357D01*
X125933743Y-95159376D01*
X126073914Y-95113967D01*
X126181627Y-95051945D01*
X126262915Y-94974251D01*
X126321477Y-94879501D01*
X126358280Y-94764149D01*
X126371426Y-94622897D01*
X126358248Y-94481069D01*
X126321387Y-94365441D01*
X126262782Y-94270646D01*
X126181493Y-94193090D01*
X126073827Y-94131364D01*
X125933743Y-94086418D01*
X125933743Y-93994094D01*
X126078037Y-94020250D01*
G37*
G36*
X126888464Y-94799677D02*
G01*
X126945153Y-94837464D01*
X126983775Y-94893295D01*
X126996688Y-94960441D01*
X126983846Y-95026347D01*
X126945153Y-95082074D01*
X126888473Y-95119766D01*
X126820833Y-95132388D01*
X126753172Y-95119770D01*
X126696391Y-95082074D01*
X126657793Y-95026357D01*
X126644978Y-94960441D01*
X126657779Y-94894314D01*
X126696391Y-94838075D01*
X126753229Y-94799807D01*
X126820833Y-94787028D01*
X126888464Y-94799677D01*
G37*
G36*
X126888473Y-94126150D02*
G01*
X126945153Y-94163843D01*
X126983837Y-94219485D01*
X126996688Y-94285476D01*
X126983866Y-94351488D01*
X126945153Y-94407719D01*
X126888416Y-94445983D01*
X126820833Y-94458766D01*
X126753229Y-94445987D01*
X126696391Y-94407719D01*
X126657774Y-94351497D01*
X126644978Y-94285476D01*
X126657803Y-94219476D01*
X126696391Y-94163843D01*
X126753172Y-94126147D01*
X126820833Y-94113529D01*
X126888473Y-94126150D01*
G37*
G36*
X126661729Y-93570178D02*
G01*
X126821315Y-93607617D01*
X126969774Y-93669240D01*
X127108998Y-93755837D01*
X127240320Y-93869408D01*
X127353575Y-94001014D01*
X127439968Y-94140563D01*
X127501468Y-94289390D01*
X127538839Y-94449386D01*
X127551608Y-94622897D01*
X127538838Y-94796462D01*
X127501463Y-94956496D01*
X127439962Y-95105346D01*
X127353569Y-95244905D01*
X127240320Y-95376508D01*
X127109004Y-95490030D01*
X126969783Y-95576593D01*
X126821324Y-95638194D01*
X126661735Y-95675620D01*
X126488663Y-95688406D01*
X126315594Y-95675622D01*
X126155992Y-95638197D01*
X126007507Y-95576597D01*
X125868248Y-95490034D01*
X125736883Y-95376508D01*
X125623683Y-95244911D01*
X125537325Y-95105355D01*
X125475845Y-94956505D01*
X125438484Y-94796468D01*
X125425718Y-94622897D01*
X125566402Y-94622897D01*
X125577468Y-94773176D01*
X125609856Y-94911722D01*
X125663152Y-95040573D01*
X125738020Y-95161370D01*
X125836168Y-95275270D01*
X125950042Y-95373535D01*
X126070768Y-95448473D01*
X126199499Y-95501806D01*
X126337875Y-95534210D01*
X126487930Y-95545280D01*
X126638025Y-95534214D01*
X126776501Y-95501818D01*
X126905385Y-95448488D01*
X127026309Y-95373546D01*
X127140425Y-95275270D01*
X127238867Y-95161332D01*
X127313939Y-95040517D01*
X127367368Y-94911668D01*
X127399832Y-94773142D01*
X127410924Y-94622897D01*
X127399832Y-94472652D01*
X127367368Y-94334126D01*
X127313939Y-94205277D01*
X127238867Y-94084462D01*
X127140425Y-93970524D01*
X127026309Y-93872248D01*
X126905385Y-93797306D01*
X126776501Y-93743976D01*
X126638025Y-93711580D01*
X126487930Y-93700514D01*
X126337875Y-93711584D01*
X126199499Y-93743988D01*
X126070768Y-93797321D01*
X125950042Y-93872259D01*
X125836168Y-93970524D01*
X125738020Y-94084424D01*
X125663152Y-94205221D01*
X125609856Y-94334072D01*
X125577468Y-94472618D01*
X125566402Y-94622897D01*
X125425718Y-94622897D01*
X125438482Y-94449380D01*
X125475841Y-94289381D01*
X125537318Y-94140554D01*
X125623677Y-94001007D01*
X125736883Y-93869408D01*
X125868254Y-93755833D01*
X126007516Y-93669236D01*
X126156001Y-93607613D01*
X126315599Y-93570177D01*
X126488663Y-93557388D01*
X126661729Y-93570178D01*
G37*
G36*
X125687302Y-91564000D02*
G01*
X125567623Y-91762325D01*
X125514838Y-91901128D01*
X125483240Y-92044613D01*
X125472613Y-92194268D01*
X125484808Y-92359762D01*
X125520498Y-92512296D01*
X125579223Y-92654119D01*
X125661715Y-92787042D01*
X125769856Y-92912342D01*
X125895276Y-93020330D01*
X126028333Y-93102719D01*
X126170305Y-93161381D01*
X126322999Y-93197035D01*
X126488663Y-93209219D01*
X126655532Y-93196938D01*
X126808906Y-93161042D01*
X126951097Y-93102053D01*
X127083964Y-93019284D01*
X127208813Y-92910877D01*
X127316207Y-92785223D01*
X127398301Y-92651485D01*
X127456861Y-92508353D01*
X127492514Y-92353982D01*
X127504713Y-92186086D01*
X127492102Y-92033693D01*
X127453757Y-91880714D01*
X127387949Y-91725304D01*
X127291733Y-91565831D01*
X127364029Y-91922670D01*
X127353520Y-92065275D01*
X127322767Y-92196689D01*
X127272171Y-92318852D01*
X127201103Y-92433327D01*
X127107940Y-92541215D01*
X126999984Y-92634215D01*
X126885403Y-92705180D01*
X126763094Y-92755716D01*
X126631495Y-92786437D01*
X126488663Y-92796937D01*
X126347035Y-92786534D01*
X126216117Y-92756054D01*
X126094030Y-92705846D01*
X125979259Y-92635261D01*
X125870728Y-92542681D01*
X125776743Y-92435113D01*
X125705267Y-92321572D01*
X125654535Y-92200999D01*
X125623783Y-92071879D01*
X125613296Y-91932318D01*
X125687302Y-91564000D01*
G37*
G36*
X126605899Y-91981044D02*
G01*
X126605899Y-91677939D01*
X126897892Y-91583539D01*
X126605899Y-91490605D01*
X126605899Y-91187377D01*
X126430899Y-91432719D01*
X126140983Y-91339907D01*
X126319158Y-91583539D01*
X126141105Y-91828637D01*
X126430899Y-91735702D01*
X126605899Y-91981044D01*
G37*
G36*
X127025509Y-89763319D02*
G01*
X126840250Y-89763319D01*
X126761219Y-89606544D01*
X126669365Y-89485115D01*
X126564864Y-89393558D01*
X126446349Y-89328355D01*
X126311021Y-89288222D01*
X126154905Y-89274223D01*
X126007755Y-89287845D01*
X125874526Y-89327654D01*
X125752281Y-89393630D01*
X125638942Y-89487813D01*
X125544909Y-89601254D01*
X125479044Y-89723519D01*
X125439310Y-89856680D01*
X125425718Y-90003654D01*
X125439285Y-90149852D01*
X125478977Y-90282528D01*
X125544835Y-90404572D01*
X125638942Y-90518030D01*
X125752313Y-90612356D01*
X125874133Y-90678318D01*
X126006434Y-90718047D01*
X126152096Y-90731620D01*
X126303428Y-90717891D01*
X126436496Y-90678283D01*
X126554860Y-90613492D01*
X126661021Y-90521984D01*
X126756200Y-90400115D01*
X126840250Y-90242402D01*
X127025264Y-90242402D01*
X127056662Y-90166932D01*
X127078876Y-90073019D01*
X127104277Y-90073019D01*
X127195669Y-90062415D01*
X127274784Y-90031685D01*
X127344490Y-89980451D01*
X127399058Y-89913565D01*
X127431210Y-89838857D01*
X127442187Y-89753549D01*
X127431473Y-89670185D01*
X127396132Y-89572744D01*
X127329510Y-89457166D01*
X127222857Y-89319286D01*
X127159720Y-89246868D01*
X127047999Y-89103741D01*
X126979773Y-88988840D01*
X126944551Y-88896591D01*
X126934162Y-88821763D01*
X126944218Y-88764891D01*
X126980934Y-88684376D01*
X126988872Y-88649694D01*
X126981889Y-88610557D01*
X126964089Y-88590100D01*
X126933917Y-88582894D01*
X126900503Y-88590188D01*
X126868224Y-88613593D01*
X126835610Y-88658853D01*
X126804297Y-88738749D01*
X126793478Y-88831411D01*
X126805758Y-88925861D01*
X126846653Y-89038505D01*
X126924429Y-89174551D01*
X127049811Y-89339436D01*
X127115756Y-89417349D01*
X127231853Y-89572826D01*
X127286722Y-89681254D01*
X127301503Y-89756358D01*
X127292670Y-89818634D01*
X127268236Y-89864643D01*
X127227963Y-89898587D01*
X127167387Y-89921297D01*
X127078753Y-89930015D01*
X127056022Y-89845239D01*
X127025509Y-89763319D01*
G37*
G36*
X127510941Y-89125357D02*
G01*
X127561133Y-89064296D01*
X127112947Y-88728829D01*
X127510941Y-89125357D01*
G37*
G36*
X127559423Y-88651159D02*
G01*
X127559423Y-88572880D01*
X127155934Y-88610004D01*
X127559423Y-88651159D01*
G37*
G36*
X127561011Y-88162674D02*
G01*
X127513750Y-88100025D01*
X127111604Y-88488372D01*
X127561011Y-88162674D01*
G37*
G36*
X127108185Y-88032981D02*
G01*
X127034668Y-88020769D01*
X127000840Y-88426944D01*
X127108185Y-88032981D01*
G37*
G36*
X126629225Y-87951404D02*
G01*
X126565966Y-87988406D01*
X126877864Y-88450148D01*
X126629225Y-87951404D01*
G37*
G36*
X126431021Y-88375043D02*
G01*
X126404765Y-88448682D01*
X126798729Y-88547112D01*
X126431021Y-88375043D01*
G37*
G36*
X126263715Y-88839715D02*
G01*
X126289971Y-88911767D01*
X126801416Y-88678270D01*
X126263715Y-88839715D01*
G37*
G36*
X127478954Y-86451080D02*
G01*
X127521199Y-86480085D01*
X127549843Y-86522797D01*
X127559423Y-86573752D01*
X127547801Y-86619536D01*
X127508456Y-86667318D01*
X127427969Y-86719718D01*
X127286116Y-86776962D01*
X126827550Y-86927171D01*
X127434982Y-87075549D01*
X127557387Y-87115596D01*
X127628693Y-87159103D01*
X127665218Y-87204598D01*
X127676660Y-87254090D01*
X127666621Y-87324269D01*
X127640024Y-87370350D01*
X127596494Y-87398990D01*
X127529626Y-87409673D01*
X127467127Y-87401401D01*
X127310418Y-87363145D01*
X126736936Y-87208905D01*
X126690407Y-87210249D01*
X126646322Y-87209394D01*
X126686399Y-87246310D01*
X126708260Y-87283950D01*
X126715320Y-87323822D01*
X126705205Y-87389969D01*
X126678073Y-87433853D01*
X126633971Y-87460985D01*
X126565721Y-87471222D01*
X126484755Y-87456690D01*
X126496479Y-87513720D01*
X126487717Y-87562129D01*
X126463384Y-87595175D01*
X126424756Y-87615148D01*
X126363733Y-87622897D01*
X126323993Y-87618729D01*
X126266768Y-87603724D01*
X126201800Y-87603724D01*
X126059874Y-87594657D01*
X125922868Y-87567669D01*
X125789640Y-87522635D01*
X125668007Y-87415168D01*
X125513157Y-87415168D01*
X125473671Y-87315262D01*
X125449593Y-87207452D01*
X125441349Y-87090203D01*
X125441976Y-87082021D01*
X125519507Y-87082021D01*
X125530436Y-87203773D01*
X125565058Y-87337621D01*
X125686081Y-87337621D01*
X125830795Y-87463773D01*
X125864134Y-87474519D01*
X125964201Y-87499496D01*
X126075404Y-87518361D01*
X126042309Y-87497967D01*
X125996950Y-87461732D01*
X125972740Y-87424735D01*
X125965006Y-87385371D01*
X125966453Y-87377067D01*
X126043164Y-87377067D01*
X126051083Y-87404168D01*
X126078803Y-87432980D01*
X126137808Y-87465116D01*
X126260906Y-87516896D01*
X126330092Y-87542351D01*
X126360679Y-87548037D01*
X126387643Y-87544013D01*
X126404399Y-87533504D01*
X126414515Y-87516467D01*
X126418321Y-87490517D01*
X126410622Y-87462316D01*
X126384503Y-87433868D01*
X126330393Y-87403811D01*
X126248328Y-87368274D01*
X126157324Y-87332283D01*
X126108987Y-87323577D01*
X126078808Y-87327303D01*
X126059650Y-87336889D01*
X126047551Y-87352956D01*
X126043164Y-87377067D01*
X125966453Y-87377067D01*
X125973341Y-87337552D01*
X125997002Y-87302084D01*
X126033945Y-87277479D01*
X126086395Y-87263372D01*
X126065094Y-87219731D01*
X126058795Y-87183138D01*
X126059258Y-87180329D01*
X126136953Y-87180329D01*
X126148772Y-87214339D01*
X126193774Y-87255967D01*
X126296199Y-87309167D01*
X126425160Y-87362534D01*
X126500021Y-87387766D01*
X126556806Y-87395018D01*
X126593984Y-87390167D01*
X126617257Y-87377677D01*
X126631863Y-87356967D01*
X126637162Y-87326508D01*
X126628232Y-87300153D01*
X126594916Y-87269401D01*
X126520048Y-87231864D01*
X126381562Y-87175688D01*
X126256362Y-87126532D01*
X126205097Y-87115971D01*
X126174203Y-87120364D01*
X126154050Y-87131969D01*
X126141602Y-87151027D01*
X126136953Y-87180329D01*
X126059258Y-87180329D01*
X126069435Y-87118630D01*
X126098118Y-87076526D01*
X126144059Y-87050974D01*
X126214989Y-87041233D01*
X126259899Y-87046876D01*
X126325875Y-87067489D01*
X126445310Y-87115360D01*
X126410140Y-87055105D01*
X126383394Y-86968448D01*
X126357993Y-86968448D01*
X126270778Y-86963125D01*
X126183848Y-86947077D01*
X126183848Y-86873804D01*
X126292171Y-86889050D01*
X126382783Y-86893710D01*
X126461063Y-86890657D01*
X126474871Y-86987778D01*
X126501717Y-87053957D01*
X126538920Y-87097508D01*
X126587065Y-87123477D01*
X126649863Y-87132702D01*
X126614570Y-86861348D01*
X126480787Y-86769113D01*
X126341252Y-86699042D01*
X126317596Y-86691111D01*
X126500631Y-86691111D01*
X126586902Y-86745285D01*
X126682836Y-86824589D01*
X126728509Y-87129526D01*
X127356091Y-87298176D01*
X127414099Y-87313197D01*
X127458673Y-87324188D01*
X127521322Y-87334935D01*
X127556758Y-87329812D01*
X127579329Y-87316372D01*
X127593249Y-87294153D01*
X127598502Y-87259586D01*
X127585315Y-87224992D01*
X127535835Y-87188696D01*
X127421670Y-87150043D01*
X126768931Y-86988232D01*
X126757574Y-86875758D01*
X127277201Y-86698560D01*
X127448293Y-86631760D01*
X127473183Y-86607058D01*
X127481266Y-86575095D01*
X127477565Y-86548015D01*
X127468077Y-86531498D01*
X127452174Y-86521429D01*
X127426555Y-86517576D01*
X127363965Y-86525063D01*
X127217850Y-86558487D01*
X126694315Y-86691111D01*
X126500631Y-86691111D01*
X126317596Y-86691111D01*
X126194839Y-86649956D01*
X126145624Y-86636644D01*
X126096287Y-86656672D01*
X125897135Y-86746083D01*
X125743478Y-86838633D01*
X125564936Y-86838633D01*
X125530593Y-86962860D01*
X125519507Y-87082021D01*
X125441976Y-87082021D01*
X125448487Y-86997025D01*
X125471416Y-86890813D01*
X125512913Y-86769268D01*
X125713680Y-86769268D01*
X125938290Y-86643901D01*
X126135243Y-86561662D01*
X126231722Y-86577480D01*
X126347613Y-86612220D01*
X126405376Y-86613563D01*
X126674532Y-86624554D01*
X127195624Y-86488023D01*
X127357570Y-86449961D01*
X127428143Y-86441372D01*
X127478954Y-86451080D01*
G37*
G36*
X125630470Y-84606773D02*
G01*
X125665207Y-84642294D01*
X125696871Y-84715493D01*
X125721862Y-84847321D01*
X125762651Y-84914732D01*
X125887703Y-85117088D01*
X125910051Y-85154457D01*
X126003620Y-84936965D01*
X126041820Y-84802747D01*
X125996513Y-84717995D01*
X125980638Y-84666826D01*
X125985161Y-84635405D01*
X125997124Y-84614924D01*
X126016490Y-84602042D01*
X126044873Y-84597339D01*
X126083316Y-84608506D01*
X126153073Y-84655835D01*
X126240512Y-84646554D01*
X126275670Y-84650687D01*
X126297665Y-84661208D01*
X126311637Y-84679127D01*
X126316716Y-84706515D01*
X126309041Y-84733072D01*
X126275927Y-84783574D01*
X126155271Y-84914977D01*
X126130969Y-84971763D01*
X125988942Y-85281707D01*
X126089974Y-85493691D01*
X126155271Y-85656376D01*
X126229627Y-85726082D01*
X126276294Y-85778375D01*
X126308399Y-85828788D01*
X126316716Y-85862272D01*
X126311298Y-85892251D01*
X126296199Y-85912953D01*
X126272224Y-85925543D01*
X126234406Y-85930416D01*
X126152829Y-85917105D01*
X126076911Y-85966423D01*
X126044507Y-85976822D01*
X126016443Y-85971647D01*
X125997002Y-85957161D01*
X125985135Y-85934529D01*
X125980638Y-85900496D01*
X125996391Y-85845664D01*
X126041820Y-85783138D01*
X126001082Y-85633472D01*
X125910174Y-85418605D01*
X125818559Y-85576394D01*
X125729922Y-85706690D01*
X125701421Y-85858505D01*
X125678753Y-85926386D01*
X125644240Y-85966329D01*
X125593268Y-85979631D01*
X125551322Y-85966659D01*
X125523556Y-85925556D01*
X125511691Y-85838337D01*
X125458216Y-85794807D01*
X125432828Y-85760529D01*
X125425718Y-85732457D01*
X125438834Y-85693789D01*
X125483898Y-85661204D01*
X125582888Y-85635859D01*
X125718598Y-85470485D01*
X125833237Y-85292576D01*
X125739658Y-85140143D01*
X125596077Y-84951491D01*
X125557487Y-84936958D01*
X125472893Y-84898107D01*
X125435635Y-84865763D01*
X125425718Y-84837674D01*
X125440792Y-84795827D01*
X125502899Y-84731672D01*
X125526967Y-84646624D01*
X125556760Y-84607477D01*
X125591681Y-84595995D01*
X125630470Y-84606773D01*
G37*
G36*
X127236163Y-84813669D02*
G01*
X127314405Y-84838827D01*
X127383584Y-84880105D01*
X127445240Y-84938790D01*
X127507175Y-85033785D01*
X127545734Y-85148183D01*
X127559423Y-85287081D01*
X127545736Y-85425980D01*
X127507179Y-85540422D01*
X127445240Y-85635493D01*
X127383591Y-85694119D01*
X127314416Y-85735361D01*
X127236171Y-85760499D01*
X127146531Y-85769216D01*
X127040971Y-85763283D01*
X126967041Y-85748005D01*
X126916943Y-85726351D01*
X126828700Y-85680482D01*
X126790303Y-85668099D01*
X126673555Y-85649903D01*
X126599196Y-85486627D01*
X126793478Y-85486627D01*
X126801605Y-85534866D01*
X126823811Y-85567286D01*
X126861426Y-85588032D01*
X126921217Y-85596048D01*
X126977365Y-85588238D01*
X127013174Y-85567838D01*
X127035329Y-85534110D01*
X127043582Y-85482475D01*
X127036066Y-85434469D01*
X127015905Y-85402904D01*
X126982643Y-85383220D01*
X126930864Y-85375741D01*
X126865856Y-85384076D01*
X126825453Y-85405445D01*
X126801974Y-85438334D01*
X126793478Y-85486627D01*
X126599196Y-85486627D01*
X126586238Y-85458173D01*
X126521513Y-85430695D01*
X126508813Y-85366826D01*
X126504294Y-85287081D01*
X126506242Y-85252887D01*
X126644978Y-85252887D01*
X126656580Y-85285737D01*
X126644978Y-85318466D01*
X126654748Y-85353392D01*
X126684423Y-85365116D01*
X126704078Y-85359041D01*
X126738767Y-85333365D01*
X126805568Y-85285737D01*
X126738767Y-85238110D01*
X126704259Y-85212201D01*
X126685767Y-85206236D01*
X126655630Y-85217391D01*
X126644978Y-85252887D01*
X126506242Y-85252887D01*
X126509130Y-85202211D01*
X126521513Y-85143466D01*
X126586238Y-85115988D01*
X126602311Y-85080695D01*
X126793478Y-85080695D01*
X126801657Y-85129712D01*
X126823947Y-85162558D01*
X126861573Y-85183505D01*
X126921217Y-85191582D01*
X126977641Y-85183551D01*
X127013735Y-85162489D01*
X127035498Y-85128889D01*
X127043582Y-85078009D01*
X127036013Y-85028813D01*
X127015861Y-84996920D01*
X126983034Y-84977409D01*
X126930864Y-84969931D01*
X126865843Y-84978262D01*
X126825441Y-84999613D01*
X126801970Y-85032466D01*
X126793478Y-85080695D01*
X126602311Y-85080695D01*
X126673555Y-84924258D01*
X126790181Y-84906062D01*
X126838052Y-84892995D01*
X126941189Y-84843338D01*
X127043516Y-84814459D01*
X127146531Y-84804945D01*
X127236163Y-84813669D01*
G37*
G36*
X126575980Y-85080451D02*
G01*
X126539954Y-85094007D01*
X126472179Y-85129332D01*
X126440547Y-85161418D01*
X126425158Y-85206006D01*
X126418321Y-85295263D01*
X126425345Y-85374683D01*
X126441890Y-85418117D01*
X126474234Y-85450419D01*
X126540076Y-85485528D01*
X126575980Y-85499083D01*
X126563035Y-85555503D01*
X126415512Y-85520210D01*
X126335767Y-85436435D01*
X126290537Y-85399838D01*
X126263701Y-85352179D01*
X126254190Y-85289767D01*
X126259534Y-85242029D01*
X126274706Y-85202573D01*
X126299992Y-85169402D01*
X126335767Y-85143221D01*
X126415512Y-85059446D01*
X126563035Y-85024153D01*
X126575980Y-85080451D01*
G37*
D11*
X153063333Y-121354819D02*
X153063333Y-122069104D01*
X153063333Y-122069104D02*
X153110952Y-122211961D01*
X153110952Y-122211961D02*
X153206190Y-122307200D01*
X153206190Y-122307200D02*
X153349047Y-122354819D01*
X153349047Y-122354819D02*
X153444285Y-122354819D01*
X152063333Y-122354819D02*
X152634761Y-122354819D01*
X152349047Y-122354819D02*
X152349047Y-121354819D01*
X152349047Y-121354819D02*
X152444285Y-121497676D01*
X152444285Y-121497676D02*
X152539523Y-121592914D01*
X152539523Y-121592914D02*
X152634761Y-121640533D01*
D12*
%TO.C,J1*%
X148170000Y-122790000D02*
X148170000Y-143370000D01*
X148170000Y-143370000D02*
X157290000Y-143370000D01*
X149480000Y-124090000D02*
X149480000Y-142070000D01*
X149480000Y-142070000D02*
X155980000Y-142070000D01*
X155980000Y-124090000D02*
X149480000Y-124090000D01*
X155980000Y-131030000D02*
X155980000Y-124090000D01*
X155980000Y-135130000D02*
X157290000Y-135130000D01*
X155980000Y-142070000D02*
X155980000Y-135130000D01*
X157290000Y-122790000D02*
X148170000Y-122790000D01*
X157290000Y-131030000D02*
X155980000Y-131030000D01*
X157290000Y-143370000D02*
X157290000Y-122790000D01*
X157680000Y-128000000D02*
X158680000Y-127500000D01*
X158680000Y-127500000D02*
X158680000Y-128500000D01*
X158680000Y-128500000D02*
X157680000Y-128000000D01*
%TD*%
M02*
