%TF.GenerationSoftware,KiCad,Pcbnew,9.0.5*%
%TF.CreationDate,2025-12-23T14:43:43-05:00*%
%TF.ProjectId,mk_vco_JUST_PCB,6d6b5f76-636f-45f4-9a55-53545f504342,rev?*%
%TF.SameCoordinates,Original*%
%TF.FileFunction,Legend,Top*%
%TF.FilePolarity,Positive*%
%FSLAX46Y46*%
G04 Gerber Fmt 4.6, Leading zero omitted, Abs format (unit mm)*
G04 Created by KiCad (PCBNEW 9.0.5) date 2025-12-23 14:43:43*
%MOMM*%
%LPD*%
G01*
G04 APERTURE LIST*
%ADD10C,0.150000*%
%ADD11C,0.120000*%
G04 APERTURE END LIST*
D10*
X145294819Y-75126666D02*
X144818628Y-75459999D01*
X145294819Y-75698094D02*
X144294819Y-75698094D01*
X144294819Y-75698094D02*
X144294819Y-75317142D01*
X144294819Y-75317142D02*
X144342438Y-75221904D01*
X144342438Y-75221904D02*
X144390057Y-75174285D01*
X144390057Y-75174285D02*
X144485295Y-75126666D01*
X144485295Y-75126666D02*
X144628152Y-75126666D01*
X144628152Y-75126666D02*
X144723390Y-75174285D01*
X144723390Y-75174285D02*
X144771009Y-75221904D01*
X144771009Y-75221904D02*
X144818628Y-75317142D01*
X144818628Y-75317142D02*
X144818628Y-75698094D01*
X145294819Y-74650475D02*
X145294819Y-74459999D01*
X145294819Y-74459999D02*
X145247200Y-74364761D01*
X145247200Y-74364761D02*
X145199580Y-74317142D01*
X145199580Y-74317142D02*
X145056723Y-74221904D01*
X145056723Y-74221904D02*
X144866247Y-74174285D01*
X144866247Y-74174285D02*
X144485295Y-74174285D01*
X144485295Y-74174285D02*
X144390057Y-74221904D01*
X144390057Y-74221904D02*
X144342438Y-74269523D01*
X144342438Y-74269523D02*
X144294819Y-74364761D01*
X144294819Y-74364761D02*
X144294819Y-74555237D01*
X144294819Y-74555237D02*
X144342438Y-74650475D01*
X144342438Y-74650475D02*
X144390057Y-74698094D01*
X144390057Y-74698094D02*
X144485295Y-74745713D01*
X144485295Y-74745713D02*
X144723390Y-74745713D01*
X144723390Y-74745713D02*
X144818628Y-74698094D01*
X144818628Y-74698094D02*
X144866247Y-74650475D01*
X144866247Y-74650475D02*
X144913866Y-74555237D01*
X144913866Y-74555237D02*
X144913866Y-74364761D01*
X144913866Y-74364761D02*
X144866247Y-74269523D01*
X144866247Y-74269523D02*
X144818628Y-74221904D01*
X144818628Y-74221904D02*
X144723390Y-74174285D01*
X128954819Y-64785713D02*
X128954819Y-64214285D01*
X129954819Y-64499999D02*
X128954819Y-64499999D01*
X129954819Y-63880951D02*
X128954819Y-63880951D01*
X129431009Y-63880951D02*
X129431009Y-63309523D01*
X129954819Y-63309523D02*
X128954819Y-63309523D01*
X129954819Y-62309523D02*
X129954819Y-62880951D01*
X129954819Y-62595237D02*
X128954819Y-62595237D01*
X128954819Y-62595237D02*
X129097676Y-62690475D01*
X129097676Y-62690475D02*
X129192914Y-62785713D01*
X129192914Y-62785713D02*
X129240533Y-62880951D01*
X134954819Y-52166666D02*
X134478628Y-52499999D01*
X134954819Y-52738094D02*
X133954819Y-52738094D01*
X133954819Y-52738094D02*
X133954819Y-52357142D01*
X133954819Y-52357142D02*
X134002438Y-52261904D01*
X134002438Y-52261904D02*
X134050057Y-52214285D01*
X134050057Y-52214285D02*
X134145295Y-52166666D01*
X134145295Y-52166666D02*
X134288152Y-52166666D01*
X134288152Y-52166666D02*
X134383390Y-52214285D01*
X134383390Y-52214285D02*
X134431009Y-52261904D01*
X134431009Y-52261904D02*
X134478628Y-52357142D01*
X134478628Y-52357142D02*
X134478628Y-52738094D01*
X134050057Y-51785713D02*
X134002438Y-51738094D01*
X134002438Y-51738094D02*
X133954819Y-51642856D01*
X133954819Y-51642856D02*
X133954819Y-51404761D01*
X133954819Y-51404761D02*
X134002438Y-51309523D01*
X134002438Y-51309523D02*
X134050057Y-51261904D01*
X134050057Y-51261904D02*
X134145295Y-51214285D01*
X134145295Y-51214285D02*
X134240533Y-51214285D01*
X134240533Y-51214285D02*
X134383390Y-51261904D01*
X134383390Y-51261904D02*
X134954819Y-51833332D01*
X134954819Y-51833332D02*
X134954819Y-51214285D01*
X133359580Y-124166666D02*
X133407200Y-124214285D01*
X133407200Y-124214285D02*
X133454819Y-124357142D01*
X133454819Y-124357142D02*
X133454819Y-124452380D01*
X133454819Y-124452380D02*
X133407200Y-124595237D01*
X133407200Y-124595237D02*
X133311961Y-124690475D01*
X133311961Y-124690475D02*
X133216723Y-124738094D01*
X133216723Y-124738094D02*
X133026247Y-124785713D01*
X133026247Y-124785713D02*
X132883390Y-124785713D01*
X132883390Y-124785713D02*
X132692914Y-124738094D01*
X132692914Y-124738094D02*
X132597676Y-124690475D01*
X132597676Y-124690475D02*
X132502438Y-124595237D01*
X132502438Y-124595237D02*
X132454819Y-124452380D01*
X132454819Y-124452380D02*
X132454819Y-124357142D01*
X132454819Y-124357142D02*
X132502438Y-124214285D01*
X132502438Y-124214285D02*
X132550057Y-124166666D01*
X132550057Y-123785713D02*
X132502438Y-123738094D01*
X132502438Y-123738094D02*
X132454819Y-123642856D01*
X132454819Y-123642856D02*
X132454819Y-123404761D01*
X132454819Y-123404761D02*
X132502438Y-123309523D01*
X132502438Y-123309523D02*
X132550057Y-123261904D01*
X132550057Y-123261904D02*
X132645295Y-123214285D01*
X132645295Y-123214285D02*
X132740533Y-123214285D01*
X132740533Y-123214285D02*
X132883390Y-123261904D01*
X132883390Y-123261904D02*
X133454819Y-123833332D01*
X133454819Y-123833332D02*
X133454819Y-123214285D01*
X130833333Y-125359580D02*
X130785714Y-125407200D01*
X130785714Y-125407200D02*
X130642857Y-125454819D01*
X130642857Y-125454819D02*
X130547619Y-125454819D01*
X130547619Y-125454819D02*
X130404762Y-125407200D01*
X130404762Y-125407200D02*
X130309524Y-125311961D01*
X130309524Y-125311961D02*
X130261905Y-125216723D01*
X130261905Y-125216723D02*
X130214286Y-125026247D01*
X130214286Y-125026247D02*
X130214286Y-124883390D01*
X130214286Y-124883390D02*
X130261905Y-124692914D01*
X130261905Y-124692914D02*
X130309524Y-124597676D01*
X130309524Y-124597676D02*
X130404762Y-124502438D01*
X130404762Y-124502438D02*
X130547619Y-124454819D01*
X130547619Y-124454819D02*
X130642857Y-124454819D01*
X130642857Y-124454819D02*
X130785714Y-124502438D01*
X130785714Y-124502438D02*
X130833333Y-124550057D01*
X131309524Y-125454819D02*
X131500000Y-125454819D01*
X131500000Y-125454819D02*
X131595238Y-125407200D01*
X131595238Y-125407200D02*
X131642857Y-125359580D01*
X131642857Y-125359580D02*
X131738095Y-125216723D01*
X131738095Y-125216723D02*
X131785714Y-125026247D01*
X131785714Y-125026247D02*
X131785714Y-124645295D01*
X131785714Y-124645295D02*
X131738095Y-124550057D01*
X131738095Y-124550057D02*
X131690476Y-124502438D01*
X131690476Y-124502438D02*
X131595238Y-124454819D01*
X131595238Y-124454819D02*
X131404762Y-124454819D01*
X131404762Y-124454819D02*
X131309524Y-124502438D01*
X131309524Y-124502438D02*
X131261905Y-124550057D01*
X131261905Y-124550057D02*
X131214286Y-124645295D01*
X131214286Y-124645295D02*
X131214286Y-124883390D01*
X131214286Y-124883390D02*
X131261905Y-124978628D01*
X131261905Y-124978628D02*
X131309524Y-125026247D01*
X131309524Y-125026247D02*
X131404762Y-125073866D01*
X131404762Y-125073866D02*
X131595238Y-125073866D01*
X131595238Y-125073866D02*
X131690476Y-125026247D01*
X131690476Y-125026247D02*
X131738095Y-124978628D01*
X131738095Y-124978628D02*
X131785714Y-124883390D01*
X133166666Y-87994819D02*
X133166666Y-88709104D01*
X133166666Y-88709104D02*
X133119047Y-88851961D01*
X133119047Y-88851961D02*
X133023809Y-88947200D01*
X133023809Y-88947200D02*
X132880952Y-88994819D01*
X132880952Y-88994819D02*
X132785714Y-88994819D01*
X134071428Y-88328152D02*
X134071428Y-88994819D01*
X133833333Y-87947200D02*
X133595238Y-88661485D01*
X133595238Y-88661485D02*
X134214285Y-88661485D01*
X131904761Y-78954819D02*
X131571428Y-78478628D01*
X131333333Y-78954819D02*
X131333333Y-77954819D01*
X131333333Y-77954819D02*
X131714285Y-77954819D01*
X131714285Y-77954819D02*
X131809523Y-78002438D01*
X131809523Y-78002438D02*
X131857142Y-78050057D01*
X131857142Y-78050057D02*
X131904761Y-78145295D01*
X131904761Y-78145295D02*
X131904761Y-78288152D01*
X131904761Y-78288152D02*
X131857142Y-78383390D01*
X131857142Y-78383390D02*
X131809523Y-78431009D01*
X131809523Y-78431009D02*
X131714285Y-78478628D01*
X131714285Y-78478628D02*
X131333333Y-78478628D01*
X132190476Y-77954819D02*
X132523809Y-78954819D01*
X132523809Y-78954819D02*
X132857142Y-77954819D01*
X133619047Y-78288152D02*
X133619047Y-78954819D01*
X133380952Y-77907200D02*
X133142857Y-78621485D01*
X133142857Y-78621485D02*
X133761904Y-78621485D01*
X128954819Y-71785713D02*
X128954819Y-71214285D01*
X129954819Y-71499999D02*
X128954819Y-71499999D01*
X129954819Y-70880951D02*
X128954819Y-70880951D01*
X129431009Y-70880951D02*
X129431009Y-70309523D01*
X129954819Y-70309523D02*
X128954819Y-70309523D01*
X128954819Y-69928570D02*
X128954819Y-69309523D01*
X128954819Y-69309523D02*
X129335771Y-69642856D01*
X129335771Y-69642856D02*
X129335771Y-69499999D01*
X129335771Y-69499999D02*
X129383390Y-69404761D01*
X129383390Y-69404761D02*
X129431009Y-69357142D01*
X129431009Y-69357142D02*
X129526247Y-69309523D01*
X129526247Y-69309523D02*
X129764342Y-69309523D01*
X129764342Y-69309523D02*
X129859580Y-69357142D01*
X129859580Y-69357142D02*
X129907200Y-69404761D01*
X129907200Y-69404761D02*
X129954819Y-69499999D01*
X129954819Y-69499999D02*
X129954819Y-69785713D01*
X129954819Y-69785713D02*
X129907200Y-69880951D01*
X129907200Y-69880951D02*
X129859580Y-69928570D01*
X139857142Y-113454819D02*
X139523809Y-112978628D01*
X139285714Y-113454819D02*
X139285714Y-112454819D01*
X139285714Y-112454819D02*
X139666666Y-112454819D01*
X139666666Y-112454819D02*
X139761904Y-112502438D01*
X139761904Y-112502438D02*
X139809523Y-112550057D01*
X139809523Y-112550057D02*
X139857142Y-112645295D01*
X139857142Y-112645295D02*
X139857142Y-112788152D01*
X139857142Y-112788152D02*
X139809523Y-112883390D01*
X139809523Y-112883390D02*
X139761904Y-112931009D01*
X139761904Y-112931009D02*
X139666666Y-112978628D01*
X139666666Y-112978628D02*
X139285714Y-112978628D01*
X140809523Y-113454819D02*
X140238095Y-113454819D01*
X140523809Y-113454819D02*
X140523809Y-112454819D01*
X140523809Y-112454819D02*
X140428571Y-112597676D01*
X140428571Y-112597676D02*
X140333333Y-112692914D01*
X140333333Y-112692914D02*
X140238095Y-112740533D01*
X141666666Y-112454819D02*
X141476190Y-112454819D01*
X141476190Y-112454819D02*
X141380952Y-112502438D01*
X141380952Y-112502438D02*
X141333333Y-112550057D01*
X141333333Y-112550057D02*
X141238095Y-112692914D01*
X141238095Y-112692914D02*
X141190476Y-112883390D01*
X141190476Y-112883390D02*
X141190476Y-113264342D01*
X141190476Y-113264342D02*
X141238095Y-113359580D01*
X141238095Y-113359580D02*
X141285714Y-113407200D01*
X141285714Y-113407200D02*
X141380952Y-113454819D01*
X141380952Y-113454819D02*
X141571428Y-113454819D01*
X141571428Y-113454819D02*
X141666666Y-113407200D01*
X141666666Y-113407200D02*
X141714285Y-113359580D01*
X141714285Y-113359580D02*
X141761904Y-113264342D01*
X141761904Y-113264342D02*
X141761904Y-113026247D01*
X141761904Y-113026247D02*
X141714285Y-112931009D01*
X141714285Y-112931009D02*
X141666666Y-112883390D01*
X141666666Y-112883390D02*
X141571428Y-112835771D01*
X141571428Y-112835771D02*
X141380952Y-112835771D01*
X141380952Y-112835771D02*
X141285714Y-112883390D01*
X141285714Y-112883390D02*
X141238095Y-112931009D01*
X141238095Y-112931009D02*
X141190476Y-113026247D01*
X144954819Y-63166666D02*
X144478628Y-63499999D01*
X144954819Y-63738094D02*
X143954819Y-63738094D01*
X143954819Y-63738094D02*
X143954819Y-63357142D01*
X143954819Y-63357142D02*
X144002438Y-63261904D01*
X144002438Y-63261904D02*
X144050057Y-63214285D01*
X144050057Y-63214285D02*
X144145295Y-63166666D01*
X144145295Y-63166666D02*
X144288152Y-63166666D01*
X144288152Y-63166666D02*
X144383390Y-63214285D01*
X144383390Y-63214285D02*
X144431009Y-63261904D01*
X144431009Y-63261904D02*
X144478628Y-63357142D01*
X144478628Y-63357142D02*
X144478628Y-63738094D01*
X143954819Y-62833332D02*
X143954819Y-62166666D01*
X143954819Y-62166666D02*
X144954819Y-62595237D01*
X158110057Y-79365238D02*
X158062438Y-79460476D01*
X158062438Y-79460476D02*
X157967200Y-79555714D01*
X157967200Y-79555714D02*
X157824342Y-79698571D01*
X157824342Y-79698571D02*
X157776723Y-79793809D01*
X157776723Y-79793809D02*
X157776723Y-79889047D01*
X158014819Y-79841428D02*
X157967200Y-79936666D01*
X157967200Y-79936666D02*
X157871961Y-80031904D01*
X157871961Y-80031904D02*
X157681485Y-80079523D01*
X157681485Y-80079523D02*
X157348152Y-80079523D01*
X157348152Y-80079523D02*
X157157676Y-80031904D01*
X157157676Y-80031904D02*
X157062438Y-79936666D01*
X157062438Y-79936666D02*
X157014819Y-79841428D01*
X157014819Y-79841428D02*
X157014819Y-79650952D01*
X157014819Y-79650952D02*
X157062438Y-79555714D01*
X157062438Y-79555714D02*
X157157676Y-79460476D01*
X157157676Y-79460476D02*
X157348152Y-79412857D01*
X157348152Y-79412857D02*
X157681485Y-79412857D01*
X157681485Y-79412857D02*
X157871961Y-79460476D01*
X157871961Y-79460476D02*
X157967200Y-79555714D01*
X157967200Y-79555714D02*
X158014819Y-79650952D01*
X158014819Y-79650952D02*
X158014819Y-79841428D01*
X157110057Y-79031904D02*
X157062438Y-78984285D01*
X157062438Y-78984285D02*
X157014819Y-78889047D01*
X157014819Y-78889047D02*
X157014819Y-78650952D01*
X157014819Y-78650952D02*
X157062438Y-78555714D01*
X157062438Y-78555714D02*
X157110057Y-78508095D01*
X157110057Y-78508095D02*
X157205295Y-78460476D01*
X157205295Y-78460476D02*
X157300533Y-78460476D01*
X157300533Y-78460476D02*
X157443390Y-78508095D01*
X157443390Y-78508095D02*
X158014819Y-79079523D01*
X158014819Y-79079523D02*
X158014819Y-78460476D01*
X134859580Y-85666666D02*
X134907200Y-85714285D01*
X134907200Y-85714285D02*
X134954819Y-85857142D01*
X134954819Y-85857142D02*
X134954819Y-85952380D01*
X134954819Y-85952380D02*
X134907200Y-86095237D01*
X134907200Y-86095237D02*
X134811961Y-86190475D01*
X134811961Y-86190475D02*
X134716723Y-86238094D01*
X134716723Y-86238094D02*
X134526247Y-86285713D01*
X134526247Y-86285713D02*
X134383390Y-86285713D01*
X134383390Y-86285713D02*
X134192914Y-86238094D01*
X134192914Y-86238094D02*
X134097676Y-86190475D01*
X134097676Y-86190475D02*
X134002438Y-86095237D01*
X134002438Y-86095237D02*
X133954819Y-85952380D01*
X133954819Y-85952380D02*
X133954819Y-85857142D01*
X133954819Y-85857142D02*
X134002438Y-85714285D01*
X134002438Y-85714285D02*
X134050057Y-85666666D01*
X134954819Y-84714285D02*
X134954819Y-85285713D01*
X134954819Y-84999999D02*
X133954819Y-84999999D01*
X133954819Y-84999999D02*
X134097676Y-85095237D01*
X134097676Y-85095237D02*
X134192914Y-85190475D01*
X134192914Y-85190475D02*
X134240533Y-85285713D01*
X140738095Y-67496819D02*
X141309523Y-67496819D01*
X141023809Y-68496819D02*
X141023809Y-67496819D01*
X141642857Y-68496819D02*
X141642857Y-67496819D01*
X141642857Y-67496819D02*
X142023809Y-67496819D01*
X142023809Y-67496819D02*
X142119047Y-67544438D01*
X142119047Y-67544438D02*
X142166666Y-67592057D01*
X142166666Y-67592057D02*
X142214285Y-67687295D01*
X142214285Y-67687295D02*
X142214285Y-67830152D01*
X142214285Y-67830152D02*
X142166666Y-67925390D01*
X142166666Y-67925390D02*
X142119047Y-67973009D01*
X142119047Y-67973009D02*
X142023809Y-68020628D01*
X142023809Y-68020628D02*
X141642857Y-68020628D01*
X142595238Y-67592057D02*
X142642857Y-67544438D01*
X142642857Y-67544438D02*
X142738095Y-67496819D01*
X142738095Y-67496819D02*
X142976190Y-67496819D01*
X142976190Y-67496819D02*
X143071428Y-67544438D01*
X143071428Y-67544438D02*
X143119047Y-67592057D01*
X143119047Y-67592057D02*
X143166666Y-67687295D01*
X143166666Y-67687295D02*
X143166666Y-67782533D01*
X143166666Y-67782533D02*
X143119047Y-67925390D01*
X143119047Y-67925390D02*
X142547619Y-68496819D01*
X142547619Y-68496819D02*
X143166666Y-68496819D01*
X130833333Y-133359580D02*
X130785714Y-133407200D01*
X130785714Y-133407200D02*
X130642857Y-133454819D01*
X130642857Y-133454819D02*
X130547619Y-133454819D01*
X130547619Y-133454819D02*
X130404762Y-133407200D01*
X130404762Y-133407200D02*
X130309524Y-133311961D01*
X130309524Y-133311961D02*
X130261905Y-133216723D01*
X130261905Y-133216723D02*
X130214286Y-133026247D01*
X130214286Y-133026247D02*
X130214286Y-132883390D01*
X130214286Y-132883390D02*
X130261905Y-132692914D01*
X130261905Y-132692914D02*
X130309524Y-132597676D01*
X130309524Y-132597676D02*
X130404762Y-132502438D01*
X130404762Y-132502438D02*
X130547619Y-132454819D01*
X130547619Y-132454819D02*
X130642857Y-132454819D01*
X130642857Y-132454819D02*
X130785714Y-132502438D01*
X130785714Y-132502438D02*
X130833333Y-132550057D01*
X131166667Y-132454819D02*
X131833333Y-132454819D01*
X131833333Y-132454819D02*
X131404762Y-133454819D01*
X145454819Y-90142857D02*
X144978628Y-90476190D01*
X145454819Y-90714285D02*
X144454819Y-90714285D01*
X144454819Y-90714285D02*
X144454819Y-90333333D01*
X144454819Y-90333333D02*
X144502438Y-90238095D01*
X144502438Y-90238095D02*
X144550057Y-90190476D01*
X144550057Y-90190476D02*
X144645295Y-90142857D01*
X144645295Y-90142857D02*
X144788152Y-90142857D01*
X144788152Y-90142857D02*
X144883390Y-90190476D01*
X144883390Y-90190476D02*
X144931009Y-90238095D01*
X144931009Y-90238095D02*
X144978628Y-90333333D01*
X144978628Y-90333333D02*
X144978628Y-90714285D01*
X145454819Y-89190476D02*
X145454819Y-89761904D01*
X145454819Y-89476190D02*
X144454819Y-89476190D01*
X144454819Y-89476190D02*
X144597676Y-89571428D01*
X144597676Y-89571428D02*
X144692914Y-89666666D01*
X144692914Y-89666666D02*
X144740533Y-89761904D01*
X145454819Y-88238095D02*
X145454819Y-88809523D01*
X145454819Y-88523809D02*
X144454819Y-88523809D01*
X144454819Y-88523809D02*
X144597676Y-88619047D01*
X144597676Y-88619047D02*
X144692914Y-88714285D01*
X144692914Y-88714285D02*
X144740533Y-88809523D01*
X137333333Y-129109580D02*
X137285714Y-129157200D01*
X137285714Y-129157200D02*
X137142857Y-129204819D01*
X137142857Y-129204819D02*
X137047619Y-129204819D01*
X137047619Y-129204819D02*
X136904762Y-129157200D01*
X136904762Y-129157200D02*
X136809524Y-129061961D01*
X136809524Y-129061961D02*
X136761905Y-128966723D01*
X136761905Y-128966723D02*
X136714286Y-128776247D01*
X136714286Y-128776247D02*
X136714286Y-128633390D01*
X136714286Y-128633390D02*
X136761905Y-128442914D01*
X136761905Y-128442914D02*
X136809524Y-128347676D01*
X136809524Y-128347676D02*
X136904762Y-128252438D01*
X136904762Y-128252438D02*
X137047619Y-128204819D01*
X137047619Y-128204819D02*
X137142857Y-128204819D01*
X137142857Y-128204819D02*
X137285714Y-128252438D01*
X137285714Y-128252438D02*
X137333333Y-128300057D01*
X137666667Y-128204819D02*
X138285714Y-128204819D01*
X138285714Y-128204819D02*
X137952381Y-128585771D01*
X137952381Y-128585771D02*
X138095238Y-128585771D01*
X138095238Y-128585771D02*
X138190476Y-128633390D01*
X138190476Y-128633390D02*
X138238095Y-128681009D01*
X138238095Y-128681009D02*
X138285714Y-128776247D01*
X138285714Y-128776247D02*
X138285714Y-129014342D01*
X138285714Y-129014342D02*
X138238095Y-129109580D01*
X138238095Y-129109580D02*
X138190476Y-129157200D01*
X138190476Y-129157200D02*
X138095238Y-129204819D01*
X138095238Y-129204819D02*
X137809524Y-129204819D01*
X137809524Y-129204819D02*
X137714286Y-129157200D01*
X137714286Y-129157200D02*
X137666667Y-129109580D01*
X145454819Y-98142857D02*
X144978628Y-98476190D01*
X145454819Y-98714285D02*
X144454819Y-98714285D01*
X144454819Y-98714285D02*
X144454819Y-98333333D01*
X144454819Y-98333333D02*
X144502438Y-98238095D01*
X144502438Y-98238095D02*
X144550057Y-98190476D01*
X144550057Y-98190476D02*
X144645295Y-98142857D01*
X144645295Y-98142857D02*
X144788152Y-98142857D01*
X144788152Y-98142857D02*
X144883390Y-98190476D01*
X144883390Y-98190476D02*
X144931009Y-98238095D01*
X144931009Y-98238095D02*
X144978628Y-98333333D01*
X144978628Y-98333333D02*
X144978628Y-98714285D01*
X145454819Y-97190476D02*
X145454819Y-97761904D01*
X145454819Y-97476190D02*
X144454819Y-97476190D01*
X144454819Y-97476190D02*
X144597676Y-97571428D01*
X144597676Y-97571428D02*
X144692914Y-97666666D01*
X144692914Y-97666666D02*
X144740533Y-97761904D01*
X144788152Y-96333333D02*
X145454819Y-96333333D01*
X144407200Y-96571428D02*
X145121485Y-96809523D01*
X145121485Y-96809523D02*
X145121485Y-96190476D01*
X136904761Y-88994819D02*
X136571428Y-88518628D01*
X136333333Y-88994819D02*
X136333333Y-87994819D01*
X136333333Y-87994819D02*
X136714285Y-87994819D01*
X136714285Y-87994819D02*
X136809523Y-88042438D01*
X136809523Y-88042438D02*
X136857142Y-88090057D01*
X136857142Y-88090057D02*
X136904761Y-88185295D01*
X136904761Y-88185295D02*
X136904761Y-88328152D01*
X136904761Y-88328152D02*
X136857142Y-88423390D01*
X136857142Y-88423390D02*
X136809523Y-88471009D01*
X136809523Y-88471009D02*
X136714285Y-88518628D01*
X136714285Y-88518628D02*
X136333333Y-88518628D01*
X137190476Y-87994819D02*
X137523809Y-88994819D01*
X137523809Y-88994819D02*
X137857142Y-87994819D01*
X138666666Y-87994819D02*
X138190476Y-87994819D01*
X138190476Y-87994819D02*
X138142857Y-88471009D01*
X138142857Y-88471009D02*
X138190476Y-88423390D01*
X138190476Y-88423390D02*
X138285714Y-88375771D01*
X138285714Y-88375771D02*
X138523809Y-88375771D01*
X138523809Y-88375771D02*
X138619047Y-88423390D01*
X138619047Y-88423390D02*
X138666666Y-88471009D01*
X138666666Y-88471009D02*
X138714285Y-88566247D01*
X138714285Y-88566247D02*
X138714285Y-88804342D01*
X138714285Y-88804342D02*
X138666666Y-88899580D01*
X138666666Y-88899580D02*
X138619047Y-88947200D01*
X138619047Y-88947200D02*
X138523809Y-88994819D01*
X138523809Y-88994819D02*
X138285714Y-88994819D01*
X138285714Y-88994819D02*
X138190476Y-88947200D01*
X138190476Y-88947200D02*
X138142857Y-88899580D01*
X140738095Y-72956819D02*
X141309523Y-72956819D01*
X141023809Y-73956819D02*
X141023809Y-72956819D01*
X141642857Y-73956819D02*
X141642857Y-72956819D01*
X141642857Y-72956819D02*
X142023809Y-72956819D01*
X142023809Y-72956819D02*
X142119047Y-73004438D01*
X142119047Y-73004438D02*
X142166666Y-73052057D01*
X142166666Y-73052057D02*
X142214285Y-73147295D01*
X142214285Y-73147295D02*
X142214285Y-73290152D01*
X142214285Y-73290152D02*
X142166666Y-73385390D01*
X142166666Y-73385390D02*
X142119047Y-73433009D01*
X142119047Y-73433009D02*
X142023809Y-73480628D01*
X142023809Y-73480628D02*
X141642857Y-73480628D01*
X143071428Y-73290152D02*
X143071428Y-73956819D01*
X142833333Y-72909200D02*
X142595238Y-73623485D01*
X142595238Y-73623485D02*
X143214285Y-73623485D01*
X153666666Y-119454819D02*
X153666666Y-120169104D01*
X153666666Y-120169104D02*
X153619047Y-120311961D01*
X153619047Y-120311961D02*
X153523809Y-120407200D01*
X153523809Y-120407200D02*
X153380952Y-120454819D01*
X153380952Y-120454819D02*
X153285714Y-120454819D01*
X154571428Y-119454819D02*
X154380952Y-119454819D01*
X154380952Y-119454819D02*
X154285714Y-119502438D01*
X154285714Y-119502438D02*
X154238095Y-119550057D01*
X154238095Y-119550057D02*
X154142857Y-119692914D01*
X154142857Y-119692914D02*
X154095238Y-119883390D01*
X154095238Y-119883390D02*
X154095238Y-120264342D01*
X154095238Y-120264342D02*
X154142857Y-120359580D01*
X154142857Y-120359580D02*
X154190476Y-120407200D01*
X154190476Y-120407200D02*
X154285714Y-120454819D01*
X154285714Y-120454819D02*
X154476190Y-120454819D01*
X154476190Y-120454819D02*
X154571428Y-120407200D01*
X154571428Y-120407200D02*
X154619047Y-120359580D01*
X154619047Y-120359580D02*
X154666666Y-120264342D01*
X154666666Y-120264342D02*
X154666666Y-120026247D01*
X154666666Y-120026247D02*
X154619047Y-119931009D01*
X154619047Y-119931009D02*
X154571428Y-119883390D01*
X154571428Y-119883390D02*
X154476190Y-119835771D01*
X154476190Y-119835771D02*
X154285714Y-119835771D01*
X154285714Y-119835771D02*
X154190476Y-119883390D01*
X154190476Y-119883390D02*
X154142857Y-119931009D01*
X154142857Y-119931009D02*
X154095238Y-120026247D01*
X135857142Y-113454819D02*
X135523809Y-112978628D01*
X135285714Y-113454819D02*
X135285714Y-112454819D01*
X135285714Y-112454819D02*
X135666666Y-112454819D01*
X135666666Y-112454819D02*
X135761904Y-112502438D01*
X135761904Y-112502438D02*
X135809523Y-112550057D01*
X135809523Y-112550057D02*
X135857142Y-112645295D01*
X135857142Y-112645295D02*
X135857142Y-112788152D01*
X135857142Y-112788152D02*
X135809523Y-112883390D01*
X135809523Y-112883390D02*
X135761904Y-112931009D01*
X135761904Y-112931009D02*
X135666666Y-112978628D01*
X135666666Y-112978628D02*
X135285714Y-112978628D01*
X136809523Y-113454819D02*
X136238095Y-113454819D01*
X136523809Y-113454819D02*
X136523809Y-112454819D01*
X136523809Y-112454819D02*
X136428571Y-112597676D01*
X136428571Y-112597676D02*
X136333333Y-112692914D01*
X136333333Y-112692914D02*
X136238095Y-112740533D01*
X137142857Y-112454819D02*
X137761904Y-112454819D01*
X137761904Y-112454819D02*
X137428571Y-112835771D01*
X137428571Y-112835771D02*
X137571428Y-112835771D01*
X137571428Y-112835771D02*
X137666666Y-112883390D01*
X137666666Y-112883390D02*
X137714285Y-112931009D01*
X137714285Y-112931009D02*
X137761904Y-113026247D01*
X137761904Y-113026247D02*
X137761904Y-113264342D01*
X137761904Y-113264342D02*
X137714285Y-113359580D01*
X137714285Y-113359580D02*
X137666666Y-113407200D01*
X137666666Y-113407200D02*
X137571428Y-113454819D01*
X137571428Y-113454819D02*
X137285714Y-113454819D01*
X137285714Y-113454819D02*
X137190476Y-113407200D01*
X137190476Y-113407200D02*
X137142857Y-113359580D01*
X137166666Y-56034819D02*
X137166666Y-56749104D01*
X137166666Y-56749104D02*
X137119047Y-56891961D01*
X137119047Y-56891961D02*
X137023809Y-56987200D01*
X137023809Y-56987200D02*
X136880952Y-57034819D01*
X136880952Y-57034819D02*
X136785714Y-57034819D01*
X137595238Y-56130057D02*
X137642857Y-56082438D01*
X137642857Y-56082438D02*
X137738095Y-56034819D01*
X137738095Y-56034819D02*
X137976190Y-56034819D01*
X137976190Y-56034819D02*
X138071428Y-56082438D01*
X138071428Y-56082438D02*
X138119047Y-56130057D01*
X138119047Y-56130057D02*
X138166666Y-56225295D01*
X138166666Y-56225295D02*
X138166666Y-56320533D01*
X138166666Y-56320533D02*
X138119047Y-56463390D01*
X138119047Y-56463390D02*
X137547619Y-57034819D01*
X137547619Y-57034819D02*
X138166666Y-57034819D01*
X143857142Y-113374819D02*
X143523809Y-112898628D01*
X143285714Y-113374819D02*
X143285714Y-112374819D01*
X143285714Y-112374819D02*
X143666666Y-112374819D01*
X143666666Y-112374819D02*
X143761904Y-112422438D01*
X143761904Y-112422438D02*
X143809523Y-112470057D01*
X143809523Y-112470057D02*
X143857142Y-112565295D01*
X143857142Y-112565295D02*
X143857142Y-112708152D01*
X143857142Y-112708152D02*
X143809523Y-112803390D01*
X143809523Y-112803390D02*
X143761904Y-112851009D01*
X143761904Y-112851009D02*
X143666666Y-112898628D01*
X143666666Y-112898628D02*
X143285714Y-112898628D01*
X144809523Y-113374819D02*
X144238095Y-113374819D01*
X144523809Y-113374819D02*
X144523809Y-112374819D01*
X144523809Y-112374819D02*
X144428571Y-112517676D01*
X144428571Y-112517676D02*
X144333333Y-112612914D01*
X144333333Y-112612914D02*
X144238095Y-112660533D01*
X145142857Y-112374819D02*
X145809523Y-112374819D01*
X145809523Y-112374819D02*
X145380952Y-113374819D01*
X125548095Y-100564819D02*
X125548095Y-101374342D01*
X125548095Y-101374342D02*
X125595714Y-101469580D01*
X125595714Y-101469580D02*
X125643333Y-101517200D01*
X125643333Y-101517200D02*
X125738571Y-101564819D01*
X125738571Y-101564819D02*
X125929047Y-101564819D01*
X125929047Y-101564819D02*
X126024285Y-101517200D01*
X126024285Y-101517200D02*
X126071904Y-101469580D01*
X126071904Y-101469580D02*
X126119523Y-101374342D01*
X126119523Y-101374342D02*
X126119523Y-100564819D01*
X127119523Y-101564819D02*
X126548095Y-101564819D01*
X126833809Y-101564819D02*
X126833809Y-100564819D01*
X126833809Y-100564819D02*
X126738571Y-100707676D01*
X126738571Y-100707676D02*
X126643333Y-100802914D01*
X126643333Y-100802914D02*
X126548095Y-100850533D01*
X124210815Y-118604134D02*
X124782243Y-118604134D01*
X124496529Y-119604134D02*
X124496529Y-118604134D01*
X125591767Y-119604134D02*
X125115577Y-119604134D01*
X125115577Y-119604134D02*
X125115577Y-118604134D01*
X126115577Y-118604134D02*
X126210815Y-118604134D01*
X126210815Y-118604134D02*
X126306053Y-118651753D01*
X126306053Y-118651753D02*
X126353672Y-118699372D01*
X126353672Y-118699372D02*
X126401291Y-118794610D01*
X126401291Y-118794610D02*
X126448910Y-118985086D01*
X126448910Y-118985086D02*
X126448910Y-119223181D01*
X126448910Y-119223181D02*
X126401291Y-119413657D01*
X126401291Y-119413657D02*
X126353672Y-119508895D01*
X126353672Y-119508895D02*
X126306053Y-119556515D01*
X126306053Y-119556515D02*
X126210815Y-119604134D01*
X126210815Y-119604134D02*
X126115577Y-119604134D01*
X126115577Y-119604134D02*
X126020339Y-119556515D01*
X126020339Y-119556515D02*
X125972720Y-119508895D01*
X125972720Y-119508895D02*
X125925101Y-119413657D01*
X125925101Y-119413657D02*
X125877482Y-119223181D01*
X125877482Y-119223181D02*
X125877482Y-118985086D01*
X125877482Y-118985086D02*
X125925101Y-118794610D01*
X125925101Y-118794610D02*
X125972720Y-118699372D01*
X125972720Y-118699372D02*
X126020339Y-118651753D01*
X126020339Y-118651753D02*
X126115577Y-118604134D01*
X126782244Y-118604134D02*
X127448910Y-118604134D01*
X127448910Y-118604134D02*
X127020339Y-119604134D01*
X128258434Y-118937467D02*
X128258434Y-119604134D01*
X128020339Y-118556515D02*
X127782244Y-119270800D01*
X127782244Y-119270800D02*
X128401291Y-119270800D01*
X140904761Y-88994819D02*
X140571428Y-88518628D01*
X140333333Y-88994819D02*
X140333333Y-87994819D01*
X140333333Y-87994819D02*
X140714285Y-87994819D01*
X140714285Y-87994819D02*
X140809523Y-88042438D01*
X140809523Y-88042438D02*
X140857142Y-88090057D01*
X140857142Y-88090057D02*
X140904761Y-88185295D01*
X140904761Y-88185295D02*
X140904761Y-88328152D01*
X140904761Y-88328152D02*
X140857142Y-88423390D01*
X140857142Y-88423390D02*
X140809523Y-88471009D01*
X140809523Y-88471009D02*
X140714285Y-88518628D01*
X140714285Y-88518628D02*
X140333333Y-88518628D01*
X141190476Y-87994819D02*
X141523809Y-88994819D01*
X141523809Y-88994819D02*
X141857142Y-87994819D01*
X142619047Y-87994819D02*
X142428571Y-87994819D01*
X142428571Y-87994819D02*
X142333333Y-88042438D01*
X142333333Y-88042438D02*
X142285714Y-88090057D01*
X142285714Y-88090057D02*
X142190476Y-88232914D01*
X142190476Y-88232914D02*
X142142857Y-88423390D01*
X142142857Y-88423390D02*
X142142857Y-88804342D01*
X142142857Y-88804342D02*
X142190476Y-88899580D01*
X142190476Y-88899580D02*
X142238095Y-88947200D01*
X142238095Y-88947200D02*
X142333333Y-88994819D01*
X142333333Y-88994819D02*
X142523809Y-88994819D01*
X142523809Y-88994819D02*
X142619047Y-88947200D01*
X142619047Y-88947200D02*
X142666666Y-88899580D01*
X142666666Y-88899580D02*
X142714285Y-88804342D01*
X142714285Y-88804342D02*
X142714285Y-88566247D01*
X142714285Y-88566247D02*
X142666666Y-88471009D01*
X142666666Y-88471009D02*
X142619047Y-88423390D01*
X142619047Y-88423390D02*
X142523809Y-88375771D01*
X142523809Y-88375771D02*
X142333333Y-88375771D01*
X142333333Y-88375771D02*
X142238095Y-88423390D01*
X142238095Y-88423390D02*
X142190476Y-88471009D01*
X142190476Y-88471009D02*
X142142857Y-88566247D01*
X132454819Y-81738094D02*
X131454819Y-81738094D01*
X131454819Y-81738094D02*
X131454819Y-81499999D01*
X131454819Y-81499999D02*
X131502438Y-81357142D01*
X131502438Y-81357142D02*
X131597676Y-81261904D01*
X131597676Y-81261904D02*
X131692914Y-81214285D01*
X131692914Y-81214285D02*
X131883390Y-81166666D01*
X131883390Y-81166666D02*
X132026247Y-81166666D01*
X132026247Y-81166666D02*
X132216723Y-81214285D01*
X132216723Y-81214285D02*
X132311961Y-81261904D01*
X132311961Y-81261904D02*
X132407200Y-81357142D01*
X132407200Y-81357142D02*
X132454819Y-81499999D01*
X132454819Y-81499999D02*
X132454819Y-81738094D01*
X131454819Y-80833332D02*
X131454819Y-80214285D01*
X131454819Y-80214285D02*
X131835771Y-80547618D01*
X131835771Y-80547618D02*
X131835771Y-80404761D01*
X131835771Y-80404761D02*
X131883390Y-80309523D01*
X131883390Y-80309523D02*
X131931009Y-80261904D01*
X131931009Y-80261904D02*
X132026247Y-80214285D01*
X132026247Y-80214285D02*
X132264342Y-80214285D01*
X132264342Y-80214285D02*
X132359580Y-80261904D01*
X132359580Y-80261904D02*
X132407200Y-80309523D01*
X132407200Y-80309523D02*
X132454819Y-80404761D01*
X132454819Y-80404761D02*
X132454819Y-80690475D01*
X132454819Y-80690475D02*
X132407200Y-80785713D01*
X132407200Y-80785713D02*
X132359580Y-80833332D01*
X144954819Y-52166666D02*
X144478628Y-52499999D01*
X144954819Y-52738094D02*
X143954819Y-52738094D01*
X143954819Y-52738094D02*
X143954819Y-52357142D01*
X143954819Y-52357142D02*
X144002438Y-52261904D01*
X144002438Y-52261904D02*
X144050057Y-52214285D01*
X144050057Y-52214285D02*
X144145295Y-52166666D01*
X144145295Y-52166666D02*
X144288152Y-52166666D01*
X144288152Y-52166666D02*
X144383390Y-52214285D01*
X144383390Y-52214285D02*
X144431009Y-52261904D01*
X144431009Y-52261904D02*
X144478628Y-52357142D01*
X144478628Y-52357142D02*
X144478628Y-52738094D01*
X143954819Y-51833332D02*
X143954819Y-51214285D01*
X143954819Y-51214285D02*
X144335771Y-51547618D01*
X144335771Y-51547618D02*
X144335771Y-51404761D01*
X144335771Y-51404761D02*
X144383390Y-51309523D01*
X144383390Y-51309523D02*
X144431009Y-51261904D01*
X144431009Y-51261904D02*
X144526247Y-51214285D01*
X144526247Y-51214285D02*
X144764342Y-51214285D01*
X144764342Y-51214285D02*
X144859580Y-51261904D01*
X144859580Y-51261904D02*
X144907200Y-51309523D01*
X144907200Y-51309523D02*
X144954819Y-51404761D01*
X144954819Y-51404761D02*
X144954819Y-51690475D01*
X144954819Y-51690475D02*
X144907200Y-51785713D01*
X144907200Y-51785713D02*
X144859580Y-51833332D01*
X147857142Y-113374819D02*
X147523809Y-112898628D01*
X147285714Y-113374819D02*
X147285714Y-112374819D01*
X147285714Y-112374819D02*
X147666666Y-112374819D01*
X147666666Y-112374819D02*
X147761904Y-112422438D01*
X147761904Y-112422438D02*
X147809523Y-112470057D01*
X147809523Y-112470057D02*
X147857142Y-112565295D01*
X147857142Y-112565295D02*
X147857142Y-112708152D01*
X147857142Y-112708152D02*
X147809523Y-112803390D01*
X147809523Y-112803390D02*
X147761904Y-112851009D01*
X147761904Y-112851009D02*
X147666666Y-112898628D01*
X147666666Y-112898628D02*
X147285714Y-112898628D01*
X148809523Y-113374819D02*
X148238095Y-113374819D01*
X148523809Y-113374819D02*
X148523809Y-112374819D01*
X148523809Y-112374819D02*
X148428571Y-112517676D01*
X148428571Y-112517676D02*
X148333333Y-112612914D01*
X148333333Y-112612914D02*
X148238095Y-112660533D01*
X149714285Y-112374819D02*
X149238095Y-112374819D01*
X149238095Y-112374819D02*
X149190476Y-112851009D01*
X149190476Y-112851009D02*
X149238095Y-112803390D01*
X149238095Y-112803390D02*
X149333333Y-112755771D01*
X149333333Y-112755771D02*
X149571428Y-112755771D01*
X149571428Y-112755771D02*
X149666666Y-112803390D01*
X149666666Y-112803390D02*
X149714285Y-112851009D01*
X149714285Y-112851009D02*
X149761904Y-112946247D01*
X149761904Y-112946247D02*
X149761904Y-113184342D01*
X149761904Y-113184342D02*
X149714285Y-113279580D01*
X149714285Y-113279580D02*
X149666666Y-113327200D01*
X149666666Y-113327200D02*
X149571428Y-113374819D01*
X149571428Y-113374819D02*
X149333333Y-113374819D01*
X149333333Y-113374819D02*
X149238095Y-113327200D01*
X149238095Y-113327200D02*
X149190476Y-113279580D01*
X147576143Y-68123089D02*
X147576143Y-67551661D01*
X148576143Y-67837375D02*
X147576143Y-67837375D01*
X148576143Y-67218327D02*
X147576143Y-67218327D01*
X148052333Y-67218327D02*
X148052333Y-66646899D01*
X148576143Y-66646899D02*
X147576143Y-66646899D01*
X147909476Y-65742137D02*
X148576143Y-65742137D01*
X147528524Y-65980232D02*
X148242809Y-66218327D01*
X148242809Y-66218327D02*
X148242809Y-65599280D01*
X136238095Y-72956819D02*
X136809523Y-72956819D01*
X136523809Y-73956819D02*
X136523809Y-72956819D01*
X137142857Y-73956819D02*
X137142857Y-72956819D01*
X137142857Y-72956819D02*
X137523809Y-72956819D01*
X137523809Y-72956819D02*
X137619047Y-73004438D01*
X137619047Y-73004438D02*
X137666666Y-73052057D01*
X137666666Y-73052057D02*
X137714285Y-73147295D01*
X137714285Y-73147295D02*
X137714285Y-73290152D01*
X137714285Y-73290152D02*
X137666666Y-73385390D01*
X137666666Y-73385390D02*
X137619047Y-73433009D01*
X137619047Y-73433009D02*
X137523809Y-73480628D01*
X137523809Y-73480628D02*
X137142857Y-73480628D01*
X138047619Y-72956819D02*
X138666666Y-72956819D01*
X138666666Y-72956819D02*
X138333333Y-73337771D01*
X138333333Y-73337771D02*
X138476190Y-73337771D01*
X138476190Y-73337771D02*
X138571428Y-73385390D01*
X138571428Y-73385390D02*
X138619047Y-73433009D01*
X138619047Y-73433009D02*
X138666666Y-73528247D01*
X138666666Y-73528247D02*
X138666666Y-73766342D01*
X138666666Y-73766342D02*
X138619047Y-73861580D01*
X138619047Y-73861580D02*
X138571428Y-73909200D01*
X138571428Y-73909200D02*
X138476190Y-73956819D01*
X138476190Y-73956819D02*
X138190476Y-73956819D01*
X138190476Y-73956819D02*
X138095238Y-73909200D01*
X138095238Y-73909200D02*
X138047619Y-73861580D01*
X147574819Y-71095238D02*
X147098628Y-71428571D01*
X147574819Y-71666666D02*
X146574819Y-71666666D01*
X146574819Y-71666666D02*
X146574819Y-71285714D01*
X146574819Y-71285714D02*
X146622438Y-71190476D01*
X146622438Y-71190476D02*
X146670057Y-71142857D01*
X146670057Y-71142857D02*
X146765295Y-71095238D01*
X146765295Y-71095238D02*
X146908152Y-71095238D01*
X146908152Y-71095238D02*
X147003390Y-71142857D01*
X147003390Y-71142857D02*
X147051009Y-71190476D01*
X147051009Y-71190476D02*
X147098628Y-71285714D01*
X147098628Y-71285714D02*
X147098628Y-71666666D01*
X146574819Y-70809523D02*
X147574819Y-70476190D01*
X147574819Y-70476190D02*
X146574819Y-70142857D01*
X146574819Y-69904761D02*
X146574819Y-69285714D01*
X146574819Y-69285714D02*
X146955771Y-69619047D01*
X146955771Y-69619047D02*
X146955771Y-69476190D01*
X146955771Y-69476190D02*
X147003390Y-69380952D01*
X147003390Y-69380952D02*
X147051009Y-69333333D01*
X147051009Y-69333333D02*
X147146247Y-69285714D01*
X147146247Y-69285714D02*
X147384342Y-69285714D01*
X147384342Y-69285714D02*
X147479580Y-69333333D01*
X147479580Y-69333333D02*
X147527200Y-69380952D01*
X147527200Y-69380952D02*
X147574819Y-69476190D01*
X147574819Y-69476190D02*
X147574819Y-69761904D01*
X147574819Y-69761904D02*
X147527200Y-69857142D01*
X147527200Y-69857142D02*
X147479580Y-69904761D01*
X146490057Y-79365238D02*
X146442438Y-79460476D01*
X146442438Y-79460476D02*
X146347200Y-79555714D01*
X146347200Y-79555714D02*
X146204342Y-79698571D01*
X146204342Y-79698571D02*
X146156723Y-79793809D01*
X146156723Y-79793809D02*
X146156723Y-79889047D01*
X146394819Y-79841428D02*
X146347200Y-79936666D01*
X146347200Y-79936666D02*
X146251961Y-80031904D01*
X146251961Y-80031904D02*
X146061485Y-80079523D01*
X146061485Y-80079523D02*
X145728152Y-80079523D01*
X145728152Y-80079523D02*
X145537676Y-80031904D01*
X145537676Y-80031904D02*
X145442438Y-79936666D01*
X145442438Y-79936666D02*
X145394819Y-79841428D01*
X145394819Y-79841428D02*
X145394819Y-79650952D01*
X145394819Y-79650952D02*
X145442438Y-79555714D01*
X145442438Y-79555714D02*
X145537676Y-79460476D01*
X145537676Y-79460476D02*
X145728152Y-79412857D01*
X145728152Y-79412857D02*
X146061485Y-79412857D01*
X146061485Y-79412857D02*
X146251961Y-79460476D01*
X146251961Y-79460476D02*
X146347200Y-79555714D01*
X146347200Y-79555714D02*
X146394819Y-79650952D01*
X146394819Y-79650952D02*
X146394819Y-79841428D01*
X146394819Y-78460476D02*
X146394819Y-79031904D01*
X146394819Y-78746190D02*
X145394819Y-78746190D01*
X145394819Y-78746190D02*
X145537676Y-78841428D01*
X145537676Y-78841428D02*
X145632914Y-78936666D01*
X145632914Y-78936666D02*
X145680533Y-79031904D01*
X134954819Y-67166666D02*
X134478628Y-67499999D01*
X134954819Y-67738094D02*
X133954819Y-67738094D01*
X133954819Y-67738094D02*
X133954819Y-67357142D01*
X133954819Y-67357142D02*
X134002438Y-67261904D01*
X134002438Y-67261904D02*
X134050057Y-67214285D01*
X134050057Y-67214285D02*
X134145295Y-67166666D01*
X134145295Y-67166666D02*
X134288152Y-67166666D01*
X134288152Y-67166666D02*
X134383390Y-67214285D01*
X134383390Y-67214285D02*
X134431009Y-67261904D01*
X134431009Y-67261904D02*
X134478628Y-67357142D01*
X134478628Y-67357142D02*
X134478628Y-67738094D01*
X133954819Y-66309523D02*
X133954819Y-66499999D01*
X133954819Y-66499999D02*
X134002438Y-66595237D01*
X134002438Y-66595237D02*
X134050057Y-66642856D01*
X134050057Y-66642856D02*
X134192914Y-66738094D01*
X134192914Y-66738094D02*
X134383390Y-66785713D01*
X134383390Y-66785713D02*
X134764342Y-66785713D01*
X134764342Y-66785713D02*
X134859580Y-66738094D01*
X134859580Y-66738094D02*
X134907200Y-66690475D01*
X134907200Y-66690475D02*
X134954819Y-66595237D01*
X134954819Y-66595237D02*
X134954819Y-66404761D01*
X134954819Y-66404761D02*
X134907200Y-66309523D01*
X134907200Y-66309523D02*
X134859580Y-66261904D01*
X134859580Y-66261904D02*
X134764342Y-66214285D01*
X134764342Y-66214285D02*
X134526247Y-66214285D01*
X134526247Y-66214285D02*
X134431009Y-66261904D01*
X134431009Y-66261904D02*
X134383390Y-66309523D01*
X134383390Y-66309523D02*
X134335771Y-66404761D01*
X134335771Y-66404761D02*
X134335771Y-66595237D01*
X134335771Y-66595237D02*
X134383390Y-66690475D01*
X134383390Y-66690475D02*
X134431009Y-66738094D01*
X134431009Y-66738094D02*
X134526247Y-66785713D01*
X143984819Y-142818094D02*
X142984819Y-142818094D01*
X142984819Y-142818094D02*
X142984819Y-142579999D01*
X142984819Y-142579999D02*
X143032438Y-142437142D01*
X143032438Y-142437142D02*
X143127676Y-142341904D01*
X143127676Y-142341904D02*
X143222914Y-142294285D01*
X143222914Y-142294285D02*
X143413390Y-142246666D01*
X143413390Y-142246666D02*
X143556247Y-142246666D01*
X143556247Y-142246666D02*
X143746723Y-142294285D01*
X143746723Y-142294285D02*
X143841961Y-142341904D01*
X143841961Y-142341904D02*
X143937200Y-142437142D01*
X143937200Y-142437142D02*
X143984819Y-142579999D01*
X143984819Y-142579999D02*
X143984819Y-142818094D01*
X143080057Y-141865713D02*
X143032438Y-141818094D01*
X143032438Y-141818094D02*
X142984819Y-141722856D01*
X142984819Y-141722856D02*
X142984819Y-141484761D01*
X142984819Y-141484761D02*
X143032438Y-141389523D01*
X143032438Y-141389523D02*
X143080057Y-141341904D01*
X143080057Y-141341904D02*
X143175295Y-141294285D01*
X143175295Y-141294285D02*
X143270533Y-141294285D01*
X143270533Y-141294285D02*
X143413390Y-141341904D01*
X143413390Y-141341904D02*
X143984819Y-141913332D01*
X143984819Y-141913332D02*
X143984819Y-141294285D01*
X144354819Y-147421904D02*
X143354819Y-147421904D01*
X144354819Y-146850476D02*
X143783390Y-147279047D01*
X143354819Y-146850476D02*
X143926247Y-147421904D01*
X136238095Y-67496819D02*
X136809523Y-67496819D01*
X136523809Y-68496819D02*
X136523809Y-67496819D01*
X137142857Y-68496819D02*
X137142857Y-67496819D01*
X137142857Y-67496819D02*
X137523809Y-67496819D01*
X137523809Y-67496819D02*
X137619047Y-67544438D01*
X137619047Y-67544438D02*
X137666666Y-67592057D01*
X137666666Y-67592057D02*
X137714285Y-67687295D01*
X137714285Y-67687295D02*
X137714285Y-67830152D01*
X137714285Y-67830152D02*
X137666666Y-67925390D01*
X137666666Y-67925390D02*
X137619047Y-67973009D01*
X137619047Y-67973009D02*
X137523809Y-68020628D01*
X137523809Y-68020628D02*
X137142857Y-68020628D01*
X138666666Y-68496819D02*
X138095238Y-68496819D01*
X138380952Y-68496819D02*
X138380952Y-67496819D01*
X138380952Y-67496819D02*
X138285714Y-67639676D01*
X138285714Y-67639676D02*
X138190476Y-67734914D01*
X138190476Y-67734914D02*
X138095238Y-67782533D01*
X130833333Y-129359580D02*
X130785714Y-129407200D01*
X130785714Y-129407200D02*
X130642857Y-129454819D01*
X130642857Y-129454819D02*
X130547619Y-129454819D01*
X130547619Y-129454819D02*
X130404762Y-129407200D01*
X130404762Y-129407200D02*
X130309524Y-129311961D01*
X130309524Y-129311961D02*
X130261905Y-129216723D01*
X130261905Y-129216723D02*
X130214286Y-129026247D01*
X130214286Y-129026247D02*
X130214286Y-128883390D01*
X130214286Y-128883390D02*
X130261905Y-128692914D01*
X130261905Y-128692914D02*
X130309524Y-128597676D01*
X130309524Y-128597676D02*
X130404762Y-128502438D01*
X130404762Y-128502438D02*
X130547619Y-128454819D01*
X130547619Y-128454819D02*
X130642857Y-128454819D01*
X130642857Y-128454819D02*
X130785714Y-128502438D01*
X130785714Y-128502438D02*
X130833333Y-128550057D01*
X131404762Y-128883390D02*
X131309524Y-128835771D01*
X131309524Y-128835771D02*
X131261905Y-128788152D01*
X131261905Y-128788152D02*
X131214286Y-128692914D01*
X131214286Y-128692914D02*
X131214286Y-128645295D01*
X131214286Y-128645295D02*
X131261905Y-128550057D01*
X131261905Y-128550057D02*
X131309524Y-128502438D01*
X131309524Y-128502438D02*
X131404762Y-128454819D01*
X131404762Y-128454819D02*
X131595238Y-128454819D01*
X131595238Y-128454819D02*
X131690476Y-128502438D01*
X131690476Y-128502438D02*
X131738095Y-128550057D01*
X131738095Y-128550057D02*
X131785714Y-128645295D01*
X131785714Y-128645295D02*
X131785714Y-128692914D01*
X131785714Y-128692914D02*
X131738095Y-128788152D01*
X131738095Y-128788152D02*
X131690476Y-128835771D01*
X131690476Y-128835771D02*
X131595238Y-128883390D01*
X131595238Y-128883390D02*
X131404762Y-128883390D01*
X131404762Y-128883390D02*
X131309524Y-128931009D01*
X131309524Y-128931009D02*
X131261905Y-128978628D01*
X131261905Y-128978628D02*
X131214286Y-129073866D01*
X131214286Y-129073866D02*
X131214286Y-129264342D01*
X131214286Y-129264342D02*
X131261905Y-129359580D01*
X131261905Y-129359580D02*
X131309524Y-129407200D01*
X131309524Y-129407200D02*
X131404762Y-129454819D01*
X131404762Y-129454819D02*
X131595238Y-129454819D01*
X131595238Y-129454819D02*
X131690476Y-129407200D01*
X131690476Y-129407200D02*
X131738095Y-129359580D01*
X131738095Y-129359580D02*
X131785714Y-129264342D01*
X131785714Y-129264342D02*
X131785714Y-129073866D01*
X131785714Y-129073866D02*
X131738095Y-128978628D01*
X131738095Y-128978628D02*
X131690476Y-128931009D01*
X131690476Y-128931009D02*
X131595238Y-128883390D01*
X137235984Y-139859580D02*
X137188365Y-139907200D01*
X137188365Y-139907200D02*
X137045508Y-139954819D01*
X137045508Y-139954819D02*
X136950270Y-139954819D01*
X136950270Y-139954819D02*
X136807413Y-139907200D01*
X136807413Y-139907200D02*
X136712175Y-139811961D01*
X136712175Y-139811961D02*
X136664556Y-139716723D01*
X136664556Y-139716723D02*
X136616937Y-139526247D01*
X136616937Y-139526247D02*
X136616937Y-139383390D01*
X136616937Y-139383390D02*
X136664556Y-139192914D01*
X136664556Y-139192914D02*
X136712175Y-139097676D01*
X136712175Y-139097676D02*
X136807413Y-139002438D01*
X136807413Y-139002438D02*
X136950270Y-138954819D01*
X136950270Y-138954819D02*
X137045508Y-138954819D01*
X137045508Y-138954819D02*
X137188365Y-139002438D01*
X137188365Y-139002438D02*
X137235984Y-139050057D01*
X138093127Y-139288152D02*
X138093127Y-139954819D01*
X137855032Y-138907200D02*
X137616937Y-139621485D01*
X137616937Y-139621485D02*
X138235984Y-139621485D01*
X134954819Y-60166666D02*
X134478628Y-60499999D01*
X134954819Y-60738094D02*
X133954819Y-60738094D01*
X133954819Y-60738094D02*
X133954819Y-60357142D01*
X133954819Y-60357142D02*
X134002438Y-60261904D01*
X134002438Y-60261904D02*
X134050057Y-60214285D01*
X134050057Y-60214285D02*
X134145295Y-60166666D01*
X134145295Y-60166666D02*
X134288152Y-60166666D01*
X134288152Y-60166666D02*
X134383390Y-60214285D01*
X134383390Y-60214285D02*
X134431009Y-60261904D01*
X134431009Y-60261904D02*
X134478628Y-60357142D01*
X134478628Y-60357142D02*
X134478628Y-60738094D01*
X134954819Y-59214285D02*
X134954819Y-59785713D01*
X134954819Y-59499999D02*
X133954819Y-59499999D01*
X133954819Y-59499999D02*
X134097676Y-59595237D01*
X134097676Y-59595237D02*
X134192914Y-59690475D01*
X134192914Y-59690475D02*
X134240533Y-59785713D01*
X147391912Y-61103515D02*
X147391912Y-60532087D01*
X148391912Y-60817801D02*
X147391912Y-60817801D01*
X148391912Y-60198753D02*
X147391912Y-60198753D01*
X147868102Y-60198753D02*
X147868102Y-59627325D01*
X148391912Y-59627325D02*
X147391912Y-59627325D01*
X147487150Y-59198753D02*
X147439531Y-59151134D01*
X147439531Y-59151134D02*
X147391912Y-59055896D01*
X147391912Y-59055896D02*
X147391912Y-58817801D01*
X147391912Y-58817801D02*
X147439531Y-58722563D01*
X147439531Y-58722563D02*
X147487150Y-58674944D01*
X147487150Y-58674944D02*
X147582388Y-58627325D01*
X147582388Y-58627325D02*
X147677626Y-58627325D01*
X147677626Y-58627325D02*
X147820483Y-58674944D01*
X147820483Y-58674944D02*
X148391912Y-59246372D01*
X148391912Y-59246372D02*
X148391912Y-58627325D01*
X136904761Y-45534819D02*
X136571428Y-45058628D01*
X136333333Y-45534819D02*
X136333333Y-44534819D01*
X136333333Y-44534819D02*
X136714285Y-44534819D01*
X136714285Y-44534819D02*
X136809523Y-44582438D01*
X136809523Y-44582438D02*
X136857142Y-44630057D01*
X136857142Y-44630057D02*
X136904761Y-44725295D01*
X136904761Y-44725295D02*
X136904761Y-44868152D01*
X136904761Y-44868152D02*
X136857142Y-44963390D01*
X136857142Y-44963390D02*
X136809523Y-45011009D01*
X136809523Y-45011009D02*
X136714285Y-45058628D01*
X136714285Y-45058628D02*
X136333333Y-45058628D01*
X137190476Y-44534819D02*
X137523809Y-45534819D01*
X137523809Y-45534819D02*
X137857142Y-44534819D01*
X138714285Y-45534819D02*
X138142857Y-45534819D01*
X138428571Y-45534819D02*
X138428571Y-44534819D01*
X138428571Y-44534819D02*
X138333333Y-44677676D01*
X138333333Y-44677676D02*
X138238095Y-44772914D01*
X138238095Y-44772914D02*
X138142857Y-44820533D01*
X141166666Y-56074819D02*
X141166666Y-56789104D01*
X141166666Y-56789104D02*
X141119047Y-56931961D01*
X141119047Y-56931961D02*
X141023809Y-57027200D01*
X141023809Y-57027200D02*
X140880952Y-57074819D01*
X140880952Y-57074819D02*
X140785714Y-57074819D01*
X141547619Y-56074819D02*
X142166666Y-56074819D01*
X142166666Y-56074819D02*
X141833333Y-56455771D01*
X141833333Y-56455771D02*
X141976190Y-56455771D01*
X141976190Y-56455771D02*
X142071428Y-56503390D01*
X142071428Y-56503390D02*
X142119047Y-56551009D01*
X142119047Y-56551009D02*
X142166666Y-56646247D01*
X142166666Y-56646247D02*
X142166666Y-56884342D01*
X142166666Y-56884342D02*
X142119047Y-56979580D01*
X142119047Y-56979580D02*
X142071428Y-57027200D01*
X142071428Y-57027200D02*
X141976190Y-57074819D01*
X141976190Y-57074819D02*
X141690476Y-57074819D01*
X141690476Y-57074819D02*
X141595238Y-57027200D01*
X141595238Y-57027200D02*
X141547619Y-56979580D01*
X145114819Y-56166666D02*
X144638628Y-56499999D01*
X145114819Y-56738094D02*
X144114819Y-56738094D01*
X144114819Y-56738094D02*
X144114819Y-56357142D01*
X144114819Y-56357142D02*
X144162438Y-56261904D01*
X144162438Y-56261904D02*
X144210057Y-56214285D01*
X144210057Y-56214285D02*
X144305295Y-56166666D01*
X144305295Y-56166666D02*
X144448152Y-56166666D01*
X144448152Y-56166666D02*
X144543390Y-56214285D01*
X144543390Y-56214285D02*
X144591009Y-56261904D01*
X144591009Y-56261904D02*
X144638628Y-56357142D01*
X144638628Y-56357142D02*
X144638628Y-56738094D01*
X144114819Y-55261904D02*
X144114819Y-55738094D01*
X144114819Y-55738094D02*
X144591009Y-55785713D01*
X144591009Y-55785713D02*
X144543390Y-55738094D01*
X144543390Y-55738094D02*
X144495771Y-55642856D01*
X144495771Y-55642856D02*
X144495771Y-55404761D01*
X144495771Y-55404761D02*
X144543390Y-55309523D01*
X144543390Y-55309523D02*
X144591009Y-55261904D01*
X144591009Y-55261904D02*
X144686247Y-55214285D01*
X144686247Y-55214285D02*
X144924342Y-55214285D01*
X144924342Y-55214285D02*
X145019580Y-55261904D01*
X145019580Y-55261904D02*
X145067200Y-55309523D01*
X145067200Y-55309523D02*
X145114819Y-55404761D01*
X145114819Y-55404761D02*
X145114819Y-55642856D01*
X145114819Y-55642856D02*
X145067200Y-55738094D01*
X145067200Y-55738094D02*
X145019580Y-55785713D01*
X130833333Y-137359580D02*
X130785714Y-137407200D01*
X130785714Y-137407200D02*
X130642857Y-137454819D01*
X130642857Y-137454819D02*
X130547619Y-137454819D01*
X130547619Y-137454819D02*
X130404762Y-137407200D01*
X130404762Y-137407200D02*
X130309524Y-137311961D01*
X130309524Y-137311961D02*
X130261905Y-137216723D01*
X130261905Y-137216723D02*
X130214286Y-137026247D01*
X130214286Y-137026247D02*
X130214286Y-136883390D01*
X130214286Y-136883390D02*
X130261905Y-136692914D01*
X130261905Y-136692914D02*
X130309524Y-136597676D01*
X130309524Y-136597676D02*
X130404762Y-136502438D01*
X130404762Y-136502438D02*
X130547619Y-136454819D01*
X130547619Y-136454819D02*
X130642857Y-136454819D01*
X130642857Y-136454819D02*
X130785714Y-136502438D01*
X130785714Y-136502438D02*
X130833333Y-136550057D01*
X131690476Y-136454819D02*
X131500000Y-136454819D01*
X131500000Y-136454819D02*
X131404762Y-136502438D01*
X131404762Y-136502438D02*
X131357143Y-136550057D01*
X131357143Y-136550057D02*
X131261905Y-136692914D01*
X131261905Y-136692914D02*
X131214286Y-136883390D01*
X131214286Y-136883390D02*
X131214286Y-137264342D01*
X131214286Y-137264342D02*
X131261905Y-137359580D01*
X131261905Y-137359580D02*
X131309524Y-137407200D01*
X131309524Y-137407200D02*
X131404762Y-137454819D01*
X131404762Y-137454819D02*
X131595238Y-137454819D01*
X131595238Y-137454819D02*
X131690476Y-137407200D01*
X131690476Y-137407200D02*
X131738095Y-137359580D01*
X131738095Y-137359580D02*
X131785714Y-137264342D01*
X131785714Y-137264342D02*
X131785714Y-137026247D01*
X131785714Y-137026247D02*
X131738095Y-136931009D01*
X131738095Y-136931009D02*
X131690476Y-136883390D01*
X131690476Y-136883390D02*
X131595238Y-136835771D01*
X131595238Y-136835771D02*
X131404762Y-136835771D01*
X131404762Y-136835771D02*
X131309524Y-136883390D01*
X131309524Y-136883390D02*
X131261905Y-136931009D01*
X131261905Y-136931009D02*
X131214286Y-137026247D01*
X145454819Y-86142857D02*
X144978628Y-86476190D01*
X145454819Y-86714285D02*
X144454819Y-86714285D01*
X144454819Y-86714285D02*
X144454819Y-86333333D01*
X144454819Y-86333333D02*
X144502438Y-86238095D01*
X144502438Y-86238095D02*
X144550057Y-86190476D01*
X144550057Y-86190476D02*
X144645295Y-86142857D01*
X144645295Y-86142857D02*
X144788152Y-86142857D01*
X144788152Y-86142857D02*
X144883390Y-86190476D01*
X144883390Y-86190476D02*
X144931009Y-86238095D01*
X144931009Y-86238095D02*
X144978628Y-86333333D01*
X144978628Y-86333333D02*
X144978628Y-86714285D01*
X145454819Y-85190476D02*
X145454819Y-85761904D01*
X145454819Y-85476190D02*
X144454819Y-85476190D01*
X144454819Y-85476190D02*
X144597676Y-85571428D01*
X144597676Y-85571428D02*
X144692914Y-85666666D01*
X144692914Y-85666666D02*
X144740533Y-85761904D01*
X144454819Y-84571428D02*
X144454819Y-84476190D01*
X144454819Y-84476190D02*
X144502438Y-84380952D01*
X144502438Y-84380952D02*
X144550057Y-84333333D01*
X144550057Y-84333333D02*
X144645295Y-84285714D01*
X144645295Y-84285714D02*
X144835771Y-84238095D01*
X144835771Y-84238095D02*
X145073866Y-84238095D01*
X145073866Y-84238095D02*
X145264342Y-84285714D01*
X145264342Y-84285714D02*
X145359580Y-84333333D01*
X145359580Y-84333333D02*
X145407200Y-84380952D01*
X145407200Y-84380952D02*
X145454819Y-84476190D01*
X145454819Y-84476190D02*
X145454819Y-84571428D01*
X145454819Y-84571428D02*
X145407200Y-84666666D01*
X145407200Y-84666666D02*
X145359580Y-84714285D01*
X145359580Y-84714285D02*
X145264342Y-84761904D01*
X145264342Y-84761904D02*
X145073866Y-84809523D01*
X145073866Y-84809523D02*
X144835771Y-84809523D01*
X144835771Y-84809523D02*
X144645295Y-84761904D01*
X144645295Y-84761904D02*
X144550057Y-84714285D01*
X144550057Y-84714285D02*
X144502438Y-84666666D01*
X144502438Y-84666666D02*
X144454819Y-84571428D01*
X143666666Y-119454819D02*
X143666666Y-120169104D01*
X143666666Y-120169104D02*
X143619047Y-120311961D01*
X143619047Y-120311961D02*
X143523809Y-120407200D01*
X143523809Y-120407200D02*
X143380952Y-120454819D01*
X143380952Y-120454819D02*
X143285714Y-120454819D01*
X144619047Y-119454819D02*
X144142857Y-119454819D01*
X144142857Y-119454819D02*
X144095238Y-119931009D01*
X144095238Y-119931009D02*
X144142857Y-119883390D01*
X144142857Y-119883390D02*
X144238095Y-119835771D01*
X144238095Y-119835771D02*
X144476190Y-119835771D01*
X144476190Y-119835771D02*
X144571428Y-119883390D01*
X144571428Y-119883390D02*
X144619047Y-119931009D01*
X144619047Y-119931009D02*
X144666666Y-120026247D01*
X144666666Y-120026247D02*
X144666666Y-120264342D01*
X144666666Y-120264342D02*
X144619047Y-120359580D01*
X144619047Y-120359580D02*
X144571428Y-120407200D01*
X144571428Y-120407200D02*
X144476190Y-120454819D01*
X144476190Y-120454819D02*
X144238095Y-120454819D01*
X144238095Y-120454819D02*
X144142857Y-120407200D01*
X144142857Y-120407200D02*
X144095238Y-120359580D01*
X145454819Y-94142857D02*
X144978628Y-94476190D01*
X145454819Y-94714285D02*
X144454819Y-94714285D01*
X144454819Y-94714285D02*
X144454819Y-94333333D01*
X144454819Y-94333333D02*
X144502438Y-94238095D01*
X144502438Y-94238095D02*
X144550057Y-94190476D01*
X144550057Y-94190476D02*
X144645295Y-94142857D01*
X144645295Y-94142857D02*
X144788152Y-94142857D01*
X144788152Y-94142857D02*
X144883390Y-94190476D01*
X144883390Y-94190476D02*
X144931009Y-94238095D01*
X144931009Y-94238095D02*
X144978628Y-94333333D01*
X144978628Y-94333333D02*
X144978628Y-94714285D01*
X145454819Y-93190476D02*
X145454819Y-93761904D01*
X145454819Y-93476190D02*
X144454819Y-93476190D01*
X144454819Y-93476190D02*
X144597676Y-93571428D01*
X144597676Y-93571428D02*
X144692914Y-93666666D01*
X144692914Y-93666666D02*
X144740533Y-93761904D01*
X144550057Y-92809523D02*
X144502438Y-92761904D01*
X144502438Y-92761904D02*
X144454819Y-92666666D01*
X144454819Y-92666666D02*
X144454819Y-92428571D01*
X144454819Y-92428571D02*
X144502438Y-92333333D01*
X144502438Y-92333333D02*
X144550057Y-92285714D01*
X144550057Y-92285714D02*
X144645295Y-92238095D01*
X144645295Y-92238095D02*
X144740533Y-92238095D01*
X144740533Y-92238095D02*
X144883390Y-92285714D01*
X144883390Y-92285714D02*
X145454819Y-92857142D01*
X145454819Y-92857142D02*
X145454819Y-92238095D01*
X134954819Y-56166666D02*
X134478628Y-56499999D01*
X134954819Y-56738094D02*
X133954819Y-56738094D01*
X133954819Y-56738094D02*
X133954819Y-56357142D01*
X133954819Y-56357142D02*
X134002438Y-56261904D01*
X134002438Y-56261904D02*
X134050057Y-56214285D01*
X134050057Y-56214285D02*
X134145295Y-56166666D01*
X134145295Y-56166666D02*
X134288152Y-56166666D01*
X134288152Y-56166666D02*
X134383390Y-56214285D01*
X134383390Y-56214285D02*
X134431009Y-56261904D01*
X134431009Y-56261904D02*
X134478628Y-56357142D01*
X134478628Y-56357142D02*
X134478628Y-56738094D01*
X134288152Y-55309523D02*
X134954819Y-55309523D01*
X133907200Y-55547618D02*
X134621485Y-55785713D01*
X134621485Y-55785713D02*
X134621485Y-55166666D01*
X151857142Y-113454819D02*
X151523809Y-112978628D01*
X151285714Y-113454819D02*
X151285714Y-112454819D01*
X151285714Y-112454819D02*
X151666666Y-112454819D01*
X151666666Y-112454819D02*
X151761904Y-112502438D01*
X151761904Y-112502438D02*
X151809523Y-112550057D01*
X151809523Y-112550057D02*
X151857142Y-112645295D01*
X151857142Y-112645295D02*
X151857142Y-112788152D01*
X151857142Y-112788152D02*
X151809523Y-112883390D01*
X151809523Y-112883390D02*
X151761904Y-112931009D01*
X151761904Y-112931009D02*
X151666666Y-112978628D01*
X151666666Y-112978628D02*
X151285714Y-112978628D01*
X152809523Y-113454819D02*
X152238095Y-113454819D01*
X152523809Y-113454819D02*
X152523809Y-112454819D01*
X152523809Y-112454819D02*
X152428571Y-112597676D01*
X152428571Y-112597676D02*
X152333333Y-112692914D01*
X152333333Y-112692914D02*
X152238095Y-112740533D01*
X153285714Y-113454819D02*
X153476190Y-113454819D01*
X153476190Y-113454819D02*
X153571428Y-113407200D01*
X153571428Y-113407200D02*
X153619047Y-113359580D01*
X153619047Y-113359580D02*
X153714285Y-113216723D01*
X153714285Y-113216723D02*
X153761904Y-113026247D01*
X153761904Y-113026247D02*
X153761904Y-112645295D01*
X153761904Y-112645295D02*
X153714285Y-112550057D01*
X153714285Y-112550057D02*
X153666666Y-112502438D01*
X153666666Y-112502438D02*
X153571428Y-112454819D01*
X153571428Y-112454819D02*
X153380952Y-112454819D01*
X153380952Y-112454819D02*
X153285714Y-112502438D01*
X153285714Y-112502438D02*
X153238095Y-112550057D01*
X153238095Y-112550057D02*
X153190476Y-112645295D01*
X153190476Y-112645295D02*
X153190476Y-112883390D01*
X153190476Y-112883390D02*
X153238095Y-112978628D01*
X153238095Y-112978628D02*
X153285714Y-113026247D01*
X153285714Y-113026247D02*
X153380952Y-113073866D01*
X153380952Y-113073866D02*
X153571428Y-113073866D01*
X153571428Y-113073866D02*
X153666666Y-113026247D01*
X153666666Y-113026247D02*
X153714285Y-112978628D01*
X153714285Y-112978628D02*
X153761904Y-112883390D01*
X130833333Y-141359580D02*
X130785714Y-141407200D01*
X130785714Y-141407200D02*
X130642857Y-141454819D01*
X130642857Y-141454819D02*
X130547619Y-141454819D01*
X130547619Y-141454819D02*
X130404762Y-141407200D01*
X130404762Y-141407200D02*
X130309524Y-141311961D01*
X130309524Y-141311961D02*
X130261905Y-141216723D01*
X130261905Y-141216723D02*
X130214286Y-141026247D01*
X130214286Y-141026247D02*
X130214286Y-140883390D01*
X130214286Y-140883390D02*
X130261905Y-140692914D01*
X130261905Y-140692914D02*
X130309524Y-140597676D01*
X130309524Y-140597676D02*
X130404762Y-140502438D01*
X130404762Y-140502438D02*
X130547619Y-140454819D01*
X130547619Y-140454819D02*
X130642857Y-140454819D01*
X130642857Y-140454819D02*
X130785714Y-140502438D01*
X130785714Y-140502438D02*
X130833333Y-140550057D01*
X131738095Y-140454819D02*
X131261905Y-140454819D01*
X131261905Y-140454819D02*
X131214286Y-140931009D01*
X131214286Y-140931009D02*
X131261905Y-140883390D01*
X131261905Y-140883390D02*
X131357143Y-140835771D01*
X131357143Y-140835771D02*
X131595238Y-140835771D01*
X131595238Y-140835771D02*
X131690476Y-140883390D01*
X131690476Y-140883390D02*
X131738095Y-140931009D01*
X131738095Y-140931009D02*
X131785714Y-141026247D01*
X131785714Y-141026247D02*
X131785714Y-141264342D01*
X131785714Y-141264342D02*
X131738095Y-141359580D01*
X131738095Y-141359580D02*
X131690476Y-141407200D01*
X131690476Y-141407200D02*
X131595238Y-141454819D01*
X131595238Y-141454819D02*
X131357143Y-141454819D01*
X131357143Y-141454819D02*
X131261905Y-141407200D01*
X131261905Y-141407200D02*
X131214286Y-141359580D01*
X143984819Y-128158094D02*
X142984819Y-128158094D01*
X142984819Y-128158094D02*
X142984819Y-127919999D01*
X142984819Y-127919999D02*
X143032438Y-127777142D01*
X143032438Y-127777142D02*
X143127676Y-127681904D01*
X143127676Y-127681904D02*
X143222914Y-127634285D01*
X143222914Y-127634285D02*
X143413390Y-127586666D01*
X143413390Y-127586666D02*
X143556247Y-127586666D01*
X143556247Y-127586666D02*
X143746723Y-127634285D01*
X143746723Y-127634285D02*
X143841961Y-127681904D01*
X143841961Y-127681904D02*
X143937200Y-127777142D01*
X143937200Y-127777142D02*
X143984819Y-127919999D01*
X143984819Y-127919999D02*
X143984819Y-128158094D01*
X143984819Y-126634285D02*
X143984819Y-127205713D01*
X143984819Y-126919999D02*
X142984819Y-126919999D01*
X142984819Y-126919999D02*
X143127676Y-127015237D01*
X143127676Y-127015237D02*
X143222914Y-127110475D01*
X143222914Y-127110475D02*
X143270533Y-127205713D01*
X144354819Y-132761904D02*
X143354819Y-132761904D01*
X144354819Y-132190476D02*
X143783390Y-132619047D01*
X143354819Y-132190476D02*
X143926247Y-132761904D01*
X131738095Y-82954819D02*
X131738095Y-83764342D01*
X131738095Y-83764342D02*
X131785714Y-83859580D01*
X131785714Y-83859580D02*
X131833333Y-83907200D01*
X131833333Y-83907200D02*
X131928571Y-83954819D01*
X131928571Y-83954819D02*
X132119047Y-83954819D01*
X132119047Y-83954819D02*
X132214285Y-83907200D01*
X132214285Y-83907200D02*
X132261904Y-83859580D01*
X132261904Y-83859580D02*
X132309523Y-83764342D01*
X132309523Y-83764342D02*
X132309523Y-82954819D01*
X132738095Y-83050057D02*
X132785714Y-83002438D01*
X132785714Y-83002438D02*
X132880952Y-82954819D01*
X132880952Y-82954819D02*
X133119047Y-82954819D01*
X133119047Y-82954819D02*
X133214285Y-83002438D01*
X133214285Y-83002438D02*
X133261904Y-83050057D01*
X133261904Y-83050057D02*
X133309523Y-83145295D01*
X133309523Y-83145295D02*
X133309523Y-83240533D01*
X133309523Y-83240533D02*
X133261904Y-83383390D01*
X133261904Y-83383390D02*
X132690476Y-83954819D01*
X132690476Y-83954819D02*
X133309523Y-83954819D01*
X124576136Y-98975023D02*
X124576136Y-99641690D01*
X124338041Y-98594071D02*
X124099946Y-99308356D01*
X124099946Y-99308356D02*
X124718993Y-99308356D01*
X125290422Y-98641690D02*
X125385660Y-98641690D01*
X125385660Y-98641690D02*
X125480898Y-98689309D01*
X125480898Y-98689309D02*
X125528517Y-98736928D01*
X125528517Y-98736928D02*
X125576136Y-98832166D01*
X125576136Y-98832166D02*
X125623755Y-99022642D01*
X125623755Y-99022642D02*
X125623755Y-99260737D01*
X125623755Y-99260737D02*
X125576136Y-99451213D01*
X125576136Y-99451213D02*
X125528517Y-99546451D01*
X125528517Y-99546451D02*
X125480898Y-99594071D01*
X125480898Y-99594071D02*
X125385660Y-99641690D01*
X125385660Y-99641690D02*
X125290422Y-99641690D01*
X125290422Y-99641690D02*
X125195184Y-99594071D01*
X125195184Y-99594071D02*
X125147565Y-99546451D01*
X125147565Y-99546451D02*
X125099946Y-99451213D01*
X125099946Y-99451213D02*
X125052327Y-99260737D01*
X125052327Y-99260737D02*
X125052327Y-99022642D01*
X125052327Y-99022642D02*
X125099946Y-98832166D01*
X125099946Y-98832166D02*
X125147565Y-98736928D01*
X125147565Y-98736928D02*
X125195184Y-98689309D01*
X125195184Y-98689309D02*
X125290422Y-98641690D01*
X126576136Y-99641690D02*
X126004708Y-99641690D01*
X126290422Y-99641690D02*
X126290422Y-98641690D01*
X126290422Y-98641690D02*
X126195184Y-98784547D01*
X126195184Y-98784547D02*
X126099946Y-98879785D01*
X126099946Y-98879785D02*
X126004708Y-98927404D01*
X127195184Y-98641690D02*
X127290422Y-98641690D01*
X127290422Y-98641690D02*
X127385660Y-98689309D01*
X127385660Y-98689309D02*
X127433279Y-98736928D01*
X127433279Y-98736928D02*
X127480898Y-98832166D01*
X127480898Y-98832166D02*
X127528517Y-99022642D01*
X127528517Y-99022642D02*
X127528517Y-99260737D01*
X127528517Y-99260737D02*
X127480898Y-99451213D01*
X127480898Y-99451213D02*
X127433279Y-99546451D01*
X127433279Y-99546451D02*
X127385660Y-99594071D01*
X127385660Y-99594071D02*
X127290422Y-99641690D01*
X127290422Y-99641690D02*
X127195184Y-99641690D01*
X127195184Y-99641690D02*
X127099946Y-99594071D01*
X127099946Y-99594071D02*
X127052327Y-99546451D01*
X127052327Y-99546451D02*
X127004708Y-99451213D01*
X127004708Y-99451213D02*
X126957089Y-99260737D01*
X126957089Y-99260737D02*
X126957089Y-99022642D01*
X126957089Y-99022642D02*
X127004708Y-98832166D01*
X127004708Y-98832166D02*
X127052327Y-98736928D01*
X127052327Y-98736928D02*
X127099946Y-98689309D01*
X127099946Y-98689309D02*
X127195184Y-98641690D01*
X128385660Y-98641690D02*
X128195184Y-98641690D01*
X128195184Y-98641690D02*
X128099946Y-98689309D01*
X128099946Y-98689309D02*
X128052327Y-98736928D01*
X128052327Y-98736928D02*
X127957089Y-98879785D01*
X127957089Y-98879785D02*
X127909470Y-99070261D01*
X127909470Y-99070261D02*
X127909470Y-99451213D01*
X127909470Y-99451213D02*
X127957089Y-99546451D01*
X127957089Y-99546451D02*
X128004708Y-99594071D01*
X128004708Y-99594071D02*
X128099946Y-99641690D01*
X128099946Y-99641690D02*
X128290422Y-99641690D01*
X128290422Y-99641690D02*
X128385660Y-99594071D01*
X128385660Y-99594071D02*
X128433279Y-99546451D01*
X128433279Y-99546451D02*
X128480898Y-99451213D01*
X128480898Y-99451213D02*
X128480898Y-99213118D01*
X128480898Y-99213118D02*
X128433279Y-99117880D01*
X128433279Y-99117880D02*
X128385660Y-99070261D01*
X128385660Y-99070261D02*
X128290422Y-99022642D01*
X128290422Y-99022642D02*
X128099946Y-99022642D01*
X128099946Y-99022642D02*
X128004708Y-99070261D01*
X128004708Y-99070261D02*
X127957089Y-99117880D01*
X127957089Y-99117880D02*
X127909470Y-99213118D01*
X155907142Y-113504819D02*
X155573809Y-113028628D01*
X155335714Y-113504819D02*
X155335714Y-112504819D01*
X155335714Y-112504819D02*
X155716666Y-112504819D01*
X155716666Y-112504819D02*
X155811904Y-112552438D01*
X155811904Y-112552438D02*
X155859523Y-112600057D01*
X155859523Y-112600057D02*
X155907142Y-112695295D01*
X155907142Y-112695295D02*
X155907142Y-112838152D01*
X155907142Y-112838152D02*
X155859523Y-112933390D01*
X155859523Y-112933390D02*
X155811904Y-112981009D01*
X155811904Y-112981009D02*
X155716666Y-113028628D01*
X155716666Y-113028628D02*
X155335714Y-113028628D01*
X156859523Y-113504819D02*
X156288095Y-113504819D01*
X156573809Y-113504819D02*
X156573809Y-112504819D01*
X156573809Y-112504819D02*
X156478571Y-112647676D01*
X156478571Y-112647676D02*
X156383333Y-112742914D01*
X156383333Y-112742914D02*
X156288095Y-112790533D01*
X157430952Y-112933390D02*
X157335714Y-112885771D01*
X157335714Y-112885771D02*
X157288095Y-112838152D01*
X157288095Y-112838152D02*
X157240476Y-112742914D01*
X157240476Y-112742914D02*
X157240476Y-112695295D01*
X157240476Y-112695295D02*
X157288095Y-112600057D01*
X157288095Y-112600057D02*
X157335714Y-112552438D01*
X157335714Y-112552438D02*
X157430952Y-112504819D01*
X157430952Y-112504819D02*
X157621428Y-112504819D01*
X157621428Y-112504819D02*
X157716666Y-112552438D01*
X157716666Y-112552438D02*
X157764285Y-112600057D01*
X157764285Y-112600057D02*
X157811904Y-112695295D01*
X157811904Y-112695295D02*
X157811904Y-112742914D01*
X157811904Y-112742914D02*
X157764285Y-112838152D01*
X157764285Y-112838152D02*
X157716666Y-112885771D01*
X157716666Y-112885771D02*
X157621428Y-112933390D01*
X157621428Y-112933390D02*
X157430952Y-112933390D01*
X157430952Y-112933390D02*
X157335714Y-112981009D01*
X157335714Y-112981009D02*
X157288095Y-113028628D01*
X157288095Y-113028628D02*
X157240476Y-113123866D01*
X157240476Y-113123866D02*
X157240476Y-113314342D01*
X157240476Y-113314342D02*
X157288095Y-113409580D01*
X157288095Y-113409580D02*
X157335714Y-113457200D01*
X157335714Y-113457200D02*
X157430952Y-113504819D01*
X157430952Y-113504819D02*
X157621428Y-113504819D01*
X157621428Y-113504819D02*
X157716666Y-113457200D01*
X157716666Y-113457200D02*
X157764285Y-113409580D01*
X157764285Y-113409580D02*
X157811904Y-113314342D01*
X157811904Y-113314342D02*
X157811904Y-113123866D01*
X157811904Y-113123866D02*
X157764285Y-113028628D01*
X157764285Y-113028628D02*
X157716666Y-112981009D01*
X157716666Y-112981009D02*
X157621428Y-112933390D01*
X140904761Y-45494819D02*
X140571428Y-45018628D01*
X140333333Y-45494819D02*
X140333333Y-44494819D01*
X140333333Y-44494819D02*
X140714285Y-44494819D01*
X140714285Y-44494819D02*
X140809523Y-44542438D01*
X140809523Y-44542438D02*
X140857142Y-44590057D01*
X140857142Y-44590057D02*
X140904761Y-44685295D01*
X140904761Y-44685295D02*
X140904761Y-44828152D01*
X140904761Y-44828152D02*
X140857142Y-44923390D01*
X140857142Y-44923390D02*
X140809523Y-44971009D01*
X140809523Y-44971009D02*
X140714285Y-45018628D01*
X140714285Y-45018628D02*
X140333333Y-45018628D01*
X141190476Y-44494819D02*
X141523809Y-45494819D01*
X141523809Y-45494819D02*
X141857142Y-44494819D01*
X142142857Y-44590057D02*
X142190476Y-44542438D01*
X142190476Y-44542438D02*
X142285714Y-44494819D01*
X142285714Y-44494819D02*
X142523809Y-44494819D01*
X142523809Y-44494819D02*
X142619047Y-44542438D01*
X142619047Y-44542438D02*
X142666666Y-44590057D01*
X142666666Y-44590057D02*
X142714285Y-44685295D01*
X142714285Y-44685295D02*
X142714285Y-44780533D01*
X142714285Y-44780533D02*
X142666666Y-44923390D01*
X142666666Y-44923390D02*
X142095238Y-45494819D01*
X142095238Y-45494819D02*
X142714285Y-45494819D01*
X135114819Y-74166666D02*
X134638628Y-74499999D01*
X135114819Y-74738094D02*
X134114819Y-74738094D01*
X134114819Y-74738094D02*
X134114819Y-74357142D01*
X134114819Y-74357142D02*
X134162438Y-74261904D01*
X134162438Y-74261904D02*
X134210057Y-74214285D01*
X134210057Y-74214285D02*
X134305295Y-74166666D01*
X134305295Y-74166666D02*
X134448152Y-74166666D01*
X134448152Y-74166666D02*
X134543390Y-74214285D01*
X134543390Y-74214285D02*
X134591009Y-74261904D01*
X134591009Y-74261904D02*
X134638628Y-74357142D01*
X134638628Y-74357142D02*
X134638628Y-74738094D01*
X134543390Y-73595237D02*
X134495771Y-73690475D01*
X134495771Y-73690475D02*
X134448152Y-73738094D01*
X134448152Y-73738094D02*
X134352914Y-73785713D01*
X134352914Y-73785713D02*
X134305295Y-73785713D01*
X134305295Y-73785713D02*
X134210057Y-73738094D01*
X134210057Y-73738094D02*
X134162438Y-73690475D01*
X134162438Y-73690475D02*
X134114819Y-73595237D01*
X134114819Y-73595237D02*
X134114819Y-73404761D01*
X134114819Y-73404761D02*
X134162438Y-73309523D01*
X134162438Y-73309523D02*
X134210057Y-73261904D01*
X134210057Y-73261904D02*
X134305295Y-73214285D01*
X134305295Y-73214285D02*
X134352914Y-73214285D01*
X134352914Y-73214285D02*
X134448152Y-73261904D01*
X134448152Y-73261904D02*
X134495771Y-73309523D01*
X134495771Y-73309523D02*
X134543390Y-73404761D01*
X134543390Y-73404761D02*
X134543390Y-73595237D01*
X134543390Y-73595237D02*
X134591009Y-73690475D01*
X134591009Y-73690475D02*
X134638628Y-73738094D01*
X134638628Y-73738094D02*
X134733866Y-73785713D01*
X134733866Y-73785713D02*
X134924342Y-73785713D01*
X134924342Y-73785713D02*
X135019580Y-73738094D01*
X135019580Y-73738094D02*
X135067200Y-73690475D01*
X135067200Y-73690475D02*
X135114819Y-73595237D01*
X135114819Y-73595237D02*
X135114819Y-73404761D01*
X135114819Y-73404761D02*
X135067200Y-73309523D01*
X135067200Y-73309523D02*
X135019580Y-73261904D01*
X135019580Y-73261904D02*
X134924342Y-73214285D01*
X134924342Y-73214285D02*
X134733866Y-73214285D01*
X134733866Y-73214285D02*
X134638628Y-73261904D01*
X134638628Y-73261904D02*
X134591009Y-73309523D01*
X134591009Y-73309523D02*
X134543390Y-73404761D01*
D11*
%TO.C,R9*%
X147880000Y-74500000D02*
X148650000Y-74500000D01*
X155960000Y-74500000D02*
X155190000Y-74500000D01*
X148650000Y-73130000D02*
X155190000Y-73130000D01*
X155190000Y-75870000D01*
X148650000Y-75870000D01*
X148650000Y-73130000D01*
%TO.C,TH1*%
X122730000Y-62430000D02*
X127270000Y-62430000D01*
X122730000Y-62486000D02*
X122730000Y-62430000D01*
X127270000Y-64514000D02*
X127270000Y-64570000D01*
X127270000Y-64570000D02*
X122730000Y-64570000D01*
%TO.C,R2*%
X123540000Y-52000000D02*
X124310000Y-52000000D01*
X131620000Y-52000000D02*
X130850000Y-52000000D01*
X130850000Y-53370000D02*
X124310000Y-53370000D01*
X124310000Y-50630000D01*
X130850000Y-50630000D01*
X130850000Y-53370000D01*
%TO.C,C2*%
X133880000Y-120880000D02*
X141120000Y-120880000D01*
X133880000Y-127120000D02*
X133880000Y-120880000D01*
X141120000Y-120880000D02*
X141120000Y-127120000D01*
X141120000Y-127120000D02*
X133880000Y-127120000D01*
%TO.C,C9*%
X121380000Y-123630000D02*
X129620000Y-123630000D01*
X121380000Y-126370000D02*
X121380000Y-123630000D01*
X129620000Y-123630000D02*
X129620000Y-126370000D01*
X129620000Y-126370000D02*
X121380000Y-126370000D01*
%TO.C,J4*%
X132120000Y-89540000D02*
X133500000Y-89540000D01*
X132120000Y-90920000D02*
X132120000Y-89540000D01*
X132120000Y-92190000D02*
X132120000Y-97380000D01*
X132120000Y-92190000D02*
X134880000Y-92190000D01*
X132120000Y-97380000D02*
X134880000Y-97380000D01*
X134880000Y-92190000D02*
X134880000Y-97380000D01*
%TO.C,RV4*%
X121165000Y-75980000D02*
X130915000Y-75980000D01*
X121165000Y-81030000D02*
X121165000Y-75980000D01*
X130915000Y-75980000D02*
X130915000Y-81030000D01*
X130915000Y-81030000D02*
X121165000Y-81030000D01*
%TO.C,TH3*%
X122730000Y-69430000D02*
X127270000Y-69430000D01*
X122730000Y-69486000D02*
X122730000Y-69430000D01*
X127270000Y-71514000D02*
X127270000Y-71570000D01*
X127270000Y-71570000D02*
X122730000Y-71570000D01*
%TO.C,R16*%
X140500000Y-101880000D02*
X140500000Y-102650000D01*
X140500000Y-109960000D02*
X140500000Y-109190000D01*
X139130000Y-109190000D02*
X141870000Y-109190000D01*
X141870000Y-102650000D01*
X139130000Y-102650000D01*
X139130000Y-109190000D01*
%TO.C,R7*%
X147380000Y-63000000D02*
X148150000Y-63000000D01*
X155460000Y-63000000D02*
X154690000Y-63000000D01*
X154690000Y-64370000D02*
X148150000Y-64370000D01*
X148150000Y-61630000D01*
X154690000Y-61630000D01*
X154690000Y-64370000D01*
%TO.C,Q2*%
X152150000Y-77470000D02*
X152150000Y-81070000D01*
X152161522Y-77431522D02*
G75*
G02*
X156600001Y-79270000I1838478J-1838478D01*
G01*
X156600000Y-79270000D02*
G75*
G02*
X152161522Y-81108478I-2600000J0D01*
G01*
%TO.C,C1*%
X135380000Y-84130000D02*
X142620000Y-84130000D01*
X135380000Y-86870000D02*
X135380000Y-84130000D01*
X142620000Y-84130000D02*
X142620000Y-86870000D01*
X142620000Y-86870000D02*
X135380000Y-86870000D01*
%TO.C,TP2*%
X143700000Y-70540000D02*
G75*
G02*
X140300000Y-70540000I-1700000J0D01*
G01*
X140300000Y-70540000D02*
G75*
G02*
X143700000Y-70540000I1700000J0D01*
G01*
%TO.C,C7*%
X121380000Y-131730000D02*
X129620000Y-131730000D01*
X121380000Y-134470000D02*
X121380000Y-131730000D01*
X129620000Y-131730000D02*
X129620000Y-134470000D01*
X129620000Y-134470000D02*
X121380000Y-134470000D01*
%TO.C,R11*%
X147880000Y-89500000D02*
X148650000Y-89500000D01*
X155960000Y-89500000D02*
X155190000Y-89500000D01*
X148650000Y-88130000D02*
X155190000Y-88130000D01*
X155190000Y-90870000D01*
X148650000Y-90870000D01*
X148650000Y-88130000D01*
%TO.C,C3*%
X133090302Y-131685000D02*
X133890302Y-131685000D01*
X133490302Y-131285000D02*
X133490302Y-132085000D01*
X137500000Y-129920000D02*
X137500000Y-138080000D01*
X137540000Y-129920000D02*
X137540000Y-138080000D01*
X137580000Y-129921000D02*
X137580000Y-138079000D01*
X137620000Y-129922000D02*
X137620000Y-138078000D01*
X137660000Y-129923000D02*
X137660000Y-138077000D01*
X137700000Y-129925000D02*
X137700000Y-138075000D01*
X137740000Y-129927000D02*
X137740000Y-138073000D01*
X137780000Y-129930000D02*
X137780000Y-138070000D01*
X137820000Y-129932000D02*
X137820000Y-138068000D01*
X137860000Y-129936000D02*
X137860000Y-138064000D01*
X137900000Y-129939000D02*
X137900000Y-138061000D01*
X137940000Y-129944000D02*
X137940000Y-138056000D01*
X137980000Y-129948000D02*
X137980000Y-138052000D01*
X138020000Y-129953000D02*
X138020000Y-138047000D01*
X138060000Y-129958000D02*
X138060000Y-138042000D01*
X138100000Y-129964000D02*
X138100000Y-138036000D01*
X138140000Y-129970000D02*
X138140000Y-138030000D01*
X138180000Y-129977000D02*
X138180000Y-138023000D01*
X138220000Y-129983000D02*
X138220000Y-138017000D01*
X138260000Y-129991000D02*
X138260000Y-138009000D01*
X138300000Y-129998000D02*
X138300000Y-138002000D01*
X138340000Y-130007000D02*
X138340000Y-137993000D01*
X138380000Y-130015000D02*
X138380000Y-137985000D01*
X138420000Y-130024000D02*
X138420000Y-137976000D01*
X138460000Y-130033000D02*
X138460000Y-137967000D01*
X138500000Y-130043000D02*
X138500000Y-137957000D01*
X138540000Y-130053000D02*
X138540000Y-137947000D01*
X138580000Y-130064000D02*
X138580000Y-137936000D01*
X138620000Y-130075000D02*
X138620000Y-137925000D01*
X138660000Y-130087000D02*
X138660000Y-137913000D01*
X138700000Y-130099000D02*
X138700000Y-137901000D01*
X138740000Y-130111000D02*
X138740000Y-137889000D01*
X138780000Y-130124000D02*
X138780000Y-137876000D01*
X138820000Y-130137000D02*
X138820000Y-137863000D01*
X138860000Y-130151000D02*
X138860000Y-137849000D01*
X138900000Y-130165000D02*
X138900000Y-137835000D01*
X138940000Y-130180000D02*
X138940000Y-137820000D01*
X138980000Y-130195000D02*
X138980000Y-132960000D01*
X138980000Y-135040000D02*
X138980000Y-137805000D01*
X139020000Y-130211000D02*
X139020000Y-132960000D01*
X139020000Y-135040000D02*
X139020000Y-137789000D01*
X139060000Y-130227000D02*
X139060000Y-132960000D01*
X139060000Y-135040000D02*
X139060000Y-137773000D01*
X139100000Y-130243000D02*
X139100000Y-132960000D01*
X139100000Y-135040000D02*
X139100000Y-137757000D01*
X139140000Y-130260000D02*
X139140000Y-132960000D01*
X139140000Y-135040000D02*
X139140000Y-137740000D01*
X139180000Y-130278000D02*
X139180000Y-132960000D01*
X139180000Y-135040000D02*
X139180000Y-137722000D01*
X139220000Y-130296000D02*
X139220000Y-132960000D01*
X139220000Y-135040000D02*
X139220000Y-137704000D01*
X139260000Y-130315000D02*
X139260000Y-132960000D01*
X139260000Y-135040000D02*
X139260000Y-137685000D01*
X139300000Y-130334000D02*
X139300000Y-132960000D01*
X139300000Y-135040000D02*
X139300000Y-137666000D01*
X139340000Y-130354000D02*
X139340000Y-132960000D01*
X139340000Y-135040000D02*
X139340000Y-137646000D01*
X139380000Y-130374000D02*
X139380000Y-132960000D01*
X139380000Y-135040000D02*
X139380000Y-137626000D01*
X139420000Y-130395000D02*
X139420000Y-132960000D01*
X139420000Y-135040000D02*
X139420000Y-137605000D01*
X139460000Y-130416000D02*
X139460000Y-132960000D01*
X139460000Y-135040000D02*
X139460000Y-137584000D01*
X139500000Y-130438000D02*
X139500000Y-132960000D01*
X139500000Y-135040000D02*
X139500000Y-137562000D01*
X139540000Y-130461000D02*
X139540000Y-132960000D01*
X139540000Y-135040000D02*
X139540000Y-137539000D01*
X139580000Y-130484000D02*
X139580000Y-132960000D01*
X139580000Y-135040000D02*
X139580000Y-137516000D01*
X139620000Y-130507000D02*
X139620000Y-132960000D01*
X139620000Y-135040000D02*
X139620000Y-137493000D01*
X139660000Y-130532000D02*
X139660000Y-132960000D01*
X139660000Y-135040000D02*
X139660000Y-137468000D01*
X139700000Y-130557000D02*
X139700000Y-132960000D01*
X139700000Y-135040000D02*
X139700000Y-137443000D01*
X139740000Y-130582000D02*
X139740000Y-132960000D01*
X139740000Y-135040000D02*
X139740000Y-137418000D01*
X139780000Y-130608000D02*
X139780000Y-132960000D01*
X139780000Y-135040000D02*
X139780000Y-137392000D01*
X139820000Y-130635000D02*
X139820000Y-132960000D01*
X139820000Y-135040000D02*
X139820000Y-137365000D01*
X139860000Y-130663000D02*
X139860000Y-132960000D01*
X139860000Y-135040000D02*
X139860000Y-137337000D01*
X139900000Y-130691000D02*
X139900000Y-132960000D01*
X139900000Y-135040000D02*
X139900000Y-137309000D01*
X139940000Y-130720000D02*
X139940000Y-132960000D01*
X139940000Y-135040000D02*
X139940000Y-137280000D01*
X139980000Y-130750000D02*
X139980000Y-132960000D01*
X139980000Y-135040000D02*
X139980000Y-137250000D01*
X140020000Y-130781000D02*
X140020000Y-132960000D01*
X140020000Y-135040000D02*
X140020000Y-137219000D01*
X140060000Y-130812000D02*
X140060000Y-132960000D01*
X140060000Y-135040000D02*
X140060000Y-137188000D01*
X140100000Y-130844000D02*
X140100000Y-132960000D01*
X140100000Y-135040000D02*
X140100000Y-137156000D01*
X140140000Y-130877000D02*
X140140000Y-132960000D01*
X140140000Y-135040000D02*
X140140000Y-137123000D01*
X140180000Y-130911000D02*
X140180000Y-132960000D01*
X140180000Y-135040000D02*
X140180000Y-137089000D01*
X140220000Y-130945000D02*
X140220000Y-132960000D01*
X140220000Y-135040000D02*
X140220000Y-137055000D01*
X140260000Y-130981000D02*
X140260000Y-132960000D01*
X140260000Y-135040000D02*
X140260000Y-137019000D01*
X140300000Y-131018000D02*
X140300000Y-132960000D01*
X140300000Y-135040000D02*
X140300000Y-136982000D01*
X140340000Y-131055000D02*
X140340000Y-132960000D01*
X140340000Y-135040000D02*
X140340000Y-136945000D01*
X140380000Y-131094000D02*
X140380000Y-132960000D01*
X140380000Y-135040000D02*
X140380000Y-136906000D01*
X140420000Y-131133000D02*
X140420000Y-132960000D01*
X140420000Y-135040000D02*
X140420000Y-136867000D01*
X140460000Y-131174000D02*
X140460000Y-132960000D01*
X140460000Y-135040000D02*
X140460000Y-136826000D01*
X140500000Y-131216000D02*
X140500000Y-132960000D01*
X140500000Y-135040000D02*
X140500000Y-136784000D01*
X140540000Y-131259000D02*
X140540000Y-132960000D01*
X140540000Y-135040000D02*
X140540000Y-136741000D01*
X140580000Y-131304000D02*
X140580000Y-132960000D01*
X140580000Y-135040000D02*
X140580000Y-136696000D01*
X140620000Y-131349000D02*
X140620000Y-132960000D01*
X140620000Y-135040000D02*
X140620000Y-136651000D01*
X140660000Y-131396000D02*
X140660000Y-132960000D01*
X140660000Y-135040000D02*
X140660000Y-136604000D01*
X140700000Y-131445000D02*
X140700000Y-132960000D01*
X140700000Y-135040000D02*
X140700000Y-136555000D01*
X140740000Y-131495000D02*
X140740000Y-132960000D01*
X140740000Y-135040000D02*
X140740000Y-136505000D01*
X140780000Y-131547000D02*
X140780000Y-132960000D01*
X140780000Y-135040000D02*
X140780000Y-136453000D01*
X140820000Y-131600000D02*
X140820000Y-132960000D01*
X140820000Y-135040000D02*
X140820000Y-136400000D01*
X140860000Y-131656000D02*
X140860000Y-132960000D01*
X140860000Y-135040000D02*
X140860000Y-136344000D01*
X140900000Y-131713000D02*
X140900000Y-132960000D01*
X140900000Y-135040000D02*
X140900000Y-136287000D01*
X140940000Y-131773000D02*
X140940000Y-132960000D01*
X140940000Y-135040000D02*
X140940000Y-136227000D01*
X140980000Y-131835000D02*
X140980000Y-132960000D01*
X140980000Y-135040000D02*
X140980000Y-136165000D01*
X141020000Y-131899000D02*
X141020000Y-132960000D01*
X141020000Y-135040000D02*
X141020000Y-136101000D01*
X141060000Y-131966000D02*
X141060000Y-136034000D01*
X141100000Y-132036000D02*
X141100000Y-135964000D01*
X141140000Y-132110000D02*
X141140000Y-135890000D01*
X141180000Y-132187000D02*
X141180000Y-135813000D01*
X141220000Y-132269000D02*
X141220000Y-135731000D01*
X141260000Y-132356000D02*
X141260000Y-135644000D01*
X141300000Y-132448000D02*
X141300000Y-135552000D01*
X141340000Y-132547000D02*
X141340000Y-135453000D01*
X141380000Y-132654000D02*
X141380000Y-135346000D01*
X141420000Y-132772000D02*
X141420000Y-135228000D01*
X141460000Y-132903000D02*
X141460000Y-135097000D01*
X141500000Y-133053000D02*
X141500000Y-134947000D01*
X141540000Y-133232000D02*
X141540000Y-134768000D01*
X141580000Y-133467000D02*
X141580000Y-134533000D01*
X141620000Y-134000000D02*
G75*
G02*
X133380000Y-134000000I-4120000J0D01*
G01*
X133380000Y-134000000D02*
G75*
G02*
X141620000Y-134000000I4120000J0D01*
G01*
%TO.C,R14*%
X147880000Y-97500000D02*
X148650000Y-97500000D01*
X155960000Y-97500000D02*
X155190000Y-97500000D01*
X148650000Y-96130000D02*
X155190000Y-96130000D01*
X155190000Y-98870000D01*
X148650000Y-98870000D01*
X148650000Y-96130000D01*
%TO.C,RV5*%
X136120000Y-89540000D02*
X137500000Y-89540000D01*
X136120000Y-90920000D02*
X136120000Y-89540000D01*
X136120000Y-92190000D02*
X136120000Y-97380000D01*
X136120000Y-92190000D02*
X138880000Y-92190000D01*
X136120000Y-97380000D02*
X138880000Y-97380000D01*
X138880000Y-92190000D02*
X138880000Y-97380000D01*
%TO.C,TP4*%
X143700000Y-76000000D02*
G75*
G02*
X140300000Y-76000000I-1700000J0D01*
G01*
X140300000Y-76000000D02*
G75*
G02*
X143700000Y-76000000I1700000J0D01*
G01*
%TO.C,J6*%
X150120000Y-116120000D02*
X150120000Y-118880000D01*
X155310000Y-116120000D02*
X150120000Y-116120000D01*
X155310000Y-116120000D02*
X155310000Y-118880000D01*
X155310000Y-118880000D02*
X150120000Y-118880000D01*
X156580000Y-116120000D02*
X157960000Y-116120000D01*
X157960000Y-116120000D02*
X157960000Y-117500000D01*
%TO.C,R13*%
X136500000Y-101880000D02*
X136500000Y-102650000D01*
X136500000Y-109960000D02*
X136500000Y-109190000D01*
X137870000Y-102650000D02*
X135130000Y-102650000D01*
X135130000Y-109190000D01*
X137870000Y-109190000D01*
X137870000Y-102650000D01*
%TO.C,J2*%
X136120000Y-57580000D02*
X137500000Y-57580000D01*
X136120000Y-58960000D02*
X136120000Y-57580000D01*
X136120000Y-60230000D02*
X136120000Y-65420000D01*
X136120000Y-60230000D02*
X138880000Y-60230000D01*
X136120000Y-65420000D02*
X138880000Y-65420000D01*
X138880000Y-60230000D02*
X138880000Y-65420000D01*
%TO.C,R17*%
X144500000Y-101880000D02*
X144500000Y-102650000D01*
X144500000Y-109960000D02*
X144500000Y-109190000D01*
X145870000Y-102650000D02*
X143130000Y-102650000D01*
X143130000Y-109190000D01*
X145870000Y-109190000D01*
X145870000Y-102650000D01*
%TO.C,U1*%
X123540000Y-102110000D02*
X123540000Y-120130000D01*
X123540000Y-120130000D02*
X129080000Y-120130000D01*
X125310000Y-102110000D02*
X123540000Y-102110000D01*
X129080000Y-102110000D02*
X127310000Y-102110000D01*
X129080000Y-120130000D02*
X129080000Y-102110000D01*
X127310000Y-102110000D02*
G75*
G02*
X125310000Y-102110000I-1000000J0D01*
G01*
%TO.C,RV6*%
X140120000Y-89540000D02*
X141500000Y-89540000D01*
X140120000Y-90920000D02*
X140120000Y-89540000D01*
X140120000Y-92190000D02*
X140120000Y-97380000D01*
X140120000Y-92190000D02*
X142880000Y-92190000D01*
X140120000Y-97380000D02*
X142880000Y-97380000D01*
X142880000Y-92190000D02*
X142880000Y-97380000D01*
%TO.C,D3*%
X134920000Y-81000000D02*
X135570000Y-81000000D01*
X138970000Y-82120000D02*
X138970000Y-79880000D01*
X139090000Y-82120000D02*
X139090000Y-79880000D01*
X139210000Y-82120000D02*
X139210000Y-79880000D01*
X140460000Y-81000000D02*
X139810000Y-81000000D01*
X139810000Y-82120000D02*
X135570000Y-82120000D01*
X135570000Y-79880000D01*
X139810000Y-79880000D01*
X139810000Y-82120000D01*
%TO.C,R3*%
X147540000Y-52000000D02*
X148310000Y-52000000D01*
X155620000Y-52000000D02*
X154850000Y-52000000D01*
X148310000Y-50630000D02*
X154850000Y-50630000D01*
X154850000Y-53370000D01*
X148310000Y-53370000D01*
X148310000Y-50630000D01*
%TO.C,R15*%
X148500000Y-101880000D02*
X148500000Y-102650000D01*
X148500000Y-109960000D02*
X148500000Y-109190000D01*
X149870000Y-102650000D02*
X147130000Y-102650000D01*
X147130000Y-109190000D01*
X149870000Y-109190000D01*
X149870000Y-102650000D01*
%TO.C,TH4*%
X150230000Y-65430000D02*
X154770000Y-65430000D01*
X150230000Y-65486000D02*
X150230000Y-65430000D01*
X154770000Y-67514000D02*
X154770000Y-67570000D01*
X154770000Y-67570000D02*
X150230000Y-67570000D01*
%TO.C,TP3*%
X139200000Y-76000000D02*
G75*
G02*
X135800000Y-76000000I-1700000J0D01*
G01*
X135800000Y-76000000D02*
G75*
G02*
X139200000Y-76000000I1700000J0D01*
G01*
%TO.C,RV3*%
X148120000Y-71880000D02*
X148120000Y-70500000D01*
X149500000Y-71880000D02*
X148120000Y-71880000D01*
X150770000Y-69120000D02*
X155960000Y-69120000D01*
X150770000Y-71880000D02*
X150770000Y-69120000D01*
X150770000Y-71880000D02*
X155960000Y-71880000D01*
X155960000Y-71880000D02*
X155960000Y-69120000D01*
%TO.C,Q1*%
X151350000Y-81070000D02*
X151350000Y-77470000D01*
X146900000Y-79270000D02*
G75*
G02*
X151338478Y-77431522I2600000J0D01*
G01*
X151338478Y-81108478D02*
G75*
G02*
X146899999Y-79270000I-1838478J1838478D01*
G01*
%TO.C,R6*%
X123380000Y-67000000D02*
X124150000Y-67000000D01*
X131460000Y-67000000D02*
X130690000Y-67000000D01*
X124150000Y-65630000D02*
X130690000Y-65630000D01*
X130690000Y-68370000D01*
X124150000Y-68370000D01*
X124150000Y-65630000D01*
%TO.C,D2*%
X144530000Y-143780000D02*
X147470000Y-143780000D01*
X144530000Y-143900000D02*
X147470000Y-143900000D01*
X144530000Y-144020000D02*
X147470000Y-144020000D01*
X146000000Y-138340000D02*
X146000000Y-139360000D01*
X146000000Y-145820000D02*
X146000000Y-144800000D01*
X144530000Y-144800000D02*
X147470000Y-144800000D01*
X147470000Y-139360000D01*
X144530000Y-139360000D01*
X144530000Y-144800000D01*
%TO.C,TP1*%
X139200000Y-70540000D02*
G75*
G02*
X135800000Y-70540000I-1700000J0D01*
G01*
X135800000Y-70540000D02*
G75*
G02*
X139200000Y-70540000I1700000J0D01*
G01*
%TO.C,C8*%
X121380000Y-127680000D02*
X129620000Y-127680000D01*
X121380000Y-130420000D02*
X121380000Y-127680000D01*
X129620000Y-127680000D02*
X129620000Y-130420000D01*
X129620000Y-130420000D02*
X121380000Y-130420000D01*
%TO.C,C4*%
X133090302Y-142185000D02*
X133890302Y-142185000D01*
X133490302Y-141785000D02*
X133490302Y-142585000D01*
X137500000Y-140420000D02*
X137500000Y-148580000D01*
X137540000Y-140420000D02*
X137540000Y-148580000D01*
X137580000Y-140421000D02*
X137580000Y-148579000D01*
X137620000Y-140422000D02*
X137620000Y-148578000D01*
X137660000Y-140423000D02*
X137660000Y-148577000D01*
X137700000Y-140425000D02*
X137700000Y-148575000D01*
X137740000Y-140427000D02*
X137740000Y-148573000D01*
X137780000Y-140430000D02*
X137780000Y-148570000D01*
X137820000Y-140432000D02*
X137820000Y-148568000D01*
X137860000Y-140436000D02*
X137860000Y-148564000D01*
X137900000Y-140439000D02*
X137900000Y-148561000D01*
X137940000Y-140444000D02*
X137940000Y-148556000D01*
X137980000Y-140448000D02*
X137980000Y-148552000D01*
X138020000Y-140453000D02*
X138020000Y-148547000D01*
X138060000Y-140458000D02*
X138060000Y-148542000D01*
X138100000Y-140464000D02*
X138100000Y-148536000D01*
X138140000Y-140470000D02*
X138140000Y-148530000D01*
X138180000Y-140477000D02*
X138180000Y-148523000D01*
X138220000Y-140483000D02*
X138220000Y-148517000D01*
X138260000Y-140491000D02*
X138260000Y-148509000D01*
X138300000Y-140498000D02*
X138300000Y-148502000D01*
X138340000Y-140507000D02*
X138340000Y-148493000D01*
X138380000Y-140515000D02*
X138380000Y-148485000D01*
X138420000Y-140524000D02*
X138420000Y-148476000D01*
X138460000Y-140533000D02*
X138460000Y-148467000D01*
X138500000Y-140543000D02*
X138500000Y-148457000D01*
X138540000Y-140553000D02*
X138540000Y-148447000D01*
X138580000Y-140564000D02*
X138580000Y-148436000D01*
X138620000Y-140575000D02*
X138620000Y-148425000D01*
X138660000Y-140587000D02*
X138660000Y-148413000D01*
X138700000Y-140599000D02*
X138700000Y-148401000D01*
X138740000Y-140611000D02*
X138740000Y-148389000D01*
X138780000Y-140624000D02*
X138780000Y-148376000D01*
X138820000Y-140637000D02*
X138820000Y-148363000D01*
X138860000Y-140651000D02*
X138860000Y-148349000D01*
X138900000Y-140665000D02*
X138900000Y-148335000D01*
X138940000Y-140680000D02*
X138940000Y-148320000D01*
X138980000Y-140695000D02*
X138980000Y-143460000D01*
X138980000Y-145540000D02*
X138980000Y-148305000D01*
X139020000Y-140711000D02*
X139020000Y-143460000D01*
X139020000Y-145540000D02*
X139020000Y-148289000D01*
X139060000Y-140727000D02*
X139060000Y-143460000D01*
X139060000Y-145540000D02*
X139060000Y-148273000D01*
X139100000Y-140743000D02*
X139100000Y-143460000D01*
X139100000Y-145540000D02*
X139100000Y-148257000D01*
X139140000Y-140760000D02*
X139140000Y-143460000D01*
X139140000Y-145540000D02*
X139140000Y-148240000D01*
X139180000Y-140778000D02*
X139180000Y-143460000D01*
X139180000Y-145540000D02*
X139180000Y-148222000D01*
X139220000Y-140796000D02*
X139220000Y-143460000D01*
X139220000Y-145540000D02*
X139220000Y-148204000D01*
X139260000Y-140815000D02*
X139260000Y-143460000D01*
X139260000Y-145540000D02*
X139260000Y-148185000D01*
X139300000Y-140834000D02*
X139300000Y-143460000D01*
X139300000Y-145540000D02*
X139300000Y-148166000D01*
X139340000Y-140854000D02*
X139340000Y-143460000D01*
X139340000Y-145540000D02*
X139340000Y-148146000D01*
X139380000Y-140874000D02*
X139380000Y-143460000D01*
X139380000Y-145540000D02*
X139380000Y-148126000D01*
X139420000Y-140895000D02*
X139420000Y-143460000D01*
X139420000Y-145540000D02*
X139420000Y-148105000D01*
X139460000Y-140916000D02*
X139460000Y-143460000D01*
X139460000Y-145540000D02*
X139460000Y-148084000D01*
X139500000Y-140938000D02*
X139500000Y-143460000D01*
X139500000Y-145540000D02*
X139500000Y-148062000D01*
X139540000Y-140961000D02*
X139540000Y-143460000D01*
X139540000Y-145540000D02*
X139540000Y-148039000D01*
X139580000Y-140984000D02*
X139580000Y-143460000D01*
X139580000Y-145540000D02*
X139580000Y-148016000D01*
X139620000Y-141007000D02*
X139620000Y-143460000D01*
X139620000Y-145540000D02*
X139620000Y-147993000D01*
X139660000Y-141032000D02*
X139660000Y-143460000D01*
X139660000Y-145540000D02*
X139660000Y-147968000D01*
X139700000Y-141057000D02*
X139700000Y-143460000D01*
X139700000Y-145540000D02*
X139700000Y-147943000D01*
X139740000Y-141082000D02*
X139740000Y-143460000D01*
X139740000Y-145540000D02*
X139740000Y-147918000D01*
X139780000Y-141108000D02*
X139780000Y-143460000D01*
X139780000Y-145540000D02*
X139780000Y-147892000D01*
X139820000Y-141135000D02*
X139820000Y-143460000D01*
X139820000Y-145540000D02*
X139820000Y-147865000D01*
X139860000Y-141163000D02*
X139860000Y-143460000D01*
X139860000Y-145540000D02*
X139860000Y-147837000D01*
X139900000Y-141191000D02*
X139900000Y-143460000D01*
X139900000Y-145540000D02*
X139900000Y-147809000D01*
X139940000Y-141220000D02*
X139940000Y-143460000D01*
X139940000Y-145540000D02*
X139940000Y-147780000D01*
X139980000Y-141250000D02*
X139980000Y-143460000D01*
X139980000Y-145540000D02*
X139980000Y-147750000D01*
X140020000Y-141281000D02*
X140020000Y-143460000D01*
X140020000Y-145540000D02*
X140020000Y-147719000D01*
X140060000Y-141312000D02*
X140060000Y-143460000D01*
X140060000Y-145540000D02*
X140060000Y-147688000D01*
X140100000Y-141344000D02*
X140100000Y-143460000D01*
X140100000Y-145540000D02*
X140100000Y-147656000D01*
X140140000Y-141377000D02*
X140140000Y-143460000D01*
X140140000Y-145540000D02*
X140140000Y-147623000D01*
X140180000Y-141411000D02*
X140180000Y-143460000D01*
X140180000Y-145540000D02*
X140180000Y-147589000D01*
X140220000Y-141445000D02*
X140220000Y-143460000D01*
X140220000Y-145540000D02*
X140220000Y-147555000D01*
X140260000Y-141481000D02*
X140260000Y-143460000D01*
X140260000Y-145540000D02*
X140260000Y-147519000D01*
X140300000Y-141518000D02*
X140300000Y-143460000D01*
X140300000Y-145540000D02*
X140300000Y-147482000D01*
X140340000Y-141555000D02*
X140340000Y-143460000D01*
X140340000Y-145540000D02*
X140340000Y-147445000D01*
X140380000Y-141594000D02*
X140380000Y-143460000D01*
X140380000Y-145540000D02*
X140380000Y-147406000D01*
X140420000Y-141633000D02*
X140420000Y-143460000D01*
X140420000Y-145540000D02*
X140420000Y-147367000D01*
X140460000Y-141674000D02*
X140460000Y-143460000D01*
X140460000Y-145540000D02*
X140460000Y-147326000D01*
X140500000Y-141716000D02*
X140500000Y-143460000D01*
X140500000Y-145540000D02*
X140500000Y-147284000D01*
X140540000Y-141759000D02*
X140540000Y-143460000D01*
X140540000Y-145540000D02*
X140540000Y-147241000D01*
X140580000Y-141804000D02*
X140580000Y-143460000D01*
X140580000Y-145540000D02*
X140580000Y-147196000D01*
X140620000Y-141849000D02*
X140620000Y-143460000D01*
X140620000Y-145540000D02*
X140620000Y-147151000D01*
X140660000Y-141896000D02*
X140660000Y-143460000D01*
X140660000Y-145540000D02*
X140660000Y-147104000D01*
X140700000Y-141945000D02*
X140700000Y-143460000D01*
X140700000Y-145540000D02*
X140700000Y-147055000D01*
X140740000Y-141995000D02*
X140740000Y-143460000D01*
X140740000Y-145540000D02*
X140740000Y-147005000D01*
X140780000Y-142047000D02*
X140780000Y-143460000D01*
X140780000Y-145540000D02*
X140780000Y-146953000D01*
X140820000Y-142100000D02*
X140820000Y-143460000D01*
X140820000Y-145540000D02*
X140820000Y-146900000D01*
X140860000Y-142156000D02*
X140860000Y-143460000D01*
X140860000Y-145540000D02*
X140860000Y-146844000D01*
X140900000Y-142213000D02*
X140900000Y-143460000D01*
X140900000Y-145540000D02*
X140900000Y-146787000D01*
X140940000Y-142273000D02*
X140940000Y-143460000D01*
X140940000Y-145540000D02*
X140940000Y-146727000D01*
X140980000Y-142335000D02*
X140980000Y-143460000D01*
X140980000Y-145540000D02*
X140980000Y-146665000D01*
X141020000Y-142399000D02*
X141020000Y-143460000D01*
X141020000Y-145540000D02*
X141020000Y-146601000D01*
X141060000Y-142466000D02*
X141060000Y-146534000D01*
X141100000Y-142536000D02*
X141100000Y-146464000D01*
X141140000Y-142610000D02*
X141140000Y-146390000D01*
X141180000Y-142687000D02*
X141180000Y-146313000D01*
X141220000Y-142769000D02*
X141220000Y-146231000D01*
X141260000Y-142856000D02*
X141260000Y-146144000D01*
X141300000Y-142948000D02*
X141300000Y-146052000D01*
X141340000Y-143047000D02*
X141340000Y-145953000D01*
X141380000Y-143154000D02*
X141380000Y-145846000D01*
X141420000Y-143272000D02*
X141420000Y-145728000D01*
X141460000Y-143403000D02*
X141460000Y-145597000D01*
X141500000Y-143553000D02*
X141500000Y-145447000D01*
X141540000Y-143732000D02*
X141540000Y-145268000D01*
X141580000Y-143967000D02*
X141580000Y-145033000D01*
X141620000Y-144500000D02*
G75*
G02*
X133380000Y-144500000I-4120000J0D01*
G01*
X133380000Y-144500000D02*
G75*
G02*
X141620000Y-144500000I4120000J0D01*
G01*
%TO.C,R1*%
X123540000Y-60000000D02*
X124310000Y-60000000D01*
X131620000Y-60000000D02*
X130850000Y-60000000D01*
X124310000Y-58630000D02*
X130850000Y-58630000D01*
X130850000Y-61370000D01*
X124310000Y-61370000D01*
X124310000Y-58630000D01*
%TO.C,TH2*%
X150230000Y-58430000D02*
X154770000Y-58430000D01*
X150230000Y-58486000D02*
X150230000Y-58430000D01*
X154770000Y-60514000D02*
X154770000Y-60570000D01*
X154770000Y-60570000D02*
X150230000Y-60570000D01*
%TO.C,RV1*%
X136120000Y-46080000D02*
X137500000Y-46080000D01*
X136120000Y-47460000D02*
X136120000Y-46080000D01*
X136120000Y-48730000D02*
X136120000Y-53920000D01*
X136120000Y-48730000D02*
X138880000Y-48730000D01*
X136120000Y-53920000D02*
X138880000Y-53920000D01*
X138880000Y-48730000D02*
X138880000Y-53920000D01*
%TO.C,J3*%
X140120000Y-57620000D02*
X141500000Y-57620000D01*
X140120000Y-59000000D02*
X140120000Y-57620000D01*
X140120000Y-60270000D02*
X140120000Y-65460000D01*
X140120000Y-60270000D02*
X142880000Y-60270000D01*
X140120000Y-65460000D02*
X142880000Y-65460000D01*
X142880000Y-60270000D02*
X142880000Y-65460000D01*
%TO.C,R5*%
X147540000Y-56000000D02*
X148310000Y-56000000D01*
X155620000Y-56000000D02*
X154850000Y-56000000D01*
X154850000Y-57370000D02*
X148310000Y-57370000D01*
X148310000Y-54630000D01*
X154850000Y-54630000D01*
X154850000Y-57370000D01*
%TO.C,C6*%
X121380000Y-135780000D02*
X129620000Y-135780000D01*
X121380000Y-138520000D02*
X121380000Y-135780000D01*
X129620000Y-135780000D02*
X129620000Y-138520000D01*
X129620000Y-138520000D02*
X121380000Y-138520000D01*
%TO.C,R10*%
X147880000Y-85500000D02*
X148650000Y-85500000D01*
X155960000Y-85500000D02*
X155190000Y-85500000D01*
X148650000Y-84130000D02*
X155190000Y-84130000D01*
X155190000Y-86870000D01*
X148650000Y-86870000D01*
X148650000Y-84130000D01*
%TO.C,J5*%
X140120000Y-116120000D02*
X140120000Y-118880000D01*
X145310000Y-116120000D02*
X140120000Y-116120000D01*
X145310000Y-116120000D02*
X145310000Y-118880000D01*
X145310000Y-118880000D02*
X140120000Y-118880000D01*
X146580000Y-116120000D02*
X147960000Y-116120000D01*
X147960000Y-116120000D02*
X147960000Y-117500000D01*
%TO.C,R12*%
X147880000Y-93500000D02*
X148650000Y-93500000D01*
X155960000Y-93500000D02*
X155190000Y-93500000D01*
X148650000Y-92130000D02*
X155190000Y-92130000D01*
X155190000Y-94870000D01*
X148650000Y-94870000D01*
X148650000Y-92130000D01*
%TO.C,R4*%
X123540000Y-56000000D02*
X124310000Y-56000000D01*
X131620000Y-56000000D02*
X130850000Y-56000000D01*
X124310000Y-54630000D02*
X130850000Y-54630000D01*
X130850000Y-57370000D01*
X124310000Y-57370000D01*
X124310000Y-54630000D01*
%TO.C,R19*%
X152500000Y-101880000D02*
X152500000Y-102650000D01*
X152500000Y-109960000D02*
X152500000Y-109190000D01*
X151130000Y-109190000D02*
X153870000Y-109190000D01*
X153870000Y-102650000D01*
X151130000Y-102650000D01*
X151130000Y-109190000D01*
%TO.C,C5*%
X121380000Y-139830000D02*
X129620000Y-139830000D01*
X121380000Y-142570000D02*
X121380000Y-139830000D01*
X129620000Y-139830000D02*
X129620000Y-142570000D01*
X129620000Y-142570000D02*
X121380000Y-142570000D01*
%TO.C,D1*%
X144530000Y-129120000D02*
X147470000Y-129120000D01*
X144530000Y-129240000D02*
X147470000Y-129240000D01*
X144530000Y-129360000D02*
X147470000Y-129360000D01*
X146000000Y-123680000D02*
X146000000Y-124700000D01*
X146000000Y-131160000D02*
X146000000Y-130140000D01*
X144530000Y-130140000D02*
X147470000Y-130140000D01*
X147470000Y-124700000D01*
X144530000Y-124700000D01*
X144530000Y-130140000D01*
%TO.C,U2*%
X123540000Y-82110000D02*
X123540000Y-100130000D01*
X123540000Y-100130000D02*
X129080000Y-100130000D01*
X125310000Y-82110000D02*
X123540000Y-82110000D01*
X129080000Y-82110000D02*
X127310000Y-82110000D01*
X129080000Y-100130000D02*
X129080000Y-82110000D01*
X127310000Y-82110000D02*
G75*
G02*
X125310000Y-82110000I-1000000J0D01*
G01*
%TO.C,R18*%
X156500000Y-101880000D02*
X156500000Y-102650000D01*
X156500000Y-109960000D02*
X156500000Y-109190000D01*
X157870000Y-102650000D02*
X155130000Y-102650000D01*
X155130000Y-109190000D01*
X157870000Y-109190000D01*
X157870000Y-102650000D01*
%TO.C,RV2*%
X140120000Y-46040000D02*
X141500000Y-46040000D01*
X140120000Y-47420000D02*
X140120000Y-46040000D01*
X140120000Y-48690000D02*
X140120000Y-53880000D01*
X140120000Y-48690000D02*
X142880000Y-48690000D01*
X140120000Y-53880000D02*
X142880000Y-53880000D01*
X142880000Y-48690000D02*
X142880000Y-53880000D01*
%TO.C,R8*%
X123540000Y-74000000D02*
X124310000Y-74000000D01*
X131620000Y-74000000D02*
X130850000Y-74000000D01*
X124310000Y-72630000D02*
X130850000Y-72630000D01*
X130850000Y-75370000D01*
X124310000Y-75370000D01*
X124310000Y-72630000D01*
%TD*%
M02*
