%TF.GenerationSoftware,KiCad,Pcbnew,9.0.5*%
%TF.CreationDate,2025-12-23T14:43:43-05:00*%
%TF.ProjectId,mk_vco_JUST_PCB,6d6b5f76-636f-45f4-9a55-53545f504342,rev?*%
%TF.SameCoordinates,Original*%
%TF.FileFunction,Copper,L1,Top*%
%TF.FilePolarity,Positive*%
%FSLAX46Y46*%
G04 Gerber Fmt 4.6, Leading zero omitted, Abs format (unit mm)*
G04 Created by KiCad (PCBNEW 9.0.5) date 2025-12-23 14:43:43*
%MOMM*%
%LPD*%
G01*
G04 APERTURE LIST*
G04 Aperture macros list*
%AMRoundRect*
0 Rectangle with rounded corners*
0 $1 Rounding radius*
0 $2 $3 $4 $5 $6 $7 $8 $9 X,Y pos of 4 corners*
0 Add a 4 corners polygon primitive as box body*
4,1,4,$2,$3,$4,$5,$6,$7,$8,$9,$2,$3,0*
0 Add four circle primitives for the rounded corners*
1,1,$1+$1,$2,$3*
1,1,$1+$1,$4,$5*
1,1,$1+$1,$6,$7*
1,1,$1+$1,$8,$9*
0 Add four rect primitives between the rounded corners*
20,1,$1+$1,$2,$3,$4,$5,0*
20,1,$1+$1,$4,$5,$6,$7,0*
20,1,$1+$1,$6,$7,$8,$9,0*
20,1,$1+$1,$8,$9,$2,$3,0*%
G04 Aperture macros list end*
%TA.AperFunction,ComponentPad*%
%ADD10C,1.600000*%
%TD*%
%TA.AperFunction,ComponentPad*%
%ADD11R,1.700000X1.700000*%
%TD*%
%TA.AperFunction,ComponentPad*%
%ADD12C,1.700000*%
%TD*%
%TA.AperFunction,ComponentPad*%
%ADD13C,1.440000*%
%TD*%
%TA.AperFunction,ComponentPad*%
%ADD14R,1.500000X1.050000*%
%TD*%
%TA.AperFunction,ComponentPad*%
%ADD15O,1.500000X1.050000*%
%TD*%
%TA.AperFunction,ComponentPad*%
%ADD16C,3.000000*%
%TD*%
%TA.AperFunction,ComponentPad*%
%ADD17RoundRect,0.250000X-0.550000X-0.550000X0.550000X-0.550000X0.550000X0.550000X-0.550000X0.550000X0*%
%TD*%
%TA.AperFunction,ComponentPad*%
%ADD18R,1.600000X1.600000*%
%TD*%
%TA.AperFunction,ComponentPad*%
%ADD19O,1.600000X1.600000*%
%TD*%
%TA.AperFunction,ComponentPad*%
%ADD20RoundRect,0.250000X0.550000X0.550000X-0.550000X0.550000X-0.550000X-0.550000X0.550000X-0.550000X0*%
%TD*%
%TA.AperFunction,ComponentPad*%
%ADD21RoundRect,0.249999X0.850001X-0.850001X0.850001X0.850001X-0.850001X0.850001X-0.850001X-0.850001X0*%
%TD*%
%TA.AperFunction,ComponentPad*%
%ADD22C,2.200000*%
%TD*%
%TA.AperFunction,ComponentPad*%
%ADD23RoundRect,0.250000X0.600000X0.600000X-0.600000X0.600000X-0.600000X-0.600000X0.600000X-0.600000X0*%
%TD*%
%TA.AperFunction,ViaPad*%
%ADD24C,0.600000*%
%TD*%
%TA.AperFunction,Conductor*%
%ADD25C,0.200000*%
%TD*%
%TA.AperFunction,Conductor*%
%ADD26C,0.500000*%
%TD*%
G04 APERTURE END LIST*
D10*
%TO.P,R9,1*%
%TO.N,Net-(Q1-E)*%
X146840000Y-74500000D03*
%TO.P,R9,2*%
%TO.N,+12V*%
X157000000Y-74500000D03*
%TD*%
%TO.P,TH1,1*%
%TO.N,Net-(Q1-B)*%
X127500000Y-63500000D03*
%TO.P,TH1,2*%
%TO.N,Net-(R4-Pad1)*%
X122500000Y-63500000D03*
%TD*%
%TO.P,R2,1*%
%TO.N,Net-(R2-Pad1)*%
X132660000Y-52000000D03*
%TO.P,R2,2*%
%TO.N,-12V*%
X122500000Y-52000000D03*
%TD*%
%TO.P,C2,1*%
%TO.N,Net-(U1A--)*%
X135000000Y-124000000D03*
%TO.P,C2,2*%
%TO.N,Net-(U1B-+)*%
X140000000Y-124000000D03*
%TD*%
%TO.P,C9,1*%
%TO.N,+12V*%
X128000000Y-125000000D03*
%TO.P,C9,2*%
%TO.N,GND*%
X123000000Y-125000000D03*
%TD*%
D11*
%TO.P,J4,S*%
%TO.N,GND*%
X133500000Y-90920000D03*
D12*
%TO.P,J4,T*%
%TO.N,Net-(J4-PadT)*%
X133500000Y-96000000D03*
%TO.P,J4,TN*%
%TO.N,GND*%
X133500000Y-93460000D03*
%TD*%
D13*
%TO.P,RV4,1,1*%
%TO.N,Net-(R8-Pad2)*%
X128580000Y-78500000D03*
%TO.P,RV4,2,2*%
X126040000Y-78500000D03*
%TO.P,RV4,3,3*%
%TO.N,GND*%
X123500000Y-78500000D03*
%TD*%
D10*
%TO.P,TH3,1*%
%TO.N,Net-(Q1-B)*%
X122500000Y-70500000D03*
%TO.P,TH3,2*%
%TO.N,Net-(R6-Pad1)*%
X127500000Y-70500000D03*
%TD*%
%TO.P,R16,1*%
%TO.N,Net-(U1D-+)*%
X140500000Y-111000000D03*
%TO.P,R16,2*%
%TO.N,Net-(R16-Pad2)*%
X140500000Y-100840000D03*
%TD*%
%TO.P,R7,1*%
%TO.N,Net-(R7-Pad1)*%
X156500000Y-63000000D03*
%TO.P,R7,2*%
%TO.N,Net-(J3-PadT)*%
X146340000Y-63000000D03*
%TD*%
D14*
%TO.P,Q2,1,C*%
%TO.N,Net-(D3-K)*%
X154000000Y-78000000D03*
D15*
%TO.P,Q2,2,B*%
%TO.N,Net-(Q1-E)*%
X154000000Y-79270000D03*
%TO.P,Q2,3,E*%
%TO.N,GND*%
X154000000Y-80540000D03*
%TD*%
D10*
%TO.P,C1,1*%
%TO.N,Net-(D3-K)*%
X141500000Y-85500000D03*
%TO.P,C1,2*%
%TO.N,GND*%
X136500000Y-85500000D03*
%TD*%
D16*
%TO.P,TP2,1,1*%
%TO.N,Net-(D3-K)*%
X142000000Y-70540000D03*
%TD*%
D10*
%TO.P,C7,1*%
%TO.N,GND*%
X128000000Y-133100000D03*
%TO.P,C7,2*%
%TO.N,+12V*%
X123000000Y-133100000D03*
%TD*%
%TO.P,R11,1*%
%TO.N,Net-(U1B--)*%
X146840000Y-89500000D03*
%TO.P,R11,2*%
%TO.N,Net-(R11-Pad2)*%
X157000000Y-89500000D03*
%TD*%
D17*
%TO.P,C3,1*%
%TO.N,+12V*%
X135000000Y-134000000D03*
D10*
%TO.P,C3,2*%
%TO.N,GND*%
X140000000Y-134000000D03*
%TD*%
%TO.P,R14,1*%
%TO.N,Net-(U1B--)*%
X146840000Y-97500000D03*
%TO.P,R14,2*%
%TO.N,Net-(R14-Pad2)*%
X157000000Y-97500000D03*
%TD*%
D11*
%TO.P,RV5,1,1*%
%TO.N,Net-(J4-PadT)*%
X137500000Y-90920000D03*
D12*
%TO.P,RV5,2,2*%
%TO.N,Net-(R11-Pad2)*%
X137500000Y-93460000D03*
%TO.P,RV5,3,3*%
X137500000Y-96000000D03*
%TD*%
D16*
%TO.P,TP4,1,1*%
%TO.N,Net-(U1B--)*%
X142000000Y-76000000D03*
%TD*%
D11*
%TO.P,J6,S*%
%TO.N,GND*%
X156580000Y-117500000D03*
D12*
%TO.P,J6,T*%
%TO.N,Net-(J6-PadT)*%
X151500000Y-117500000D03*
%TO.P,J6,TN*%
%TO.N,unconnected-(J6-PadTN)*%
X154040000Y-117500000D03*
%TD*%
D10*
%TO.P,R13,1*%
%TO.N,Net-(R13-Pad1)*%
X136500000Y-100840000D03*
%TO.P,R13,2*%
%TO.N,Net-(U1C--)*%
X136500000Y-111000000D03*
%TD*%
D11*
%TO.P,J2,S*%
%TO.N,GND*%
X137500000Y-58960000D03*
D12*
%TO.P,J2,T*%
%TO.N,Net-(J2-PadT)*%
X137500000Y-64040000D03*
%TO.P,J2,TN*%
%TO.N,GND*%
X137500000Y-61500000D03*
%TD*%
D10*
%TO.P,R17,1*%
%TO.N,GND*%
X144500000Y-100840000D03*
%TO.P,R17,2*%
%TO.N,Net-(U1D-+)*%
X144500000Y-111000000D03*
%TD*%
D18*
%TO.P,U1,1*%
%TO.N,Net-(U1A--)*%
X122500000Y-103500000D03*
D19*
%TO.P,U1,2,-*%
X122500000Y-106040000D03*
%TO.P,U1,3,+*%
%TO.N,Net-(D3-K)*%
X122500000Y-108580000D03*
%TO.P,U1,4,V+*%
%TO.N,+12V*%
X122500000Y-111120000D03*
%TO.P,U1,5,+*%
%TO.N,Net-(U1B-+)*%
X122500000Y-113660000D03*
%TO.P,U1,6,-*%
%TO.N,Net-(U1B--)*%
X122500000Y-116200000D03*
%TO.P,U1,7*%
%TO.N,Net-(R16-Pad2)*%
X122500000Y-118740000D03*
%TO.P,U1,8*%
%TO.N,Net-(R13-Pad1)*%
X130120000Y-118740000D03*
%TO.P,U1,9,-*%
%TO.N,Net-(U1C--)*%
X130120000Y-116200000D03*
%TO.P,U1,10,+*%
%TO.N,Net-(U1B-+)*%
X130120000Y-113660000D03*
%TO.P,U1,11,V-*%
%TO.N,-12V*%
X130120000Y-111120000D03*
%TO.P,U1,12,+*%
%TO.N,Net-(U1D-+)*%
X130120000Y-108580000D03*
%TO.P,U1,13,-*%
%TO.N,Net-(U1D--)*%
X130120000Y-106040000D03*
%TO.P,U1,14*%
X130120000Y-103500000D03*
%TD*%
D11*
%TO.P,RV6,1,1*%
%TO.N,-12V*%
X141500000Y-90920000D03*
D12*
%TO.P,RV6,2,2*%
%TO.N,Net-(R14-Pad2)*%
X141500000Y-93460000D03*
%TO.P,RV6,3,3*%
%TO.N,+12V*%
X141500000Y-96000000D03*
%TD*%
D20*
%TO.P,D3,1,K*%
%TO.N,Net-(D3-K)*%
X141500000Y-81000000D03*
D10*
%TO.P,D3,2,A*%
%TO.N,Net-(D3-A)*%
X133880000Y-81000000D03*
%TD*%
%TO.P,R3,1*%
%TO.N,Net-(R3-Pad1)*%
X146500000Y-52000000D03*
%TO.P,R3,2*%
%TO.N,-12V*%
X156660000Y-52000000D03*
%TD*%
%TO.P,R15,1*%
%TO.N,GND*%
X148500000Y-100840000D03*
%TO.P,R15,2*%
%TO.N,Net-(U1C--)*%
X148500000Y-111000000D03*
%TD*%
%TO.P,TH4,1*%
%TO.N,Net-(RV3-Pad1)*%
X150000000Y-66500000D03*
%TO.P,TH4,2*%
%TO.N,Net-(R7-Pad1)*%
X155000000Y-66500000D03*
%TD*%
D16*
%TO.P,TP3,1,1*%
%TO.N,Net-(U1B-+)*%
X137500000Y-76000000D03*
%TD*%
D11*
%TO.P,RV3,1,1*%
%TO.N,Net-(RV3-Pad1)*%
X149500000Y-70500000D03*
D12*
%TO.P,RV3,2,2*%
%TO.N,Net-(Q1-B)*%
X152040000Y-70500000D03*
%TO.P,RV3,3,3*%
X154580000Y-70500000D03*
%TD*%
D14*
%TO.P,Q1,1,C*%
%TO.N,-12V*%
X149500000Y-80540000D03*
D15*
%TO.P,Q1,2,B*%
%TO.N,Net-(Q1-B)*%
X149500000Y-79270000D03*
%TO.P,Q1,3,E*%
%TO.N,Net-(Q1-E)*%
X149500000Y-78000000D03*
%TD*%
D10*
%TO.P,R6,1*%
%TO.N,Net-(R6-Pad1)*%
X122340000Y-67000000D03*
%TO.P,R6,2*%
%TO.N,Net-(J2-PadT)*%
X132500000Y-67000000D03*
%TD*%
D21*
%TO.P,D2,1,K*%
%TO.N,Net-(D2-K)*%
X146000000Y-147160000D03*
D22*
%TO.P,D2,2,A*%
%TO.N,-12V*%
X146000000Y-137000000D03*
%TD*%
D16*
%TO.P,TP1,1,1*%
%TO.N,Net-(Q1-E)*%
X137500000Y-70540000D03*
%TD*%
D10*
%TO.P,C8,1*%
%TO.N,GND*%
X128000000Y-129050000D03*
%TO.P,C8,2*%
%TO.N,-12V*%
X123000000Y-129050000D03*
%TD*%
D17*
%TO.P,C4,1*%
%TO.N,GND*%
X135000000Y-144500000D03*
D10*
%TO.P,C4,2*%
%TO.N,-12V*%
X140000000Y-144500000D03*
%TD*%
%TO.P,R1,1*%
%TO.N,+12V*%
X122500000Y-60000000D03*
%TO.P,R1,2*%
%TO.N,Net-(R1-Pad2)*%
X132660000Y-60000000D03*
%TD*%
%TO.P,TH2,1*%
%TO.N,Net-(Q1-B)*%
X150000000Y-59500000D03*
%TO.P,TH2,2*%
%TO.N,Net-(R5-Pad1)*%
X155000000Y-59500000D03*
%TD*%
D11*
%TO.P,RV1,1,1*%
%TO.N,Net-(R2-Pad1)*%
X137500000Y-47460000D03*
D12*
%TO.P,RV1,2,2*%
%TO.N,Net-(R4-Pad2)*%
X137500000Y-50000000D03*
%TO.P,RV1,3,3*%
%TO.N,Net-(R1-Pad2)*%
X137500000Y-52540000D03*
%TD*%
D11*
%TO.P,J3,S*%
%TO.N,GND*%
X141500000Y-59000000D03*
D12*
%TO.P,J3,T*%
%TO.N,Net-(J3-PadT)*%
X141500000Y-64080000D03*
%TO.P,J3,TN*%
%TO.N,GND*%
X141500000Y-61540000D03*
%TD*%
D10*
%TO.P,R5,1*%
%TO.N,Net-(R5-Pad1)*%
X156660000Y-56000000D03*
%TO.P,R5,2*%
%TO.N,Net-(R5-Pad2)*%
X146500000Y-56000000D03*
%TD*%
%TO.P,C6,1*%
%TO.N,GND*%
X128000000Y-137150000D03*
%TO.P,C6,2*%
%TO.N,-12V*%
X123000000Y-137150000D03*
%TD*%
%TO.P,R10,1*%
%TO.N,GND*%
X146840000Y-85500000D03*
%TO.P,R10,2*%
%TO.N,Net-(U1B-+)*%
X157000000Y-85500000D03*
%TD*%
D11*
%TO.P,J5,S*%
%TO.N,GND*%
X146580000Y-117500000D03*
D12*
%TO.P,J5,T*%
%TO.N,Net-(J5-PadT)*%
X141500000Y-117500000D03*
%TO.P,J5,TN*%
%TO.N,unconnected-(J5-PadTN)*%
X144040000Y-117500000D03*
%TD*%
D10*
%TO.P,R12,1*%
%TO.N,GND*%
X146840000Y-93500000D03*
%TO.P,R12,2*%
%TO.N,Net-(U1B--)*%
X157000000Y-93500000D03*
%TD*%
%TO.P,R4,1*%
%TO.N,Net-(R4-Pad1)*%
X122500000Y-56000000D03*
%TO.P,R4,2*%
%TO.N,Net-(R4-Pad2)*%
X132660000Y-56000000D03*
%TD*%
%TO.P,R19,1*%
%TO.N,Net-(J6-PadT)*%
X152500000Y-111000000D03*
%TO.P,R19,2*%
%TO.N,Net-(U1D--)*%
X152500000Y-100840000D03*
%TD*%
%TO.P,C5,1*%
%TO.N,+12V*%
X128000000Y-141200000D03*
%TO.P,C5,2*%
%TO.N,GND*%
X123000000Y-141200000D03*
%TD*%
D21*
%TO.P,D1,1,K*%
%TO.N,+12V*%
X146000000Y-132500000D03*
D22*
%TO.P,D1,2,A*%
%TO.N,Net-(D1-A)*%
X146000000Y-122340000D03*
%TD*%
D18*
%TO.P,U2,1*%
%TO.N,Net-(D3-K)*%
X122500000Y-83500000D03*
D19*
%TO.P,U2,2*%
%TO.N,Net-(D3-A)*%
X122500000Y-86040000D03*
%TO.P,U2,3*%
%TO.N,GND*%
X122500000Y-88580000D03*
%TO.P,U2,4*%
%TO.N,unconnected-(U2-Pad4)*%
X122500000Y-91120000D03*
%TO.P,U2,5*%
%TO.N,GND*%
X122500000Y-93660000D03*
%TO.P,U2,6*%
%TO.N,unconnected-(U2-Pad6)*%
X122500000Y-96200000D03*
%TO.P,U2,7,VSS*%
%TO.N,GND*%
X122500000Y-98740000D03*
%TO.P,U2,8*%
%TO.N,unconnected-(U2-Pad8)*%
X130120000Y-98740000D03*
%TO.P,U2,9*%
%TO.N,GND*%
X130120000Y-96200000D03*
%TO.P,U2,10*%
%TO.N,unconnected-(U2-Pad10)*%
X130120000Y-93660000D03*
%TO.P,U2,11*%
%TO.N,GND*%
X130120000Y-91120000D03*
%TO.P,U2,12*%
%TO.N,unconnected-(U2-Pad12)*%
X130120000Y-88580000D03*
%TO.P,U2,13*%
%TO.N,GND*%
X130120000Y-86040000D03*
%TO.P,U2,14,VDD*%
%TO.N,+12V*%
X130120000Y-83500000D03*
%TD*%
D10*
%TO.P,R18,1*%
%TO.N,Net-(J5-PadT)*%
X156500000Y-100840000D03*
%TO.P,R18,2*%
%TO.N,Net-(R13-Pad1)*%
X156500000Y-111000000D03*
%TD*%
D11*
%TO.P,RV2,1,1*%
%TO.N,Net-(R3-Pad1)*%
X141500000Y-47420000D03*
D12*
%TO.P,RV2,2,2*%
%TO.N,Net-(R5-Pad2)*%
X141500000Y-49960000D03*
%TO.P,RV2,3,3*%
%TO.N,GND*%
X141500000Y-52500000D03*
%TD*%
D10*
%TO.P,R8,1*%
%TO.N,Net-(Q1-B)*%
X122500000Y-74000000D03*
%TO.P,R8,2*%
%TO.N,Net-(R8-Pad2)*%
X132660000Y-74000000D03*
%TD*%
D23*
%TO.P,J1,1,Pin_1*%
%TO.N,Net-(D2-K)*%
X154000000Y-128000000D03*
D12*
%TO.P,J1,2,Pin_2*%
X151460000Y-128000000D03*
%TO.P,J1,3,Pin_3*%
%TO.N,GND*%
X154000000Y-130540000D03*
%TO.P,J1,4,Pin_4*%
X151460000Y-130540000D03*
%TO.P,J1,5,Pin_5*%
X154000000Y-133080000D03*
%TO.P,J1,6,Pin_6*%
X151460000Y-133080000D03*
%TO.P,J1,7,Pin_7*%
X154000000Y-135620000D03*
%TO.P,J1,8,Pin_8*%
X151460000Y-135620000D03*
%TO.P,J1,9,Pin_9*%
%TO.N,Net-(D1-A)*%
X154000000Y-138160000D03*
%TO.P,J1,10,Pin_10*%
X151460000Y-138160000D03*
%TD*%
D24*
%TO.N,Net-(U1B-+)*%
X125801000Y-111000000D03*
%TO.N,-12V*%
X150000000Y-83500000D03*
%TO.N,Net-(U1B--)*%
X144000000Y-99000000D03*
X141500000Y-99000000D03*
X144500000Y-81500000D03*
%TO.N,Net-(R13-Pad1)*%
X142580000Y-106920000D03*
%TD*%
D25*
%TO.N,Net-(D3-K)*%
X135500000Y-83000000D02*
X139000000Y-83000000D01*
X121000000Y-107580000D02*
X121000000Y-84500000D01*
X122500000Y-84000000D02*
X123289211Y-84789211D01*
X134500000Y-69000000D02*
X136000000Y-67500000D01*
X121000000Y-84500000D02*
X122000000Y-83500000D01*
X122500000Y-108580000D02*
X122000000Y-108580000D01*
X122000000Y-83500000D02*
X122500000Y-83500000D01*
X142000000Y-70540000D02*
X146040000Y-70540000D01*
X134500000Y-77000000D02*
X134500000Y-69000000D01*
X153500000Y-78000000D02*
X154000000Y-78000000D01*
X123289211Y-84789211D02*
X133710789Y-84789211D01*
X138500000Y-81000000D02*
X134500000Y-77000000D01*
X146040000Y-70540000D02*
X153500000Y-78000000D01*
X136000000Y-67500000D02*
X138960000Y-67500000D01*
X138960000Y-67500000D02*
X142000000Y-70540000D01*
X141500000Y-85500000D02*
X141500000Y-81000000D01*
X122500000Y-83500000D02*
X122500000Y-84000000D01*
X133710789Y-84789211D02*
X135500000Y-83000000D01*
X139000000Y-83000000D02*
X141500000Y-85500000D01*
X141500000Y-81000000D02*
X138500000Y-81000000D01*
X122000000Y-108580000D02*
X121000000Y-107580000D01*
%TO.N,Net-(U1A--)*%
X130000000Y-124000000D02*
X125000000Y-119000000D01*
X122500000Y-106540000D02*
X122500000Y-106040000D01*
X135000000Y-124000000D02*
X130000000Y-124000000D01*
X125000000Y-109040000D02*
X122500000Y-106540000D01*
X122500000Y-103500000D02*
X122500000Y-106040000D01*
X125000000Y-119000000D02*
X125000000Y-109040000D01*
%TO.N,Net-(U1B-+)*%
X126960000Y-111000000D02*
X129620000Y-113660000D01*
X137500000Y-76000000D02*
X140000000Y-78500000D01*
X125801000Y-111000000D02*
X126960000Y-111000000D01*
X149500000Y-85500000D02*
X157000000Y-85500000D01*
X144000000Y-78500000D02*
X146500000Y-81000000D01*
X146500000Y-81000000D02*
X146500000Y-82500000D01*
X129620000Y-113660000D02*
X130120000Y-113660000D01*
X140000000Y-78500000D02*
X144000000Y-78500000D01*
X140000000Y-124000000D02*
X130120000Y-114120000D01*
X130120000Y-114120000D02*
X130120000Y-113660000D01*
X146500000Y-82500000D02*
X149500000Y-85500000D01*
%TO.N,+12V*%
X121000000Y-61500000D02*
X121000000Y-79000000D01*
X122500000Y-60000000D02*
X121000000Y-61500000D01*
X121000000Y-79000000D02*
X123940000Y-81940000D01*
X129620000Y-83500000D02*
X130120000Y-83500000D01*
D26*
X122500000Y-111120000D02*
X122500000Y-111620000D01*
X128000000Y-126968630D02*
X128000000Y-125000000D01*
X124000000Y-121000000D02*
X128000000Y-125000000D01*
D25*
X123940000Y-81940000D02*
X128060000Y-81940000D01*
D26*
X146000000Y-132500000D02*
X136500000Y-132500000D01*
X123000000Y-134865685D02*
X128000000Y-139865685D01*
X135000000Y-134200000D02*
X135000000Y-134000000D01*
X123000000Y-133100000D02*
X123000000Y-134865685D01*
X123000000Y-131968630D02*
X128000000Y-126968630D01*
D25*
X128060000Y-81940000D02*
X129620000Y-83500000D01*
D26*
X128000000Y-141200000D02*
X135000000Y-134200000D01*
X124000000Y-113120000D02*
X124000000Y-121000000D01*
X123000000Y-133100000D02*
X123000000Y-131968630D01*
X136500000Y-132500000D02*
X135000000Y-134000000D01*
X128000000Y-139865685D02*
X128000000Y-141200000D01*
X122500000Y-111620000D02*
X124000000Y-113120000D01*
%TO.N,-12V*%
X143000000Y-137000000D02*
X140000000Y-140000000D01*
X150000000Y-83500000D02*
X150000000Y-81040000D01*
X122500000Y-52000000D02*
X124000000Y-50500000D01*
X146000000Y-137000000D02*
X143000000Y-137000000D01*
X121000000Y-131050000D02*
X123000000Y-129050000D01*
X125000000Y-139150000D02*
X123000000Y-137150000D01*
D25*
X123000000Y-137150000D02*
X123000000Y-137757050D01*
D26*
X124000000Y-50500000D02*
X131000000Y-50500000D01*
X125000000Y-141000000D02*
X125000000Y-139150000D01*
X138500000Y-143000000D02*
X127000000Y-143000000D01*
X143000000Y-45000000D02*
X148500000Y-50500000D01*
X131000000Y-50500000D02*
X136500000Y-45000000D01*
X155160000Y-50500000D02*
X156660000Y-52000000D01*
X148500000Y-50500000D02*
X155160000Y-50500000D01*
X140000000Y-140000000D02*
X140000000Y-144500000D01*
X123000000Y-137150000D02*
X121000000Y-135150000D01*
X150000000Y-81040000D02*
X149500000Y-80540000D01*
X140000000Y-144500000D02*
X138500000Y-143000000D01*
X121000000Y-135150000D02*
X121000000Y-131050000D01*
X136500000Y-45000000D02*
X143000000Y-45000000D01*
X127000000Y-143000000D02*
X125000000Y-141000000D01*
%TO.N,Net-(D1-A)*%
X157000000Y-135660000D02*
X154500000Y-138160000D01*
X154500000Y-138160000D02*
X154000000Y-138160000D01*
X154000000Y-138160000D02*
X151460000Y-138160000D01*
X146000000Y-122340000D02*
X152840000Y-122340000D01*
X152840000Y-122340000D02*
X157000000Y-126500000D01*
X157000000Y-126500000D02*
X157000000Y-135660000D01*
%TO.N,Net-(D2-K)*%
X151460000Y-128020000D02*
X151460000Y-128000000D01*
X149000000Y-144160000D02*
X149000000Y-130480000D01*
X149000000Y-130480000D02*
X151460000Y-128020000D01*
X154000000Y-128000000D02*
X151460000Y-128000000D01*
X146000000Y-147160000D02*
X149000000Y-144160000D01*
D25*
%TO.N,Net-(J2-PadT)*%
X134540000Y-67000000D02*
X137500000Y-64040000D01*
X132500000Y-67000000D02*
X134540000Y-67000000D01*
%TO.N,Net-(J4-PadT)*%
X135500000Y-94000000D02*
X135500000Y-92920000D01*
X133500000Y-96000000D02*
X135500000Y-94000000D01*
X135500000Y-92920000D02*
X137500000Y-90920000D01*
%TO.N,Net-(J6-PadT)*%
X152500000Y-111000000D02*
X152500000Y-113500000D01*
X151500000Y-114500000D02*
X151500000Y-117500000D01*
X152500000Y-113500000D02*
X151500000Y-114500000D01*
%TO.N,Net-(Q1-B)*%
X127500000Y-66000000D02*
X131000000Y-69500000D01*
X125500000Y-73500000D02*
X122500000Y-70500000D01*
X129000000Y-73500000D02*
X125500000Y-73500000D01*
X122500000Y-74000000D02*
X122500000Y-70500000D01*
X132500000Y-63500000D02*
X127500000Y-63500000D01*
X137207635Y-56500000D02*
X135000000Y-58707635D01*
X144000000Y-56500000D02*
X137207635Y-56500000D01*
X150000000Y-59500000D02*
X147000000Y-59500000D01*
X131000000Y-69500000D02*
X131000000Y-71500000D01*
X127500000Y-63500000D02*
X127500000Y-66000000D01*
X152040000Y-61540000D02*
X152040000Y-70500000D01*
X135000000Y-58707635D02*
X135000000Y-61000000D01*
X149500000Y-79270000D02*
X149775000Y-79270000D01*
X147000000Y-59500000D02*
X144000000Y-56500000D01*
X131000000Y-71500000D02*
X129000000Y-73500000D01*
X135000000Y-61000000D02*
X132500000Y-63500000D01*
X152040000Y-70500000D02*
X154580000Y-70500000D01*
X150000000Y-59500000D02*
X152040000Y-61540000D01*
%TO.N,Net-(Q1-E)*%
X150225000Y-78000000D02*
X151495000Y-79270000D01*
X149500000Y-78000000D02*
X150225000Y-78000000D01*
X146840000Y-74500000D02*
X146040001Y-73700001D01*
X151495000Y-79270000D02*
X154000000Y-79270000D01*
X146040001Y-73700001D02*
X140660001Y-73700001D01*
X140660001Y-73700001D02*
X137500000Y-70540000D01*
X146840000Y-74500000D02*
X149500000Y-77160000D01*
X149500000Y-77160000D02*
X149500000Y-78000000D01*
%TO.N,Net-(R1-Pad2)*%
X137500000Y-54500000D02*
X132660000Y-59340000D01*
X137500000Y-52540000D02*
X137500000Y-54500000D01*
X132660000Y-59340000D02*
X132660000Y-60000000D01*
%TO.N,Net-(R2-Pad1)*%
X137500000Y-47460000D02*
X137200000Y-47460000D01*
X137200000Y-47460000D02*
X132660000Y-52000000D01*
%TO.N,Net-(R3-Pad1)*%
X141920000Y-47420000D02*
X141500000Y-47420000D01*
X146500000Y-52000000D02*
X141920000Y-47420000D01*
%TO.N,Net-(R4-Pad2)*%
X132660000Y-54840000D02*
X132660000Y-56000000D01*
X137500000Y-50000000D02*
X137500000Y-50727100D01*
X137500000Y-50000000D02*
X132660000Y-54840000D01*
X137500000Y-50000000D02*
X137500000Y-50160000D01*
%TO.N,Net-(R4-Pad1)*%
X124500000Y-58000000D02*
X124500000Y-61500000D01*
X124500000Y-61500000D02*
X122500000Y-63500000D01*
X122500000Y-56000000D02*
X124500000Y-58000000D01*
%TO.N,Net-(R5-Pad2)*%
X141500000Y-49960000D02*
X146500000Y-54960000D01*
X146500000Y-54960000D02*
X146500000Y-56000000D01*
%TO.N,Net-(R5-Pad1)*%
X156660000Y-56000000D02*
X156660000Y-57840000D01*
X156660000Y-57840000D02*
X155000000Y-59500000D01*
%TO.N,Net-(R6-Pad1)*%
X124000000Y-67000000D02*
X127500000Y-70500000D01*
X122340000Y-67000000D02*
X124000000Y-67000000D01*
%TO.N,Net-(R7-Pad1)*%
X156500000Y-65000000D02*
X155000000Y-66500000D01*
X156500000Y-63000000D02*
X156500000Y-65000000D01*
%TO.N,Net-(R8-Pad2)*%
X128580000Y-78080000D02*
X128580000Y-78500000D01*
X128580000Y-78500000D02*
X126040000Y-78500000D01*
X132660000Y-74000000D02*
X128580000Y-78080000D01*
%TO.N,Net-(R11-Pad2)*%
X137500000Y-93460000D02*
X139500000Y-91460000D01*
X147610330Y-98889670D02*
X151000000Y-95500000D01*
X144500000Y-91000000D02*
X144500000Y-97500000D01*
X157000000Y-91500000D02*
X157000000Y-89500000D01*
X139500000Y-91460000D02*
X139500000Y-90000000D01*
X157500000Y-95500000D02*
X158500000Y-94500000D01*
X144500000Y-97500000D02*
X145889670Y-98889670D01*
X139500000Y-90000000D02*
X140500000Y-89000000D01*
X151000000Y-95500000D02*
X157500000Y-95500000D01*
X142500000Y-89000000D02*
X144500000Y-91000000D01*
X145889670Y-98889670D02*
X147610330Y-98889670D01*
X140500000Y-89000000D02*
X142500000Y-89000000D01*
X158500000Y-94500000D02*
X158500000Y-93000000D01*
X137500000Y-96000000D02*
X137500000Y-93460000D01*
X158500000Y-93000000D02*
X157000000Y-91500000D01*
%TO.N,Net-(U1B--)*%
X144500000Y-81500000D02*
X144500000Y-87160000D01*
X146840000Y-97500000D02*
X145500000Y-96160000D01*
X157000000Y-93500000D02*
X150840000Y-93500000D01*
X141500000Y-99000000D02*
X144000000Y-99000000D01*
X145500000Y-96160000D02*
X145500000Y-90840000D01*
X144500000Y-87160000D02*
X146840000Y-89500000D01*
X150840000Y-93500000D02*
X146840000Y-97500000D01*
X145500000Y-90840000D02*
X146840000Y-89500000D01*
%TO.N,Net-(R13-Pad1)*%
X156500000Y-111000000D02*
X154000000Y-108500000D01*
X142580000Y-106920000D02*
X136500000Y-100840000D01*
X130120000Y-118740000D02*
X130317050Y-118740000D01*
X144160000Y-108500000D02*
X142580000Y-106920000D01*
X154000000Y-108500000D02*
X144160000Y-108500000D01*
%TO.N,Net-(U1C--)*%
X138500000Y-113000000D02*
X136500000Y-111000000D01*
X146500000Y-113000000D02*
X138500000Y-113000000D01*
X148500000Y-111000000D02*
X146500000Y-113000000D01*
%TO.N,Net-(R14-Pad2)*%
X145500000Y-99500000D02*
X143500000Y-97500000D01*
X148000000Y-99500000D02*
X145500000Y-99500000D01*
X157000000Y-97500000D02*
X150000000Y-97500000D01*
X143500000Y-95460000D02*
X141500000Y-93460000D01*
X150000000Y-97500000D02*
X148000000Y-99500000D01*
X143500000Y-97500000D02*
X143500000Y-95460000D01*
%TO.N,Net-(U1D-+)*%
X140500000Y-111000000D02*
X138080000Y-108580000D01*
X144500000Y-111000000D02*
X140500000Y-111000000D01*
X138080000Y-108580000D02*
X130120000Y-108580000D01*
%TO.N,Net-(U1D--)*%
X130120000Y-103500000D02*
X130500000Y-103500000D01*
X145000000Y-103500000D02*
X149840000Y-103500000D01*
X130500000Y-103500000D02*
X135000000Y-99000000D01*
X135000000Y-99000000D02*
X140500000Y-99000000D01*
X140500000Y-99000000D02*
X145000000Y-103500000D01*
X130120000Y-106040000D02*
X130120000Y-103500000D01*
X149840000Y-103500000D02*
X152500000Y-100840000D01*
%TO.N,Net-(RV3-Pad1)*%
X149500000Y-67000000D02*
X149500000Y-70500000D01*
X150000000Y-66500000D02*
X149500000Y-67000000D01*
%TO.N,Net-(J3-PadT)*%
X146340000Y-63000000D02*
X142580000Y-63000000D01*
X142580000Y-63000000D02*
X141500000Y-64080000D01*
%TD*%
M02*
